<?xml version="1.0" encoding="utf-8"?>
<!-- Generator: Adobe Illustrator 17.0.0, SVG Export Plug-In . SVG Version: 6.00 Build 0)  -->
<!DOCTYPE svg PUBLIC "-//W3C//DTD SVG 1.1//EN" "http://www.w3.org/Graphics/SVG/1.1/DTD/svg11.dtd">
<svg version="1.1" id="Layer_1" xmlns="http://www.w3.org/2000/svg" xmlns:xlink="http://www.w3.org/1999/xlink" x="0px" y="0px"
	 width="1900px" height="1125px" viewBox="0 0 1900 1125" enable-background="new 0 0 1900 1125" xml:space="preserve">
<g opacity="0.4">
	
		<image overflow="visible" enable-background="new    " width="8200" height="713" xlink:href="B39515D1.png"  transform="matrix(0.2398 0 0 0.2398 -29.2782 321.9853)">
	</image>
</g>
<linearGradient id="SVGID_1_" gradientUnits="userSpaceOnUse" x1="995.4667" y1="-934.8085" x2="1093.4581" y2="1210.116" gradientTransform="matrix(1 0 0 1 -92 514)">
	<stop  offset="0" style="stop-color:#13B8DB"/>
	<stop  offset="1" style="stop-color:#5CC8F1"/>
</linearGradient>
<rect x="-3" fill="url(#SVGID_1_)" width="1903" height="1129.84"/>
<g>
	
		<image overflow="visible" enable-background="new    " width="8229" height="1363" xlink:href="B39515D3.png"  transform="matrix(0.2398 0 0 0.2398 -173.1473 -458.2147)">
	</image>
</g>
<path opacity="0.1" fill="#096188" enable-background="new    " d="M2251.943,806.006c-0.089-0.001-0.174-0.013-0.263-0.013
	c-5.56,0-10.464,2.783-13.415,7.027c-2.049-9.556-10.536-16.724-20.705-16.724c-10.941,0-19.941,8.296-21.063,18.94l-0.275-0.06
	c-0.974-13.321-6.989-23.588-14.283-23.588c-2.777,0-5.362,1.513-7.563,4.089c-0.334-19.991-16.617-36.101-36.688-36.101
	c-20.28,0-36.719,16.44-36.719,36.719c0,5.919,1.434,11.492,3.921,16.443c-4.038-2.268-8.689-3.576-13.65-3.576
	c-15.426,0-27.932,12.505-27.932,27.932c0,0.531,0.05,1.049,0.079,1.573c-0.027,0-0.052-0.004-0.079-0.004
	c-9.824,0-17.926,7.288-19.248,16.748c-2.922-2.62-6.581-4.195-10.567-4.195c-9.533,0-17.261,8.922-17.261,19.929
	c0,2.312,0.358,4.522,0.986,6.587c-0.631-0.09-1.271-0.153-1.927-0.153c-5.624,0-10.44,3.442-12.468,8.333
	c-1.718-0.516-3.535-0.801-5.421-0.801c-10.4,0-18.83,8.431-18.83,18.83c0,10.4,8.431,18.83,18.83,18.83
	c3.716,0,7.17-1.087,10.085-2.945l244.457,2.426L2251.943,806.006L2251.943,806.006z"/>
<linearGradient id="SVGID_2_" gradientUnits="userSpaceOnUse" x1="902.833" y1="-381.5" x2="902.833" y2="-381.5" gradientTransform="matrix(1 0 0 1 -92 514)">
	<stop  offset="0.1345" style="stop-color:#8E9A4E"/>
	<stop  offset="0.5576" style="stop-color:#677B41"/>
</linearGradient>
<path fill="none" stroke="url(#SVGID_2_)" stroke-miterlimit="10" d="M810.833,132.5"/>
<linearGradient id="SVGID_3_" gradientUnits="userSpaceOnUse" x1="1185.2825" y1="-97.9779" x2="1191.6208" y2="40.7628" gradientTransform="matrix(0.9989 -0.0478 0.0478 0.9989 -129.107 486.2065)">
	<stop  offset="0" style="stop-color:#BCE6F7"/>
	<stop  offset="0.1989" style="stop-color:#B3DEED"/>
	<stop  offset="1" style="stop-color:#A9DFF5"/>
</linearGradient>
<path opacity="0.5" fill="url(#SVGID_3_)" enable-background="new    " d="M1119.496,374.116c-0.042,0.001-0.082-0.002-0.123,0
	c-2.603,0.125-4.836,1.537-6.122,3.59c-1.173-4.428-5.307-7.593-10.067-7.365c-5.122,0.245-9.149,4.33-9.436,9.338l-0.13-0.022
	c-0.754-6.214-3.8-10.886-7.214-10.722c-1.3,0.062-2.476,0.828-3.449,2.084c-0.604-9.351-8.587-16.528-17.983-16.078
	c-9.494,0.454-16.821,8.518-16.367,18.012c0.133,2.771,0.928,5.347,2.204,7.61c-1.941-0.971-4.147-1.479-6.47-1.368
	c-7.221,0.345-12.796,6.48-12.45,13.701c0.012,0.249,0.047,0.49,0.072,0.735c-0.012,0.001-0.025-0.001-0.037,0
	c-4.599,0.22-8.228,3.813-8.635,8.271c-1.426-1.161-3.175-1.816-5.041-1.727c-4.463,0.213-7.881,4.563-7.634,9.716
	c0.052,1.082,0.269,2.109,0.609,3.061c-0.297-0.028-0.598-0.043-0.906-0.029c-2.633,0.126-4.81,1.845-5.65,4.18
	c-0.816-0.203-1.673-0.296-2.556-0.253c-4.868,0.233-8.626,4.368-8.393,9.237c0.233,4.868,4.368,8.626,9.237,8.393
	c1.739-0.083,3.332-0.669,4.655-1.605l114.491-4.338L1119.496,374.116z"/>
<path fill="#E0F0F6" d="M1900,363.507c-1.143-0.195-2.314-0.308-3.513-0.308c-10.127,0-18.555,7.24-20.412,16.824
	c-2.653-2.905-6.459-4.738-10.703-4.738c-3.699,0-7.064,1.396-9.626,3.674c-1.735-2.232-4.438-3.674-7.484-3.674
	c-2.852,0-5.403,1.265-7.141,3.257c-2.467-4.671-7.367-7.858-13.017-7.858c-2.774,0-5.36,0.782-7.575,2.116
	c0.2-0.675,0.341-1.376,0.341-2.116c0-4.133-3.351-7.484-7.484-7.484c-2.132,0-4.044,0.901-5.407,2.331
	c-2.338-3.348-6.213-5.543-10.607-5.543c-6.51,0-11.883,4.815-12.787,11.075c-0.908-0.377-1.902-0.587-2.946-0.587
	c-4.172,0-7.56,3.324-7.68,7.467c-3.093-5.164-8.722-8.632-15.18-8.632c-2.92,0-5.669,0.719-8.098,1.971
	c-4.75-7.22-12.914-11.994-22.202-11.994c-11.343,0-20.999,7.12-24.811,17.125c-3.687-2.421-8.091-3.839-12.832-3.839
	c-8.698,0-16.271,4.752-20.312,11.79c-0.51-0.038-1.02-0.078-1.539-0.078c-8.257,0-15.356,4.901-18.587,11.945
	c-5.514-3.305-10.739-3.701-14.967-3.019c-2.674-3.907-7.153-6.479-12.246-6.479c-2.943,0-5.678,0.867-7.987,2.343
	c0.302-1.551,0.47-3.15,0.47-4.79c0-13.806-11.192-24.998-24.998-24.998c-10.203,0-18.963,6.121-22.848,14.884
	c-1.952-1.016-4.166-1.598-6.519-1.598c-7.82,0-14.159,6.339-14.159,14.159c0,2.276,0.55,4.418,1.504,6.323
	c-0.001,0-0.012,0-0.012,0l-0.217,0.284c-1.131-2.101-3.324-3.546-5.877-3.546c-1.939,0-3.672,0.837-4.895,2.153
	c-3.108-4.341-8.18-7.18-13.927-7.18c-8.951,0-16.288,6.868-17.055,15.62c-2.402-2.056-5.515-3.304-8.925-3.304
	c-3.77,0-7.183,1.52-9.666,3.978c-2.986-4.12-7.824-6.811-13.301-6.811c-6.471,0-12.052,3.75-14.731,9.186
	c-1.223-0.511-2.565-0.795-3.973-0.795c-4.202,0-7.81,2.517-9.418,6.122c-1.405-0.78-3.02-1.227-4.741-1.227
	c-2.939,0-5.568,1.301-7.363,3.352c-1.915-2.057-4.638-3.352-7.671-3.352c-0.918,0-1.803,0.13-2.652,0.351
	c-2.606-4.632-7.562-7.767-13.256-7.767c-4.977,0-9.382,2.402-12.157,6.098c-2.56-4.117-7.111-6.866-12.316-6.866
	c-3.366,0-6.456,1.157-8.918,3.08c-2.946-3.703-7.483-6.085-12.583-6.085c-8.147,0-14.862,6.064-15.92,13.921
	c-1.003-0.403-2.122-0.636-3.308-0.636c-0.651,0-1.279,0.075-1.883,0.203c-0.879-5.484-6.458-9.716-13.228-9.716
	c-3.888,0-7.377,1.404-9.819,3.63c-2.983-4.373-8.698-7.343-15.276-7.395c0-0.002,0-0.005,0-0.007
	c0-8.11-6.574-14.684-14.684-14.684c-8.036,0-14.556,6.459-14.673,14.468c-1.813-1.186-3.976-1.881-6.304-1.881
	c-3.905,0-7.35,1.945-9.438,4.914c-1.731-2.142-4.376-3.515-7.344-3.515c-1.674,0-3.243,0.44-4.606,1.204
	c0.034-0.398,0.061-0.797,0.061-1.204c0-7.723-6.261-13.985-13.985-13.985c-2.722,0-5.255,0.79-7.403,2.136
	c-0.62-7.345-6.767-13.116-14.273-13.116c-3.851,0-7.34,1.527-9.916,3.998c-3.42-6.803-10.445-11.482-18.578-11.482
	c-5.883,0-11.181,2.454-14.962,6.38c-4.364-6.463-11.756-10.713-20.141-10.713c-9.272,0-17.328,5.198-21.42,12.838
	c-0.539,0.893-1.034,1.817-1.461,2.778c-1.952-1.016-4.166-1.598-6.519-1.598c-7.82,0-14.159,6.339-14.159,14.159
	c0,2.276,0.55,4.418,1.504,6.323c-0.001,0-0.012,0-0.012,0l-0.217,0.284c-1.131-2.101-3.324-3.546-5.877-3.546
	c-1.939,0-3.672,0.837-4.895,2.153c-3.108-4.341-8.181-7.18-13.927-7.18c-8.951,0-16.288,6.868-17.055,15.62
	c-2.402-2.056-5.515-3.304-8.925-3.304c-3.77,0-7.183,1.52-9.666,3.978c-2.986-4.12-7.824-6.811-13.301-6.811
	c-6.471,0-12.052,3.75-14.731,9.186c-1.223-0.511-2.565-0.795-3.973-0.795c-4.202,0-7.81,2.517-9.418,6.122
	c-1.405-0.78-3.02-1.227-4.742-1.227c-2.939,0-5.568,1.301-7.363,3.352c-1.915-2.057-4.638-3.352-7.671-3.352
	c-0.918,0-1.803,0.13-2.652,0.351c-2.607-4.632-7.562-7.767-13.256-7.767c-3.907,0-7.458,1.485-10.148,3.909
	c-1.439-0.466-2.902-0.69-4.342-0.676c-2.598-2.477-6.109-4.002-9.983-4.002c-0.514,0-1.019,0.036-1.519,0.088
	c-0.618-3.034-2.044-5.261-4.211-6.057c-1.686-0.62-3.592-0.279-5.504,0.794c4.26-12.209-2.028-25.622-14.211-30.102
	c-12.309-4.527-25.958,1.782-30.485,14.092c-1.321,3.593-1.695,7.295-1.29,10.856c-1.945-2.278-4.476-4.11-7.487-5.217
	c-6.78-2.493-14.092-0.663-18.919,4.09c-2.659-3.765-7.035-6.231-11.994-6.231c-8.026,0-14.537,6.442-14.671,14.436
	c-0.025-0.006-0.051-0.008-0.077-0.014c-1.798-1.157-3.933-1.836-6.229-1.836c-3.905,0-7.35,1.945-9.438,4.914
	c-1.731-2.142-4.376-3.515-7.344-3.515c-1.674,0-3.243,0.44-4.606,1.204c0.034-0.398,0.061-0.797,0.061-1.204
	c0-7.724-6.261-13.985-13.985-13.985c-2.722,0-5.255,0.79-7.403,2.136c-0.619-7.345-6.767-13.116-14.273-13.116
	c-3.851,0-7.34,1.527-9.915,3.998c-3.42-6.803-10.445-11.482-18.578-11.482c-10.127,0-18.555,7.24-20.412,16.824
	c-2.653-2.905-6.459-4.738-10.703-4.738c-3.699,0-7.064,1.396-9.627,3.674c-1.735-2.232-4.438-3.674-7.484-3.674
	c-2.852,0-5.403,1.265-7.141,3.257c-2.467-4.671-7.367-7.858-13.017-7.858c-2.774,0-5.36,0.782-7.575,2.116
	c0.2-0.675,0.341-1.376,0.341-2.116c0-4.133-3.351-7.484-7.484-7.484c-2.132,0-4.044,0.901-5.407,2.331
	c-2.338-3.348-6.213-5.543-10.607-5.543c-6.511,0-11.883,4.815-12.787,11.075c-0.908-0.377-1.902-0.587-2.946-0.587
	c-4.172,0-7.56,3.324-7.68,7.467c-3.093-5.164-8.722-8.632-15.18-8.632c-2.92,0-5.669,0.719-8.097,1.971
	c-4.75-7.22-12.914-11.994-22.202-11.994c-11.343,0-20.999,7.12-24.811,17.125c-3.687-2.421-8.091-3.839-12.831-3.839
	c-8.698,0-16.272,4.752-20.312,11.79c-0.51-0.038-1.019-0.078-1.539-0.078c-8.257,0-15.356,4.901-18.587,11.945
	c-5.514-3.305-10.739-3.701-14.967-3.019c-2.674-3.907-7.153-6.479-12.246-6.479c-2.943,0-5.678,0.867-7.987,2.343
	c0.301-1.551,0.47-3.15,0.47-4.79c0-13.806-11.192-24.997-24.997-24.997c-10.203,0-18.963,6.121-22.848,14.884
	c-1.953-1.016-4.166-1.598-6.519-1.598c-7.82,0-14.159,6.339-14.159,14.159c0,2.276,0.55,4.418,1.504,6.323
	c-0.001,0-0.012,0-0.012,0l-0.217,0.284c-1.131-2.101-3.324-3.546-5.877-3.546c-1.939,0-3.672,0.837-4.895,2.153
	c-3.108-4.341-8.181-7.18-13.927-7.18c-8.951,0-16.288,6.868-17.055,15.62c-2.402-2.056-5.515-3.304-8.925-3.304
	c-3.77,0-7.183,1.52-9.666,3.978c-2.986-4.12-7.824-6.811-13.301-6.811c-6.471,0-12.052,3.75-14.731,9.186
	c-1.223-0.511-2.565-0.795-3.973-0.795c-4.202,0-7.81,2.517-9.418,6.122c-1.405-0.78-3.02-1.227-4.742-1.227
	c-2.939,0-5.568,1.301-7.363,3.352c-1.915-2.057-4.638-3.352-7.671-3.352c-0.918,0-1.803,0.13-2.652,0.351
	c-2.606-4.632-7.562-7.767-13.256-7.767c-4.977,0-9.382,2.402-12.157,6.098c-2.56-4.117-7.111-6.866-12.316-6.866
	c-3.366,0-6.456,1.157-8.918,3.08c-2.946-3.703-7.483-6.085-12.583-6.085c-8.147,0-14.862,6.064-15.92,13.921
	c-1.003-0.403-2.122-0.636-3.308-0.636c-0.651,0-1.279,0.075-1.883,0.203c-0.879-5.484-6.459-9.716-13.228-9.716
	c-3.888,0-7.377,1.404-9.819,3.63c-2.983-4.373-8.698-7.343-15.276-7.395c0-0.002,0-0.005,0-0.007
	c0-8.11-6.574-14.684-14.684-14.684c-8.037,0-14.556,6.459-14.673,14.467c-1.813-1.186-3.976-1.881-6.304-1.881
	c-3.905,0-7.35,1.945-9.438,4.914c-1.731-2.142-4.376-3.515-7.344-3.515c-1.674,0-3.243,0.44-4.606,1.204
	c0.034-0.398,0.061-0.797,0.061-1.204c0-7.724-6.261-13.985-13.985-13.985c-2.722,0-5.255,0.79-7.403,2.136
	c-0.619-7.345-6.767-13.116-14.273-13.116c-3.851,0-7.34,1.527-9.916,3.998c-3.42-6.803-10.445-11.482-18.578-11.482
	c-10.127,0-18.555,7.24-20.412,16.824c-1.362-1.491-3.029-2.697-4.903-3.521v78.169h614.844h2.545H863.93l2.707,1.026h98.061
	l0.377-1.026h195.494v-0.311h613.379h2.545H1900V363.507z"/>
<rect x="-3" y="455" fill="#13B7D9" width="1902.81" height="671.126"/>
</svg>
