<?xml version="1.0" encoding="utf-8"?>
<!-- Generator: Adobe Illustrator 17.0.0, SVG Export Plug-In . SVG Version: 6.00 Build 0)  -->
<!DOCTYPE svg PUBLIC "-//W3C//DTD SVG 1.1//EN" "http://www.w3.org/Graphics/SVG/1.1/DTD/svg11.dtd">
<svg version="1.1" id="Layer_1" xmlns="http://www.w3.org/2000/svg" xmlns:xlink="http://www.w3.org/1999/xlink" x="0px" y="0px"
	 width="1900px" height="1125px" viewBox="0 0 1900 1125" enable-background="new 0 0 1900 1125" xml:space="preserve">
<linearGradient id="SVGID_1_" gradientUnits="userSpaceOnUse" x1="397.4667" y1="-549.3085" x2="495.4582" y2="1595.616" gradientTransform="matrix(1 0 0 1 508 126.5)">
	<stop  offset="0" style="stop-color:#17B8DB"/>
	<stop  offset="1" style="stop-color:#5FC8F2"/>
</linearGradient>
<rect x="-1" y="-2" fill="url(#SVGID_1_)" width="1903" height="1129.84"/>
<linearGradient id="SVGID_2_" gradientUnits="userSpaceOnUse" x1="582.3777" y1="395.9647" x2="588.717" y2="534.7216" gradientTransform="matrix(0.9989 -0.0478 0.0478 0.9989 451.7349 70.4761)">
	<stop  offset="0" style="stop-color:#BDE6F7"/>
	<stop  offset="0.1989" style="stop-color:#B5DEED"/>
	<stop  offset="1" style="stop-color:#ABE0F5"/>
</linearGradient>
<path opacity="0.5" fill="url(#SVGID_2_)" enable-background="new    " d="M1121.814,480.606c-0.042,0.001-0.082-0.002-0.123,0
	c-2.607,0.125-4.844,1.537-6.132,3.59c-1.175-4.428-5.316-7.593-10.084-7.365c-5.131,0.245-9.165,4.33-9.452,9.338l-0.13-0.022
	c-0.755-6.214-3.807-10.886-7.226-10.722c-1.302,0.062-2.48,0.828-3.455,2.084c-0.605-9.351-8.602-16.528-18.014-16.078
	c-9.51,0.454-16.85,8.518-16.395,18.012c0.133,2.771,0.93,5.347,2.208,7.61c-1.944-0.971-4.154-1.479-6.481-1.368
	c-7.233,0.345-12.818,6.48-12.471,13.701c0.012,0.249,0.047,0.49,0.072,0.735c-0.012,0.001-0.025-0.001-0.037,0
	c-4.607,0.22-8.242,3.813-8.65,8.271c-1.428-1.161-3.18-1.816-5.05-1.727c-4.471,0.213-7.894,4.563-7.647,9.716
	c0.052,1.082,0.269,2.109,0.61,3.061c-0.298-0.028-0.599-0.043-0.908-0.029c-2.637,0.126-4.818,1.845-5.66,4.18
	c-0.817-0.203-1.676-0.296-2.56-0.253c-4.876,0.233-8.641,4.368-8.407,9.237c0.233,4.868,4.375,8.626,9.253,8.393
	c1.742-0.083,3.338-0.669,4.663-1.605l114.686-4.338L1121.814,480.606z"/>
<path fill="#DFF0F5" d="M1900.642,469.997c-1.145-0.195-2.318-0.308-3.519-0.308c-10.144,0-18.587,7.24-20.447,16.824
	c-2.657-2.905-6.47-4.738-10.721-4.738c-3.705,0-7.076,1.396-9.642,3.674c-1.738-2.232-4.446-3.674-7.497-3.674
	c-2.857,0-5.412,1.265-7.153,3.257c-2.471-4.671-7.38-7.858-13.039-7.858c-2.779,0-5.369,0.782-7.588,2.116
	c0.2-0.675,0.342-1.376,0.342-2.116c0-4.133-3.357-7.484-7.497-7.484c-2.136,0-4.051,0.901-5.416,2.331
	c-2.342-3.348-6.224-5.543-10.625-5.543c-6.521,0-11.903,4.815-12.809,11.075c-0.91-0.377-1.905-0.587-2.951-0.587
	c-4.179,0-7.573,3.324-7.693,7.467c-3.098-5.164-8.737-8.632-15.206-8.632c-2.925,0-5.679,0.719-8.112,1.971
	c-4.758-7.22-12.936-11.994-22.24-11.994c-11.362,0-21.035,7.12-24.853,17.125c-3.693-2.421-8.105-3.839-12.854-3.839
	c-8.713,0-16.299,4.752-20.347,11.79c-0.511-0.038-1.022-0.078-1.542-0.078c-8.271,0-15.382,4.901-18.619,11.945
	c-5.523-3.305-10.757-3.701-14.993-3.019c-2.678-3.907-7.165-6.479-12.267-6.479c-2.948,0-5.688,0.867-8.001,2.343
	c0.302-1.551,0.471-3.15,0.471-4.79c0-13.806-11.211-24.998-25.041-24.998c-10.22,0-18.995,6.121-22.887,14.884
	c-1.955-1.016-4.173-1.598-6.53-1.598c-7.833,0-14.183,6.339-14.183,14.159c0,2.276,0.551,4.418,1.507,6.323
	c-0.001,0-0.012,0-0.012,0l-0.217,0.284c-1.133-2.101-3.33-3.546-5.887-3.546c-1.942,0-3.678,0.837-4.903,2.153
	c-3.113-4.341-8.194-7.18-13.951-7.18c-8.966,0-16.316,6.868-17.084,15.62c-2.406-2.056-5.524-3.304-8.94-3.304
	c-3.776,0-7.195,1.52-9.682,3.978c-2.991-4.12-7.837-6.811-13.324-6.811c-6.482,0-12.073,3.75-14.756,9.186
	c-1.225-0.511-2.569-0.795-3.98-0.795c-4.209,0-7.823,2.517-9.434,6.122c-1.407-0.78-3.025-1.227-4.749-1.227
	c-2.944,0-5.578,1.301-7.376,3.352c-1.918-2.057-4.646-3.352-7.684-3.352c-0.919,0-1.806,0.13-2.656,0.351
	c-2.61-4.632-7.575-7.767-13.279-7.767c-4.985,0-9.398,2.402-12.178,6.098c-2.564-4.117-7.123-6.866-12.337-6.866
	c-3.372,0-6.467,1.157-8.933,3.08c-2.951-3.703-7.496-6.085-12.604-6.085c-8.161,0-14.887,6.064-15.947,13.921
	c-1.005-0.403-2.126-0.636-3.314-0.636c-0.652,0-1.281,0.075-1.886,0.203c-0.88-5.484-6.469-9.716-13.25-9.716
	c-3.895,0-7.39,1.404-9.836,3.63c-2.988-4.373-8.713-7.343-15.302-7.395c0-0.002,0-0.005,0-0.007c0-8.11-6.585-14.684-14.709-14.684
	c-8.05,0-14.581,6.459-14.698,14.468c-1.816-1.186-3.983-1.881-6.315-1.881c-3.912,0-7.362,1.945-9.454,4.914
	c-1.734-2.142-4.383-3.515-7.357-3.515c-1.677,0-3.249,0.44-4.614,1.204c0.034-0.398,0.061-0.797,0.061-1.204
	c0-7.723-6.272-13.985-14.009-13.985c-2.727,0-5.264,0.79-7.416,2.136c-0.621-7.345-6.778-13.116-14.297-13.116
	c-3.857,0-7.352,1.527-9.933,3.998c-3.426-6.803-10.463-11.482-18.61-11.482c-5.893,0-11.2,2.454-14.988,6.38
	c-4.371-6.463-11.776-10.713-20.175-10.713c-9.288,0-17.358,5.198-21.457,12.838c-0.54,0.893-1.036,1.817-1.464,2.778
	c-1.955-1.016-4.173-1.598-6.53-1.598c-7.833,0-14.183,6.339-14.183,14.159c0,2.276,0.551,4.418,1.507,6.323
	c-0.001,0-0.012,0-0.012,0l-0.217,0.284c-1.133-2.101-3.33-3.546-5.887-3.546c-1.942,0-3.678,0.837-4.903,2.153
	c-3.113-4.341-8.195-7.18-13.951-7.18c-8.966,0-16.316,6.868-17.084,15.62c-2.406-2.056-5.524-3.304-8.94-3.304
	c-3.776,0-7.195,1.52-9.682,3.978c-2.991-4.12-7.837-6.811-13.324-6.811c-6.482,0-12.073,3.75-14.756,9.186
	c-1.225-0.511-2.569-0.795-3.98-0.795c-4.209,0-7.823,2.517-9.434,6.122c-1.407-0.78-3.025-1.227-4.75-1.227
	c-2.944,0-5.577,1.301-7.375,3.352c-1.918-2.057-4.646-3.352-7.684-3.352c-0.92,0-1.806,0.13-2.656,0.351
	c-2.611-4.632-7.575-7.767-13.279-7.767c-3.914,0-7.471,1.485-10.165,3.909c-1.442-0.466-2.907-0.69-4.349-0.676
	c-2.602-2.477-6.119-4.002-10-4.002c-0.515,0-1.021,0.036-1.522,0.088c-0.619-3.034-2.048-5.261-4.218-6.057
	c-1.689-0.62-3.598-0.279-5.513,0.794c4.267-12.209-2.031-25.622-14.235-30.102c-12.33-4.527-26.002,1.782-30.537,14.092
	c-1.323,3.593-1.698,7.295-1.292,10.856c-1.948-2.278-4.484-4.11-7.5-5.217c-6.792-2.493-14.116-0.663-18.951,4.09
	c-2.664-3.765-7.047-6.231-12.014-6.231c-8.04,0-14.562,6.442-14.696,14.436c-0.025-0.006-0.051-0.008-0.077-0.014
	c-1.801-1.157-3.94-1.836-6.24-1.836c-3.912,0-7.362,1.945-9.454,4.914c-1.734-2.142-4.383-3.515-7.357-3.515
	c-1.677,0-3.248,0.44-4.614,1.204c0.034-0.398,0.061-0.797,0.061-1.204c0-7.724-6.272-13.985-14.009-13.985
	c-2.727,0-5.264,0.79-7.416,2.136c-0.62-7.345-6.779-13.116-14.297-13.116c-3.858,0-7.352,1.527-9.932,3.998
	c-3.426-6.803-10.463-11.482-18.61-11.482c-10.144,0-18.587,7.24-20.447,16.824c-2.658-2.905-6.47-4.738-10.721-4.738
	c-3.705,0-7.076,1.396-9.643,3.674c-1.738-2.232-4.445-3.674-7.497-3.674c-2.857,0-5.412,1.265-7.153,3.257
	c-2.471-4.671-7.38-7.858-13.039-7.858c-2.779,0-5.369,0.782-7.588,2.116c0.2-0.675,0.342-1.376,0.342-2.116
	c0-4.133-3.357-7.484-7.497-7.484c-2.136,0-4.051,0.901-5.416,2.331c-2.342-3.348-6.224-5.543-10.625-5.543
	c-6.522,0-11.903,4.815-12.809,11.075c-0.91-0.377-1.905-0.587-2.951-0.587c-4.179,0-7.573,3.324-7.693,7.467
	c-3.098-5.164-8.737-8.632-15.206-8.632c-2.925,0-5.679,0.719-8.111,1.971c-4.758-7.22-12.936-11.994-22.24-11.994
	c-11.362,0-21.035,7.12-24.853,17.125c-3.693-2.421-8.105-3.839-12.853-3.839c-8.713,0-16.3,4.752-20.347,11.79
	c-0.511-0.038-1.021-0.078-1.542-0.078c-8.271,0-15.382,4.901-18.619,11.945c-5.523-3.305-10.757-3.701-14.992-3.019
	c-2.679-3.907-7.165-6.479-12.267-6.479c-2.948,0-5.688,0.867-8.001,2.343c0.302-1.551,0.471-3.15,0.471-4.79
	c0-13.806-11.211-24.997-25.04-24.997c-10.22,0-18.995,6.121-22.887,14.884c-1.956-1.016-4.173-1.598-6.53-1.598
	c-7.833,0-14.183,6.339-14.183,14.159c0,2.276,0.551,4.418,1.507,6.323c-0.001,0-0.012,0-0.012,0l-0.217,0.284
	c-1.133-2.101-3.33-3.546-5.887-3.546c-1.942,0-3.678,0.837-4.903,2.153c-3.113-4.341-8.195-7.18-13.951-7.18
	c-8.966,0-16.316,6.868-17.084,15.62c-2.406-2.056-5.524-3.304-8.94-3.304c-3.776,0-7.195,1.52-9.682,3.978
	c-2.991-4.12-7.837-6.811-13.324-6.811c-6.482,0-12.073,3.75-14.756,9.186c-1.225-0.511-2.569-0.795-3.98-0.795
	c-4.209,0-7.823,2.517-9.434,6.122c-1.407-0.78-3.025-1.227-4.75-1.227c-2.944,0-5.577,1.301-7.376,3.352
	c-1.918-2.057-4.646-3.352-7.684-3.352c-0.92,0-1.806,0.13-2.657,0.351c-2.61-4.632-7.575-7.767-13.279-7.767
	c-4.985,0-9.398,2.402-12.178,6.098c-2.564-4.117-7.123-6.866-12.337-6.866c-3.372,0-6.467,1.157-8.933,3.08
	c-2.951-3.703-7.496-6.085-12.604-6.085c-8.161,0-14.887,6.064-15.947,13.921c-1.005-0.403-2.126-0.636-3.314-0.636
	c-0.652,0-1.281,0.075-1.886,0.203c-0.88-5.484-6.47-9.716-13.251-9.716c-3.895,0-7.39,1.404-9.836,3.63
	c-2.988-4.373-8.713-7.343-15.302-7.395c0-0.002,0-0.005,0-0.007c0-8.11-6.585-14.684-14.709-14.684
	c-8.051,0-14.581,6.459-14.698,14.467c-1.816-1.186-3.983-1.881-6.315-1.881c-3.912,0-7.363,1.945-9.454,4.914
	c-1.734-2.142-4.383-3.515-7.357-3.515c-1.677,0-3.249,0.44-4.614,1.204c0.034-0.398,0.061-0.797,0.061-1.204
	c0-7.724-6.272-13.985-14.009-13.985c-2.727,0-5.264,0.79-7.416,2.136c-0.62-7.345-6.779-13.116-14.297-13.116
	c-3.858,0-7.353,1.527-9.933,3.998c-3.426-6.803-10.463-11.482-18.61-11.482c-10.144,0-18.587,7.24-20.447,16.824
	c-1.364-1.491-3.034-2.697-4.911-3.521v78.169H618.95h2.549h241.309l2.712,1.026h98.228l0.378-1.026h195.827v-0.311h614.424h2.549
	h123.717V469.997z"/>
<rect x="0.416" y="553.823" fill="#15B7D9" width="1902.81" height="571.176"/>
</svg>
