<svg version="1.1" id="BkrNAR-AM" xmlns="http://www.w3.org/2000/svg" xmlns:xlink="http://www.w3.org/1999/xlink" x="0px" y="0px" viewBox="0 0 600 350" enable-background="new 0 0 700 350" xml:space="preserve"  width="710px" height="355px"><style>@-webkit-keyframes S1TBBECA-Cz_Animation{0%{opacity: 0;}20%{opacity: 1;}100%{opacity: 1;}}@keyframes S1TBBECA-Cz_Animation{0%{opacity: 0;}20%{opacity: 1;}100%{opacity: 1;}}@-webkit-keyframes SkrSHERCb0f_Animation{0%{opacity: 1;}6.67%{opacity: 0;}16.67%{opacity: 1;}100%{opacity: 1;}}@keyframes SkrSHERCb0f_Animation{0%{opacity: 1;}6.67%{opacity: 0;}16.67%{opacity: 1;}100%{opacity: 1;}}@-webkit-keyframes ry6VH4AAb0f_B1NwykfRz_Animation{10%{-webkit-transform: translate(0px, 20px);transform: translate(0px, 20px);}13.33%{-webkit-transform: translate(0px, 30px);transform: translate(0px, 30px);}16.67%{-webkit-transform: translate(0px, 40px);transform: translate(0px, 40px);}20%{-webkit-transform: translate(0px, 50px);transform: translate(0px, 50px);}0%{-webkit-transform: translate(0px, 20px);transform: translate(0px, 20px);}100%{-webkit-transform: translate(0px, 50px);transform: translate(0px, 50px);}}@keyframes ry6VH4AAb0f_B1NwykfRz_Animation{10%{-webkit-transform: translate(0px, 20px);transform: translate(0px, 20px);}13.33%{-webkit-transform: translate(0px, 30px);transform: translate(0px, 30px);}16.67%{-webkit-transform: translate(0px, 40px);transform: translate(0px, 40px);}20%{-webkit-transform: translate(0px, 50px);transform: translate(0px, 50px);}0%{-webkit-transform: translate(0px, 20px);transform: translate(0px, 20px);}100%{-webkit-transform: translate(0px, 50px);transform: translate(0px, 50px);}}@-webkit-keyframes HyEVBEACbAG_Animation{0%{opacity: 0;}6.67%{opacity: 1;}16.67%{opacity: 0;}100%{opacity: 0;}}@keyframes HyEVBEACbAG_Animation{0%{opacity: 0;}6.67%{opacity: 1;}16.67%{opacity: 0;}100%{opacity: 0;}}@-webkit-keyframes ry6VH4AAb0f_Animation{0%{opacity: 0;}6.67%{opacity: 1;}100%{opacity: 1;}}@keyframes ry6VH4AAb0f_Animation{0%{opacity: 0;}6.67%{opacity: 1;}100%{opacity: 1;}}@-webkit-keyframes B1kgBE0CZ0f_H1L6AC-Cz_Animation{0%{-webkit-transform: translate(-5px, 0px);transform: translate(-5px, 0px);}100%{-webkit-transform: translate(-5px, 0px);transform: translate(-5px, 0px);}}@keyframes B1kgBE0CZ0f_H1L6AC-Cz_Animation{0%{-webkit-transform: translate(-5px, 0px);transform: translate(-5px, 0px);}100%{-webkit-transform: translate(-5px, 0px);transform: translate(-5px, 0px);}}@-webkit-keyframes By6BER0b0f_HyCoCAZ0z_Animation{0%{-webkit-transform: translate(-10px, 0px);transform: translate(-10px, 0px);}100%{-webkit-transform: translate(-10px, 0px);transform: translate(-10px, 0px);}}@keyframes By6BER0b0f_HyCoCAZ0z_Animation{0%{-webkit-transform: translate(-10px, 0px);transform: translate(-10px, 0px);}100%{-webkit-transform: translate(-10px, 0px);transform: translate(-10px, 0px);}}#BkrNAR-AM *{-webkit-animation-duration: 3s;animation-duration: 3s;-webkit-animation-iteration-count: infinite;animation-iteration-count: infinite;-webkit-animation-timing-function: cubic-bezier(0, 0, 1, 1);animation-timing-function: cubic-bezier(0, 0, 1, 1);}#BJ-HE00ZRM{opacity: 0.8;fill: #A1D7EA;}#SJmHVC0ZCM{fill: #3A8580;}#rJVBE0C-Az{fill: #3A8580;}#B1BS4CAZAf{fill: #116E39;}#Bk8HN0CW0f{fill: #0C562C;}#r1OH40AW0f{fill: #DBC66A;}#SJYS400WAG{opacity: 0.8;fill: #AE9330;}#S19r4R0b0M{fill: #DBC66A;}#SJsHVACbAM{opacity: 0.8;}#rJhrVC0bCf{fill: #A1D7EA;}#By6BER0b0f{fill: #A1D7EA;}#S10SV00-RM{fill: #A1D7EA;}#B1kgBE0CZ0f{opacity: 0.8;fill: #A1D7EA;}#rJxgSNCAWCf{opacity: 0.8;fill: #A1D7EA;}#S1GgrVCRZ0f{opacity: 0.3;fill: #AE9330;}#BkQeH40AZ0z{fill: #FCB667;}#S1reHER0WAf{fill: #F6A859;}#SJ_lrNCC-AG{fill: #FCB763;}#H1YgHVRA-RG{fill: #91351F;}#ryjxrVCCbAM{fill: #67150F;}#HJheSNARZ0G{fill: #FEF4F8;}#rJTeSN00bCM{fill: #D06128;}#H1JZr4AAbAG{fill: #91351F;}#Syl-HV0RbRG{fill: #3C2118;}#rybZr40AbRz{fill: #6F3C2F;}#r1MbBN00-AG{fill: #6F3C2F;}#rJXZHNRCZRM{fill: #F49D4E;}#SJHZrVCCZCM{fill: #91351F;}#rkLWHNARWCG{fill: #91351F;}#HywbBNACbCf{fill: #FCB763;}#r1YWHNA0b0G{fill: none;stroke: #F49D4E;stroke-width: 0.25;}#Bk5ZBERC-Rf{fill: none;stroke: #F49D4E;stroke-width: 0.25;}#Skj-rE0CbRf{fill: #EE843E;}#H1nbrVC0-Af{fill: #EE843E;}#ByTZBVCCWAz{fill: #F49D4E;}#ByRbSECCZRf{fill: #E46528;}#r1gzSECR-0f{fill: #CE5327;}#HyWGSVACZ0f{fill: #CE5327;}#H1mGBVCA-AG{fill: #CE5327;}#HkVfSNRRWCM{fill: #CE5327;}#r1rfHE0Cb0f{fill: #CE5327;}#BJIzrVRRb0z{fill: #D75427;}#rJufSER0ZCM{fill: #F9FAFD;}#HyYMrEARWCG{fill: #F9FAFD;}#rJsfSNRAZ0G{fill: #F9FAFD;}#rk2fHVAC-0M{fill: #F9FAFD;}#Bk6MBE0RbAG{fill: #F9FAFD;}#ry0MrE00-CM{fill: #D75427;}#BykmrNR0W0z{fill: #D75427;}#S1lQBECAbRG{fill: #E46528;}#rkbQrN00ZRM{fill: #F49D4E;}#ryQXBVARZCf{fill: #FCB667;}#B1VmrN0RW0G{fill: #F49D4E;}#H1UmBNCRWAz{fill: #FCB667;}#HJD7S4RA-Cz{fill: #F49D4E;}#HytXHEA0ZRf{fill: #FCD235;}#rJsQS4AC-0z{fill: #DAAC27;}#By3XSEA0-0z{fill: #DAAC27;}#SJ0QSNCCWAM{fill: #E46528;}#HkyVrVCCbAM{fill: #E46528;}#rkZVB4AAZRz{fill: #E46528;}#ByG4BEARW0M{fill: #E46528;}#HkQ4BNARWCf{fill: #E46528;}#S1rNH40AZ0G{fill: #FCB667;}#H1wNH4CRZAf{fill: #FCB667;}#SJ_4HV0CW0z{fill: #FCB667;}#ryqErVAC-0z{fill: #EF953B;}#SyiESVRRW0f{fill: #FCB667;}#ryyHr40R-Rz{fill: #EEB349;}#BkgrrVR0bAz{fill: #CD8329;}#HyMSBERAbRf{fill: #A06427;}#HkmHr4CC-0G{fill: #FFFFFF;}#rkVrSNRCWRG{fill: #FFFFFF;}#BkUBBV0Cb0f{fill: #FCB667;}#HJvHB4RAZCG{opacity: 0.6;fill: #F49D4E;}#SJOSSNCAWRf{opacity: 0.3;fill: #9FA2A7;}#BytHB4ACWAf{fill: url(#SVGID_1_);}#H1qBB40AbRM{fill: url(#SVGID_2_);}#HynrHVAC-RG{fill: #8B8C89;}#BJCHrNR0WRG{fill: #8B8C89;}#By6BER0b0f_HyCoCAZ0z{-webkit-animation-name: By6BER0b0f_HyCoCAZ0z_Animation;animation-name: By6BER0b0f_HyCoCAZ0z_Animation;-webkit-transform-origin: 50% 50%;transform-origin: 50% 50%;transform-box: fill-box;-webkit-transform: translate(-10px, 0px);transform: translate(-10px, 0px);}#B1kgBE0CZ0f_H1L6AC-Cz{-webkit-animation-name: B1kgBE0CZ0f_H1L6AC-Cz_Animation;animation-name: B1kgBE0CZ0f_H1L6AC-Cz_Animation;-webkit-transform-origin: 50% 50%;transform-origin: 50% 50%;transform-box: fill-box;-webkit-transform: translate(-5px, 0px);transform: translate(-5px, 0px);}#ry6VH4AAb0f{-webkit-animation-name: ry6VH4AAb0f_Animation;animation-name: ry6VH4AAb0f_Animation;-webkit-transform-origin: 50% 50%;transform-origin: 50% 50%;transform-box: fill-box;opacity: 0;}#HyEVBEACbAG{-webkit-animation-name: HyEVBEACbAG_Animation;animation-name: HyEVBEACbAG_Animation;-webkit-transform-origin: 50% 50%;transform-origin: 50% 50%;transform-box: fill-box;opacity: 0;}#ry6VH4AAb0f_B1NwykfRz{-webkit-animation-name: ry6VH4AAb0f_B1NwykfRz_Animation;animation-name: ry6VH4AAb0f_B1NwykfRz_Animation;-webkit-transform-origin: 50% 50%;transform-origin: 50% 50%;transform-box: fill-box;-webkit-transform: translate(0px, 20px);transform: translate(0px, 20px);}#SkrSHERCb0f{-webkit-animation-name: SkrSHERCb0f_Animation;animation-name: SkrSHERCb0f_Animation;-webkit-transform-origin: 50% 50%;transform-origin: 50% 50%;transform-box: fill-box;opacity: 1;}#S1TBBECA-Cz{-webkit-animation-name: S1TBBECA-Cz_Animation;animation-name: S1TBBECA-Cz_Animation;-webkit-transform-origin: 50% 50%;transform-origin: 50% 50%;transform-box: fill-box;opacity: 0;}</style>
<g id="BygBVA0-RG">
	<path d="M48.895,200.953c0,0-26.325,21.405,49.573,26.875c0,0-78.884-0.884-51.533-27.002&#10;&#9;&#9;L48.895,200.953z" id="BJ-HE00ZRM"/>
	<g id="rJMrV00-CM">
		<path d="M586.476,204.513c-0.077-0.168-0.444-0.373-1.064-0.606c-0.349-0.158-0.759-0.32-1.232-0.485&#10;&#9;&#9;&#9;c-1.806-0.818-4.642-1.407-6.521-1.734c-2.302-0.511-5.041-1.059-8.24-1.655c-11.083-2.066-22.894-3.142-34.44-3.678&#10;&#9;&#9;&#9;c-20.252-1.629-44.037-2.421-66.718-0.96c-0.2-0.037-0.418-0.07-0.601-0.111c-10.303-2.29-47.654-10.161-74.967-10.209&#10;&#9;&#9;&#9;c-5.059-0.009-9.773,0.25-13.907,0.862c-25.403,3.763-26.415,3.913-26.455,3.919c-0.06-0.01-24.84-3.981-54.868-3.919&#10;&#9;&#9;&#9;c-14.683,0.03-30.621,1.025-45.537,3.919c-15.624,3.032-32.13,3.819-48.994,3.877c-15.331,0.053-30.957-0.497-46.487-0.51&#10;&#9;&#9;&#9;c-17.083-0.015-34.049,0.619-50.374,3.418c-5.918,1.015-11.143,1.921-15.747,2.743c-0.066,0.012-0.129,0.023-0.195,0.035&#10;&#9;&#9;&#9;c-1.033,0.185-2.036,0.365-3.005,0.541c-0.189,0.034-0.372,0.068-0.559,0.102c-0.842,0.154-1.663,0.305-2.456,0.452&#10;&#9;&#9;&#9;c-0.237,0.044-0.467,0.087-0.7,0.131c-0.711,0.133-1.406,0.264-2.076,0.392c-0.27,0.051-0.534,0.102-0.797,0.153&#10;&#9;&#9;&#9;c-0.616,0.119-1.216,0.236-1.797,0.35c-0.269,0.053-0.535,0.106-0.796,0.158c-0.539,0.108-1.062,0.214-1.569,0.318&#10;&#9;&#9;&#9;c-0.265,0.054-0.53,0.109-0.787,0.162c-0.481,0.1-0.943,0.199-1.394,0.296c-0.244,0.053-0.491,0.106-0.727,0.157&#10;&#9;&#9;&#9;c-0.426,0.094-0.831,0.185-1.228,0.276c-0.229,0.052-0.464,0.105-0.684,0.157c-0.379,0.089-0.734,0.175-1.085,0.261&#10;&#9;&#9;&#9;c-0.201,0.049-0.41,0.099-0.602,0.148c-0.342,0.086-0.658,0.171-0.971,0.255c-0.171,0.046-0.352,0.092-0.514,0.137&#10;&#9;&#9;&#9;c-0.316,0.088-0.602,0.173-0.886,0.258c-0.129,0.039-0.271,0.078-0.394,0.116c-0.309,0.096-0.586,0.19-0.854,0.283&#10;&#9;&#9;&#9;c-0.074,0.026-0.16,0.052-0.231,0.077c-0.33,0.118-0.629,0.235-0.894,0.349c-0.024,0.011-0.041,0.02-0.065,0.031&#10;&#9;&#9;&#9;c-0.233,0.102-0.444,0.203-0.626,0.303c-0.068,0.037-0.115,0.073-0.175,0.11c-0.119,0.072-0.238,0.144-0.33,0.215&#10;&#9;&#9;&#9;c-0.055,0.043-0.091,0.085-0.136,0.127c-0.069,0.064-0.14,0.127-0.186,0.19c-0.033,0.045-0.049,0.089-0.071,0.133&#10;&#9;&#9;&#9;c-0.03,0.059-0.061,0.119-0.072,0.177c-0.008,0.045-0.001,0.09,0.002,0.135c0.004,0.057,0.009,0.114,0.032,0.17&#10;&#9;&#9;&#9;c0.018,0.045,0.049,0.091,0.078,0.136c0.036,0.055,0.076,0.111,0.13,0.166c0.044,0.046,0.098,0.091,0.154,0.136&#10;&#9;&#9;&#9;c0.068,0.055,0.141,0.11,0.226,0.165c0.07,0.045,0.147,0.091,0.228,0.136c0.099,0.055,0.205,0.11,0.32,0.165&#10;&#9;&#9;&#9;c0.095,0.045,0.194,0.091,0.301,0.136c0.13,0.056,0.27,0.112,0.417,0.168c0.118,0.045,0.237,0.09,0.366,0.135&#10;&#9;&#9;&#9;c0.162,0.057,0.337,0.114,0.515,0.172c0.14,0.045,0.28,0.09,0.431,0.136c0.195,0.059,0.405,0.118,0.617,0.178&#10;&#9;&#9;&#9;c0.158,0.044,0.313,0.089,0.48,0.133c0.235,0.063,0.487,0.126,0.74,0.19c0.171,0.043,0.335,0.086,0.514,0.129&#10;&#9;&#9;&#9;c0.282,0.068,0.585,0.138,0.887,0.208c0.172,0.04,0.336,0.079,0.514,0.119c0.349,0.078,0.721,0.159,1.096,0.239&#10;&#9;&#9;&#9;c0.154,0.033,0.298,0.065,0.456,0.099c0.029,0.006,0.055,0.012,0.085,0.018l-0.001-0.001c1.075,0.226,2.239,0.46,3.499,0.704&#10;&#9;&#9;&#9;c21.03,4.07,116.684,14.925,172.312,14.246c3.911-0.048,8.164-0.057,12.7-0.04c0.791,0.894,1.242,1.888,1.925,2.707&#10;&#9;&#9;&#9;c1.593,1.911,5.096,0.318,6.689,3.185c0.576,1.037,1.237,2.783,2.01,4.574c-0.496,20.253-8.444,37.125-9.406,39.094&#10;&#9;&#9;&#9;c0.491-14.649-10.307-29.949-10.307-29.949c0.604,24.777,8.335,29.233,9.99,29.906c-0.022,0.028-0.044,0.054-0.066,0.082&#10;&#9;&#9;&#9;c-14.833,0.513-29.033-12.421-29.033-12.421c8.767,16.028,25.948,13.16,28.954,12.518c-4.587,5.656-13.307,6.727-13.307,6.727&#10;&#9;&#9;&#9;c8.277,5.932,12.946-4.826,13.666-6.656c1.255,1.493,7.057,7.104,19.546,1.28c0,0-12.842,2.306-19.432-1.407&#10;&#9;&#9;&#9;c0.005-0.005,0.01-0.012,0.015-0.017c14.62-1.624,17.826-18.653,17.826-18.653l-17.472,18.257&#10;&#9;&#9;&#9;c5.167-5.906,9.612-22.304,12.164-33.454c0.667,0.64,1.388,1.02,2.176,0.948c3.504-0.318,5.415,5.415,9.874,5.096&#10;&#9;&#9;&#9;c2.097-0.15,8-2.202,14.128-4.201c-0.387,8.487-4.45,17.473-5.141,18.94c-0.233-1.179-1.564-7.065-5.741-11.994&#10;&#9;&#9;&#9;c0,0-0.453,8.922,5.667,12.15c-0.001,0.002-0.002,0.005-0.003,0.007c-10.341-0.437-14.292-4.742-14.292-4.742&#10;&#9;&#9;&#9;c3.22,6.187,12.573,5.062,14.263,4.804l-0.001,0.002h0.139c-0.63,0.627-3.141,2.954-5.164,2.36c0,0,3.261,1.539,5.232-2.36h0.079&#10;&#9;&#9;&#9;c0.6,0.64,3.217,2.951,7.794,0.376l-0.124-0.002c0,0-5.348,1.416-7.628-0.394c6.103-0.435,7.255-6.386,7.255-6.386&#10;&#9;&#9;&#9;c-2.198,3.434-6.307,5.796-7.236,6.301c4.798-8.525,6.019-15.385,6.238-19.496c6.47-2.087,12.903-3.959,15.113-3.328&#10;&#9;&#9;&#9;c4.459,1.274,7.644-4.459,15.607-4.459c2.743,0,5.508,1.219,8.22,2.831c1.665,8.423,5.139,15.296,6.662,18.029&#10;&#9;&#9;&#9;c-6.229-2.19-12.153-10.19-12.317-10.414c-0.006-0.009-0.011-0.015-0.017-0.024c0.001-0.083-0.005-0.163,0-0.246v0.246&#10;&#9;&#9;&#9;c-0.348-0.494-0.555-0.807-0.555-0.807c0.208,1.178,0.532,2.247,0.941,3.222c0.298,0.865,0.751,1.67,1.314,2.418&#10;&#9;&#9;&#9;c3.249,4.794,8.73,6.451,10.856,6.928c-4.488,1.907-11.456,1.123-11.456,1.123c4.739,3.131,10.604,0.152,12.282-0.742&#10;&#9;&#9;&#9;c0.355,1.261,1.394,3.909,5.322,6.008c0,0,2.508,1.053,4.915-1.605c0,0-6.706-0.752-9.61-4.679&#10;&#9;&#9;&#9;c1.831,0.412,6.029,0.79,12.017-1.439l1.304-3.511c0,0-7.74,3.437-13.027,4.024c3.664-2.639,5.656-8.358,6.285-10.453&#10;&#9;&#9;&#9;c5.814,0.809,5.663,4.451,9.671,6.609c4.141,2.229,8.6,0.955,9.237,3.504c0.637,2.548,1.274,17.518,6.052,20.066&#10;&#9;&#9;&#9;c4.777,2.548,2.548,6.052,4.459,9.237s5.733,9.555,15.925,11.785c10.192,2.23,10.192,14.014,10.511,16.881&#10;&#9;&#9;&#9;c0.318,2.867,8.281,6.052,14.333,4.141l4.141-1.911l5.415,2.491c0,0,7.326-2.809,7.963-8.542s9.874-15.925,13.696-16.881&#10;&#9;&#9;&#9;c3.822-0.955,6.37-4.459,7.007-8.6c0.637-4.141,4.141-15.925,5.096-19.747c0.956-3.822,0-8.918,0-8.918s11.148-4.141,10.511-7.007&#10;&#9;&#9;&#9;c-0.46-2.069-0.742-0.505,1.047-2.221c2.162,10.327,7.256,31.901,13.35,38.866l-17.472-18.257c0,0,3.206,17.029,17.826,18.653&#10;&#9;&#9;&#9;c0.005,0.005,0.01,0.012,0.015,0.017c-6.59,3.713-19.432,1.407-19.432,1.407c12.488,5.824,18.291,0.212,19.546-1.28&#10;&#9;&#9;&#9;c0.719,1.83,5.388,12.588,13.666,6.656c0,0-8.72-1.071-13.307-6.727c3.007,0.642,20.187,3.509,28.954-12.518&#10;&#9;&#9;&#9;c0,0-14.2,12.934-29.033,12.421c-0.022-0.027-0.044-0.054-0.066-0.082c1.655-0.672,9.386-5.128,9.99-29.906&#10;&#9;&#9;&#9;c0,0-10.798,15.3-10.307,29.949c-1.055-2.161-10.536-22.277-9.328-45.115c3.329-5.853,1.721-8.553,6.016-9.698&#10;&#9;&#9;&#9;c1.346-0.359,2.484-0.617,3.482-0.888c0.327,4.172,1.677,10.73,6.193,18.753c-0.929-0.505-5.039-2.868-7.236-6.301&#10;&#9;&#9;&#9;c0,0,1.152,5.95,7.255,6.386c-2.281,1.81-7.628,0.394-7.628,0.394l-0.124,0.002c4.576,2.575,7.194,0.264,7.794-0.376h0.079&#10;&#9;&#9;&#9;c1.971,3.9,5.231,2.36,5.231,2.36c-2.023,0.594-4.534-1.733-5.164-2.36h0.139l-0.001-0.002c1.69,0.258,11.042,1.383,14.263-4.804&#10;&#9;&#9;&#9;c0,0-3.952,4.304-14.293,4.742c-0.001-0.002-0.002-0.005-0.003-0.007c6.12-3.228,5.667-12.15,5.667-12.15&#10;&#9;&#9;&#9;c-4.177,4.929-5.508,10.814-5.741,11.994c-0.693-1.472-4.781-10.512-5.145-19.024c1.835-0.641,3.154-1.563,4.468-3.816&#10;&#9;&#9;&#9;c1.26-2.161,4.25-4.219,6.612-5.6c14.492-1.659,29.895-3.717,43.491-5.801l0.001,0l0.048-0.008&#10;&#9;&#9;&#9;c3.448-0.529,6.778-1.059,9.946-1.584l0.036-0.006l0,0c4.913-0.815,9.438-1.618,13.401-2.387c3.328-0.645,5.813-1.259,7.641-1.839&#10;&#9;&#9;&#9;c1.31-0.261,2.821-0.661,3.84-1.229C586.949,205.815,587.326,205.19,586.476,204.513z M348.374,254.438&#10;&#9;&#9;&#9;c-2.364-3.799-4.632-11.915-5.632-16.571c2.461,1.615,4.857,3.389,7.131,4.727l0.946,0.439&#10;&#9;&#9;&#9;C350.472,249.616,348.819,253.499,348.374,254.438z M509.146,218.126c0.129-0.066,0.252-0.129,0.363-0.184&#10;&#9;&#9;&#9;c8.232-1.218,15.88-2.296,22.916-3.264C524.81,215.938,516.786,217.101,509.146,218.126z" id="SJmHVC0ZCM"/>
		<path d="M423.088,206.305c-7.69,1.976-21.298,4.146-35.069-0.011c-4.796,17.377-22.699,93.341,17.533,135.325&#10;&#9;&#9;&#9;C445.775,299.643,427.888,223.703,423.088,206.305z" id="rJVBE0C-Az"/>
		<path d="M502.422,184.967c-1.324-2.27-2.653-3.2-4.503-3.846c0.366-8.579,4.487-17.691,5.185-19.174&#10;&#9;&#9;&#9;c0.235,1.189,1.576,7.121,5.786,12.089c0,0,0.456-8.993-5.712-12.246c0.001-0.002,0.002-0.005,0.003-0.007&#10;&#9;&#9;&#9;c10.423,0.441,14.406,4.779,14.406,4.779c-3.246-6.236-12.673-5.102-14.376-4.842l0.001-0.002h-0.14&#10;&#9;&#9;&#9;c0.635-0.632,3.166-2.977,5.205-2.379c0,0-3.287-1.551-5.273,2.379h-0.08c-0.605-0.645-3.243-2.974-7.855-0.379l0.125,0.002&#10;&#9;&#9;&#9;c0,0,5.39-1.427,7.689,0.397c-6.152,0.439-7.313,6.436-7.313,6.436c2.215-3.461,6.357-5.842,7.293-6.351&#10;&#9;&#9;&#9;c-4.552,8.087-5.913,14.697-6.242,18.902c-1.006-0.273-2.154-0.533-3.51-0.895c-4.329-1.154-2.708-3.876-6.064-9.775&#10;&#9;&#9;&#9;c-1.217-23.019,8.339-43.295,9.402-45.473c-0.495,14.765,10.389,30.186,10.389,30.186c-0.609-24.974-8.401-29.465-10.07-30.143&#10;&#9;&#9;&#9;c0.022-0.028,0.044-0.055,0.066-0.082c14.951-0.517,29.263,12.519,29.263,12.519c-8.837-16.155-26.153-13.265-29.184-12.618&#10;&#9;&#9;&#9;c4.623-5.701,13.412-6.78,13.412-6.78c-8.343-5.979-13.049,4.864-13.774,6.708c-1.265-1.504-7.113-7.161-19.7-1.29&#10;&#9;&#9;&#9;c0,0,12.944-2.324,19.586,1.418c-0.005,0.005-0.01,0.012-0.015,0.017c-14.736,1.637-17.968,18.8-17.968,18.8l17.611-18.402&#10;&#9;&#9;&#9;c-6.143,7.021-11.277,28.766-13.456,39.174c-1.804-1.73-1.519-0.153-1.056-2.239c0.642-2.889-10.594-7.063-10.594-7.063&#10;&#9;&#9;&#9;s0.963-5.136,0-8.989c-0.963-3.852-4.494-15.73-5.136-19.904c-0.642-4.173-3.21-7.705-7.063-8.668&#10;&#9;&#9;&#9;c-3.852-0.963-13.162-11.236-13.804-17.014c-0.642-5.778-8.026-8.61-8.026-8.61l-5.457,2.511l-4.173-1.926&#10;&#9;&#9;&#9;c-6.1-1.926-14.125,1.284-14.446,4.173c-0.321,2.889-0.321,14.767-10.594,17.014c-10.273,2.247-14.125,8.668-16.051,11.878&#10;&#9;&#9;&#9;c-1.926,3.21,0.321,6.742-4.494,9.31c-4.815,2.568-5.457,17.657-6.1,20.225c-0.642,2.568-5.137,1.284-9.31,3.531&#10;&#9;&#9;&#9;c-4.04,2.175-3.887,5.846-9.748,6.661c-0.634-2.112-2.641-7.876-6.334-10.536c5.329,0.592,13.131,4.056,13.131,4.056l-1.314-3.538&#10;&#9;&#9;&#9;c-6.035-2.247-10.267-1.865-12.112-1.45c2.926-3.958,9.686-4.717,9.686-4.717c-2.426-2.679-4.954-1.618-4.954-1.618&#10;&#9;&#9;&#9;c-3.959,2.116-5.006,4.785-5.364,6.056c-1.691-0.901-7.602-3.905-12.379-0.748c0,0,7.023-0.79,11.546,1.132&#10;&#9;&#9;&#9;c-2.142,0.481-7.667,2.151-10.942,6.983c-0.568,0.754-1.025,1.566-1.325,2.438c-0.412,0.982-0.739,2.06-0.948,3.247&#10;&#9;&#9;&#9;c0,0,0.209-0.315,0.56-0.814v0.248c-0.004-0.084,0.002-0.165,0-0.248c0.006-0.008,0.011-0.015,0.017-0.024&#10;&#9;&#9;&#9;c0.166-0.226,6.137-8.289,12.415-10.496c-1.535,2.755-5.037,9.682-6.715,18.172c-2.733,1.624-5.521,2.853-8.285,2.853&#10;&#9;&#9;&#9;c-8.026,0-11.236-5.778-15.73-4.494c-2.227,0.636-8.711-1.25-15.233-3.354c-0.222-4.144-1.451-11.058-6.288-19.65&#10;&#9;&#9;&#9;c0.937,0.509,5.079,2.89,7.294,6.351c0,0-1.161-5.998-7.313-6.436c2.299-1.824,7.689-0.397,7.689-0.397l0.125-0.002&#10;&#9;&#9;&#9;c-4.613-2.595-7.251-0.266-7.855,0.379h-0.08c-1.986-3.93-5.273-2.379-5.273-2.379c2.039-0.598,4.57,1.747,5.205,2.379h-0.14&#10;&#9;&#9;&#9;l0.001,0.002c-1.703-0.26-11.13-1.394-14.376,4.842c0,0,3.983-4.339,14.406-4.779c0.001,0.002,0.002,0.005,0.003,0.007&#10;&#9;&#9;&#9;c-6.168,3.253-5.712,12.246-5.712,12.246c4.21-4.968,5.551-10.9,5.786-12.089c0.696,1.479,4.792,10.536,5.182,19.09&#10;&#9;&#9;&#9;c-6.177-2.015-12.126-4.084-14.24-4.235c-4.494-0.321-6.421,5.457-9.952,5.136c-0.795-0.072-1.522,0.31-2.194,0.955&#10;&#9;&#9;&#9;c-2.572-11.238-7.052-27.767-12.26-33.719l17.611,18.402c0,0-3.232-17.164-17.968-18.8c-0.005-0.005-0.01-0.012-0.015-0.017&#10;&#9;&#9;&#9;c6.642-3.742,19.586-1.418,19.586-1.418c-12.587-5.871-18.436-0.214-19.7,1.29c-0.725-1.844-5.431-12.687-13.774-6.708&#10;&#9;&#9;&#9;c0,0,8.789,1.079,13.412,6.78c-3.03-0.647-20.347-3.537-29.184,12.618c0,0,14.312-13.037,29.263-12.519&#10;&#9;&#9;&#9;c0.022,0.028,0.044,0.054,0.066,0.082c-1.668,0.678-9.46,5.169-10.07,30.143c0,0,10.884-15.421,10.389-30.186&#10;&#9;&#9;&#9;c0.969,1.984,8.98,18.99,9.48,39.403c-0.779,1.805-1.445,3.565-2.026,4.61c-1.605,2.889-5.137,1.284-6.742,3.21&#10;&#9;&#9;&#9;c-1.605,1.926-1.926,4.815-8.347,5.136c-6.421,0.321-8.668,4.494-8.668,4.494c27.929-5.778,273.195,6.742,273.195,6.742&#10;&#9;&#9;&#9;l-6.421-6.742C512.374,192.351,504.669,188.819,502.422,184.967z M350.693,167.124c-2.292,1.349-4.706,3.136-7.187,4.764&#10;&#9;&#9;&#9;c1.008-4.693,3.294-12.874,5.677-16.702c0.449,0.947,2.115,4.861,2.464,11.495L350.693,167.124z" id="B1BS4CAZAf"/>
		<path d="M278.29,185.264c0,0,3.542-12.47,16.762-8.087c13.22,4.383,38.747,5.785,50.599,1.893&#10;&#9;&#9;&#9;c11.852-3.892,15.712-17.786,32.244-14.486c0,0,5.136-40.005,22.002-39.55c16.866,0.456,13.675-16.41,23.704-11.852&#10;&#9;&#9;&#9;c10.029,4.558,11.852,2.279,17.322,12.764s5.926,0.912,10.484,11.624s4.103,17.094,12.764,23.932s12.764,1.423,15.955,11.652&#10;&#9;&#9;&#9;c3.191,10.229,13.94,16.615,13.94,16.615S290.708,185.12,278.29,185.264z" id="Bk8HN0CW0f"/>
		<g id="SJDHNR0-Cf">
			<path d="M351.893,220.28c0,0-55.385,8.889-101.198,0s-99.147,1.368-147.01-6.838&#10;&#9;&#9;&#9;&#9;c-47.864-8.205-51.966-9.573-30.77-13.675c17.519-3.391,86.413-11.452,141.448-13.761c11.556-0.485,22.5-0.716,32.23-0.598&#10;&#9;&#9;&#9;&#9;c56.069,0.684,179.831-6.154,256.414,5.47s108.036,11.624,67.693,19.146s-90.258,2.051-102.565,4.786&#10;&#9;&#9;&#9;&#9;s-62.907,13.371-89.574,9.421C351.893,220.28,351.893,220.28,351.893,220.28z" id="r1OH40AW0f"/>
			<path d="M582.96,202.328c-1.843-0.585-4.348-1.203-7.702-1.853&#10;&#9;&#9;&#9;&#9;c-3.994-0.775-8.555-1.584-13.507-2.406l0.001,0l-0.037-0.006c-3.193-0.53-6.55-1.064-10.025-1.597l-0.048-0.008l-0.001,0&#10;&#9;&#9;&#9;&#9;c-25.16-3.858-56.484-7.634-76.927-8.972l0.128,0.11c10.145,1.064,47.915,5.196,72.819,10.259&#10;&#9;&#9;&#9;&#9;c-25.816,8.573-55.368,8.164-69.198,7.347l-0.147,0.135c43.916,3.972,68.986-2.143,78.693-5.421&#10;&#9;&#9;&#9;&#9;c8.051,1.907,14.245,3.927,17.031,5.99c-31.628,9.372-117.986,6.88-117.986,6.88l-1.362,0.679&#10;&#9;&#9;&#9;&#9;c-0.585-0.015-0.922-0.024-0.922-0.024c-26.667,8.205-96.411,4.002-96.411,4.002s-3.925-1.418-11.429-1.987&#10;&#9;&#9;&#9;&#9;c6.879-1.32,13.51-2.517,18.727-3.156c12.995-1.592,40.5-4.629,50.26-5.701c-70.574,7.39-198.41-0.387-198.41-0.387&#10;&#9;&#9;&#9;&#9;c-25.943-0.318-45.652-1.008-60.625-1.901c-0.023-0.001-0.043-0.001-0.066-0.003c-9.224-0.456-16.926-1.129-23.372-1.934&#10;&#9;&#9;&#9;&#9;c-9.641-1.108-15.315-2.314-18.579-3.441c-3.542-0.967-6.207-1.962-8.209-2.915c-19.25,7.586,74.135,13.535,96.66,12.545&#10;&#9;&#9;&#9;&#9;c0.013,0,14.795-0.302,25.19,3.634c-25.166-2.002-77.872-1.591-97.158-2.176c-22.564-0.684-51.076-0.911-60.172-5.461&#10;&#9;&#9;&#9;&#9;c-1.894-0.948-1.914-2.395-0.786-4.087c-17.303,1.597-10.549,9.611,36.487,13.915c47.812,4.376,97.883,0,144.815,5.89&#10;&#9;&#9;&#9;&#9;c46.304,5.811,101.198,0,101.198,0s0,0,26.667,3.951c26.667,3.951,77.266-6.686,89.574-9.421&#10;&#9;&#9;&#9;&#9;c0.183-0.041,0.389-0.076,0.588-0.113c42.057,2.712,87.913-2.259,108.364-6.041c0.022,0.036,0.013,0.018,0.002,0&#10;&#9;&#9;&#9;&#9;c0.026-0.003,6.221-0.814,8.948-2.267c1.115-0.35,1.754-0.65,1.86-0.881C588.672,203.809,585.448,202.824,582.96,202.328z" id="SJYS400WAG"/>
		</g>
		<path d="M178.963,188.465c0,0,40.444-4.618,49.333-2.738c8.889,1.88,7.868,8.231,7.868,8.231l-15.048,4.314&#10;&#9;&#9;&#9;l-33.676,0.509l-10.634-0.509l-2.358-0.892l-5.299-3.422" id="S19r4R0b0M"/>
		<g id="SJsHVACbAM">
			<path d="M608.219,217.604c-0.067,0.112-0.151,0.226-0.248,0.341C608.143,217.725,608.219,217.604,608.219,217.604&#10;&#9;&#9;&#9;&#9;z" id="rJhrVC0bCf"/>
			<g id="By6BER0b0f_HyCoCAZ0z" data-animator-group="true" data-animator-type="0"><path d="M604.082,220.553c2.863-1.788,4.137-2.948,4.137-2.948c-36.24,22.598-140.856,15.009-140.856,15.009&#10;&#9;&#9;&#9;&#9;c-53.334,23.248-142.834,8.777-142.834,8.777c62.297,21.084,145.569-3.306,145.569-3.306c22.105,1.854,40.986,2.04,57.044,1.179&#10;&#9;&#9;&#9;&#9;v0.003c63.944-3.024,78.816-18.757,80.82-21.31C607.273,218.765,605.86,219.656,604.082,220.553z" id="By6BER0b0f"/></g>
			<path d="M607.97,217.946c-0.003,0.003-0.006,0.007-0.009,0.011C607.965,217.953,607.967,217.949,607.97,217.946z" id="S10SV00-RM"/>
		</g>
		<g id="B1kgBE0CZ0f_H1L6AC-Cz" data-animator-group="true" data-animator-type="0"><path d="M589.324,202.178c2.835,2.652,4.635,4.859,4.763,6.276&#10;&#9;&#9;&#9;c0.195,2.147-4.517,3.997-11.946,5.535c-21.118,6.462-93.473,7.013-116.727,7.019c-2.397,0.394-4.444,0.834-6.053,1.315&#10;&#9;&#9;&#9;c-0.773,0.231-1.451,0.471-2.028,0.718c-6.382,2.735-59.26,14.834-111.682,4.57c-60.181,9.168-116.229-7.262-116.229-7.262&#10;&#9;&#9;&#9;l-11.746-0.471c-3.526,0.002-8.677-0.058-14.994-0.191l-0.007,0C69.807,225.218,56.537,207.445,56.533,207.44&#10;&#9;&#9;&#9;c-3.755-3.602,0.351-6.615,0.351-6.615s-25.083,12.643,32.125,20.848c49.258,7.065,114.173-1.289,137.251,2.839&#10;&#9;&#9;&#9;c0.105,0.037,0.359,0.125,0.76,0.257c6.816,2.255,55.656,17.304,122.789,9.321c10.308,1.792,67.114,10.356,116.633-8.639&#10;&#9;&#9;&#9;c0.172,0.002,0.715,0.01,1.577,0.018c11.207,0.732,88.388,5.174,125.015-8.535c0.304-0.114,0.605-0.229,0.904-0.345v-0.001&#10;&#9;&#9;&#9;c0.89-0.312,1.722-0.634,2.481-0.968c0.055-0.023,0.109-0.045,0.162-0.068l0.003-0.001h0c0.548-0.233,1.014-0.471,1.38-0.715&#10;&#9;&#9;&#9;C607.821,208.263,605.011,204.687,589.324,202.178z" id="B1kgBE0CZ0f"/></g>
		<path d="M220.296,227.277l-3.9,0.337l0.006,0.002c-2.111-0.023-3.326,0.212-3.326,0.212&#10;&#9;&#9;&#9;c-47.485,3.413-101.412,0-101.412,0c28.565,7.065,109.264,2.051,109.264,2.051s0.575,0.257,1.644,0.689&#10;&#9;&#9;&#9;c4.569,1.915,9.356,3.506,14.235,4.819c15.068,4.321,39.321,9.047,65.98,5.544c0.959-0.066,1.498-0.112,1.498-0.112&#10;&#9;&#9;&#9;C262.277,244.204,220.296,227.277,220.296,227.277z" id="rJxgSNCAWCf"/>
		<g id="BkZxHNAAb0M">
			<ellipse cx="343.218" cy="196.335" rx="38.163" ry="5.137" id="S1GgrVCRZ0f"/>
			<path d="M350.128,50.105c-2.274-1.28-13.895,1.533-13.895,1.533s-1.768-1.011-9.6-1.516&#10;&#9;&#9;&#9;&#9;c-3.542-0.229-7.335,1.922-10.435,4.344c0.377,5.591,1.013,13.127,1.846,16.119c1.396,5.012,5.561,18.67,5.561,18.67l3.435,9.005&#10;&#9;&#9;&#9;&#9;l-0.42,1.628l3.639,2.988l15.749-1.415l-0.663-1.562c0.177,0.028,0.315,0.05,0.482,0.077c-0.717-4.712,2.231-14.46,3.953-17.043&#10;&#9;&#9;&#9;&#9;c1.786-2.679,4.894-12.347,4.894-12.347l8.338,9.979l1.01-15.965C364.022,64.6,352.401,51.385,350.128,50.105z" id="BkQeH40AZ0z"/>
			<g id="r1EeH4ARZCz">
				<polygon points="321.637,51.647 327.781,48.251 327.781,38.711 338.292,38.711 338.292,46.796 347.832,52.293 &#10;&#9;&#9;&#9;&#9;&#9;322.284,53.425 &#9;&#9;&#9;&#9;" id="S1reHER0WAf"/>
				<g id="ryUxSNR0ZAG">
					<g id="BJvlB40CWCG">
						<path d="M322.845,25.995l3.597,15.648c0,0,19.336,6.385,23.113-7.374l-6.475-9.623l-2.698-7.914&#10;&#9;&#9;&#9;&#9;&#9;&#9;&#9;c0,0-8.813-1.799-17.177,3.507L322.845,25.995z" id="SJ_lrNCC-AG"/>
						<path d="M334.627,30.531c-4.539,0.547-9.252-2-11.536-3.467l3.352,14.58c0,0,19.336,6.385,23.113-7.374&#10;&#9;&#9;&#9;&#9;&#9;&#9;&#9;l-4.584-6.812C342.457,28.929,338.985,30.006,334.627,30.531z" id="H1YgHVRA-RG"/>
						<g id="BJ5eBNACZ0z">
							<path d="M328.925,32.33c0,0,8.392,0.692,13.975-1.657c0.109-0.046,0.217-0.093,0.324-0.141l1.349,3.597&#10;&#9;&#9;&#9;&#9;&#9;&#9;&#9;&#9;C344.573,34.128,332.792,41.143,328.925,32.33z" id="ryjxrVCCbAM"/>
							<path d="M343.983,32.556l-0.759-2.025c-0.107,0.048-0.215,0.095-0.324,0.141&#10;&#9;&#9;&#9;&#9;&#9;&#9;&#9;&#9;c-5.583,2.35-13.975,1.657-13.975,1.657S334.71,36.237,343.983,32.556z" id="HJheSNARZ0G"/>
						</g>
						<path d="M331.147,35.511c2.734,1.924,6.445,1.316,9.23,0.374C335.758,33.803,331.217,35.485,331.147,35.511z" id="rJTeSN00bCM"/>
						<g id="rJAlHN0CZAz">
							<path d="M335.829,36.933h-0.001c-3.329,0-5.685-1.522-7.002-4.525l-0.092-0.208l0.227,0.019&#10;&#9;&#9;&#9;&#9;&#9;&#9;&#9;&#9;c0,0,0.83,0.068,2.107,0.089c0.52,0.009,1.113,0.01,1.759-0.004c0.677-0.014,1.358-0.044,2.026-0.089&#10;&#9;&#9;&#9;&#9;&#9;&#9;&#9;&#9;c1.903-0.127,3.665-0.383,5.237-0.759c0.345-0.082,0.685-0.173,1.041-0.278c0.69-0.203,1.244-0.396,1.741-0.606l0.453-0.199&#10;&#9;&#9;&#9;&#9;&#9;&#9;&#9;&#9;l1.439,3.837l-0.097,0.058C344.622,34.295,340.141,36.933,335.829,36.933z M329.165,32.504&#10;&#9;&#9;&#9;&#9;&#9;&#9;&#9;&#9;c1.287,2.76,3.527,4.159,6.663,4.159c3.888,0,7.928-2.189,8.603-2.571l-1.259-3.356l-0.196,0.085&#10;&#9;&#9;&#9;&#9;&#9;&#9;&#9;&#9;c-0.507,0.214-1.069,0.41-1.77,0.617c-0.361,0.105-0.706,0.198-1.054,0.281c-1.586,0.38-3.363,0.638-5.281,0.766&#10;&#9;&#9;&#9;&#9;&#9;&#9;&#9;&#9;c-0.672,0.045-1.358,0.075-2.038,0.09c-0.651,0.014-1.247,0.013-1.77,0.004C330.17,32.563,329.496,32.526,329.165,32.504z" id="H1JZr4AAbAG"/>
						</g>
					</g>
					<path d="M343.525,20.463l-0.115-0.217l-0.869-1.715l-8.103,0.528l-0.061,0.717l-2.383,0.429l-0.485-0.673&#10;&#9;&#9;&#9;&#9;&#9;&#9;l-7.458,2.796l-3.158,4.876l1.828,0.155l2.076-3.253c0.812,2.71,1.897,3.059,2.622,2.92l-0.032,0.036&#10;&#9;&#9;&#9;&#9;&#9;&#9;c6.475-1.09,5.02-5.559,5.02-5.559l2.624-0.635c3.608,4.278,6.517,2.675,7.198,2.101c0.681-0.574,0.116-2.427,0.116-2.427&#10;&#9;&#9;&#9;&#9;&#9;&#9;L343.525,20.463z" id="Syl-HV0RbRG"/>
					<circle cx="330.355" cy="21.912" r="1.034" id="rybZr40AbRz"/>
					<circle cx="340.023" cy="20.203" r="1.034" id="r1MbBN00-AG"/>
					<path d="M335.031,20.869l4.497,6.492c0,0-2.518,1.602-5.171,0.838l-1.95-6.694" id="rJXZHNRCZRM"/>
				</g>
				<g id="Sy4WSNCRW0z">
					<path d="M322.889,27.476c0.219,0.578,0.454,1.179,0.714,1.817l-0.129-2.941L322.889,27.476z" id="SJHZrVCCZCM"/>
					<path d="M343.525,10.445c0,0-2.475,2.084-5.65,2.183l1.113-2.183c0,0-10.435,4.961-16.143,5.259l-1.952,0.735&#10;&#9;&#9;&#9;&#9;&#9;&#9;c0,0-1.296,1.464,1.242,8.942l1.209-1.96l-0.14-3.18c0,0,8.968-5.158,17.177-3.507&#10;&#9;&#9;&#9;&#9;&#9;&#9;C340.382,16.732,345.206,15.704,343.525,10.445z" id="rkLWHNARWCG"/>
				</g>
				<path d="M322.889,27.476c0,0-1.659-0.663-2.155-0.115c-0.496,0.548,0.298,5.906,3.696,5.261l-1.213-5.477&#10;&#9;&#9;&#9;&#9;&#9;L322.889,27.476z" id="HywbBNACbCf"/>
				<g id="rkOWSE00bCz">
					<path stroke-miterlimit="10" d="M323.091,28.405&#10;&#9;&#9;&#9;&#9;&#9;&#9;c0,0-0.819-0.547-1.265,0.123s0.397,2.729,1.265,3.225" id="r1YWHNA0b0G"/>
					<path stroke-miterlimit="10" d="M323.091,31.902&#10;&#9;&#9;&#9;&#9;&#9;&#9;c-0.026,0-0.05-0.006-0.074-0.02c-0.644-0.368-1.194-1.424-1.384-2.231c-0.088-0.371-0.146-0.881,0.069-1.205&#10;&#9;&#9;&#9;&#9;&#9;&#9;c0.22-0.329,0.557-0.456,0.953-0.376c0.286,0.058,0.509,0.205,0.519,0.212c0.069,0.045,0.087,0.138,0.041,0.206&#10;&#9;&#9;&#9;&#9;&#9;&#9;c-0.045,0.069-0.137,0.086-0.206,0.041c-0.028-0.019-0.701-0.454-1.058,0.082c-0.121,0.181-0.131,0.535-0.028,0.971&#10;&#9;&#9;&#9;&#9;&#9;&#9;c0.2,0.849,0.757,1.764,1.243,2.042c0.071,0.041,0.095,0.131,0.055,0.203C323.192,31.875,323.142,31.902,323.091,31.902z" id="Bk5ZBERC-Rf"/>
				</g>
			</g>
			<circle cx="331.323" cy="73.82" r="1.064" id="Skj-rE0CbRf"/>
			<circle cx="351.78" cy="71.693" r="1.064" id="H1nbrVC0-Af"/>
			<path d="M354.674,70.585c0,0,0.093-8.977-2.894-15.917l12.063,12.753l-0.831,13.143" id="ByTZBVCCWAz"/>
			<path d="M391.539,190.683c4.456-16.147,25.218-112.526-12.166-151.539&#10;&#9;&#9;&#9;&#9;c-37.376,39.004-14.901,135.372-10.44,151.539C376.079,188.846,378.743,186.819,391.539,190.683z" id="ByRbSECCZRf"/>
			<g id="SJyMrNAAbAz">
				<path d="M371.597,101.617c-0.348-2.764-2.714-4.908-5.57-4.908c-3.096,0-5.614,2.519-5.614,5.614&#10;&#9;&#9;&#9;&#9;&#9;c0,3.096,2.519,5.614,5.614,5.614c0.86,0,1.672-0.2,2.401-0.547c-0.082,0.136-0.17,0.269-0.272,0.395&#10;&#9;&#9;&#9;&#9;&#9;c-0.575,0.711-1.394,1.156-2.304,1.252c-0.683,0.072-1.362-0.059-1.965-0.38c-0.663-0.353-1.488-0.101-1.841,0.562&#10;&#9;&#9;&#9;&#9;&#9;c-0.353,0.664-0.101,1.488,0.562,1.841c0.891,0.474,1.875,0.718,2.877,0.718c0.217,0,0.434-0.011,0.652-0.034&#10;&#9;&#9;&#9;&#9;&#9;c1.633-0.172,3.101-0.97,4.134-2.247c0.738-0.912,1.19-1.99,1.326-3.126C371.916,105.03,371.597,101.617,371.597,101.617z&#10;&#9;&#9;&#9;&#9;&#9; M366.027,105.215c-1.595,0-2.892-1.297-2.892-2.892c0-1.595,1.298-2.892,2.892-2.892c1.595,0,2.892,1.297,2.892,2.892&#10;&#9;&#9;&#9;&#9;&#9;C368.919,103.918,367.621,105.215,366.027,105.215z" id="r1gzSECR-0f"/>
				<path d="M378.139,96.709c-0.854,0-1.661,0.195-2.385,0.539c-0.191,0.102-0.478,0.31-0.674,0.459v0&#10;&#9;&#9;&#9;&#9;&#9;c-1.179,0.905-2.555-0.177-2.555-0.177v0.33v0.615v11.944c0,0.752,0.609,1.361,1.361,1.361s1.361-0.609,1.361-1.361v-3.292&#10;&#9;&#9;&#9;&#9;&#9;c0.846,0.511,1.834,0.811,2.892,0.811c3.096,0,5.614-2.519,5.614-5.614C383.753,99.227,381.235,96.709,378.139,96.709z&#10;&#9;&#9;&#9;&#9;&#9; M378.139,105.215c-1.595,0-2.892-1.297-2.892-2.892c0-1.595,1.298-2.892,2.892-2.892c1.595,0,2.892,1.297,2.892,2.892&#10;&#9;&#9;&#9;&#9;&#9;C381.031,103.918,379.734,105.215,378.139,105.215z" id="HyWGSVACZ0f"/>
				<g id="HyGzHV0C-CM">
					<path d="M390.507,107.664h-5.996c-0.721,0-1.306-0.585-1.306-1.306c0-0.721,0.585-1.306,1.306-1.306h5.996&#10;&#9;&#9;&#9;&#9;&#9;&#9;c0.447,0,0.81-0.363,0.81-0.81c0-0.447-0.364-0.81-0.81-0.81h-2.961c-1.887,0-3.422-1.535-3.422-3.422&#10;&#9;&#9;&#9;&#9;&#9;&#9;c0-1.887,1.535-3.422,3.422-3.422h4.123c0.721,0,1.306,0.585,1.306,1.306s-0.585,1.306-1.306,1.306h-4.123&#10;&#9;&#9;&#9;&#9;&#9;&#9;c-0.447,0-0.81,0.363-0.81,0.81c0,0.447,0.363,0.81,0.81,0.81h2.961c1.887,0,3.422,1.535,3.422,3.422&#10;&#9;&#9;&#9;&#9;&#9;&#9;C393.928,106.129,392.393,107.664,390.507,107.664z" id="H1mGBVCA-AG"/>
				</g>
				<circle cx="376.337" cy="93.792" r="0.953" id="HkVfSNRRWCM"/>
				<path d="M373.933,94.712c-0.778,0-1.408,0.631-1.408,1.408s0.631,1.408,1.408,1.408&#10;&#9;&#9;&#9;&#9;&#9;c0.778,0,1.408-0.631,1.408-1.408S374.711,94.712,373.933,94.712z M374.601,96.25h-0.538v0.538h-0.259V96.25h-0.538v-0.259&#10;&#9;&#9;&#9;&#9;&#9;h0.538v-0.538h0.259v0.538h0.538V96.25z" id="r1rfHE0Cb0f"/>
			</g>
			<path d="M390.497,187.851c1.54-7.044,3.241-15.121,4.157-21.398c5.602-20.487,4.342-58.789,4.342-58.789&#10;&#9;&#9;&#9;&#9;c0.794-40.7-19.623-64.459-19.623-64.459v142.68C382.636,185.762,386.79,186.088,390.497,187.851z" id="BJIzrVRRb0z"/>
			<g id="ByvMBVACb0G">
				<path d="M373.47,101.809c-0.348-2.764-2.714-4.908-5.57-4.908c-3.096,0-5.614,2.519-5.614,5.614&#10;&#9;&#9;&#9;&#9;&#9;c0,3.096,2.519,5.614,5.614,5.614c0.86,0,1.672-0.2,2.401-0.547c-0.082,0.136-0.17,0.269-0.272,0.395&#10;&#9;&#9;&#9;&#9;&#9;c-0.575,0.711-1.394,1.156-2.304,1.252c-0.683,0.072-1.362-0.059-1.965-0.38c-0.663-0.353-1.488-0.101-1.841,0.562&#10;&#9;&#9;&#9;&#9;&#9;c-0.353,0.664-0.101,1.488,0.562,1.841c0.891,0.474,1.875,0.718,2.877,0.718c0.217,0,0.434-0.011,0.652-0.034&#10;&#9;&#9;&#9;&#9;&#9;c1.633-0.172,3.101-0.97,4.134-2.247c0.738-0.912,1.19-1.99,1.326-3.126C373.788,105.223,373.47,101.809,373.47,101.809z&#10;&#9;&#9;&#9;&#9;&#9; M367.9,105.408c-1.595,0-2.892-1.297-2.892-2.892c0-1.595,1.298-2.892,2.892-2.892c1.595,0,2.892,1.297,2.892,2.892&#10;&#9;&#9;&#9;&#9;&#9;C370.792,104.11,369.494,105.408,367.9,105.408z" id="rJufSER0ZCM"/>
				<path d="M380.012,96.901c-0.854,0-1.661,0.195-2.385,0.539c-0.191,0.102-0.478,0.31-0.675,0.459v0&#10;&#9;&#9;&#9;&#9;&#9;c-1.179,0.905-2.555-0.177-2.555-0.177v0.33v0.615v11.944c0,0.752,0.609,1.361,1.361,1.361s1.361-0.609,1.361-1.361v-3.292&#10;&#9;&#9;&#9;&#9;&#9;c0.846,0.511,1.834,0.811,2.892,0.811c3.096,0,5.614-2.519,5.614-5.614C385.626,99.42,383.107,96.901,380.012,96.901z&#10;&#9;&#9;&#9;&#9;&#9; M380.012,105.408c-1.595,0-2.892-1.297-2.892-2.892c0-1.595,1.298-2.892,2.892-2.892c1.595,0,2.892,1.297,2.892,2.892&#10;&#9;&#9;&#9;&#9;&#9;C382.904,104.11,381.606,105.408,380.012,105.408z" id="HyYMrEARWCG"/>
				<g id="HJ5zHNRCbRM">
					<path d="M392.379,107.857h-5.996c-0.721,0-1.306-0.585-1.306-1.306c0-0.721,0.585-1.306,1.306-1.306h5.996&#10;&#9;&#9;&#9;&#9;&#9;&#9;c0.447,0,0.81-0.363,0.81-0.81c0-0.447-0.364-0.81-0.81-0.81h-2.961c-1.887,0-3.422-1.535-3.422-3.422&#10;&#9;&#9;&#9;&#9;&#9;&#9;c0-1.887,1.535-3.422,3.422-3.422h4.123c0.721,0,1.306,0.585,1.306,1.306s-0.585,1.306-1.306,1.306h-4.123&#10;&#9;&#9;&#9;&#9;&#9;&#9;c-0.447,0-0.81,0.363-0.81,0.81c0,0.447,0.363,0.81,0.81,0.81h2.961c1.887,0,3.422,1.535,3.422,3.422&#10;&#9;&#9;&#9;&#9;&#9;&#9;C395.801,106.322,394.266,107.857,392.379,107.857z" id="rJsfSNRAZ0G"/>
				</g>
				<circle cx="378.21" cy="93.985" r="0.953" id="rk2fHVAC-0M"/>
				<path d="M375.806,94.905c-0.778,0-1.408,0.631-1.408,1.408s0.631,1.408,1.408,1.408&#10;&#9;&#9;&#9;&#9;&#9;c0.778,0,1.408-0.631,1.408-1.408S376.583,94.905,375.806,94.905z M376.474,96.443h-0.538v0.538h-0.259v-0.538h-0.538v-0.259&#10;&#9;&#9;&#9;&#9;&#9;h0.538v-0.538h0.259v0.538h0.538V96.443z" id="Bk6MBE0RbAG"/>
			</g>
			<path d="M329.799,205.229l-0.016,0c-0.366,0-0.73,0.002-1.092,0.006&#10;&#9;&#9;&#9;&#9;C329.058,205.231,329.427,205.229,329.799,205.229z" id="ry0MrE00-CM"/>
			<path d="M327.777,205.248c0.083-0.001,0.166-0.003,0.249-0.004C327.944,205.245,327.86,205.246,327.777,205.248z" id="BykmrNR0W0z"/>
			<path d="M368.933,190.683c0,0,8.925-3.26,22.606,0l-2.294-1.85l-9.009-2.329l-7.555-1.229l-1.682,1.941" id="S1lQBECAbRG"/>
			<path d="M351.889,78.908c0.589-1.466,1.175-3.058,1.669-4.459c0,0-4.351,0.555-9.31,1.117l-2.234-4.376&#10;&#9;&#9;&#9;&#9;l-0.738,4.705h0.001c-4.342,0.468-8.601,0.863-10.42,0.841c-4.358-0.055-3.874-16.166-3.874-16.166&#10;&#9;&#9;&#9;&#9;c-0.993,0.466-1.948,0.731-2.866,0.874c-0.11,4.595-0.852,12.017-4.38,14.555l0,0l2.672,9.596l0.104,0.075l4.715,12.6&#10;&#9;&#9;&#9;&#9;l-0.42,1.628l3.64,2.988l4.641-0.417c-3.264-9.292-4.337-19.545-3.022-21.078C333.521,79.695,351.882,78.908,351.889,78.908z" id="rkbQrN00ZRM"/>
			<g id="ryfQBVRAZCf">
				<path d="M322.538,135.711c0,0,1.789,6.181,0,8.946c-1.789,2.765-3.362,6.506-2.169,15.29&#10;&#9;&#9;&#9;&#9;&#9;c1.193,8.783,0,29.115,0,29.115s-1.084,4.392-1.898,5.856c-0.813,1.464,1.139,2.969,9.271,1.728c0,0-1.627-3.355-2.765-6.12&#10;&#9;&#9;&#9;&#9;&#9;c-1.139-2.765,1.952-32.043,3.578-39.2c0,0,1.789-3.741,2.44-6.181c0.651-2.44,1.952-8.729,1.952-8.729&#10;&#9;&#9;&#9;&#9;&#9;S326.93,134.898,322.538,135.711z" id="ryQXBVARZCf"/>
				<path d="M330.259,147.35c-4.703-1.731-5.89-7.949-6.156-11.825c-0.534,0.038-1.062,0.093-1.565,0.186&#10;&#9;&#9;&#9;&#9;&#9;c0,0,1.789,6.181,0,8.946c-1.789,2.765-3.362,6.506-2.169,15.29c1.193,8.783,0,29.115,0,29.115s-1.084,4.392-1.897,5.856&#10;&#9;&#9;&#9;&#9;&#9;c-0.813,1.464,1.139,2.969,9.271,1.728c0,0-1.627-3.355-2.765-6.12c-1.139-2.765,1.952-32.043,3.578-39.2&#10;&#9;&#9;&#9;&#9;&#9;C328.557,151.326,329.494,149.36,330.259,147.35z" id="B1VmrN0RW0G"/>
				<g id="HyrQBECRZRz">
					<path d="M343.255,136.478c0,0,2.164,9.072,1.947,11.892c-0.217,2.819-0.867,8.458,2.169,15.181&#10;&#9;&#9;&#9;&#9;&#9;&#9;c3.036,6.723,9.976,20.82,9.759,23.639c-0.217,2.819-0.858,8.458,0.005,8.458c0,0,0.185,0.624,3.194,0.461&#10;&#9;&#9;&#9;&#9;&#9;&#9;s11.793,1.545,12.606,0.813c0.813-0.732-3.985-2.277-8.295-5.693c-4.31-3.416-3.822-4.717-4.148-7.401&#10;&#9;&#9;&#9;&#9;&#9;&#9;s-5.612-30.905-5.612-30.905s-0.813-6.994-1.139-8.783s-1.256-8.96-1.256-8.96S346.595,135.485,343.255,136.478z" id="H1UmBNCRWAz"/>
					<path d="M364.639,191.23c-4.31-3.416-3.822-4.717-4.148-7.401s-5.612-30.905-5.612-30.905&#10;&#9;&#9;&#9;&#9;&#9;&#9;s-0.073-0.627-0.183-1.545c-8.088-1.518-9.753-10.687-10.078-15.243c-0.484,0.104-0.944,0.218-1.363,0.343&#10;&#9;&#9;&#9;&#9;&#9;&#9;c0,0,2.163,9.072,1.947,11.891c-0.217,2.819-0.867,8.458,2.169,15.181c3.036,6.723,9.977,20.82,9.759,23.639&#10;&#9;&#9;&#9;&#9;&#9;&#9;c-0.217,2.819-0.857,8.458,0.005,8.458c0,0,0.185,0.623,3.194,0.461s11.793,1.545,12.606,0.813&#10;&#9;&#9;&#9;&#9;&#9;&#9;C373.748,196.191,368.949,194.645,364.639,191.23z" id="HJD7S4RA-Cz"/>
				</g>
				<g id="SkO7HNACWRf">
					<polygon points="337.228,120.381 341.565,138.816 355.445,136.864 345.725,98.743 327.469,98.26 &#10;&#9;&#9;&#9;&#9;&#9;&#9;323.999,111.706 319.444,138.816 334.192,138.816 &#9;&#9;&#9;&#9;&#9;" id="HytXHEA0ZRf"/>
					<g id="rk9XH4CRWRf">
						<path d="M326.338,115.513c-1.167-1.749,1.501-12.304,2.803-17.115l-2.102-0.138l-3.47,13.446l-4.554,27.109&#10;&#9;&#9;&#9;&#9;&#9;&#9;&#9;h1.972C323.496,130.6,327.387,117.086,326.338,115.513z" id="rJsQS4AC-0z"/>
					</g>
					<path d="M340.159,109.658c0,0,1.782,6.483-2.931,10.723l1.935,8.226l-0.305-7.726&#10;&#9;&#9;&#9;&#9;&#9;&#9;C338.859,120.881,344.551,117.14,340.159,109.658z" id="By3XSEA0-0z"/>
				</g>
			</g>
			<g id="S1pQSEAAbCf">
				<path d="M327.583,133.7c-0.083-0.662-0.65-1.177-1.335-1.177c-0.742,0-1.346,0.604-1.346,1.346&#10;&#9;&#9;&#9;&#9;&#9;s0.604,1.346,1.346,1.346c0.206,0,0.401-0.048,0.576-0.131c-0.02,0.033-0.041,0.065-0.065,0.095&#10;&#9;&#9;&#9;&#9;&#9;c-0.138,0.171-0.334,0.277-0.552,0.3c-0.164,0.017-0.327-0.014-0.471-0.091c-0.159-0.085-0.357-0.024-0.441,0.135&#10;&#9;&#9;&#9;&#9;&#9;c-0.085,0.159-0.024,0.357,0.135,0.441c0.214,0.114,0.449,0.172,0.69,0.172c0.052,0,0.104-0.003,0.156-0.008&#10;&#9;&#9;&#9;&#9;&#9;c0.391-0.041,0.743-0.233,0.991-0.539c0.177-0.219,0.285-0.477,0.318-0.749C327.659,134.518,327.583,133.7,327.583,133.7z&#10;&#9;&#9;&#9;&#9;&#9; M326.248,134.562c-0.382,0-0.693-0.311-0.693-0.693c0-0.382,0.311-0.693,0.693-0.693s0.693,0.311,0.693,0.693&#10;&#9;&#9;&#9;&#9;&#9;C326.941,134.251,326.63,134.562,326.248,134.562z" id="SJ0QSNCCWAM"/>
				<path d="M329.151,132.523c-0.205,0-0.398,0.047-0.572,0.129c-0.046,0.024-0.115,0.074-0.162,0.11v0&#10;&#9;&#9;&#9;&#9;&#9;c-0.283,0.217-0.612-0.042-0.612-0.042v0.079v0.148v2.863c0,0.18,0.146,0.326,0.326,0.326s0.326-0.146,0.326-0.326v-0.789&#10;&#9;&#9;&#9;&#9;&#9;c0.203,0.123,0.44,0.195,0.693,0.195c0.742,0,1.346-0.604,1.346-1.346S329.893,132.523,329.151,132.523z M329.151,134.562&#10;&#9;&#9;&#9;&#9;&#9;c-0.382,0-0.693-0.311-0.693-0.693c0-0.382,0.311-0.693,0.693-0.693c0.382,0,0.693,0.311,0.693,0.693&#10;&#9;&#9;&#9;&#9;&#9;C329.845,134.251,329.533,134.562,329.151,134.562z" id="HkyVrVCCbAM"/>
				<g id="SkgNH4CRW0G">
					<path d="M332.116,135.149h-1.437c-0.173,0-0.313-0.14-0.313-0.313s0.14-0.313,0.313-0.313h1.437&#10;&#9;&#9;&#9;&#9;&#9;&#9;c0.107,0,0.194-0.087,0.194-0.194c0-0.107-0.087-0.194-0.194-0.194h-0.71c-0.452,0-0.82-0.368-0.82-0.82&#10;&#9;&#9;&#9;&#9;&#9;&#9;c0-0.452,0.368-0.82,0.82-0.82h0.988c0.173,0,0.313,0.14,0.313,0.313s-0.14,0.313-0.313,0.313h-0.988&#10;&#9;&#9;&#9;&#9;&#9;&#9;c-0.107,0-0.194,0.087-0.194,0.194s0.087,0.194,0.194,0.194h0.71c0.452,0,0.82,0.368,0.82,0.82&#10;&#9;&#9;&#9;&#9;&#9;&#9;C332.936,134.782,332.568,135.149,332.116,135.149z" id="rkZVB4AAZRz"/>
				</g>
				<circle cx="328.719" cy="131.824" r="0.228" id="ByG4BEARW0M"/>
				<path d="M328.143,132.045c-0.186,0-0.338,0.151-0.338,0.338s0.151,0.338,0.338,0.338&#10;&#9;&#9;&#9;&#9;&#9;c0.186,0,0.338-0.151,0.338-0.338S328.329,132.045,328.143,132.045z M328.303,132.413h-0.129v0.129h-0.062v-0.129h-0.129v-0.062&#10;&#9;&#9;&#9;&#9;&#9;h0.129v-0.129h0.062v0.129h0.129V132.413z" id="HkQ4BNARWCf"/>
			</g>
			<g id="HyEVBEACbAG">
				<path d="M322.374,55.403l1.714-4.263c-7.778-0.276-16.693,10.605-16.693,10.605&#10;&#9;&#9;&#9;&#9;&#9;c-5.37,6.347-7.667,17.849-7.817,18.62c0.847-0.047,2.177-0.163,3.677-0.428v0v4.474l7.608-6.004c0,0,0.91-1.198,1.979-2.836&#10;&#9;&#9;&#9;&#9;&#9;c0.081-0.133,2.803-4.604,3.318-7.891c0.408-0.495,1.791-3.209,3.149-5.959l1.865-3.337L322.374,55.403L322.374,55.403&#10;&#9;&#9;&#9;&#9;&#9;L322.374,55.403z" id="S1rNH40AZ0G"/>
				<g id="BkI4HEAR-Af">
					<path d="M289.457,97.164l-1.456,2.565l2.087,5.116c0,0,1.784-0.767,1.164-3.332l-0.157-0.566l1.313-2.222&#10;&#9;&#9;&#9;&#9;&#9;&#9;C292.408,98.726,292.327,97.26,289.457,97.164z" id="H1wNH4CRZAf"/>
					<path d="M299.422,104.743l2.226-1.129v-1.116c-1.83-0.307-3.404,0.365-3.986,0.66&#10;&#9;&#9;&#9;&#9;&#9;&#9;c-0.861-1.071-2.388-2.388-2.388-2.388c0.584-3.544-2.301-4.889-3.17-5.21c-0.151-0.056-0.242-0.081-0.242-0.081l-0.222,0.063&#10;&#9;&#9;&#9;&#9;&#9;&#9;c-2.638,0.075-2.56,3.571-2.56,3.571l7.676,6.982l5.28,2.317l0.853-1.009C302.31,106.293,300.672,105.342,299.422,104.743z" id="SJ_4HV0CW0z"/>
					<g id="rJFEHECRZRf">
						<path d="M290.379,104.845c-0.18,0-0.353-0.105-0.427-0.282c-0.102-0.235,0.005-0.507,0.24-0.609l0,0&#10;&#9;&#9;&#9;&#9;&#9;&#9;&#9;c0.058-0.027,1.415-0.669,0.898-2.797l-0.205-0.742l1.415-2.391c0.129-0.224,0.416-0.3,0.636-0.164&#10;&#9;&#9;&#9;&#9;&#9;&#9;&#9;c0.222,0.131,0.295,0.415,0.164,0.636l-1.211,2.053l0.104,0.375c0.569,2.344-0.687,3.564-1.429,3.882&#10;&#9;&#9;&#9;&#9;&#9;&#9;&#9;C290.502,104.832,290.44,104.845,290.379,104.845z" id="ryqErVAC-0z"/>
					</g>
				</g>
				<path d="M310.806,78.258l-6.408,0.092l-1.998-0.314c-0.542,0.225-1.584,0.7-2.622,1.387l0,0.001l-0.012,0.007&#10;&#9;&#9;&#9;&#9;&#9;c-0.167,0.111-0.332,0.227-0.497,0.349c-0.766,0.601-2.171,2.024-2.518,4.631c-0.159,1.193-0.617,2.33-1.158,3.127&#10;&#9;&#9;&#9;&#9;&#9;c-1.545,2.965-4.005,5.836-4.005,5.836c-0.853,1.202-1.383,2.428-1.721,3.603c1.3-0.614,2.606-0.733,3.741-0.113&#10;&#9;&#9;&#9;&#9;&#9;c0.047,0.026,0.41,0.275,0.453,0.301c2.46-1.189,11.73-6.939,16.803-18.758C310.865,78.406,310.843,78.352,310.806,78.258z" id="SyiESVRRW0f"/>
			</g>
			<g id="HJ3VH40CbCM">
				<g id="ry6VH4AAb0f_B1NwykfRz" data-animator-group="true" data-animator-type="0"><g id="ry6VH4AAb0f">
					<g id="H10NBNCAWRM">
						<circle cx="294.205" cy="106.373" r="6.361" id="ryyHr40R-Rz"/>
						<circle cx="294.205" cy="106.373" r="4.512" id="BkgrrVR0bAz"/>
					</g>
					<g id="rJ-BS40CZCz">
						<path d="M293.981,109.07v-0.663c-0.381-0.006-0.776-0.125-1.005-0.289l0.158-0.44&#10;&#9;&#9;&#9;&#9;&#9;&#9;&#9;c0.236,0.157,0.578,0.282,0.946,0.282c0.466,0,0.782-0.27,0.782-0.644c0-0.361-0.256-0.585-0.743-0.782&#10;&#9;&#9;&#9;&#9;&#9;&#9;&#9;c-0.67-0.263-1.084-0.565-1.084-1.137c0-0.545,0.388-0.959,0.992-1.058v-0.664h0.407v0.638&#10;&#9;&#9;&#9;&#9;&#9;&#9;&#9;c0.394,0.013,0.664,0.118,0.854,0.23l-0.164,0.434c-0.138-0.079-0.407-0.224-0.828-0.224c-0.506,0-0.697,0.302-0.697,0.565&#10;&#9;&#9;&#9;&#9;&#9;&#9;&#9;c0,0.341,0.243,0.513,0.815,0.749c0.677,0.276,1.018,0.617,1.018,1.202c0,0.519-0.361,1.005-1.038,1.117v0.683H293.981z" id="HyMSBERAbRf"/>
					</g>
				</g></g>
				<polygon fill-rule="evenodd" clip-rule="evenodd" points="299.35,104.12 296.51,106.683 298.789,103.621 &#10;&#9;&#9;&#9;&#9;&#9;297.179,101.134 299.647,102.747 302.309,100.363 300.132,103.375 302.126,105.818 &#9;&#9;&#9;&#9;" id="HkmHr4CC-0G"/>
			</g>
			<polygon fill-rule="evenodd" clip-rule="evenodd" points="310.808,146.467 309.023,148.078 310.456,146.153 &#10;&#9;&#9;&#9;&#9;309.444,144.589 310.995,145.603 312.669,144.105 311.3,145.998 312.554,147.535 &#9;&#9;&#9;" id="rkVrSNRCWRG"/>
			<g id="SkrSHERCb0f">
				<path d="M320.599,94.757c0,0-6.901-4.218-7.973-7.647c-1.071-3.429-7.464-3.637-7.464-3.637l9.619-9.154&#10;&#9;&#9;&#9;&#9;&#9;c5.733-9.856,3.51-20.007,3.51-20.007c-7.751,0.705-15.226,12.62-15.226,12.62c-4.687,7.215-5.417,19.531-5.417,19.531&#10;&#9;&#9;&#9;&#9;&#9;c9.828,11.232,22.221,12.145,22.221,12.145c-4.507,2.609-2.104,5.932-2.104,5.932l-2.818,0.867l0.191,1.504l7.115,0.88&#10;&#9;&#9;&#9;&#9;&#9;l2.634-5.607c0.085-0.271,0.152-0.534,0.198-0.789C324.528,99.422,323.305,96.772,320.599,94.757z" id="BkUBBV0Cb0f"/>
				<path d="M323.949,100.128l-0.038-0.303c-0.934-2.598-4.126-4.942-4.126-4.942l0,0&#10;&#9;&#9;&#9;&#9;&#9;c-2.44-1.732-7.762-5.682-8.655-7.814c-1.166-2.781-7.066-3.049-7.066-3.049s2.18-6.697,7.301-10.958&#10;&#9;&#9;&#9;&#9;&#9;c2.005-1.85,3.295-3.602,4.137-5.177c-1.038-0.555-2.028-1.172-2.919-1.843c-2.793-2.101-3.722-4.317-3.919-6.107&#10;&#9;&#9;&#9;&#9;&#9;c-3.382,3.422-5.584,7.097-5.584,7.097c-4.687,7.215-5.417,19.531-5.417,19.531c9.828,11.232,22.221,12.145,22.221,12.145&#10;&#9;&#9;&#9;&#9;&#9;c-4.507,2.609-2.103,5.931-2.103,5.931l-2.819,0.867l0.067,0.528l6.279,0.252c0,0,3.084-4.209,2.864-5.184&#10;&#9;&#9;&#9;&#9;&#9;c-0.005-0.256-0.049-0.512-0.109-0.767L323.949,100.128z" id="HJvHB4RAZCG"/>
			</g>
			
				<ellipse fill-rule="evenodd" clip-rule="evenodd" cx="285.464" cy="194.339" rx="22.447" ry="5.368" id="SJOSSNCAWRf"/>
			<linearGradient id="SVGID_1_" gradientUnits="userSpaceOnUse" x1="287.7105" y1="165.7767" x2="292.5175" y2="217.0514">
				<stop offset="0" style="stop-color:#FFFFFF"/>
				<stop offset="0.6221" style="stop-color:#616161"/>
			</linearGradient>
			<path d="M301.498,144.486c-0.009-0.001-0.018-0.002-0.027-0.003c-7.21-0.815-15.803-0.745-22.153-0.511&#10;&#9;&#9;&#9;&#9;c-2.588,0.026-5.638,0.166-9.074,0.508c-0.02,0.002-0.033,0.003-0.033,0.003l0,0c-2.872,0.287-6.011,0.716-9.376,1.34&#10;&#9;&#9;&#9;&#9;c0,0,6.89,39.738,6.89,47.75c0,0,4.774,3.671,18.116,3.14c13.342,0.53,18.116-3.14,18.116-3.14c0-8.012,6.89-47.75,6.89-47.75&#10;&#9;&#9;&#9;&#9;C307.492,145.201,304.362,144.773,301.498,144.486z" id="BytHB4ACWAf"/>
			<linearGradient id="SVGID_2_" gradientUnits="userSpaceOnUse" x1="286.6465" y1="154.407" x2="292.3081" y2="216.6844">
				<stop offset="0" style="stop-color:#FFFFFF"/>
				<stop offset="0.6221" style="stop-color:#616161"/>
			</linearGradient>
			<path d="M263.872,163.84c11.691-1.278,29.173-1.894,43.457,3.018c1.746-11.113,3.516-21.324,3.516-21.324&#10;&#9;&#9;&#9;&#9;c-3.354-0.623-6.484-1.051-9.348-1.338c-0.009-0.001-0.018-0.002-0.027-0.003c-7.21-0.815-15.803-0.745-22.153-0.511&#10;&#9;&#9;&#9;&#9;c-2.588,0.026-5.638,0.166-9.074,0.508c-0.02,0.002-0.033,0.003-0.033,0.003l0,0c-2.872,0.287-6.011,0.716-9.376,1.34&#10;&#9;&#9;&#9;&#9;C260.834,145.534,262.296,153.963,263.872,163.84z" id="H1qBB40AbRM"/>
			<g id="rksSSVC0bCG">
				<path d="M297.685,176.427c-5.519,0-10.703-0.967-15.455-2.886c-4.686-1.893-8.964-4.711-12.714-8.377&#10;&#9;&#9;&#9;&#9;&#9;c-6.383-6.239-9.06-12.868-9.087-12.935l-0.118-0.298h1.781v-0.453h0.436v0.889h-1.566c0.596,1.353,3.317,7.073,8.872,12.498&#10;&#9;&#9;&#9;&#9;&#9;c5.826,5.69,16.058,12.21,31.71,10.972c0.212-0.035,5.072-0.882,7.697-5.188c2.2-3.61,2.257-8.573,0.171-14.753l0.413-0.139&#10;&#9;&#9;&#9;&#9;&#9;c2.131,6.31,2.059,11.398-0.214,15.124c-2.779,4.554-7.956,5.38-8.008,5.388l-0.015,0.002&#10;&#9;&#9;&#9;&#9;&#9;C300.268,176.375,298.967,176.427,297.685,176.427z" id="HynrHVAC-RG"/>
			</g>
			<g id="S1TBBECA-Cz">
				<path d="M287.323,164.123v-1.806c-1.172-0.038-2.346-0.373-3.016-0.819l0.502-1.751&#10;&#9;&#9;&#9;&#9;&#9;c0.726,0.429,1.769,0.819,2.905,0.819c1.174,0,1.974-0.576,1.974-1.471c0-0.837-0.652-1.378-2.03-1.88&#10;&#9;&#9;&#9;&#9;&#9;c-1.954-0.708-3.22-1.601-3.22-3.334c0-1.601,1.117-2.829,2.998-3.164v-1.826h1.527v1.732c1.174,0.038,1.974,0.317,2.57,0.616&#10;&#9;&#9;&#9;&#9;&#9;l-0.503,1.712c-0.446-0.205-1.266-0.632-2.532-0.632c-1.304,0-1.769,0.67-1.769,1.304c0,0.763,0.672,1.192,2.253,1.824&#10;&#9;&#9;&#9;&#9;&#9;c2.086,0.782,3.017,1.788,3.017,3.445c0,1.583-1.099,2.979-3.148,3.314v1.918H287.323z" id="BJCHrNR0WRG"/>
			</g>
		</g>
	</g>
</g>
<script>(function(){var a=document.querySelector('#BkrNAR-AM'),b=a.querySelectorAll('style'),c=function(d){b.forEach(function(f){var g=f.textContent;g&amp;&amp;(f.textContent=g.replace(/transform-box:[^;\r\n]*/gi,'transform-box: '+d))})};c('initial'),window.requestAnimationFrame(function(){return c('fill-box')})})();</script></svg>