<svg version="1.1" id="rJY17aWRz" xmlns="http://www.w3.org/2000/svg" xmlns:xlink="http://www.w3.org/1999/xlink" x="0px" y="0px" viewBox="0 0 600 350" enable-background="new 0 0 700 350" xml:space="preserve"  width="710px" height="355px">

<!--[if !IE]><!-->
<style>

@-webkit-keyframes BJoBF1QpWRz_Animation{0%{opacity: 0;}26.67%{opacity: 1;}100%{opacity: 1;}}@keyframes BJoBF1QpWRz_Animation{0%{opacity: 0;}26.67%{opacity: 1;}100%{opacity: 1;}}@-webkit-keyframes S1yStymTZRf_Animation{0%{opacity: 0;}6.67%{opacity: 1;}30%{opacity: 0;}100%{opacity: 0;}}@keyframes S1yStymTZRf_Animation{0%{opacity: 0;}6.67%{opacity: 1;}30%{opacity: 0;}100%{opacity: 0;}}@-webkit-keyframes S1yStymTZRf_S1-F9pZ0G_Animation{10%{-webkit-transform: translate(0px, 8px);transform: translate(0px, 8px);}13.33%{-webkit-transform: translate(0px, 12px);transform: translate(0px, 12px);}16.67%{-webkit-transform: translate(0px, 16px);transform: translate(0px, 16px);}20%{-webkit-transform: translate(0px, 18px);transform: translate(0px, 18px);}23.33%{-webkit-transform: translate(0px, 22px);transform: translate(0px, 22px);}26.67%{-webkit-transform: translate(0px, 26px);transform: translate(0px, 26px);}30%{-webkit-transform: translate(0px, 32px);transform: translate(0px, 32px);}33.33%{-webkit-transform: translate(0px, 38px);transform: translate(0px, 38px);}0%{-webkit-transform: translate(0px, 8px);transform: translate(0px, 8px);}100%{-webkit-transform: translate(0px, 38px);transform: translate(0px, 38px);}}@keyframes S1yStymTZRf_S1-F9pZ0G_Animation{10%{-webkit-transform: translate(0px, 8px);transform: translate(0px, 8px);}13.33%{-webkit-transform: translate(0px, 12px);transform: translate(0px, 12px);}16.67%{-webkit-transform: translate(0px, 16px);transform: translate(0px, 16px);}20%{-webkit-transform: translate(0px, 18px);transform: translate(0px, 18px);}23.33%{-webkit-transform: translate(0px, 22px);transform: translate(0px, 22px);}26.67%{-webkit-transform: translate(0px, 26px);transform: translate(0px, 26px);}30%{-webkit-transform: translate(0px, 32px);transform: translate(0px, 32px);}33.33%{-webkit-transform: translate(0px, 38px);transform: translate(0px, 38px);}0%{-webkit-transform: translate(0px, 8px);transform: translate(0px, 8px);}100%{-webkit-transform: translate(0px, 38px);transform: translate(0px, 38px);}}@-webkit-keyframes HkGEtJmpW0f_Animation{0%{opacity: 0;}6.67%{opacity: 1;}13.33%{opacity: 0;}100%{opacity: 0;}}@keyframes HkGEtJmpW0f_Animation{0%{opacity: 0;}6.67%{opacity: 1;}13.33%{opacity: 0;}100%{opacity: 0;}}@-webkit-keyframes SkuHYJmpWRz_Animation{0%{opacity: 1;}6.67%{opacity: 0;}13.33%{opacity: 1;}100%{opacity: 1;}}@keyframes SkuHYJmpWRz_Animation{0%{opacity: 1;}6.67%{opacity: 0;}13.33%{opacity: 1;}100%{opacity: 1;}}@-webkit-keyframes SkuHYJmpWRz_r11sPp-Cz_Animation{0%{-webkit-transform: translate(2px, -2px);transform: translate(2px, -2px);}100%{-webkit-transform: translate(2px, -2px);transform: translate(2px, -2px);}}@keyframes SkuHYJmpWRz_r11sPp-Cz_Animation{0%{-webkit-transform: translate(2px, -2px);transform: translate(2px, -2px);}100%{-webkit-transform: translate(2px, -2px);transform: translate(2px, -2px);}}#rJY17aWRz *{-webkit-animation-duration: 3s;animation-duration: 3s;-webkit-animation-iteration-count: infinite;animation-iteration-count: infinite;-webkit-animation-timing-function: cubic-bezier(0, 0, 1, 1);animation-timing-function: cubic-bezier(0, 0, 1, 1);}#r1lYkXaWCf{fill: #3A8580;}#BJ-FJ7TZAM{fill: #3A8580;}#BJfF1Q6bRM{fill: #116E39;}#S1mFkm6bCG{fill: #0C562C;}#S1VtkQaWCf{opacity: 0.8;fill: #A1D7EA;}#BkIFJ7T-0G{fill: #DBC66A;}#rJDYkX6WCG{opacity: 0.8;fill: #AE9330;}#By_FJm6bAz{fill: #DBC66A;}#HkFFkQ6ZAG{opacity: 0.8;}#r19KJmp-0z{fill: #A1D7EA;}#B1oF1maZ0M{fill: #A1D7EA;}#Hk3FkmTWCG{fill: #A1D7EA;}#HkaYkm6b0M{opacity: 0.8;fill: #A1D7EA;}#SyCKJmTbCM{opacity: 0.8;fill: #A1D7EA;}#SJxgty7aZAM{opacity: 0.3;fill: #AE9330;}#SkZxtJmaWCz{fill: #FCB667;}#SJmlKkQ6Z0G{fill: #F6A859;}#r18eYyX6WRz{fill: #FCB763;}#HyPeKkma-AM{fill: #91351F;}#S1tgKy7aZCz{fill: #67150F;}#SJ9gFyXa-Af{fill: #FEF4F8;}#rJjeYk76ZCG{fill: #D06128;}#H1pxKJXp-Cz{fill: #91351F;}#B10eYkXT-CG{fill: #3C2118;}#B1k-tyX6b0M{fill: #6F3C2F;}#HJgWYkmTZRG{fill: #6F3C2F;}#BkZWYkmTZ0z{fill: #F49D4E;}#B17WtyQ6ZCG{fill: #91351F;}#BkEbYk76-0G{fill: #91351F;}#SJBZFkmaWAf{fill: #FCB763;}#SyPWt17TWCG{fill: none;stroke: #F49D4E;stroke-width: 0.25;}#SyuWF1m6-Cf{fill: none;stroke: #F49D4E;stroke-width: 0.25;}#BytWFJmpZ0G{fill: #EE843E;}#HJcZFym6WAG{fill: #EE843E;}#SkjWtJm6-0z{fill: #F49D4E;}#BJhZKyQ6WCf{fill: #E46528;}#S1AZYyQTZ0G{fill: #CE5327;}#S11fFkQTZCz{fill: #CE5327;}#Sk-zKyXT-CM{fill: #CE5327;}#SkGftyQTbAf{fill: #CE5327;}#rJ7GF1QpZCz{fill: #CE5327;}#S1VMFJm6ZCz{fill: #D75427;}#S1IMKy7TWCG{fill: #F9FAFD;}#SyPztJXp-RG{fill: #F9FAFD;}#S1tfYyQ6-Rz{fill: #F9FAFD;}#SycGF1Q6bCM{fill: #F9FAFD;}#BJsztkma-0f{fill: #F9FAFD;}#S1hzYyXp-0z{fill: #D75427;}#SypfFymTWRG{fill: #D75427;}#S1CzKJQTbAf{fill: #E46528;}#HkJQFk7TWRz{fill: #F49D4E;}#BJZXKJXaWAM{fill: #FCB667;}#S1GmFJ76-Cf{fill: #F49D4E;}#BkNmF1XpWAf{fill: #FCB667;}#r1HQY1m6ZAG{fill: #F49D4E;}#rJDmYy76ZRf{fill: #FCD235;}#rJtQFJQa-CM{fill: #DAAC27;}#r1q7t1Q6ZRf{fill: #DAAC27;}#HkhXKJmTZAG{fill: #E46528;}#BJaQYyXpW0z{fill: #E46528;}#ryJVtyQabRz{fill: #E46528;}#Syg4KyQTZRG{fill: #E46528;}#BkZNFyQTbRG{fill: #E46528;}#r1mVKkm6ZCM{fill: #FCB667;}#SJSEtkm6bAG{fill: #FCB667;}#SyIEtk7p-Rf{fill: #FCB667;}#BkuVKk76-RG{fill: #EF953B;}#SktNtk7TWCf{fill: #FCB667;}#r1cEtkQTbRf{opacity: 0.3;fill: #9FA2A7;}#BJsVYym6ZRz{fill: url(#SVGID_1_);}#BJhEKy7abRM{fill: url(#SVGID_2_);}#BkANtkQpZRG{fill: #8B8C89;}#rJzrKkXTWCz{fill: #EEB349;}#B1QrK1mTWCz{fill: #CD8329;}#H1BrK1QT-Cf{fill: #A06427;}#rkIBFyX6-RM{fill: #FFFFFF;}#rJwHYJ7aWCz{fill: #FFFFFF;visibility: hidden;}#ryKrYkmpWRM{fill: #FCB667;}#SycrKkma-RG{opacity: 0.6;fill: #F49D4E;}#SyhHFJm6ZAz{fill: #8B8C89;}#SkuHYJmpWRz_r11sPp-Cz{-webkit-animation-name: SkuHYJmpWRz_r11sPp-Cz_Animation;animation-name: SkuHYJmpWRz_r11sPp-Cz_Animation;-webkit-transform-origin: 50% 50%;transform-origin: 50% 50%;transform-box: fill-box;-webkit-transform: translate(2px, -2px);transform: translate(2px, -2px);}#SkuHYJmpWRz{-webkit-animation-name: SkuHYJmpWRz_Animation;animation-name: SkuHYJmpWRz_Animation;-webkit-transform-origin: 50% 50%;transform-origin: 50% 50%;transform-box: fill-box;opacity: 1;}#HkGEtJmpW0f{-webkit-transform-origin: 50% 50%;transform-origin: 50% 50%;transform-box: fill-box;-webkit-animation-name: HkGEtJmpW0f_Animation;animation-name: HkGEtJmpW0f_Animation;opacity: 0;}#S1yStymTZRf_S1-F9pZ0G{-webkit-animation-name: S1yStymTZRf_S1-F9pZ0G_Animation;animation-name: S1yStymTZRf_S1-F9pZ0G_Animation;-webkit-transform-origin: 50% 50%;transform-origin: 50% 50%;transform-box: fill-box;-webkit-transform: translate(0px, 8px);transform: translate(0px, 8px);}#S1yStymTZRf{-webkit-animation-name: S1yStymTZRf_Animation;animation-name: S1yStymTZRf_Animation;-webkit-transform-origin: 50% 50%;transform-origin: 50% 50%;transform-box: fill-box;opacity: 0;}#BJoBF1QpWRz{-webkit-animation-name: BJoBF1QpWRz_Animation;animation-name: BJoBF1QpWRz_Animation;-webkit-transform-origin: 50% 50%;transform-origin: 50% 50%;transform-box: fill-box;opacity: 0;}
</style>


<path d="M605.81,163.846c-0.077-0.168-0.444-0.373-1.064-0.606c-0.349-0.158-0.759-0.32-1.232-0.485&#10;&#9;c-1.806-0.818-4.642-1.407-6.521-1.734c-2.302-0.511-5.041-1.059-8.24-1.655c-11.083-2.066-22.894-3.142-34.44-3.678&#10;&#9;c-20.252-1.629-44.037-2.421-66.718-0.96c-0.2-0.037-0.418-0.07-0.601-0.111c-10.303-2.29-47.654-10.161-74.967-10.209&#10;&#9;c-5.059-0.009-9.773,0.25-13.907,0.862c-25.403,3.763-26.415,3.913-26.455,3.919c-0.06-0.01-24.84-3.981-54.868-3.919&#10;&#9;c-14.683,0.03-30.621,1.025-45.537,3.919c-15.624,3.032-32.13,3.819-48.994,3.877c-15.331,0.053-30.957-0.497-46.487-0.51&#10;&#9;c-17.083-0.015-34.049,0.619-50.374,3.418c-5.918,1.015-11.143,1.921-15.747,2.743c-0.066,0.012-0.129,0.023-0.195,0.035&#10;&#9;c-1.033,0.185-2.036,0.365-3.005,0.541c-0.189,0.034-0.372,0.068-0.559,0.102c-0.842,0.154-1.663,0.305-2.456,0.452&#10;&#9;c-0.237,0.044-0.467,0.087-0.7,0.131c-0.711,0.133-1.406,0.264-2.076,0.392c-0.27,0.051-0.534,0.102-0.797,0.153&#10;&#9;c-0.616,0.119-1.216,0.236-1.797,0.35c-0.269,0.053-0.535,0.106-0.796,0.158c-0.539,0.108-1.062,0.214-1.569,0.318&#10;&#9;c-0.265,0.054-0.53,0.109-0.787,0.162c-0.481,0.1-0.943,0.199-1.394,0.296c-0.244,0.053-0.491,0.106-0.727,0.157&#10;&#9;c-0.426,0.094-0.831,0.185-1.228,0.276c-0.229,0.052-0.464,0.105-0.684,0.157c-0.379,0.089-0.734,0.175-1.085,0.261&#10;&#9;c-0.201,0.049-0.41,0.099-0.602,0.148c-0.342,0.086-0.658,0.171-0.971,0.255c-0.171,0.046-0.352,0.092-0.514,0.137&#10;&#9;c-0.316,0.088-0.602,0.173-0.886,0.258c-0.129,0.039-0.271,0.078-0.394,0.116c-0.309,0.096-0.586,0.19-0.854,0.283&#10;&#9;c-0.074,0.026-0.16,0.052-0.231,0.077c-0.33,0.118-0.629,0.235-0.894,0.349c-0.024,0.011-0.041,0.02-0.065,0.031&#10;&#9;c-0.233,0.102-0.444,0.203-0.626,0.303c-0.068,0.037-0.115,0.073-0.175,0.11c-0.119,0.072-0.238,0.144-0.33,0.215&#10;&#9;c-0.055,0.043-0.091,0.085-0.136,0.127c-0.069,0.064-0.14,0.127-0.186,0.19c-0.033,0.045-0.049,0.089-0.071,0.133&#10;&#9;c-0.03,0.059-0.061,0.119-0.072,0.177c-0.008,0.045-0.001,0.09,0.002,0.135c0.004,0.057,0.009,0.114,0.032,0.17&#10;&#9;c0.018,0.045,0.049,0.091,0.078,0.136c0.036,0.055,0.076,0.111,0.13,0.166c0.044,0.046,0.098,0.091,0.154,0.136&#10;&#9;c0.068,0.055,0.141,0.11,0.226,0.165c0.07,0.045,0.147,0.091,0.228,0.136c0.099,0.055,0.205,0.11,0.32,0.165&#10;&#9;c0.095,0.045,0.194,0.091,0.301,0.136c0.13,0.056,0.27,0.112,0.417,0.168c0.118,0.045,0.237,0.09,0.366,0.135&#10;&#9;c0.162,0.057,0.337,0.114,0.515,0.172c0.14,0.045,0.28,0.09,0.431,0.136c0.195,0.059,0.405,0.118,0.617,0.178&#10;&#9;c0.158,0.044,0.313,0.089,0.48,0.133c0.235,0.063,0.487,0.126,0.74,0.19c0.171,0.043,0.335,0.086,0.514,0.129&#10;&#9;c0.282,0.068,0.585,0.138,0.887,0.208c0.172,0.04,0.336,0.079,0.514,0.119c0.349,0.078,0.721,0.159,1.096,0.239&#10;&#9;c0.154,0.033,0.298,0.065,0.456,0.099c0.029,0.006,0.055,0.012,0.085,0.018l-0.001-0.001c1.075,0.226,2.239,0.46,3.499,0.704&#10;&#9;c21.03,4.07,116.684,14.925,172.312,14.246c3.911-0.048,8.164-0.057,12.7-0.04c0.791,0.894,1.242,1.888,1.925,2.707&#10;&#9;c1.593,1.911,5.096,0.318,6.689,3.185c0.576,1.037,1.237,2.783,2.01,4.574c-0.496,20.253-8.444,37.125-9.406,39.094&#10;&#9;c0.491-14.649-10.307-29.949-10.307-29.949c0.604,24.777,8.335,29.233,9.99,29.906c-0.022,0.028-0.044,0.054-0.066,0.081&#10;&#9;c-14.833,0.513-29.033-12.421-29.033-12.421c8.767,16.028,25.948,13.16,28.954,12.518c-4.587,5.656-13.307,6.727-13.307,6.727&#10;&#9;c8.277,5.932,12.946-4.826,13.666-6.656c1.255,1.493,7.057,7.104,19.546,1.28c0,0-12.842,2.306-19.432-1.407&#10;&#9;c0.005-0.005,0.01-0.012,0.015-0.017c14.62-1.624,17.826-18.653,17.826-18.653l-17.472,18.257&#10;&#9;c5.167-5.906,9.612-22.304,12.164-33.454c0.667,0.64,1.388,1.02,2.176,0.948c3.504-0.318,5.415,5.415,9.874,5.096&#10;&#9;c2.097-0.15,8-2.202,14.128-4.201c-0.387,8.487-4.45,17.473-5.141,18.94c-0.233-1.179-1.564-7.065-5.741-11.994&#10;&#9;c0,0-0.453,8.922,5.667,12.15c-0.001,0.002-0.002,0.005-0.003,0.007c-10.341-0.437-14.292-4.742-14.292-4.742&#10;&#9;c3.22,6.187,12.573,5.062,14.263,4.804l-0.001,0.002h0.139c-0.63,0.627-3.141,2.954-5.164,2.36c0,0,3.261,1.539,5.232-2.36h0.079&#10;&#9;c0.6,0.64,3.217,2.951,7.794,0.376l-0.124-0.002c0,0-5.348,1.416-7.628-0.394c6.103-0.435,7.255-6.386,7.255-6.386&#10;&#9;c-2.198,3.434-6.307,5.796-7.236,6.301c4.798-8.525,6.019-15.385,6.238-19.496c6.471-2.087,12.903-3.959,15.113-3.328&#10;&#9;c4.459,1.274,7.644-4.459,15.607-4.459c2.743,0,5.508,1.219,8.22,2.831c1.665,8.423,5.139,15.296,6.662,18.029&#10;&#9;c-6.229-2.19-12.153-10.19-12.317-10.414c-0.006-0.009-0.011-0.015-0.017-0.024c0.001-0.083-0.005-0.163,0-0.246v0.246&#10;&#9;c-0.348-0.494-0.555-0.807-0.555-0.807c0.208,1.178,0.532,2.247,0.941,3.222c0.298,0.865,0.751,1.67,1.314,2.418&#10;&#9;c3.249,4.794,8.73,6.451,10.856,6.928c-4.488,1.907-11.456,1.123-11.456,1.123c4.739,3.131,10.604,0.152,12.282-0.742&#10;&#9;c0.355,1.261,1.394,3.909,5.322,6.008c0,0,2.508,1.053,4.915-1.605c0,0-6.706-0.752-9.61-4.679c1.831,0.412,6.029,0.79,12.017-1.439&#10;&#9;l1.304-3.511c0,0-7.74,3.437-13.027,4.024c3.664-2.639,5.656-8.358,6.285-10.453c5.814,0.809,5.663,4.451,9.671,6.609&#10;&#9;c4.141,2.229,8.6,0.955,9.237,3.504c0.637,2.548,1.274,17.518,6.052,20.066c4.777,2.548,2.548,6.052,4.459,9.237&#10;&#9;c1.911,3.185,5.733,9.555,15.925,11.785c10.192,2.23,10.192,14.014,10.511,16.881c0.319,2.867,8.281,6.052,14.333,4.141l4.141-1.911&#10;&#9;l5.415,2.491c0,0,7.326-2.809,7.963-8.542s9.874-15.925,13.696-16.881c3.822-0.955,6.37-4.459,7.007-8.6&#10;&#9;c0.637-4.141,4.141-15.925,5.096-19.747c0.956-3.822,0-8.918,0-8.918s11.148-4.141,10.511-7.007&#10;&#9;c-0.46-2.069-0.742-0.505,1.047-2.221c2.162,10.327,7.256,31.901,13.35,38.866l-17.472-18.257c0,0,3.206,17.029,17.826,18.653&#10;&#9;c0.005,0.005,0.01,0.012,0.015,0.017c-6.59,3.713-19.432,1.407-19.432,1.407c12.488,5.824,18.291,0.212,19.546-1.28&#10;&#9;c0.719,1.83,5.388,12.588,13.666,6.656c0,0-8.72-1.071-13.307-6.727c3.007,0.642,20.187,3.509,28.954-12.518&#10;&#9;c0,0-14.2,12.934-29.033,12.421c-0.022-0.027-0.044-0.054-0.066-0.081c1.655-0.672,9.386-5.128,9.99-29.906&#10;&#9;c0,0-10.798,15.3-10.307,29.949c-1.055-2.161-10.536-22.277-9.328-45.115c3.329-5.853,1.721-8.553,6.016-9.698&#10;&#9;c1.346-0.359,2.484-0.617,3.482-0.888c0.327,4.172,1.677,10.73,6.193,18.753c-0.929-0.505-5.039-2.868-7.236-6.301&#10;&#9;c0,0,1.152,5.95,7.255,6.386c-2.281,1.81-7.628,0.394-7.628,0.394l-0.124,0.002c4.576,2.575,7.194,0.264,7.794-0.376h0.079&#10;&#9;c1.971,3.9,5.231,2.36,5.231,2.36c-2.023,0.594-4.534-1.733-5.164-2.36h0.139l-0.001-0.002c1.69,0.258,11.042,1.383,14.263-4.804&#10;&#9;c0,0-3.952,4.304-14.293,4.742c-0.001-0.002-0.002-0.005-0.003-0.007c6.12-3.228,5.667-12.15,5.667-12.15&#10;&#9;c-4.177,4.929-5.508,10.814-5.741,11.994c-0.693-1.472-4.781-10.512-5.145-19.024c1.835-0.641,3.154-1.563,4.468-3.816&#10;&#9;c1.26-2.161,4.25-4.219,6.612-5.6c14.492-1.659,29.895-3.717,43.491-5.801l0.001,0l0.048-0.008c3.448-0.529,6.778-1.059,9.946-1.584&#10;&#9;l0.036-0.006l0,0c4.913-0.815,9.438-1.618,13.401-2.387c3.328-0.645,5.813-1.259,7.641-1.839c1.31-0.261,2.821-0.661,3.84-1.229&#10;&#9;C606.282,165.149,606.66,164.523,605.81,163.846z M367.707,213.772c-2.364-3.799-4.632-11.915-5.632-16.571&#10;&#9;c2.461,1.615,4.857,3.389,7.13,4.727l0.946,0.439C369.805,208.949,368.152,212.832,367.707,213.772z M528.48,177.459&#10;&#9;c0.129-0.066,0.252-0.129,0.363-0.184c8.232-1.218,15.88-2.296,22.916-3.264C544.144,175.271,536.119,176.434,528.48,177.459z" id="r1lYkXaWCf"/>
<path d="M442.421,165.638c-7.69,1.976-21.298,4.146-35.069-0.011c-4.796,17.377-22.699,93.341,17.533,135.325&#10;&#9;C465.108,258.977,447.222,183.036,442.421,165.638z" id="BJ-FJ7TZAM"/>
<path d="M521.755,144.3c-1.324-2.27-2.653-3.2-4.503-3.846c0.366-8.579,4.487-17.691,5.185-19.174&#10;&#9;c0.235,1.189,1.576,7.121,5.786,12.089c0,0,0.456-8.993-5.712-12.246c0.001-0.002,0.002-0.005,0.003-0.007&#10;&#9;c10.423,0.441,14.406,4.779,14.406,4.779c-3.246-6.236-12.673-5.102-14.376-4.842l0.001-0.002h-0.14&#10;&#9;c0.635-0.632,3.166-2.977,5.205-2.379c0,0-3.287-1.551-5.273,2.379h-0.08c-0.605-0.645-3.243-2.974-7.855-0.379l0.125,0.002&#10;&#9;c0,0,5.39-1.427,7.689,0.397c-6.152,0.439-7.313,6.436-7.313,6.436c2.215-3.461,6.357-5.842,7.293-6.351&#10;&#9;c-4.552,8.087-5.913,14.697-6.242,18.902c-1.006-0.273-2.154-0.533-3.51-0.895c-4.329-1.154-2.708-3.876-6.064-9.775&#10;&#9;c-1.217-23.019,8.339-43.295,9.402-45.473c-0.495,14.765,10.389,30.186,10.389,30.186c-0.609-24.974-8.401-29.465-10.07-30.143&#10;&#9;c0.022-0.028,0.044-0.055,0.066-0.082c14.951-0.517,29.263,12.519,29.263,12.519c-8.837-16.155-26.153-13.265-29.184-12.618&#10;&#9;c4.623-5.701,13.412-6.78,13.412-6.78c-8.343-5.979-13.049,4.864-13.774,6.708c-1.265-1.504-7.113-7.161-19.7-1.29&#10;&#9;c0,0,12.944-2.324,19.586,1.418c-0.005,0.005-0.01,0.012-0.015,0.017c-14.736,1.637-17.968,18.8-17.968,18.8L515.4,84.251&#10;&#9;c-6.143,7.021-11.277,28.766-13.456,39.174c-1.804-1.73-1.519-0.153-1.056-2.239c0.642-2.889-10.594-7.063-10.594-7.063&#10;&#9;s0.963-5.136,0-8.989c-0.963-3.852-4.494-15.73-5.136-19.904c-0.642-4.173-3.21-7.705-7.063-8.668&#10;&#9;c-3.852-0.963-13.162-11.236-13.804-17.014s-8.026-8.61-8.026-8.61l-5.457,2.511l-4.173-1.926c-6.1-1.926-14.125,1.284-14.446,4.173&#10;&#9;c-0.321,2.889-0.321,14.767-10.594,17.014c-10.273,2.247-14.125,8.668-16.051,11.878c-1.926,3.21,0.321,6.742-4.494,9.31&#10;&#9;c-4.815,2.568-5.457,17.657-6.1,20.225c-0.642,2.568-5.137,1.284-9.31,3.531c-4.04,2.175-3.887,5.846-9.748,6.661&#10;&#9;c-0.634-2.112-2.641-7.876-6.334-10.536c5.329,0.592,13.131,4.056,13.131,4.056l-1.314-3.538c-6.035-2.247-10.267-1.865-12.112-1.45&#10;&#9;c2.927-3.958,9.686-4.717,9.686-4.717c-2.426-2.679-4.954-1.618-4.954-1.618c-3.959,2.116-5.006,4.785-5.364,6.056&#10;&#9;c-1.691-0.901-7.602-3.905-12.379-0.748c0,0,7.023-0.79,11.546,1.132c-2.142,0.481-7.667,2.151-10.942,6.983&#10;&#9;c-0.568,0.754-1.025,1.566-1.325,2.438c-0.412,0.982-0.739,2.06-0.948,3.247c0,0,0.209-0.315,0.56-0.814v0.248&#10;&#9;c-0.004-0.084,0.002-0.165,0-0.248c0.006-0.008,0.011-0.015,0.017-0.024c0.166-0.226,6.137-8.289,12.415-10.496&#10;&#9;c-1.535,2.755-5.037,9.682-6.715,18.172c-2.733,1.624-5.521,2.853-8.285,2.853c-8.026,0-11.236-5.778-15.73-4.494&#10;&#9;c-2.227,0.636-8.711-1.25-15.233-3.354c-0.222-4.144-1.451-11.058-6.288-19.65c0.937,0.509,5.079,2.89,7.294,6.351&#10;&#9;c0,0-1.161-5.998-7.313-6.436c2.299-1.824,7.689-0.397,7.689-0.397l0.125-0.002c-4.613-2.595-7.251-0.266-7.855,0.379h-0.08&#10;&#9;c-1.986-3.93-5.273-2.379-5.273-2.379c2.039-0.598,4.57,1.747,5.205,2.379h-0.14l0.001,0.002c-1.703-0.26-11.13-1.394-14.376,4.842&#10;&#9;c0,0,3.983-4.339,14.406-4.779c0.001,0.002,0.002,0.005,0.003,0.007c-6.168,3.253-5.712,12.246-5.712,12.246&#10;&#9;c4.21-4.968,5.551-10.9,5.786-12.089c0.696,1.479,4.792,10.536,5.182,19.09c-6.177-2.015-12.126-4.084-14.24-4.235&#10;&#9;c-4.494-0.321-6.421,5.457-9.952,5.136c-0.795-0.072-1.522,0.31-2.194,0.955c-2.572-11.238-7.052-27.767-12.26-33.719l17.611,18.402&#10;&#9;c0,0-3.232-17.164-17.968-18.8c-0.005-0.005-0.01-0.012-0.015-0.017c6.642-3.742,19.586-1.418,19.586-1.418&#10;&#9;c-12.587-5.871-18.436-0.214-19.7,1.29c-0.725-1.844-5.431-12.687-13.774-6.708c0,0,8.789,1.079,13.412,6.78&#10;&#9;c-3.03-0.647-20.347-3.537-29.184,12.618c0,0,14.312-13.037,29.263-12.519c0.022,0.028,0.045,0.054,0.066,0.082&#10;&#9;c-1.668,0.678-9.46,5.169-10.07,30.143c0,0,10.884-15.421,10.389-30.186c0.969,1.984,8.98,18.99,9.48,39.403&#10;&#9;c-0.779,1.805-1.445,3.565-2.026,4.61c-1.605,2.889-5.137,1.284-6.742,3.21c-1.605,1.926-1.926,4.815-8.347,5.136&#10;&#9;c-6.421,0.321-8.668,4.494-8.668,4.494c27.929-5.778,273.195,6.742,273.195,6.742l-6.421-6.742&#10;&#9;C531.707,151.684,524.002,148.153,521.755,144.3z M370.027,126.458c-2.292,1.349-4.706,3.136-7.187,4.764&#10;&#9;c1.008-4.693,3.294-12.874,5.677-16.702c0.449,0.947,2.115,4.861,2.464,11.495L370.027,126.458z" id="BJfF1Q6bRM"/>
<path d="M297.624,144.597c0,0,3.542-12.47,16.762-8.087s38.747,5.785,50.599,1.893&#10;&#9;c11.852-3.892,15.712-17.786,32.244-14.486c0,0,5.136-40.005,22.002-39.55c16.866,0.456,13.675-16.41,23.704-11.852&#10;&#9;s11.852,2.279,17.322,12.764s5.926,0.912,10.484,11.624s4.103,17.094,12.764,23.932c8.661,6.838,12.764,1.423,15.955,11.652&#10;&#9;c3.191,10.229,13.94,16.615,13.94,16.615S310.042,144.453,297.624,144.597z" id="S1mFkm6bCG"/>
<path d="M68.228,160.286c0,0-26.325,21.405,49.573,26.875c0,0-78.884-0.884-51.533-27.002&#10;&#9;L68.228,160.286z" id="S1VtkQaWCf"/>
<g id="HJHFJQTZCz">
	<path d="M371.226,179.613c0,0-55.385,8.889-101.198,0s-99.147,1.368-147.01-6.838s-51.966-9.573-30.77-13.675&#10;&#9;&#9;c17.519-3.391,86.413-11.452,141.448-13.761c11.556-0.485,22.5-0.716,32.23-0.598c56.069,0.684,179.831-6.154,256.414,5.47&#10;&#9;&#9;c76.582,11.624,108.036,11.624,67.693,19.146s-90.258,2.051-102.565,4.786c-12.308,2.735-62.907,13.371-89.574,9.421&#10;&#9;&#9;S371.226,179.613,371.226,179.613z" id="BkIFJ7T-0G"/>
	<path d="M602.293,161.661c-1.843-0.585-4.348-1.203-7.702-1.853&#10;&#9;&#9;c-3.994-0.775-8.555-1.584-13.507-2.406l0,0l-0.037-0.006c-3.193-0.53-6.55-1.064-10.025-1.597l-0.048-0.008l-0.001,0&#10;&#9;&#9;c-25.16-3.858-56.484-7.634-76.927-8.972l0.128,0.11c10.145,1.064,47.915,5.196,72.819,10.259&#10;&#9;&#9;c-25.816,8.573-55.368,8.164-69.198,7.347l-0.147,0.135c43.916,3.972,68.986-2.143,78.694-5.421&#10;&#9;&#9;c8.051,1.907,14.245,3.927,17.031,5.99c-31.628,9.372-117.986,6.88-117.986,6.88l-1.362,0.679&#10;&#9;&#9;c-0.585-0.015-0.922-0.024-0.922-0.024c-26.667,8.205-96.411,4.002-96.411,4.002s-3.925-1.418-11.429-1.987&#10;&#9;&#9;c6.879-1.32,13.51-2.517,18.727-3.156c12.995-1.592,40.5-4.629,50.26-5.701c-70.574,7.39-198.41-0.387-198.41-0.387&#10;&#9;&#9;c-25.943-0.318-45.652-1.008-60.625-1.901c-0.023-0.001-0.043-0.001-0.066-0.003c-9.224-0.456-16.926-1.129-23.372-1.934&#10;&#9;&#9;c-9.641-1.108-15.315-2.314-18.579-3.441c-3.542-0.967-6.207-1.962-8.209-2.915c-19.25,7.586,74.135,13.535,96.66,12.545&#10;&#9;&#9;c0.013,0,14.795-0.302,25.19,3.634c-25.166-2.002-77.872-1.591-97.158-2.176c-22.564-0.684-51.076-0.911-60.172-5.461&#10;&#9;&#9;c-1.894-0.948-1.914-2.395-0.786-4.087c-17.303,1.597-10.549,9.611,36.487,13.915c47.812,4.376,97.883,0,144.815,5.89&#10;&#9;&#9;c46.304,5.811,101.198,0,101.198,0s0,0,26.667,3.951c26.667,3.951,77.266-6.686,89.574-9.421c0.183-0.041,0.389-0.076,0.588-0.113&#10;&#9;&#9;c42.057,2.712,87.913-2.259,108.364-6.041c0.022,0.036,0.013,0.018,0.002,0c0.026-0.003,6.221-0.814,8.948-2.267&#10;&#9;&#9;c1.115-0.35,1.754-0.65,1.86-0.881C608.005,163.142,604.781,162.158,602.293,161.661z" id="rJDYkX6WCG"/>
</g>
<path d="M198.296,147.799c0,0,40.444-4.618,49.333-2.738c8.889,1.88,7.868,8.231,7.868,8.231l-15.048,4.314&#10;&#9;l-33.676,0.509l-10.634-0.509l-2.358-0.892l-5.299-3.422" id="By_FJm6bAz"/>
<g id="HkFFkQ6ZAG">
	<path d="M627.552,176.938c-0.067,0.112-0.151,0.226-0.248,0.341C627.476,177.058,627.552,176.938,627.552,176.938z" id="r19KJmp-0z"/>
	<path d="M623.415,179.886c2.863-1.788,4.137-2.948,4.137-2.948c-36.24,22.598-140.856,15.009-140.856,15.009&#10;&#9;&#9;c-53.334,23.248-142.834,8.777-142.834,8.777c62.297,21.084,145.569-3.306,145.569-3.306c22.105,1.854,40.986,2.04,57.044,1.179&#10;&#9;&#9;v0.003c63.944-3.023,78.816-18.757,80.82-21.31C626.606,178.098,625.194,178.989,623.415,179.886z" id="B1oF1maZ0M"/>
	<path d="M627.304,177.279c-0.003,0.003-0.006,0.007-0.009,0.011C627.298,177.286,627.3,177.283,627.304,177.279z" id="Hk3FkmTWCG"/>
</g>
<path d="M608.658,161.511c2.835,2.652,4.635,4.859,4.763,6.276c0.195,2.147-4.517,3.997-11.946,5.535&#10;&#9;c-21.118,6.462-93.473,7.013-116.727,7.019c-2.397,0.394-4.444,0.834-6.053,1.315c-0.773,0.231-1.451,0.471-2.028,0.718&#10;&#9;c-6.382,2.735-59.26,14.834-111.682,4.57c-60.181,9.168-116.229-7.262-116.229-7.262l-11.746-0.471&#10;&#9;c-3.526,0.002-8.677-0.058-14.994-0.191l-0.007,0C89.14,184.551,75.87,166.779,75.866,166.774c-3.755-3.602,0.351-6.615,0.351-6.615&#10;&#9;s-25.083,12.643,32.125,20.848c49.258,7.065,114.173-1.289,137.251,2.839c0.105,0.037,0.359,0.124,0.76,0.257&#10;&#9;c6.816,2.255,55.656,17.304,122.789,9.321c10.308,1.792,67.114,10.356,116.633-8.639c0.172,0.002,0.715,0.01,1.577,0.018&#10;&#9;c11.207,0.732,88.388,5.174,125.015-8.535c0.304-0.114,0.605-0.229,0.904-0.345v-0.001c0.89-0.312,1.722-0.634,2.481-0.968&#10;&#9;c0.055-0.023,0.109-0.045,0.162-0.068l0.003-0.001h0c0.548-0.233,1.014-0.471,1.38-0.715&#10;&#9;C627.154,167.597,624.344,164.021,608.658,161.511z" id="HkaYkm6b0M"/>
<path d="M239.63,186.611l-3.9,0.337l0.006,0.002c-2.111-0.023-3.326,0.212-3.326,0.212&#10;&#9;c-47.485,3.413-101.412,0-101.412,0c28.565,7.065,109.264,2.051,109.264,2.051s0.575,0.257,1.644,0.689&#10;&#9;c4.569,1.915,9.356,3.506,14.235,4.819c15.068,4.321,39.321,9.047,65.98,5.544c0.959-0.066,1.498-0.112,1.498-0.112&#10;&#9;C281.61,203.538,239.63,186.611,239.63,186.611z" id="SyCKJmTbCM"/>
<g id="S11eYJ7pWRf">
	<ellipse cx="368.216" cy="161.583" rx="32.809" ry="4.416" id="SJxgty7aZAM"/>
	<path d="M374.155,35.872c-1.955-1.1-11.945,1.318-11.945,1.318s-1.52-0.869-8.253-1.303&#10;&#9;&#9;c-3.045-0.196-6.305,1.653-8.971,3.735c0.324,4.806,0.871,11.285,1.587,13.857c1.2,4.308,4.78,16.05,4.78,16.05l2.953,7.742&#10;&#9;&#9;l-0.361,1.399l3.129,2.568l13.539-1.216l-0.57-1.343c0.152,0.024,0.27,0.043,0.414,0.066c-0.617-4.051,1.918-12.431,3.398-14.651&#10;&#9;&#9;c1.535-2.303,4.208-10.615,4.208-10.615l7.168,8.579l0.868-13.725C386.1,48.332,376.109,36.972,374.155,35.872z" id="SkZxtJmaWCz"/>
	<g id="SkGltkmT-AG">
		<polygon points="349.662,37.197 354.945,34.278 354.945,26.076 363.98,26.076 363.98,33.026 372.182,37.753 &#10;&#9;&#9;&#9;350.218,38.726 &#9;&#9;" id="SJmlKkQ6Z0G"/>
		<g id="B1Elt1m6-CM">
			<g id="rJBeY1X6-0G">
				<path d="M350.701,15.145l3.093,13.453c0,0,16.623,5.489,19.87-6.34l-5.567-8.273l-2.319-6.804&#10;&#9;&#9;&#9;&#9;&#9;c0,0-7.577-1.546-14.767,3.015L350.701,15.145z" id="r18eYyX6WRz"/>
				<path d="M360.829,19.044c-3.902,0.47-7.954-1.72-9.917-2.981l2.881,12.534c0,0,16.623,5.489,19.87-6.34&#10;&#9;&#9;&#9;&#9;&#9;l-3.941-5.856C367.561,17.667,364.576,18.592,360.829,19.044z" id="HyPeKkma-AM"/>
				<g id="ryueFyQ6W0M">
					<path d="M355.927,20.59c0,0,7.215,0.595,12.014-1.425c0.094-0.039,0.187-0.08,0.279-0.121l1.16,3.093&#10;&#9;&#9;&#9;&#9;&#9;&#9;C369.38,22.136,359.252,28.167,355.927,20.59z" id="S1tgKy7aZCz"/>
					<path d="M368.873,20.784l-0.653-1.741c-0.092,0.041-0.185,0.082-0.279,0.121&#10;&#9;&#9;&#9;&#9;&#9;&#9;c-4.8,2.02-12.014,1.425-12.014,1.425S360.901,23.95,368.873,20.784z" id="SJ9gFyXa-Af"/>
				</g>
				<path d="M357.838,23.325c2.35,1.654,5.54,1.131,7.935,0.322C361.802,21.856,357.898,23.303,357.838,23.325z" id="rJjeYk76ZCG"/>
				<g id="rk2lt1QpWAG">
					<path d="M361.863,24.547L361.863,24.547c-2.863,0-4.888-1.309-6.021-3.89l-0.079-0.178l0.195,0.016&#10;&#9;&#9;&#9;&#9;&#9;&#9;c0,0,0.714,0.058,1.811,0.076c0.447,0.008,0.957,0.009,1.512-0.004c0.582-0.012,1.168-0.038,1.741-0.076&#10;&#9;&#9;&#9;&#9;&#9;&#9;c1.636-0.109,3.151-0.329,4.502-0.653c0.296-0.071,0.589-0.149,0.895-0.239c0.593-0.175,1.069-0.34,1.497-0.521l0.39-0.171&#10;&#9;&#9;&#9;&#9;&#9;&#9;l1.237,3.299l-0.083,0.05C369.422,22.28,365.57,24.547,361.863,24.547z M356.134,20.74c1.106,2.372,3.032,3.575,5.728,3.575&#10;&#9;&#9;&#9;&#9;&#9;&#9;c3.342,0,6.816-1.882,7.396-2.21l-1.083-2.885l-0.169,0.073c-0.436,0.184-0.919,0.352-1.521,0.53&#10;&#9;&#9;&#9;&#9;&#9;&#9;c-0.311,0.091-0.607,0.17-0.906,0.241c-1.364,0.327-2.891,0.549-4.54,0.658c-0.578,0.039-1.168,0.065-1.752,0.077&#10;&#9;&#9;&#9;&#9;&#9;&#9;c-0.56,0.012-1.072,0.011-1.521,0.004C356.998,20.79,356.419,20.759,356.134,20.74z" id="H1pxKJXp-Cz"/>
				</g>
			</g>
			<path d="M368.479,10.388l-0.099-0.186l-0.747-1.475l-6.966,0.454l-0.052,0.616l-2.049,0.369l-0.417-0.578&#10;&#9;&#9;&#9;&#9;l-6.411,2.404l-2.715,4.192l1.572,0.134l1.785-2.797c0.698,2.33,1.631,2.63,2.254,2.511l-0.028,0.031&#10;&#9;&#9;&#9;&#9;c5.567-0.937,4.316-4.779,4.316-4.779l2.256-0.546c3.102,3.677,5.603,2.3,6.188,1.806c0.585-0.493,0.1-2.087,0.1-2.087&#10;&#9;&#9;&#9;&#9;L368.479,10.388z" id="B10eYkXT-CG"/>
			<circle cx="357.157" cy="11.634" r="0.889" id="B1k-tyX6b0M"/>
			<circle cx="365.468" cy="10.165" r="0.889" id="HJgWYkmTZRG"/>
			<path d="M361.177,10.738l3.866,5.581c0,0-2.165,1.378-4.446,0.72l-1.676-5.755" id="BkZWYkmTZ0z"/>
		</g>
		<g id="Bkf-t1Q6ZCf">
			<path d="M350.739,16.418c0.189,0.497,0.39,1.014,0.614,1.562l-0.111-2.529L350.739,16.418z" id="B17WtyQ6ZCG"/>
			<path d="M368.479,1.776c0,0-2.127,1.791-4.857,1.877l0.957-1.877c0,0-8.971,4.265-13.878,4.521l-1.678,0.632&#10;&#9;&#9;&#9;&#9;c0,0-1.114,1.258,1.068,7.687l1.04-1.685l-0.12-2.734c0,0,7.71-4.434,14.767-3.015C365.777,7.181,369.924,6.297,368.479,1.776z" id="BkEbYk76-0G"/>
		</g>
		<path d="M350.739,16.418c0,0-1.426-0.57-1.853-0.099c-0.427,0.471,0.256,5.077,3.177,4.523l-1.043-4.709&#10;&#9;&#9;&#9;L350.739,16.418z" id="SJBZFkmaWAf"/>
		<g id="B18bFy7ab0M">
			<path stroke-miterlimit="10" d="M350.912,17.216c0,0-0.704-0.47-1.088,0.106&#10;&#9;&#9;&#9;&#9;c-0.384,0.576,0.341,2.346,1.088,2.772" id="SyPWt17TWCG"/>
			<path stroke-miterlimit="10" d="M350.912,20.222&#10;&#9;&#9;&#9;&#9;c-0.022,0-0.043-0.006-0.064-0.017c-0.554-0.316-1.027-1.225-1.19-1.918c-0.076-0.319-0.126-0.758,0.059-1.036&#10;&#9;&#9;&#9;&#9;c0.189-0.283,0.479-0.392,0.82-0.323c0.246,0.05,0.438,0.176,0.446,0.182c0.059,0.039,0.075,0.118,0.035,0.177&#10;&#9;&#9;&#9;&#9;c-0.039,0.059-0.118,0.074-0.177,0.035c-0.024-0.016-0.603-0.39-0.91,0.07c-0.104,0.155-0.113,0.46-0.024,0.835&#10;&#9;&#9;&#9;&#9;c0.172,0.73,0.651,1.517,1.069,1.755c0.061,0.035,0.082,0.113,0.047,0.174C350.999,20.199,350.956,20.222,350.912,20.222z" id="SyuWF1m6-Cf"/>
		</g>
	</g>
	<circle cx="357.989" cy="56.259" r="0.914" id="BytWFJmpZ0G"/>
	<circle cx="375.576" cy="54.43" r="0.914" id="HJcZFym6WAG"/>
	<path d="M378.064,53.478c0,0,0.08-7.717-2.488-13.684l10.371,10.964l-0.715,11.299" id="SkjWtJm6-0z"/>
	<path d="M409.757,156.724c3.831-13.881,21.68-96.737-10.459-130.276c-32.132,33.531-12.81,116.377-8.975,130.276&#10;&#9;&#9;C396.466,155.146,398.756,153.403,409.757,156.724z" id="BJhZKyQ6WCf"/>
	<g id="By6WKy76bCf">
		<path d="M392.612,80.155c-0.299-2.376-2.333-4.22-4.789-4.22c-2.661,0-4.827,2.165-4.827,4.827&#10;&#9;&#9;&#9;c0,2.661,2.165,4.827,4.827,4.827c0.739,0,1.437-0.172,2.064-0.47c-0.07,0.117-0.146,0.231-0.234,0.339&#10;&#9;&#9;&#9;c-0.495,0.612-1.198,0.994-1.98,1.076c-0.587,0.062-1.171-0.051-1.69-0.327c-0.57-0.304-1.279-0.087-1.582,0.483&#10;&#9;&#9;&#9;s-0.087,1.279,0.483,1.582c0.766,0.408,1.612,0.618,2.473,0.618c0.186,0,0.374-0.01,0.561-0.03&#10;&#9;&#9;&#9;c1.404-0.148,2.666-0.834,3.554-1.932c0.634-0.784,1.023-1.71,1.14-2.688C392.886,83.09,392.612,80.155,392.612,80.155z&#10;&#9;&#9;&#9; M387.824,83.249c-1.371,0-2.486-1.115-2.486-2.486c0-1.371,1.115-2.486,2.486-2.486s2.486,1.115,2.486,2.486&#10;&#9;&#9;&#9;C390.31,82.133,389.195,83.249,387.824,83.249z" id="S1AZYyQTZ0G"/>
		<path d="M398.236,75.936c-0.734,0-1.428,0.168-2.05,0.463c-0.164,0.087-0.411,0.266-0.58,0.394v0&#10;&#9;&#9;&#9;c-1.013,0.778-2.196-0.152-2.196-0.152v0.284v0.529v10.268c0,0.646,0.524,1.17,1.17,1.17s1.17-0.524,1.17-1.17v-2.83&#10;&#9;&#9;&#9;c0.727,0.44,1.576,0.698,2.486,0.698c2.661,0,4.827-2.165,4.827-4.827C403.063,78.101,400.898,75.936,398.236,75.936z&#10;&#9;&#9;&#9; M398.236,83.249c-1.371,0-2.486-1.115-2.486-2.486c0-1.371,1.115-2.486,2.486-2.486s2.486,1.115,2.486,2.486&#10;&#9;&#9;&#9;C400.723,82.133,399.607,83.249,398.236,83.249z" id="S11fFkQTZCz"/>
		<g id="SylfF17pZ0G">
			<path d="M408.869,85.354h-5.154c-0.62,0-1.123-0.503-1.123-1.123c0-0.62,0.503-1.123,1.123-1.123h5.154&#10;&#9;&#9;&#9;&#9;c0.384,0,0.697-0.312,0.697-0.696c0-0.384-0.313-0.696-0.697-0.696h-2.546c-1.622,0-2.941-1.32-2.941-2.942&#10;&#9;&#9;&#9;&#9;c0-1.622,1.319-2.942,2.941-2.942h3.545c0.62,0,1.123,0.503,1.123,1.123s-0.503,1.123-1.123,1.123h-3.545&#10;&#9;&#9;&#9;&#9;c-0.384,0-0.696,0.312-0.696,0.696c0,0.384,0.312,0.696,0.696,0.696h2.546c1.622,0,2.942,1.32,2.942,2.942&#10;&#9;&#9;&#9;&#9;C411.81,84.035,410.491,85.354,408.869,85.354z" id="Sk-zKyXT-CM"/>
		</g>
		<circle cx="396.687" cy="73.429" r="0.819" id="SkGftyQTbAf"/>
		<path d="M394.62,74.219c-0.669,0-1.211,0.542-1.211,1.211c0,0.669,0.542,1.211,1.211,1.211&#10;&#9;&#9;&#9;c0.669,0,1.211-0.542,1.211-1.211C395.831,74.761,395.289,74.219,394.62,74.219z M395.195,75.542h-0.463v0.463h-0.223v-0.463&#10;&#9;&#9;&#9;h-0.463v-0.223h0.463v-0.463h0.223v0.463h0.463V75.542z" id="rJ7GF1QpZCz"/>
	</g>
	<path d="M408.86,154.29c1.324-6.056,2.786-13,3.574-18.396c4.816-17.613,3.733-50.54,3.733-50.54&#10;&#9;&#9;c0.682-34.99-16.87-55.414-16.87-55.414V152.6C402.103,152.494,405.673,152.774,408.86,154.29z" id="S1VMFJm6ZCz"/>
	<g id="rkBMK1m6Z0z">
		<path d="M394.222,80.321c-0.299-2.376-2.333-4.22-4.789-4.22c-2.661,0-4.827,2.165-4.827,4.827&#10;&#9;&#9;&#9;c0,2.661,2.165,4.827,4.827,4.827c0.739,0,1.437-0.172,2.064-0.47c-0.07,0.117-0.146,0.231-0.234,0.339&#10;&#9;&#9;&#9;c-0.495,0.612-1.198,0.994-1.98,1.076c-0.587,0.062-1.171-0.051-1.69-0.327c-0.57-0.304-1.279-0.087-1.582,0.483&#10;&#9;&#9;&#9;c-0.303,0.571-0.087,1.279,0.483,1.582c0.766,0.408,1.612,0.618,2.473,0.618c0.186,0,0.374-0.01,0.561-0.03&#10;&#9;&#9;&#9;c1.404-0.148,2.666-0.834,3.554-1.932c0.634-0.784,1.023-1.71,1.14-2.688C394.496,83.255,394.222,80.321,394.222,80.321z&#10;&#9;&#9;&#9; M389.434,83.414c-1.371,0-2.486-1.115-2.486-2.486c0-1.371,1.115-2.486,2.486-2.486c1.371,0,2.486,1.115,2.486,2.486&#10;&#9;&#9;&#9;C391.92,82.299,390.805,83.414,389.434,83.414z" id="S1IMKy7TWCG"/>
		<path d="M399.846,76.101c-0.734,0-1.428,0.168-2.05,0.463c-0.164,0.087-0.411,0.266-0.58,0.394v0&#10;&#9;&#9;&#9;c-1.013,0.778-2.196-0.152-2.196-0.152v0.284v0.529v10.268c0,0.646,0.524,1.17,1.17,1.17c0.646,0,1.17-0.524,1.17-1.17v-2.83&#10;&#9;&#9;&#9;c0.727,0.44,1.576,0.698,2.486,0.698c2.661,0,4.827-2.165,4.827-4.827C404.673,78.267,402.508,76.101,399.846,76.101z&#10;&#9;&#9;&#9; M399.846,83.414c-1.371,0-2.486-1.115-2.486-2.486c0-1.371,1.115-2.486,2.486-2.486c1.371,0,2.486,1.115,2.486,2.486&#10;&#9;&#9;&#9;C402.333,82.299,401.217,83.414,399.846,83.414z" id="SyPztJXp-RG"/>
		<g id="BJOzYk7ab0f">
			<path d="M410.479,85.52h-5.154c-0.62,0-1.123-0.503-1.123-1.123s0.503-1.123,1.123-1.123h5.154&#10;&#9;&#9;&#9;&#9;c0.384,0,0.697-0.312,0.697-0.696c0-0.384-0.313-0.697-0.697-0.697h-2.546c-1.622,0-2.941-1.32-2.941-2.942&#10;&#9;&#9;&#9;&#9;s1.319-2.942,2.941-2.942h3.545c0.62,0,1.123,0.503,1.123,1.123s-0.503,1.123-1.123,1.123h-3.545&#10;&#9;&#9;&#9;&#9;c-0.384,0-0.696,0.312-0.696,0.696s0.312,0.696,0.696,0.696h2.546c1.622,0,2.942,1.32,2.942,2.942S412.101,85.52,410.479,85.52z" id="S1tfYyQ6-Rz"/>
		</g>
		<circle cx="398.297" cy="73.594" r="0.819" id="SycGF1Q6bCM"/>
		<path d="M396.23,74.385c-0.669,0-1.211,0.542-1.211,1.211c0,0.669,0.542,1.211,1.211,1.211&#10;&#9;&#9;&#9;c0.669,0,1.211-0.542,1.211-1.211C397.441,74.927,396.899,74.385,396.23,74.385z M396.805,75.707h-0.463v0.463h-0.223v-0.463&#10;&#9;&#9;&#9;h-0.463v-0.223h0.463v-0.463h0.223v0.463h0.463V75.707z" id="BJsztkma-0f"/>
	</g>
	<path d="M356.679,169.229l-0.013,0c-0.315,0-0.628,0.002-0.939,0.005&#10;&#9;&#9;C356.042,169.231,356.359,169.229,356.679,169.229z" id="S1hzYyXp-0z"/>
	<path d="M354.941,169.246c0.071-0.001,0.143-0.002,0.214-0.004C355.084,169.243,355.012,169.244,354.941,169.246z" id="SypfFymTWRG"/>
	<path d="M390.322,156.724c0,0,7.673-2.803,19.434,0l-1.972-1.591l-7.745-2.002l-6.495-1.057l-1.446,1.668" id="S1CzKJQTbAf"/>
	<path d="M375.669,60.633c0.507-1.26,1.01-2.629,1.435-3.833c0,0-3.74,0.477-8.004,0.961l-1.92-3.762l-0.634,4.044&#10;&#9;&#9;h0.001c-3.733,0.402-7.394,0.742-8.958,0.723c-3.746-0.047-3.33-13.898-3.33-13.898c-0.854,0.4-1.674,0.629-2.464,0.752&#10;&#9;&#9;c-0.095,3.95-0.732,10.331-3.765,12.513l0,0l2.297,8.249l0.089,0.064l4.053,10.832l-0.361,1.399l3.129,2.569l3.99-0.358&#10;&#9;&#9;c-2.806-7.988-3.728-16.802-2.598-18.121C359.879,61.31,375.663,60.633,375.669,60.633z" id="HkJQFk7TWRz"/>
	<g id="r1xXKkQTZRM">
		<path d="M350.437,109.466c0,0,1.538,5.314,0,7.691c-1.538,2.377-2.89,5.593-1.864,13.144&#10;&#9;&#9;&#9;c1.025,7.551,0,25.03,0,25.03s-0.932,3.775-1.631,5.034s0.979,2.552,7.97,1.486c0,0-1.398-2.884-2.377-5.261&#10;&#9;&#9;&#9;c-0.979-2.377,1.678-27.547,3.076-33.7c0,0,1.538-3.216,2.098-5.314s1.678-7.504,1.678-7.504S354.213,108.767,350.437,109.466z" id="BJZXKJXaWAM"/>
		<path d="M357.075,119.471c-4.043-1.488-5.063-6.833-5.292-10.166c-0.459,0.033-0.913,0.08-1.345,0.16&#10;&#9;&#9;&#9;c0,0,1.538,5.314,0,7.691c-1.538,2.377-2.89,5.593-1.865,13.144c1.026,7.551,0,25.03,0,25.03s-0.932,3.775-1.631,5.034&#10;&#9;&#9;&#9;c-0.699,1.258,0.979,2.552,7.97,1.486c0,0-1.398-2.884-2.377-5.261c-0.979-2.377,1.678-27.547,3.076-33.7&#10;&#9;&#9;&#9;C355.611,122.89,356.417,121.199,357.075,119.471z" id="S1GmFJ76-Cf"/>
		<g id="Sy7mKkmp-Az">
			<path d="M368.247,110.125c0,0,1.86,7.799,1.674,10.223c-0.186,2.424-0.746,7.271,1.864,13.051&#10;&#9;&#9;&#9;&#9;c2.61,5.78,8.576,17.899,8.39,20.322c-0.186,2.424-0.737,7.271,0.004,7.271c0,0,0.159,0.536,2.746,0.396&#10;&#9;&#9;&#9;&#9;c2.587-0.14,10.138,1.328,10.837,0.699c0.699-0.629-3.426-1.958-7.132-4.894s-3.286-4.055-3.566-6.362&#10;&#9;&#9;&#9;&#9;c-0.28-2.307-4.824-26.568-4.824-26.568s-0.699-6.013-0.979-7.551s-1.08-7.703-1.08-7.703S371.118,109.271,368.247,110.125z" id="BkNmF1XpWAf"/>
			<path d="M386.631,157.194c-3.706-2.936-3.286-4.055-3.566-6.362c-0.28-2.307-4.824-26.568-4.824-26.568&#10;&#9;&#9;&#9;&#9;s-0.063-0.539-0.157-1.329c-6.953-1.305-8.384-9.188-8.664-13.104c-0.416,0.089-0.811,0.187-1.172,0.295&#10;&#9;&#9;&#9;&#9;c0,0,1.86,7.799,1.674,10.223c-0.186,2.424-0.746,7.271,1.864,13.051c2.61,5.78,8.577,17.899,8.39,20.322&#10;&#9;&#9;&#9;&#9;c-0.186,2.424-0.737,7.271,0.004,7.271c0,0,0.159,0.536,2.746,0.396c2.587-0.14,10.138,1.328,10.837,0.699&#10;&#9;&#9;&#9;&#9;C394.461,161.459,390.336,160.131,386.631,157.194z" id="r1HQY1m6ZAG"/>
		</g>
		<g id="SJI7Y1Xp-Rf">
			<polygon points="363.066,96.287 366.795,112.135 378.727,110.457 370.37,77.685 354.676,77.27 351.693,88.829 &#10;&#9;&#9;&#9;&#9;347.777,112.135 360.456,112.135 &#9;&#9;&#9;" id="rJDmYy76ZRf"/>
			<g id="rkOmKyXa-0G">
				<path d="M353.704,92.102c-1.003-1.504,1.29-10.578,2.409-14.714l-1.807-0.119l-2.983,11.559l-3.915,23.306h1.695&#10;&#9;&#9;&#9;&#9;&#9;C351.26,105.072,354.605,93.454,353.704,92.102z" id="rJtQFJQa-CM"/>
			</g>
			<path d="M365.586,87.068c0,0,1.532,5.573-2.52,9.219l1.664,7.072l-0.262-6.642&#10;&#9;&#9;&#9;&#9;C364.468,96.717,369.361,93.5,365.586,87.068z" id="r1q7t1Q6ZRf"/>
		</g>
	</g>
	<g id="rJomYy7T-CG">
		<path d="M354.774,107.737c-0.072-0.57-0.559-1.011-1.148-1.011c-0.638,0-1.157,0.519-1.157,1.157&#10;&#9;&#9;&#9;s0.519,1.157,1.157,1.157c0.177,0,0.345-0.041,0.495-0.113c-0.017,0.028-0.035,0.055-0.056,0.081&#10;&#9;&#9;&#9;c-0.119,0.147-0.287,0.238-0.475,0.258c-0.141,0.015-0.281-0.012-0.405-0.078c-0.137-0.073-0.307-0.021-0.379,0.116&#10;&#9;&#9;&#9;c-0.073,0.137-0.021,0.307,0.116,0.379c0.184,0.098,0.386,0.148,0.593,0.148c0.045,0,0.09-0.002,0.134-0.007&#10;&#9;&#9;&#9;c0.337-0.036,0.639-0.2,0.852-0.463c0.152-0.188,0.245-0.41,0.273-0.644C354.84,108.44,354.774,107.737,354.774,107.737z&#10;&#9;&#9;&#9; M353.626,108.478c-0.329,0-0.596-0.267-0.596-0.596c0-0.329,0.267-0.596,0.596-0.596c0.329,0,0.596,0.267,0.596,0.596&#10;&#9;&#9;&#9;C354.222,108.211,353.955,108.478,353.626,108.478z" id="HkhXKJmTZAG"/>
		<path d="M356.122,106.725c-0.176,0-0.342,0.04-0.492,0.111c-0.039,0.021-0.098,0.064-0.139,0.095v0&#10;&#9;&#9;&#9;c-0.243,0.186-0.526-0.036-0.526-0.036v0.068v0.127v2.461c0,0.155,0.126,0.28,0.28,0.28s0.28-0.126,0.28-0.28v-0.678&#10;&#9;&#9;&#9;c0.174,0.105,0.378,0.167,0.596,0.167c0.638,0,1.157-0.519,1.157-1.157S356.76,106.725,356.122,106.725z M356.122,108.478&#10;&#9;&#9;&#9;c-0.329,0-0.596-0.267-0.596-0.596c0-0.329,0.267-0.596,0.596-0.596c0.329,0,0.596,0.267,0.596,0.596&#10;&#9;&#9;&#9;C356.718,108.211,356.451,108.478,356.122,108.478z" id="BJaQYyXpW0z"/>
		<g id="rJ0QK1QpW0G">
			<path d="M358.671,108.983h-1.236c-0.149,0-0.269-0.12-0.269-0.269c0-0.149,0.12-0.269,0.269-0.269h1.236&#10;&#9;&#9;&#9;&#9;c0.092,0,0.167-0.075,0.167-0.167c0-0.092-0.075-0.167-0.167-0.167h-0.61c-0.389,0-0.705-0.316-0.705-0.705&#10;&#9;&#9;&#9;&#9;s0.316-0.705,0.705-0.705h0.85c0.149,0,0.269,0.12,0.269,0.269c0,0.149-0.12,0.269-0.269,0.269h-0.85&#10;&#9;&#9;&#9;&#9;c-0.092,0-0.167,0.075-0.167,0.167c0,0.092,0.075,0.167,0.167,0.167h0.61c0.389,0,0.705,0.316,0.705,0.705&#10;&#9;&#9;&#9;&#9;S359.06,108.983,358.671,108.983z" id="ryJVtyQabRz"/>
		</g>
		<circle cx="355.751" cy="106.124" r="0.196" id="Syg4KyQTZRG"/>
		<path d="M355.255,106.314c-0.16,0-0.29,0.13-0.29,0.29s0.13,0.29,0.29,0.29c0.16,0,0.29-0.13,0.29-0.29&#10;&#9;&#9;&#9;S355.416,106.314,355.255,106.314z M355.393,106.631h-0.111v0.111h-0.053v-0.111h-0.111v-0.053h0.111v-0.111h0.053v0.111h0.111&#10;&#9;&#9;&#9;V106.631z" id="BkZNFyQTbRG"/>
	</g>
	<g id="HkGEtJmpW0f">
		<path d="M350.296,40.426l1.474-3.665c-6.686-0.237-14.35,9.117-14.35,9.117c-4.617,5.456-6.591,15.344-6.72,16.008&#10;&#9;&#9;&#9;c0.728-0.04,1.871-0.14,3.161-0.368v0v3.846l6.541-5.162c0,0,0.783-1.03,1.702-2.438c0.07-0.114,2.41-3.958,2.853-6.784&#10;&#9;&#9;&#9;c0.351-0.426,1.54-2.759,2.707-5.123l1.603-2.868L350.296,40.426L350.296,40.426L350.296,40.426z" id="r1mVKkm6ZCM"/>
		<g id="BJEEKkmaZ0M">
			<path d="M321.998,76.327l-1.251,2.205l1.794,4.398c0,0,1.534-0.66,1-2.864l-0.135-0.486l1.129-1.91&#10;&#9;&#9;&#9;&#9;C324.535,77.67,324.465,76.41,321.998,76.327z" id="SJSEtkm6bAG"/>
			<path d="M330.564,82.843l1.914-0.971v-0.959c-1.573-0.264-2.927,0.314-3.427,0.568&#10;&#9;&#9;&#9;&#9;c-0.74-0.921-2.053-2.053-2.053-2.053c0.502-3.047-1.978-4.203-2.725-4.479c-0.13-0.048-0.208-0.069-0.208-0.069l-0.191,0.054&#10;&#9;&#9;&#9;&#9;c-2.268,0.065-2.201,3.07-2.201,3.07l6.599,6.003l4.54,1.992l0.734-0.867C333.047,84.175,331.639,83.358,330.564,82.843z" id="SyIEtk7p-Rf"/>
			<g id="Skv4YkXT-CM">
				<path d="M322.79,82.93c-0.155,0-0.303-0.091-0.367-0.242c-0.088-0.202,0.005-0.436,0.206-0.524l0,0&#10;&#9;&#9;&#9;&#9;&#9;c0.05-0.023,1.216-0.575,0.772-2.404l-0.177-0.638l1.216-2.056c0.111-0.192,0.358-0.258,0.547-0.141&#10;&#9;&#9;&#9;&#9;&#9;c0.191,0.113,0.253,0.356,0.141,0.547l-1.041,1.765l0.089,0.322c0.489,2.015-0.591,3.064-1.229,3.337&#10;&#9;&#9;&#9;&#9;&#9;C322.896,82.92,322.843,82.93,322.79,82.93z" id="BkuVKk76-RG"/>
			</g>
		</g>
		<path d="M340.351,60.074l-5.509,0.079l-1.718-0.27c-0.466,0.194-1.361,0.602-2.254,1.193l0,0l-0.01,0.006&#10;&#9;&#9;&#9;c-0.144,0.095-0.286,0.195-0.427,0.3c-0.659,0.517-1.866,1.74-2.164,3.981c-0.137,1.026-0.531,2.003-0.995,2.688&#10;&#9;&#9;&#9;c-1.328,2.549-3.443,5.017-3.443,5.017c-0.733,1.033-1.189,2.088-1.479,3.098c1.117-0.528,2.24-0.63,3.217-0.098&#10;&#9;&#9;&#9;c0.04,0.022,0.352,0.237,0.389,0.259c2.115-1.022,10.084-5.965,14.445-16.126C340.402,60.201,340.383,60.155,340.351,60.074z" id="SktNtk7TWCf"/>
	</g>
	
		<ellipse fill-rule="evenodd" clip-rule="evenodd" cx="318.565" cy="159.867" rx="19.297" ry="4.615" id="r1cEtkQTbRf"/>
	<linearGradient id="SVGID_1_" gradientUnits="userSpaceOnUse" x1="320.4961" y1="135.3128" x2="324.6286" y2="179.393">
		<stop offset="0" style="stop-color:#FFFFFF"/>
		<stop offset="0.6221" style="stop-color:#616161"/>
	</linearGradient>
	<path d="M332.349,117.01c-0.008-0.001-0.015-0.002-0.023-0.003c-6.198-0.701-13.585-0.64-19.045-0.439&#10;&#9;&#9;c-2.225,0.023-4.847,0.142-7.801,0.437c-0.017,0.001-0.029,0.002-0.029,0.002l0,0c-2.469,0.247-5.168,0.615-8.06,1.152&#10;&#9;&#9;c0,0,5.923,34.162,5.923,41.05c0,0,4.104,3.156,15.574,2.7c11.47,0.456,15.574-2.7,15.574-2.7c0-6.888,5.923-41.05,5.923-41.05&#10;&#9;&#9;C337.502,117.624,334.811,117.256,332.349,117.01z" id="BJsVYym6ZRz"/>
	<linearGradient id="SVGID_2_" gradientUnits="userSpaceOnUse" x1="319.5814" y1="125.5384" x2="324.4486" y2="179.0775">
		<stop offset="0" style="stop-color:#FFFFFF"/>
		<stop offset="0.6221" style="stop-color:#616161"/>
	</linearGradient>
	<path d="M300.003,133.648c10.051-1.098,25.08-1.628,37.359,2.595c1.501-9.554,3.023-18.332,3.023-18.332&#10;&#9;&#9;c-2.883-0.535-5.574-0.903-8.036-1.15c-0.008-0.001-0.015-0.002-0.023-0.003c-6.198-0.701-13.585-0.64-19.045-0.439&#10;&#9;&#9;c-2.225,0.023-4.847,0.142-7.801,0.437c-0.017,0.001-0.029,0.002-0.029,0.002l0,0c-2.469,0.247-5.168,0.615-8.06,1.152&#10;&#9;&#9;C297.391,117.911,298.647,125.157,300.003,133.648z" id="BJhEKy7abRM"/>
	<g id="SJTVFJQTZAM">
		<path d="M329.071,144.469c-4.745,0-9.201-0.831-13.287-2.481c-4.029-1.627-7.706-4.05-10.93-7.201&#10;&#9;&#9;&#9;c-5.487-5.363-7.789-11.063-7.812-11.12l-0.102-0.256h1.531v-0.39h0.374v0.764H297.5c0.512,1.163,2.851,6.081,7.627,10.745&#10;&#9;&#9;&#9;c5.009,4.891,13.805,10.497,27.26,9.432c0.182-0.03,4.361-0.758,6.617-4.46c1.891-3.103,1.941-7.37,0.147-12.683l0.355-0.12&#10;&#9;&#9;&#9;c1.832,5.425,1.77,9.799-0.184,13.002c-2.389,3.915-6.839,4.625-6.884,4.632l-0.013,0.001&#10;&#9;&#9;&#9;C331.292,144.424,330.174,144.469,329.071,144.469z" id="BkANtkQpZRG"/>
	</g>
	<g id="S1yStymTZRf_S1-F9pZ0G" data-animator-group="true" data-animator-type="0"><g id="S1yStymTZRf">
		<g id="SkgBYJ76bCf">
			<g id="BJbSt17aWCf">
				<circle cx="326.079" cy="84.244" r="5.468" id="rJzrKkXTWCz"/>
				<circle cx="326.079" cy="84.244" r="3.879" id="B1QrK1mTWCz"/>
			</g>
			<g id="HJEHK1QTbCf">
				<path d="M325.887,86.563v-0.57c-0.328-0.005-0.667-0.108-0.864-0.249l0.135-0.378&#10;&#9;&#9;&#9;&#9;&#9;c0.203,0.135,0.497,0.243,0.813,0.243c0.401,0,0.672-0.232,0.672-0.554c0-0.31-0.22-0.503-0.638-0.672&#10;&#9;&#9;&#9;&#9;&#9;c-0.576-0.226-0.932-0.486-0.932-0.977c0-0.469,0.333-0.825,0.853-0.909v-0.571h0.35v0.548c0.339,0.011,0.571,0.102,0.734,0.197&#10;&#9;&#9;&#9;&#9;&#9;l-0.141,0.373c-0.118-0.068-0.35-0.192-0.711-0.192c-0.435,0-0.599,0.26-0.599,0.486c0,0.293,0.209,0.441,0.7,0.644&#10;&#9;&#9;&#9;&#9;&#9;c0.582,0.237,0.875,0.531,0.875,1.033c0,0.446-0.311,0.864-0.892,0.96v0.587H325.887z" id="H1BrK1QT-Cf"/>
			</g>
		</g>
		<polygon fill-rule="evenodd" clip-rule="evenodd" points="330.502,82.308 328.061,84.51 330.02,81.878 &#10;&#9;&#9;&#9;328.636,79.74 330.758,81.127 333.046,79.078 331.175,81.667 332.889,83.767 &#9;&#9;" id="rkIBFyX6-RM"/>
	</g></g>
	<polygon fill-rule="evenodd" clip-rule="evenodd" points="340.353,118.713 338.818,120.098 340.05,118.442 &#10;&#9;&#9;339.18,117.098 340.514,117.97 341.952,116.682 340.776,118.31 341.854,119.63 &#9;" id="rJwHYJ7aWCz"/>
	<g id="SkuHYJmpWRz_r11sPp-Cz" data-animator-group="true" data-animator-type="0"><g id="SkuHYJmpWRz">
		<path d="M348.77,74.258c0,0-5.933-3.626-6.854-6.574c-0.921-2.948-6.417-3.127-6.417-3.127l8.269-7.87&#10;&#9;&#9;&#9;c4.928-8.473,3.017-17.2,3.017-17.2c-6.663,0.606-13.09,10.849-13.09,10.849c-4.03,6.203-4.657,16.791-4.657,16.791&#10;&#9;&#9;&#9;c8.449,9.656,19.103,10.441,19.103,10.441c-3.875,2.243-1.808,5.099-1.808,5.099l-2.423,0.745l0.164,1.293l6.117,0.757l2.265-4.82&#10;&#9;&#9;&#9;c0.073-0.233,0.13-0.459,0.171-0.678C352.148,78.269,351.096,75.99,348.77,74.258z" id="ryKrYkmpWRM"/>
		<path d="M351.65,78.876l-0.033-0.261c-0.803-2.233-3.547-4.248-3.547-4.248v0&#10;&#9;&#9;&#9;c-2.098-1.489-6.673-4.885-7.441-6.718c-1.002-2.39-6.074-2.621-6.074-2.621s1.874-5.757,6.277-9.42&#10;&#9;&#9;&#9;c1.724-1.59,2.832-3.097,3.556-4.45c-0.893-0.477-1.744-1.008-2.51-1.584c-2.401-1.806-3.2-3.711-3.369-5.25&#10;&#9;&#9;&#9;c-2.907,2.942-4.801,6.101-4.801,6.101c-4.03,6.203-4.657,16.791-4.657,16.791c8.449,9.656,19.103,10.441,19.103,10.441&#10;&#9;&#9;&#9;c-3.875,2.243-1.808,5.099-1.808,5.099l-2.423,0.745l0.058,0.454l5.398,0.216c0,0,2.651-3.619,2.462-4.457&#10;&#9;&#9;&#9;c-0.004-0.22-0.042-0.44-0.094-0.659L351.65,78.876z" id="SycrKkma-RG"/>
	</g></g>
	<g id="BJoBF1QpWRz">
		<path d="M320.163,133.891v-1.552c-1.008-0.033-2.016-0.321-2.593-0.704l0.431-1.505&#10;&#9;&#9;&#9;c0.624,0.369,1.521,0.704,2.497,0.704c1.009,0,1.697-0.495,1.697-1.264c0-0.72-0.56-1.185-1.745-1.616&#10;&#9;&#9;&#9;c-1.68-0.609-2.769-1.376-2.769-2.866c0-1.376,0.961-2.432,2.577-2.72v-1.569h1.313v1.489c1.009,0.033,1.697,0.272,2.209,0.529&#10;&#9;&#9;&#9;l-0.433,1.472c-0.383-0.176-1.088-0.544-2.177-0.544c-1.121,0-1.521,0.576-1.521,1.121c0,0.656,0.577,1.025,1.937,1.568&#10;&#9;&#9;&#9;c1.794,0.673,2.594,1.537,2.594,2.961c0,1.361-0.945,2.561-2.706,2.849v1.649H320.163z" id="SyhHFJm6ZAz"/>
	</g>
</g>
<script>(function(){var a=document.querySelector('#rJY17aWRz'),b=a.querySelectorAll('style'),c=function(d){b.forEach(function(f){var g=f.textContent;g&amp;&amp;(f.textContent=g.replace(/transform-box:[^;\r\n]*/gi,'transform-box: '+d))})};c('initial'),window.requestAnimationFrame(function(){return c('fill-box')})})();</script></svg>