<svg version="1.1" id="r14YhCaAf" xmlns="http://www.w3.org/2000/svg" xmlns:xlink="http://www.w3.org/1999/xlink" x="0px" y="0px" viewBox="0 0 600 350" enable-background="new 0 0 700 350" xml:space="preserve" width="710px" height="355px"><style>@-webkit-keyframes Hks44F306Rf_Animation{0%{opacity: 1;}3.33%{opacity: 0;}6.67%{opacity: 1;}13.33%{opacity: 0;}16.67%{opacity: 1;}100%{opacity: 1;}}@keyframes Hks44F306Rf_Animation{0%{opacity: 1;}3.33%{opacity: 0;}6.67%{opacity: 1;}13.33%{opacity: 0;}16.67%{opacity: 1;}100%{opacity: 1;}}@-webkit-keyframes HyDNVt2CpCM_Animation{0%{opacity: 1;}3.33%{opacity: 0;}6.67%{opacity: 1;}13.33%{opacity: 0;}16.67%{opacity: 1;}100%{opacity: 1;}}@keyframes HyDNVt2CpCM_Animation{0%{opacity: 1;}3.33%{opacity: 0;}6.67%{opacity: 1;}13.33%{opacity: 0;}16.67%{opacity: 1;}100%{opacity: 1;}}@-webkit-keyframes S19rNthR6CM_Animation{0%{opacity: 1;}6.67%{opacity: 0;}13.33%{opacity: 1;}23.33%{opacity: 0;}33.33%{opacity: 1;}100%{opacity: 1;}}@keyframes S19rNthR6CM_Animation{0%{opacity: 1;}6.67%{opacity: 0;}13.33%{opacity: 1;}23.33%{opacity: 0;}33.33%{opacity: 1;}100%{opacity: 1;}}#r14YhCaAf *{-webkit-animation-duration: 3s;animation-duration: 3s;-webkit-animation-iteration-count: infinite;animation-iteration-count: infinite;-webkit-animation-timing-function: cubic-bezier(0, 0, 1, 1);animation-timing-function: cubic-bezier(0, 0, 1, 1);}#rk-EY3ApAG{fill: #116E39;}#H1fVK3C6AM{fill: #0C562C;}#BkXNFhRTRz{fill: #3A8580;}#HkSNYn06AM{fill: #DBC66A;}#HJUVFh060G{opacity: 0.8;fill: #AE9330;}#BkPVYnC6AM{fill: #DBC66A;}#SyuNKnRT0f{opacity: 0.8;}#r1YVtnC60f{fill: #A1D7EA;}#S19Nt30pRG{fill: #A1D7EA;}#BJiVFnAp0M{fill: #A1D7EA;}#rk2NFnC6RG{opacity: 0.8;fill: #A1D7EA;}#SyTVt206AG{opacity: 0.8;fill: #A1D7EA;}#ry0Vt20aAz{opacity: 0.8;fill: #9E812E;}#rkkeNF3CaCG{opacity: 0.8;fill: #9E812E;}#HJZe4FhA60z{fill: url(#SVGID_1_);}#BJMgNYn0T0f{opacity: 0.4;fill: #675139;}#B1QxNK2R6Cf{fill: url(#SVGID_2_);}#SkVlVF2R60z{fill: url(#SVGID_3_);}#S1SeVt3ApAz{fill: url(#SVGID_4_);}#B18e4Fh0aRf{fill: url(#SVGID_5_);}#SkwlVthR60z{fill: url(#SVGID_6_);}#Sy_gEKnA6AG{fill: url(#SVGID_7_);}#ryFlVKnC60M{fill: #D08D29;}#Bk5lVthCaCz{opacity: 0.5;fill: #552F10;}#By2eEYhRaRz{fill: #CB2128;}#ryCl4tn0T0G{fill: #CB2128;}#Hyx-EthApRM{fill: #CB2128;}#HkWZEK2Ra0G{fill: #CB2128;}#HyGW4YhR6RG{opacity: 0.2;fill: #675139;}#ByXZVKh06Af{fill: url(#SVGID_8_);}#SyBW4Y3C60z{fill: url(#SVGID_9_);}#B1IbEt20aAz{fill: #B3CC35;}#rkDWVKnCTAf{fill: #54BAE7;}#r1uZ4KhCa0G{opacity: 0.5;fill: #8B9337;}#r1tW4YnCa0G{opacity: 0.4;fill: #2B3786;}#H19-4tn06Rf{opacity: 0.5;fill: #8B9337;}#Hk3bEYhC60M{fill: #322F31;}#rkCbNF30aAz{opacity: 0.4;fill: #3EA3C9;}#SkJGEYnCa0M{fill: #322F31;}#B1bMEt2Aa0f{fill: url(#SVGID_10_);}#ryGfEK3Ca0M{fill: url(#SVGID_11_);}#H1XM4KnA6Cz{fill: url(#SVGID_12_);}#BJEfNt2CaRM{opacity: 0.4;fill: #2B3786;}#rJBGVt2ApCz{opacity: 0.4;fill: #2B3786;}#H1UzEKh06Cf{opacity: 0.4;fill: #2B3786;}#HkDMVKnCa0z{opacity: 0.3;fill: #AE9330;}#BkFfVY3CaCz{fill: url(#SVGID_13_);}#H15G4F2Cp0M{opacity: 0.4;}#HyjGEKh0pRf{fill: #2B3786;}#ry3zVF30aAG{fill: #2B3786;}#rkCMVY3RTRf{fill: #54BAE7;}#ByWXVtn0pRG{fill: #9F9F9C;}#HkG7VFhC60z{opacity: 0.4;fill: #545554;}#rkmXEY3CaCM{fill: #3B3E3F;}#B1NmVYnRTCz{fill: #3B3E3F;}#SkHQEF3CaAz{opacity: 0.4;fill: #545554;}#SkIX4thATAG{fill: #3B3E3F;}#H1PQEKnRaCf{fill: #9F9F9C;}#HJum4KnAaRz{opacity: 0.4;fill: #545554;}#S1YmEth0pRf{fill: #3B3E3F;}#SJ5XEthRTRf{fill: #3B3E3F;}#B1i74tn0pRf{fill: #3B3E3F;}#H1n7NthC6AG{opacity: 0.4;fill: #545554;}#HJpQEYh0aCf{fill: #54BAE7;}#r1RQEthA60M{opacity: 0.2;fill: #2184A0;}#ryJV4Yh060G{opacity: 0.2;fill: #2184A0;}#BJe4VFn0pRM{fill: #54BAE7;}#ryWVEt2CaRM{opacity: 0.3;fill: #2184A0;}#BJmV4Y2R6AM{-webkit-transform:  matrix(-0.9008, 0.4343, -0.4343, -0.9008, 799.0742, 6.2396);transform:  matrix(-0.9008, 0.4343, -0.4343, -0.9008, 799.0742, 6.2396);fill: #FCFDFB;}#H1E4VFn06Rz{fill: #BFBEBE;}#SJBVNthRpRG{-webkit-transform:  matrix(-0.7633, 0.646, -0.646, -0.7633, 764.9257, -85.2675);transform:  matrix(-0.7633, 0.646, -0.646, -0.7633, 764.9257, -85.2675);fill: #061A1F;}#SJIN4KhR6CG{-webkit-transform:  matrix(-0.7633, 0.646, -0.646, -0.7633, 764.9293, -85.2756);transform:  matrix(-0.7633, 0.646, -0.646, -0.7633, 764.9293, -85.2756);fill: #FFFEFE;}#HyDNVt2CpCM{fill: #0D1726;-webkit-animation-name: HyDNVt2CpCM_Animation;animation-name: HyDNVt2CpCM_Animation;-webkit-transform-origin: 50% 50%;transform-origin: 50% 50%;transform-box: fill-box;opacity: 1;}#BJdE4th0aCM{fill: #FCFDFB;}#HkF4Nt3AaRf{-webkit-transform:  matrix(-0.8299, 0.5579, -0.5579, -0.8299, 767.8616, -34.8471);transform:  matrix(-0.8299, 0.5579, -0.5579, -0.8299, 767.8616, -34.8471);fill: #061A1F;}#Syq4EY20TCM{-webkit-transform:  matrix(-0.8299, 0.5579, -0.5579, -0.8299, 767.8645, -34.8516);transform:  matrix(-0.8299, 0.5579, -0.5579, -0.8299, 767.8645, -34.8516);fill: #FFFEFE;}#Hks44F306Rf{fill: #0D1726;-webkit-animation-name: Hks44F306Rf_Animation;animation-name: Hks44F306Rf_Animation;-webkit-transform-origin: 50% 50%;transform-origin: 50% 50%;transform-box: fill-box;opacity: 1;}#BJhNNthRT0M{fill: #BFBEBE;}#SkTNVK206Rf{opacity: 0.5;fill: #FCFDFB;}#Sy0VVK3CTRf{fill: #2A202E;}#rkyrNth0aCG{opacity: 0.5;fill: #FCFDFB;}#SJxSVF20T0f{opacity: 0.5;fill: #FCFDFB;}#BJfr4Kh0p0G{opacity: 0.2;fill: #2184A0;}#SJXrVK2C6AG{fill: url(#SVGID_14_);}#rk4HVth0aAf{opacity: 0.4;fill: #2B3786;}#SJHSEt2RTCf{fill: #B3CC35;}#S1USEt30pCG{fill: #54BAE7;}#SyDHVt2RaCz{opacity: 0.2;fill: #2184A0;}#ByOBEF3ATAz{opacity: 0.2;fill: #2184A0;}#rkYS4YhC6RG{opacity: 0.2;fill: #2184A0;}#HkiBEtnRa0M{opacity: 0.2;fill: #2184A0;}#r1nBNYhR6Cz{fill: url(#SVGID_15_);}#Sy6H4Fn0pCG{opacity: 0.4;fill: #2B3786;}#rk0BNY3RTAG{fill: #B3CC35;}#Hyk8NF30pAM{opacity: 0.5;fill: #8B9337;}#B1g84Kn0aRf{opacity: 0.5;fill: #8B9337;}#HyZI4thCTAz{opacity: 0.5;fill: #8B9337;}#BJGUEFhCTRM{opacity: 0.5;fill: #8B9337;}#ByXLVt306RG{opacity: 0.5;fill: #8B9337;}#H1VU4F30T0G{opacity: 0.5;fill: #8B9337;}#SJSIVt2R6Rf{fill: #54BAE7;}#ryPUVKhC6Cf{-webkit-transform:  matrix(-0.7372, 0.6757, -0.6757, -0.7372, 757.5001, -99.432);transform:  matrix(-0.7372, 0.6757, -0.6757, -0.7372, 757.5001, -99.432);fill: #FCFDFB;-webkit-transform-origin: 50% 50%;transform-origin: 50% 50%;transform-box: fill-box;}#ryO84tn0pAM{fill: #BFBEBE;}#SJcLEK206RM{-webkit-transform:  matrix(-0.8863, 0.463, -0.463, -0.8863, 779.946, 7.5742);transform:  matrix(-0.8863, 0.463, -0.463, -0.8863, 779.946, 7.5742);fill: #FCFDFB;-webkit-transform-origin: 50% 50%;transform-origin: 50% 50%;transform-box: fill-box;}#H1oINY2CT0z{fill: #BFBEBE;}#H1TLEF2C6Rz{fill: #525157;}#SyRLEt206AG{opacity: 0.4;fill: #2E2D36;}#SygPNY2060f{fill: #2E2D36;}#S19rNthR6CM{-webkit-animation-name: S19rNthR6CM_Animation;animation-name: S19rNthR6CM_Animation;-webkit-transform-origin: 50% 50%;transform-origin: 50% 50%;transform-box: fill-box;opacity: 1;}</style>
<g id="H1lNthC6Rz">
	<path d="M520.583,141.347c-1.326-2.273-2.656-3.205-4.509-3.851c0.367-8.59,4.493-17.714,5.192-19.199&#10;&#9;&#9;c0.235,1.19,1.578,7.131,5.794,12.105c0,0,0.457-9.005-5.719-12.262c0.001-0.002,0.002-0.005,0.003-0.007&#10;&#9;&#9;c10.436,0.441,14.425,4.786,14.425,4.786c-3.25-6.244-12.69-5.109-14.395-4.848l0.001-0.002h-0.14&#10;&#9;&#9;c0.636-0.633,3.17-2.981,5.212-2.382c0,0-3.291-1.553-5.28,2.382h-0.08c-0.606-0.646-3.247-2.978-7.866-0.38l0.126,0.002&#10;&#9;&#9;c0,0,5.397-1.429,7.699,0.398c-6.16,0.439-7.322,6.445-7.322,6.445c2.218-3.466,6.365-5.85,7.303-6.36&#10;&#9;&#9;c-4.558,8.097-5.92,14.716-6.25,18.927c-1.008-0.273-2.156-0.534-3.515-0.896c-4.334-1.156-2.712-3.881-6.072-9.788&#10;&#9;&#9;c-1.218-23.049,8.35-43.352,9.415-45.533c-0.496,14.785,10.402,30.226,10.402,30.226c-0.61-25.006-8.412-29.504-10.083-30.182&#10;&#9;&#9;c0.022-0.028,0.044-0.055,0.066-0.082c14.97-0.518,29.301,12.536,29.301,12.536c-8.848-16.176-26.188-13.282-29.222-12.634&#10;&#9;&#9;c4.629-5.708,13.43-6.789,13.43-6.789c-8.354-5.987-13.066,4.87-13.792,6.717c-1.266-1.506-7.123-7.17-19.726-1.292&#10;&#9;&#9;c0,0,12.961-2.327,19.612,1.42c-0.005,0.005-0.01,0.012-0.015,0.017c-14.755,1.639-17.991,18.825-17.991,18.825l17.634-18.426&#10;&#9;&#9;c-6.151,7.03-11.292,28.804-13.474,39.226c-1.806-1.732-1.521-0.153-1.057-2.242c0.643-2.893-10.608-7.072-10.608-7.072&#10;&#9;&#9;s0.964-5.143,0-9.001c-0.964-3.857-4.5-15.751-5.143-19.93c-0.643-4.179-3.215-7.715-7.072-8.679&#10;&#9;&#9;c-3.857-0.964-13.179-11.251-13.822-17.037c-0.643-5.786-8.036-8.622-8.036-8.622l-5.465,2.514l-4.179-1.929&#10;&#9;&#9;c-6.108-1.929-14.144,1.286-14.465,4.179c-0.321,2.893-0.321,14.787-10.608,17.037c-10.286,2.25-14.144,8.679-16.072,11.894&#10;&#9;&#9;c-1.929,3.214,0.321,6.75-4.5,9.322c-4.822,2.572-5.465,17.68-6.108,20.251c-0.643,2.572-5.143,1.286-9.322,3.536&#10;&#9;&#9;c-4.045,2.178-3.892,5.853-9.76,6.67c-0.635-2.114-2.645-7.887-6.343-10.55c5.336,0.593,13.148,4.061,13.148,4.061l-1.316-3.543&#10;&#9;&#9;c-6.043-2.25-10.28-1.868-12.128-1.452c2.93-3.963,9.699-4.723,9.699-4.723c-2.43-2.683-4.96-1.62-4.96-1.62&#10;&#9;&#9;c-3.964,2.119-5.013,4.791-5.371,6.064c-1.693-0.902-7.612-3.91-12.395-0.749c0,0,7.032-0.791,11.562,1.134&#10;&#9;&#9;c-2.145,0.481-7.677,2.154-10.956,6.992c-0.568,0.755-1.026,1.568-1.327,2.441c-0.413,0.983-0.74,2.062-0.949,3.252&#10;&#9;&#9;c0,0,0.209-0.316,0.56-0.815v0.248c-0.004-0.084,0.002-0.165,0-0.249c0.006-0.008,0.011-0.015,0.017-0.024&#10;&#9;&#9;c0.166-0.226,6.145-8.3,12.431-10.51c-1.537,2.758-5.044,9.695-6.724,18.196c-2.737,1.626-5.528,2.857-8.296,2.857&#10;&#9;&#9;c-8.036,0-11.251-5.786-15.751-4.5c-2.23,0.637-8.722-1.252-15.253-3.359c-0.222-4.149-1.453-11.072-6.296-19.676&#10;&#9;&#9;c0.938,0.51,5.085,2.894,7.303,6.36c0,0-1.162-6.006-7.322-6.445c2.302-1.826,7.699-0.398,7.699-0.398l0.126-0.002&#10;&#9;&#9;c-4.619-2.598-7.26-0.266-7.866,0.38h-0.08c-1.989-3.936-5.28-2.382-5.28-2.382c2.042-0.599,4.576,1.749,5.212,2.382h-0.14&#10;&#9;&#9;l0.001,0.002c-1.705-0.261-11.145-1.396-14.395,4.848c0,0,3.989-4.344,14.425-4.786c0.001,0.002,0.002,0.005,0.003,0.007&#10;&#9;&#9;c-6.176,3.257-5.719,12.262-5.719,12.262c4.215-4.974,5.558-10.915,5.794-12.105c0.697,1.48,4.798,10.55,5.188,19.115&#10;&#9;&#9;c-6.185-2.018-12.142-4.089-14.258-4.24c-4.5-0.321-6.429,5.465-9.965,5.143c-0.796-0.072-1.523,0.311-2.197,0.957&#10;&#9;&#9;c-2.575-11.253-7.061-27.803-12.276-33.763l17.634,18.426c0,0-3.236-17.186-17.991-18.825c-0.005-0.005-0.01-0.012-0.015-0.017&#10;&#9;&#9;c6.651-3.747,19.612-1.42,19.612-1.42c-12.604-5.878-18.46-0.214-19.726,1.292c-0.726-1.847-5.438-12.704-13.792-6.717&#10;&#9;&#9;c0,0,8.8,1.081,13.43,6.789c-3.034-0.648-20.374-3.542-29.222,12.634c0,0,14.331-13.054,29.301-12.536&#10;&#9;&#9;c0.022,0.028,0.045,0.054,0.066,0.082c-1.67,0.678-9.473,5.176-10.083,30.182c0,0,10.898-15.441,10.402-30.226&#10;&#9;&#9;c0.97,1.986,8.992,19.014,9.493,39.455c-0.78,1.807-1.447,3.57-2.029,4.616c-1.607,2.893-5.143,1.286-6.75,3.215&#10;&#9;&#9;c-1.607,1.929-1.929,4.822-8.358,5.143c-6.429,0.321-8.679,4.5-8.679,4.5c27.966-5.786,273.554,6.75,273.554,6.75l-6.429-6.75&#10;&#9;&#9;C530.548,148.741,522.833,145.205,520.583,141.347z M368.655,123.481c-2.295,1.35-4.713,3.14-7.196,4.771&#10;&#9;&#9;c1.009-4.699,3.298-12.89,5.684-16.724c0.45,0.948,2.117,4.867,2.467,11.511L368.655,123.481z" id="rk-EY3ApAG"/>
	<path d="M297.44,141.644c0,0,3.547-12.486,16.784-8.098s38.798,5.793,50.665,1.895&#10;&#9;&#9;c11.868-3.897,15.732-17.809,32.286-14.505c0,0,5.142-40.058,22.031-39.602c16.888,0.456,13.693-16.432,23.735-11.868&#10;&#9;&#9;c10.042,4.564,11.868,2.282,17.345,12.78s5.934,0.913,10.498,11.639c4.564,10.726,4.108,17.117,12.78,23.963&#10;&#9;&#9;c8.672,6.847,12.78,1.425,15.976,11.667s13.959,16.637,13.959,16.637S309.874,141.5,297.44,141.644z" id="H1fVK3C6AM"/>
	<path d="M606.031,160.919c-0.077-0.168-0.444-0.373-1.066-0.607c-0.349-0.158-0.76-0.32-1.233-0.486&#10;&#9;&#9;c-1.808-0.82-4.648-1.409-6.529-1.736c-2.305-0.511-5.048-1.06-8.251-1.658c-11.098-2.069-22.924-3.146-34.485-3.683&#10;&#9;&#9;c-20.279-1.631-44.095-2.424-66.805-0.961c-0.2-0.037-0.419-0.07-0.602-0.111c-10.317-2.293-47.717-10.174-75.065-10.223&#10;&#9;&#9;c-5.065-0.009-9.786,0.25-13.926,0.864c-25.436,3.768-26.449,3.918-26.49,3.924c-0.06-0.01-24.873-3.986-54.94-3.924&#10;&#9;&#9;c-14.703,0.03-30.662,1.026-45.597,3.924c-15.645,3.036-32.172,3.824-49.059,3.882c-15.351,0.053-30.998-0.498-46.548-0.511&#10;&#9;&#9;c-17.106-0.015-34.094,0.62-50.44,3.422c-5.926,1.016-11.157,1.924-15.768,2.747c-0.066,0.012-0.13,0.023-0.195,0.035&#10;&#9;&#9;c-1.035,0.185-2.039,0.366-3.009,0.542c-0.189,0.034-0.372,0.068-0.559,0.102c-0.843,0.154-1.666,0.305-2.459,0.452&#10;&#9;&#9;c-0.237,0.044-0.468,0.087-0.701,0.131c-0.712,0.133-1.408,0.264-2.079,0.392c-0.27,0.051-0.535,0.102-0.799,0.153&#10;&#9;&#9;c-0.617,0.119-1.218,0.236-1.799,0.351c-0.269,0.053-0.535,0.106-0.797,0.158c-0.54,0.108-1.063,0.214-1.571,0.318&#10;&#9;&#9;c-0.266,0.054-0.531,0.109-0.788,0.163c-0.482,0.1-0.944,0.199-1.396,0.296c-0.245,0.053-0.492,0.106-0.728,0.158&#10;&#9;&#9;c-0.426,0.094-0.832,0.185-1.23,0.276c-0.23,0.052-0.464,0.105-0.685,0.157c-0.379,0.089-0.735,0.175-1.087,0.262&#10;&#9;&#9;c-0.201,0.049-0.411,0.1-0.603,0.148c-0.342,0.087-0.659,0.171-0.973,0.255c-0.171,0.046-0.352,0.093-0.515,0.138&#10;&#9;&#9;c-0.316,0.088-0.603,0.173-0.887,0.258c-0.129,0.039-0.271,0.078-0.394,0.117c-0.309,0.096-0.587,0.19-0.856,0.283&#10;&#9;&#9;c-0.074,0.026-0.16,0.052-0.231,0.077c-0.33,0.119-0.629,0.235-0.895,0.349c-0.024,0.011-0.041,0.02-0.065,0.031&#10;&#9;&#9;c-0.233,0.102-0.445,0.204-0.627,0.303c-0.068,0.037-0.115,0.073-0.175,0.11c-0.119,0.072-0.239,0.144-0.331,0.215&#10;&#9;&#9;c-0.055,0.043-0.091,0.085-0.136,0.127c-0.069,0.064-0.14,0.127-0.187,0.19c-0.033,0.045-0.049,0.089-0.071,0.133&#10;&#9;&#9;c-0.03,0.059-0.061,0.119-0.072,0.178c-0.008,0.045-0.001,0.091,0.002,0.136c0.004,0.057,0.009,0.114,0.032,0.17&#10;&#9;&#9;c0.018,0.046,0.049,0.091,0.079,0.136c0.036,0.056,0.076,0.111,0.13,0.167c0.044,0.046,0.099,0.091,0.155,0.137&#10;&#9;&#9;c0.068,0.055,0.141,0.11,0.226,0.165c0.07,0.045,0.147,0.091,0.229,0.136c0.099,0.055,0.205,0.11,0.321,0.165&#10;&#9;&#9;c0.095,0.045,0.195,0.091,0.301,0.137c0.13,0.056,0.271,0.112,0.418,0.168c0.118,0.045,0.238,0.09,0.366,0.135&#10;&#9;&#9;c0.162,0.057,0.337,0.115,0.516,0.172c0.141,0.045,0.281,0.09,0.431,0.136c0.195,0.059,0.406,0.118,0.618,0.178&#10;&#9;&#9;c0.158,0.044,0.313,0.089,0.481,0.134c0.235,0.063,0.487,0.127,0.74,0.19c0.171,0.043,0.336,0.086,0.515,0.129&#10;&#9;&#9;c0.283,0.069,0.586,0.138,0.889,0.208c0.172,0.04,0.336,0.079,0.515,0.119c0.35,0.079,0.722,0.159,1.097,0.239&#10;&#9;&#9;c0.154,0.033,0.299,0.066,0.457,0.099c0.029,0.006,0.055,0.012,0.085,0.018l-0.001-0.001c1.077,0.227,2.242,0.46,3.503,0.705&#10;&#9;&#9;c21.058,4.076,116.837,14.944,172.538,14.265c3.916-0.048,8.175-0.058,12.716-0.04c0.792,0.895,1.244,1.891,1.927,2.711&#10;&#9;&#9;c1.595,1.914,5.103,0.319,6.697,3.189c0.577,1.038,1.239,2.787,2.013,4.58c-0.497,20.28-8.456,37.174-9.418,39.145&#10;&#9;&#9;c0.492-14.668-10.321-29.988-10.321-29.988c0.605,24.81,8.346,29.272,10.004,29.945c-0.022,0.028-0.044,0.054-0.066,0.082&#10;&#9;&#9;c-14.853,0.514-29.071-12.437-29.071-12.437c8.779,16.049,25.982,13.178,28.992,12.535c-4.593,5.663-13.324,6.736-13.324,6.736&#10;&#9;&#9;c8.288,5.94,12.963-4.832,13.684-6.664c1.256,1.495,7.067,7.114,19.571,1.282c0,0-12.859,2.309-19.458-1.409&#10;&#9;&#9;c0.005-0.005,0.01-0.012,0.015-0.017c14.639-1.626,17.85-18.677,17.85-18.677l-17.495,18.281&#10;&#9;&#9;c5.174-5.913,9.625-22.333,12.18-33.498c0.668,0.641,1.39,1.021,2.179,0.949c3.508-0.319,5.422,5.422,9.887,5.103&#10;&#9;&#9;c2.1-0.15,8.01-2.205,14.146-4.207c-0.387,8.498-4.456,17.496-5.148,18.965c-0.234-1.181-1.566-7.075-5.748-12.01&#10;&#9;&#9;c0,0-0.453,8.934,5.674,12.166c-0.001,0.002-0.002,0.005-0.003,0.007c-10.354-0.438-14.311-4.748-14.311-4.748&#10;&#9;&#9;c3.225,6.195,12.59,5.069,14.282,4.81l-0.001,0.002h0.139c-0.631,0.628-3.145,2.958-5.171,2.363c0,0,3.265,1.541,5.238-2.363h0.079&#10;&#9;&#9;c0.601,0.641,3.222,2.955,7.804,0.377l-0.125-0.002c0,0-5.355,1.418-7.638-0.395c6.112-0.436,7.265-6.394,7.265-6.394&#10;&#9;&#9;c-2.201,3.438-6.315,5.804-7.246,6.31c4.805-8.536,6.026-15.405,6.246-19.521c6.479-2.09,12.92-3.964,15.133-3.332&#10;&#9;&#9;c4.465,1.276,7.654-4.465,15.627-4.465c2.746,0,5.516,1.221,8.231,2.834c1.667,8.434,5.146,15.316,6.671,18.053&#10;&#9;&#9;c-6.237-2.192-12.169-10.203-12.333-10.427c-0.006-0.009-0.011-0.016-0.017-0.024c0.001-0.083-0.005-0.163,0-0.247v0.246&#10;&#9;&#9;c-0.349-0.495-0.556-0.808-0.556-0.808c0.208,1.18,0.532,2.25,0.942,3.226c0.298,0.866,0.752,1.673,1.316,2.422&#10;&#9;&#9;c3.253,4.801,8.742,6.46,10.87,6.937c-4.494,1.91-11.471,1.125-11.471,1.125c4.746,3.136,10.618,0.152,12.298-0.743&#10;&#9;&#9;c0.356,1.263,1.396,3.914,5.329,6.016c0,0,2.511,1.055,4.921-1.607c0,0-6.715-0.753-9.622-4.686&#10;&#9;&#9;c1.833,0.412,6.037,0.791,12.033-1.441l1.306-3.515c0,0-7.75,3.441-13.044,4.029c3.669-2.643,5.663-8.369,6.293-10.467&#10;&#9;&#9;c5.822,0.81,5.67,4.457,9.684,6.618c4.146,2.232,8.611,0.957,9.249,3.508c0.638,2.551,1.276,17.541,6.059,20.092&#10;&#9;&#9;c4.784,2.551,2.551,6.059,4.465,9.249c1.914,3.189,5.741,9.568,15.946,11.8c10.206,2.232,10.206,14.033,10.524,16.903&#10;&#9;&#9;c0.319,2.87,8.292,6.06,14.352,4.146l4.146-1.913l5.422,2.494c0,0,7.335-2.813,7.973-8.554c0.638-5.741,9.887-15.946,13.714-16.903&#10;&#9;&#9;c3.827-0.957,6.378-4.465,7.016-8.611c0.638-4.146,4.146-15.946,5.103-19.773c0.957-3.827,0-8.93,0-8.93s11.162-4.146,10.524-7.016&#10;&#9;&#9;c-0.461-2.072-0.743-0.506,1.049-2.224c2.164,10.34,7.265,31.943,13.368,38.917l-17.495-18.281c0,0,3.21,17.051,17.85,18.677&#10;&#9;&#9;c0.005,0.005,0.01,0.012,0.015,0.017c-6.599,3.717-19.458,1.409-19.458,1.409c12.505,5.832,18.315,0.213,19.571-1.282&#10;&#9;&#9;c0.72,1.832,5.396,12.604,13.684,6.664c0,0-8.731-1.072-13.324-6.736c3.01,0.643,20.213,3.514,28.992-12.535&#10;&#9;&#9;c0,0-14.218,12.951-29.071,12.437c-0.022-0.027-0.044-0.054-0.066-0.082c1.657-0.673,9.398-5.135,10.004-29.945&#10;&#9;&#9;c0,0-10.813,15.32-10.321,29.988c-1.056-2.163-10.549-22.307-9.341-45.175c3.333-5.86,1.724-8.564,6.024-9.711&#10;&#9;&#9;c1.347-0.359,2.487-0.618,3.487-0.889c0.327,4.177,1.679,10.744,6.201,18.778c-0.931-0.506-5.045-2.871-7.246-6.31&#10;&#9;&#9;c0,0,1.153,5.958,7.265,6.394c-2.284,1.812-7.638,0.395-7.638,0.395l-0.125,0.002c4.582,2.578,7.203,0.264,7.804-0.377h0.08&#10;&#9;&#9;c1.973,3.905,5.238,2.364,5.238,2.364c-2.026,0.594-4.539-1.735-5.171-2.364h0.139l-0.001-0.002&#10;&#9;&#9;c1.692,0.258,11.057,1.385,14.282-4.81c0,0-3.957,4.31-14.311,4.748c-0.001-0.002-0.002-0.005-0.003-0.007&#10;&#9;&#9;c6.128-3.232,5.674-12.166,5.674-12.166c-4.182,4.935-5.515,10.829-5.748,12.01c-0.694-1.474-4.788-10.526-5.151-19.049&#10;&#9;&#9;c1.838-0.641,3.158-1.565,4.474-3.821c1.262-2.164,4.256-4.224,6.621-5.608c14.511-1.661,29.934-3.721,43.548-5.809l0.001,0&#10;&#9;&#9;l0.048-0.008c3.453-0.53,6.787-1.06,9.959-1.586l0.036-0.006l0,0c4.919-0.816,9.45-1.621,13.418-2.39&#10;&#9;&#9;c3.332-0.646,5.821-1.26,7.651-1.841c1.312-0.262,2.825-0.662,3.845-1.23C606.504,162.223,606.882,161.597,606.031,160.919z&#10;&#9;&#9; M367.615,210.91c-2.367-3.804-4.639-11.93-5.64-16.593c2.464,1.618,4.863,3.394,7.14,4.733l0.947,0.439&#10;&#9;&#9;C369.716,206.081,368.061,209.969,367.615,210.91z M528.599,174.549c0.129-0.066,0.253-0.129,0.363-0.184&#10;&#9;&#9;c8.243-1.219,15.901-2.299,22.946-3.268C544.284,172.359,536.249,173.524,528.599,174.549z" id="BkXNFhRTRz"/>
	<g id="HyNVKnA60z">
		<path d="M371.139,176.707c0,0-55.458,8.901-101.331,0c-45.873-8.901-99.277,1.369-147.204-6.847&#10;&#9;&#9;&#9;s-52.035-9.585-30.81-13.693c17.542-3.395,86.526-11.467,141.634-13.78c11.571-0.486,22.53-0.717,32.272-0.598&#10;&#9;&#9;&#9;c56.143,0.685,180.068-6.162,256.751,5.477s108.178,11.639,67.782,19.171c-40.395,7.531-90.376,2.054-102.7,4.793&#10;&#9;&#9;&#9;c-12.324,2.739-62.989,13.389-89.691,9.433C371.139,176.707,371.139,176.707,371.139,176.707z" id="HkSNYn06AM"/>
		<path d="M602.51,158.731c-1.845-0.585-4.354-1.204-7.712-1.856&#10;&#9;&#9;&#9;c-3.999-0.776-8.566-1.586-13.525-2.409l0.001,0l-0.037-0.006c-3.197-0.53-6.558-1.065-10.038-1.599l-0.048-0.008l-0.001,0&#10;&#9;&#9;&#9;c-25.193-3.863-56.558-7.644-77.028-8.984l0.128,0.111c10.159,1.065,47.978,5.203,72.915,10.273&#10;&#9;&#9;&#9;c-25.85,8.584-55.441,8.174-69.289,7.357l-0.147,0.135c43.974,3.977,69.077-2.146,78.797-5.428&#10;&#9;&#9;&#9;c8.062,1.91,14.264,3.932,17.053,5.998c-31.67,9.384-118.141,6.889-118.141,6.889l-1.364,0.68&#10;&#9;&#9;&#9;c-0.586-0.015-0.923-0.024-0.923-0.024c-26.702,8.216-96.538,4.008-96.538,4.008s-3.93-1.42-11.444-1.989&#10;&#9;&#9;&#9;c6.888-1.322,13.528-2.52,18.751-3.16c13.012-1.594,40.553-4.635,50.326-5.709c-70.666,7.4-198.671-0.388-198.671-0.388&#10;&#9;&#9;&#9;c-25.977-0.318-45.712-1.009-60.704-1.904c-0.023-0.001-0.043-0.002-0.066-0.003c-9.236-0.457-16.948-1.13-23.403-1.936&#10;&#9;&#9;&#9;c-9.654-1.109-15.335-2.317-18.604-3.446c-3.546-0.968-6.215-1.965-8.22-2.919c-19.275,7.596,74.233,13.553,96.787,12.562&#10;&#9;&#9;&#9;c0.013,0,14.814-0.302,25.223,3.639c-25.199-2.005-77.974-1.594-97.286-2.179c-22.594-0.685-51.143-0.912-60.251-5.468&#10;&#9;&#9;&#9;c-1.897-0.949-1.917-2.398-0.787-4.093c-17.326,1.599-10.563,9.623,36.535,13.933c47.875,4.381,98.012,0,145.005,5.898&#10;&#9;&#9;&#9;c46.365,5.819,101.331,0,101.331,0s0,0,26.702,3.956c26.702,3.956,77.367-6.694,89.692-9.433c0.183-0.041,0.389-0.076,0.589-0.113&#10;&#9;&#9;&#9;c42.112,2.716,88.029-2.262,108.506-6.049c0.022,0.036,0.013,0.018,0.002,0c0.026-0.003,6.229-0.815,8.959-2.27&#10;&#9;&#9;&#9;c1.116-0.35,1.756-0.65,1.863-0.882C608.229,160.214,605.001,159.228,602.51,158.731z" id="HJUVFh060G"/>
	</g>
	<path d="M197.982,144.85c0,0,40.497-4.624,49.398-2.741c8.901,1.883,7.878,8.242,7.878,8.242l-15.067,4.32&#10;&#9;&#9;l-33.72,0.51l-10.648-0.51l-2.361-0.893l-5.306-3.427" id="BkPVYnC6AM"/>
	<g id="SyuNKnRT0f">
		<path d="M627.802,174.028c-0.067,0.112-0.151,0.226-0.249,0.342C627.726,174.148,627.802,174.028,627.802,174.028z&#10;&#9;&#9;&#9;" id="r1YVtnC60f"/>
		<path d="M623.66,176.98c2.866-1.79,4.142-2.952,4.142-2.952c-36.287,22.627-141.042,15.029-141.042,15.029&#10;&#9;&#9;&#9;c-53.404,23.279-143.022,8.788-143.022,8.788c62.379,21.112,145.76-3.311,145.76-3.311c22.134,1.856,41.04,2.042,57.119,1.18&#10;&#9;&#9;&#9;v0.003c64.028-3.027,78.919-18.782,80.927-21.338C626.854,175.19,625.44,176.081,623.66,176.98z" id="S19Nt30pRG"/>
		<path d="M627.553,174.369c-0.003,0.003-0.006,0.007-0.009,0.011C627.547,174.376,627.55,174.373,627.553,174.369z" id="BJiVFnAp0M"/>
	</g>
	<path d="M608.882,158.581c2.839,2.656,4.641,4.866,4.769,6.284c0.195,2.15-4.523,4.003-11.962,5.542&#10;&#9;&#9;c-21.146,6.47-93.595,7.022-116.88,7.028c-2.4,0.394-4.45,0.835-6.061,1.317c-0.774,0.231-1.453,0.472-2.03,0.719&#10;&#9;&#9;c-6.39,2.739-59.338,14.854-111.829,4.576c-60.26,9.18-116.382-7.272-116.382-7.272l-11.761-0.472&#10;&#9;&#9;c-3.531,0.002-8.689-0.058-15.014-0.191l-0.007,0c-133.042,5.538-146.33-12.258-146.334-12.263&#10;&#9;&#9;c-3.76-3.606,0.351-6.624,0.351-6.624s-25.116,12.659,32.167,20.875c49.323,7.074,114.323-1.29,137.431,2.842&#10;&#9;&#9;c0.105,0.037,0.359,0.125,0.761,0.257c6.825,2.258,55.729,17.326,122.95,9.333c10.322,1.794,67.202,10.37,116.786-8.651&#10;&#9;&#9;c0.173,0.002,0.716,0.01,1.579,0.018c11.221,0.733,88.504,5.181,125.179-8.546c0.304-0.114,0.606-0.229,0.905-0.346v-0.001&#10;&#9;&#9;c0.891-0.312,1.724-0.635,2.485-0.969c0.055-0.023,0.109-0.045,0.162-0.068l0.003-0.001h0c0.548-0.234,1.015-0.472,1.382-0.716&#10;&#9;&#9;C627.404,164.674,624.59,161.093,608.882,158.581z" id="rk2NFnC6RG"/>
	<path d="M239.37,183.713l-3.906,0.337l0.006,0.002c-2.113-0.023-3.33,0.212-3.33,0.212&#10;&#9;&#9;c-47.547,3.418-101.545,0-101.545,0c28.602,7.074,109.408,2.054,109.408,2.054s0.576,0.257,1.646,0.69&#10;&#9;&#9;c4.575,1.918,9.369,3.511,14.253,4.826c15.088,4.326,39.373,9.059,66.066,5.551c0.96-0.066,1.5-0.113,1.5-0.113&#10;&#9;&#9;C281.405,200.662,239.37,183.713,239.37,183.713z" id="SyTVt206AG"/>
	<polygon points="373.238,175.686 373.368,175.875 373.451,175.871 &#9;" id="ry0Vt20aAz"/>
	<path d="M409.287,170.822L409.287,170.822C409.286,170.821,409.287,170.821,409.287,170.822&#10;&#9;&#9;l-2.051-1.89l0.18-0.106l-1.973-1.546l-1.193-1.099l2.129-0.443l-6.336-3.433l-23.558-21.707l-6.741,1.409l-26.18,3.147&#10;&#9;&#9;l-28.416-6.343c0.592,1.993,0.95,3.493,0.795,3.818c-0.546,1.145-14.078,5.8-14.711,5.842c-0.571,0.038-24.259-0.83-28.929-1.001&#10;&#9;&#9;l-1.612,0.086l0.018,0.048c-0.645-0.026-1.333-0.033-2.1,0.01c0,0-3.476,0.174-3.689,1.896l0.059,0.084l0.087,0.124l13.088,18.629&#10;&#9;&#9;l3.617,10.077c7.425,0.998,23.561,2.73,43.641,2.3l1.232-0.278l1.315-0.276l2.178,0.154l1.838,0.18&#10;&#9;&#9;c12.537-0.557,26.3-2.007,40.27-4.982l-0.333-0.486c0,0,49.888-10.225,0.995,0.351c-0.221,0.048-0.441,0.089-0.662,0.136&#10;&#9;&#9;l0.893,1.302l2.601,0.322l3.929-0.516c-0.325-0.096-0.684-0.199-1.073-0.306l8.571-1.126l3.957,0.301l0.112-0.771l4.239,0.329&#10;&#9;&#9;l0.633-0.038c0,0,0.299-0.008,0.813-0.049l4.417-0.265l0.19-0.011l0.766-0.359l1.398,0.213c0,0,5.512-0.763,5.636-2.967&#10;&#9;&#9;L409.287,170.822z" id="rkkeNF3CaCG"/>
	<g id="Hklg4th0pCf">
		<linearGradient id="SVGID_1_" gradientUnits="userSpaceOnUse" x1="347.8849" y1="187.3577" x2="323.1614" y2="115.2722">
			<stop offset="0" style="stop-color:#FFFFFF"/>
			<stop offset="0.0376" style="stop-color:#F0E5BE"/>
			<stop offset="1" style="stop-color:#EBCB98"/>
		</linearGradient>
		<path d="M266.396,147.87l0.059,0.084l0.087,0.124l19.718,28.066c0,0-0.709,1.785,9.79,0.781l3.973-0.948&#10;&#9;&#9;&#9;l1.277,0.669l6.81-1.171l9.364-0.892l3.405-0.558h3.831l6.527-1.338h7.236l21.708-2.621l2.696-0.892l1.844,0.167l5.392-0.892&#10;&#9;&#9;&#9;l2.27,0.112l3.405-0.335l-1.135-0.502l3.405,0.056l11.067-1.673l3.973-0.056v-0.502l4.257-0.056l5.959-0.613l0.709-0.279h1.419&#10;&#9;&#9;&#9;l2.412-0.502l-41.997-22.753l-1.986,0.502l-5.817,0.502l-3.973,1.004l-2.98-0.446l-9.364,0.837l-2.27,0.725l-7.378,0.279&#10;&#9;&#9;&#9;l-8.087,0.39l-4.966,0.613l-10.925,0.948l-3.973,0.948l-2.27-0.502l-14.33,0.948l-3.263,0.613l-2.27-0.167l-3.831,0.39&#10;&#9;&#9;&#9;l-1.703-2.286c0,0-2.412-0.892-6.385-0.669C270.085,145.974,266.608,146.148,266.396,147.87z" id="HJZe4FhA60z"/>
		<path d="M374.775,140.456l-102.609,5.459l12.39,34.519c0,0-0.969,2.549,9.52,1.816l4.055-1.104&#10;&#9;&#9;&#9;l1.156,1.063l6.883-1.232l9.355-0.649l3.437-0.575l3.772,0.266l6.629-1.495l7.124,0.503l21.77-2.308l2.789-1.112l1.791,0.372&#10;&#9;&#9;&#9;l5.444-0.924l2.218,0.32l3.403-0.251l-1.041-0.809l3.344,0.318l11.15-1.667l3.92,0.195l0.076-0.731l4.199,0.214l5.96-0.479&#10;&#9;&#9;&#9;l0.741-0.357l2.117-1.958l4.521-2.664L374.775,140.456z" id="BJMgNYn0T0f"/>
		<linearGradient id="SVGID_2_" gradientUnits="userSpaceOnUse" x1="334.1572" y1="137.1975" x2="343.4547" y2="188.4475">
			<stop offset="0" style="stop-color:#FFFFFF"/>
			<stop offset="0.0376" style="stop-color:#FDBE15"/>
			<stop offset="1" style="stop-color:#DE8527"/>
		</linearGradient>
		<path d="M367.346,163.836c0,0-5.959-0.21-8.939-2.229c-2.98-2.02-11.918,0-11.918,0l-7.236-3.856&#10;&#9;&#9;&#9;l-4.682-4.886c0,0-16.6-0.36-25.113,2.122c-8.513,2.482-17.026,14.531-17.026,14.531l-9.927,1.281l3.034-1.122l0.721,10.911&#10;&#9;&#9;&#9;c0,0-0.709,2.238,9.79,0.979l3.973-1.189l1.277,0.839l6.81-1.469l9.364-1.119l3.405-0.699h3.831l6.527-1.679h7.236l21.708-3.287&#10;&#9;&#9;&#9;l2.696-1.119l1.844,0.21l5.392-1.119l2.27,0.14l3.405-0.42l-1.135-0.63l3.405,0.07l11.067-2.098l3.973-0.07v-0.63l4.257-0.07&#10;&#9;&#9;&#9;l-12.587-2.346L367.346,163.836z" id="B1QxNK2R6Cf"/>
		
			<linearGradient id="SVGID_3_" gradientUnits="userSpaceOnUse" x1="28.6314" y1="120.246" x2="1.4248" y2="40.9208" gradientTransform="matrix(0.993 0.1183 -0.1183 0.993 332.6406 65.4565)">
			<stop offset="0" style="stop-color:#FFFFFF"/>
			<stop offset="0.0376" style="stop-color:#F0E5BE"/>
			<stop offset="1" style="stop-color:#EBCB98"/>
		</linearGradient>
		<path d="M270.828,133.596l0.04,0.134l0.059,0.198l13.337,45.039c0,0-1.101,2.673,9.548,2.152l4.156-1.07&#10;&#9;&#9;&#9;l1.119,1.152l7.023-1.136l9.497-0.46l3.505-0.525l3.804,0.373l6.779-1.421l7.185,0.704l22.139-1.914l2.875-1.108l1.794,0.437&#10;&#9;&#9;&#9;l5.552-0.846l2.229,0.392l3.456-0.183l-1.015-0.882l3.369,0.417l11.361-1.493l3.957,0.301l0.112-0.771l4.239,0.329l6.054-0.363&#10;&#9;&#9;&#9;l0.766-0.359l1.409,0.138l2.507-0.536l-36.641-39.044l-2.084,0.578l-5.888,0.205l-4.168,1.156l-2.859-0.975l-9.485,0.374&#10;&#9;&#9;&#9;l-2.415,0.893l-7.388-0.29l-8.117-0.187l-5.068,0.459l-11.059,0.393l-4.156,1.07l-2.143-0.992l-14.44,0.062l-3.377,0.625&#10;&#9;&#9;&#9;l-2.217-0.478l-3.891,0.227l-1.182-3.679c0,0-2.197-1.606-6.191-1.65C274.913,131.042,271.423,130.971,270.828,133.596z" id="SkVlVF2R60z"/>
		
			<linearGradient id="SVGID_4_" gradientUnits="userSpaceOnUse" x1="11.9346" y1="67.0641" x2="22.2665" y2="124.0157" gradientTransform="matrix(0.993 0.1183 -0.1183 0.993 332.6406 65.4565)">
			<stop offset="0" style="stop-color:#FFFFFF"/>
			<stop offset="0.0376" style="stop-color:#FDBE15"/>
			<stop offset="1" style="stop-color:#DE8527"/>
		</linearGradient>
		<path d="M367.752,166.339c0,0-5.88-0.837-8.48-3.601c-2.6-2.764-11.835-1.16-11.835-1.16l-6.501-5.427&#10;&#9;&#9;&#9;l-3.783-6.441c0,0-16.42-2.056-25.313,0.155c-8.893,2.212-19.483,16.142-19.483,16.142l-11.722,0.701l0,0l3.63,12.259&#10;&#9;&#9;&#9;c0,0-1.101,2.673,9.548,2.152l4.156-1.07l1.119,1.152l7.023-1.136l9.497-0.46l3.505-0.525l3.804,0.373l6.779-1.421l7.185,0.704&#10;&#9;&#9;&#9;l22.139-1.914l2.875-1.108l1.794,0.437l5.552-0.846l2.229,0.392l3.456-0.183l-1.015-0.882l3.369,0.417l11.361-1.493l3.957,0.301&#10;&#9;&#9;&#9;l0.112-0.771l4.239,0.329l-12.082-4.099L367.752,166.339z" id="S1SeVt3ApAz"/>
		
			<linearGradient id="SVGID_5_" gradientUnits="userSpaceOnUse" x1="27.3783" y1="100.0873" x2="90.1384" y2="62.1394" gradientTransform="matrix(0.993 0.1183 -0.1183 0.993 332.6406 65.4565)">
			<stop offset="0" style="stop-color:#FFFFFF"/>
			<stop offset="0.0376" style="stop-color:#F0E5BE"/>
			<stop offset="1" style="stop-color:#EBCB98"/>
		</linearGradient>
		<path d="M410.761,169.182l-42.262-38.941c0,0-3.14-0.516-5.103,1.937l-0.242,1.67l36.588,38.164&#10;&#9;&#9;&#9;c0,0,3.087-2.472,7.707-2.801l0.4-0.786C407.849,168.425,409.908,168.311,410.761,169.182z" id="B18e4Fh0aRf"/>
		<linearGradient id="SVGID_6_" gradientUnits="userSpaceOnUse" x1="363.154" y1="152.334" x2="410.8011" y2="152.334">
			<stop offset="0" style="stop-color:#FFFFFF"/>
			<stop offset="0.0376" style="stop-color:#F0E5BE"/>
			<stop offset="1" style="stop-color:#EBCB98"/>
		</linearGradient>
		<path d="M410.801,169.939l-0.04-0.756l-42.865-37.891l-4.742,2.558l34.426,39.529&#10;&#9;&#9;&#9;c0,0,0.298-0.008,0.814-0.049l4.417-0.264l0.957-0.371l1.398,0.212C405.166,172.906,410.678,172.142,410.801,169.939z" id="SkwlVthR60z"/>
		<linearGradient id="SVGID_7_" gradientUnits="userSpaceOnUse" x1="375.7436" y1="159.5695" x2="415.2032" y2="128.3307">
			<stop offset="0" style="stop-color:#FFFFFF"/>
			<stop offset="0.0376" style="stop-color:#F0E5BE"/>
			<stop offset="1" style="stop-color:#EBCB98"/>
		</linearGradient>
		<path d="M410.761,169.182l-42.262-38.941c0,0-3.14-0.516-5.103,1.937l-0.242,1.67l36.588,38.164&#10;&#9;&#9;&#9;c0,0,3.087-2.472,7.707-2.801l0.4-0.786C407.849,168.425,409.908,168.311,410.761,169.182z" id="Sy_gEKnA6AG"/>
		<path d="M381.141,174.989c-5.143-1.522-18.41-4.591-34.804-2.858c-18.095,1.913-43.932-6.844-50.95-9.387&#10;&#9;&#9;&#9;c-1.911,2.158-3.098,3.719-3.098,3.719l-11.722,0.701l0,0l3.63,12.259c0,0-1.101,2.673,9.548,2.152l4.156-1.07l1.119,1.152&#10;&#9;&#9;&#9;l7.023-1.136l9.497-0.46l3.505-0.525l3.804,0.373l6.779-1.421l7.185,0.704l22.139-1.914l2.875-1.108l1.794,0.437l5.552-0.846&#10;&#9;&#9;&#9;l2.229,0.392l3.456-0.183l-1.015-0.882l3.369,0.417L381.141,174.989z" id="ryFlVKnC60M"/>
		<path d="M284.264,178.968c0,0,4.621-2.247,10.632-0.153l-6.771-19.107c0,0-3.381-0.331-8.95,1.86&#10;&#9;&#9;&#9;L284.264,178.968z" id="Bk5lVthCaCz"/>
		<g id="HkoeEK2RT0z">
			<path d="M381.095,156.309c-0.114-0.011-0.224-0.051-0.3-0.114c-0.142-0.12-0.107-0.282,0.079-0.36&#10;&#9;&#9;&#9;&#9;c0.561-0.238,0.871-0.445,0.874-0.447c0.152-0.102,0.42-0.104,0.598-0.003c0.178,0.101,0.2,0.265,0.049,0.368&#10;&#9;&#9;&#9;&#9;c-0.015,0.01-0.366,0.246-1.005,0.518C381.302,156.307,381.197,156.319,381.095,156.309z" id="By2eEYhRaRz"/>
		</g>
		<g id="BkpgVthRT0z">
			<path d="M325.825,161.796c-0.059-0.006-0.117-0.019-0.172-0.041c-0.204-0.08-0.275-0.242-0.159-0.361&#10;&#9;&#9;&#9;&#9;c0.381-0.394,0.699-0.839,0.945-1.325c0.068-0.134,0.305-0.201,0.529-0.15c0.224,0.051,0.351,0.202,0.283,0.336&#10;&#9;&#9;&#9;&#9;c-0.264,0.521-0.607,1.001-1.019,1.427C326.146,161.771,325.985,161.811,325.825,161.796z M327.333,158.934&#10;&#9;&#9;&#9;&#9;c-0.007-0.001-0.013-0.001-0.02-0.002c-0.232-0.03-0.395-0.168-0.363-0.308c0.043-0.191,0.079-0.39,0.109-0.593&#10;&#9;&#9;&#9;&#9;c0.042-0.287,0.071-0.593,0.086-0.91c0.007-0.143,0.202-0.247,0.437-0.233c0.234,0.017,0.419,0.142,0.412,0.285&#10;&#9;&#9;&#9;&#9;c-0.016,0.327-0.046,0.644-0.089,0.94c-0.03,0.211-0.069,0.418-0.113,0.617C327.76,158.867,327.557,158.956,327.333,158.934z&#10;&#9;&#9;&#9;&#9; M327.514,155.859c-0.21-0.021-0.378-0.133-0.386-0.266c-0.027-0.457-0.075-0.96-0.144-1.539&#10;&#9;&#9;&#9;&#9;c-0.017-0.144,0.158-0.261,0.392-0.261c0.235,0.001,0.437,0.116,0.454,0.26c0.071,0.586,0.118,1.095,0.146,1.558&#10;&#9;&#9;&#9;&#9;c0.009,0.144-0.174,0.256-0.408,0.251C327.549,155.861,327.531,155.86,327.514,155.859z M327.161,152.761&#10;&#9;&#9;&#9;&#9;c-0.201-0.02-0.367-0.125-0.385-0.253l-0.013-0.092c-0.069-0.489-0.138-0.977-0.199-1.459c-0.018-0.144,0.157-0.261,0.391-0.262&#10;&#9;&#9;&#9;&#9;c0.233-0.001,0.438,0.115,0.456,0.259c0.06,0.481,0.129,0.967,0.198,1.454l0.013,0.092c0.02,0.144-0.152,0.262-0.386,0.264&#10;&#9;&#9;&#9;&#9;C327.211,152.764,327.186,152.763,327.161,152.761z M376.405,157.072c-0.221-0.022-0.392-0.145-0.387-0.282&#10;&#9;&#9;&#9;&#9;c0.006-0.143,0.201-0.248,0.435-0.234c0.789,0.047,1.573,0.006,2.331-0.12c0.221-0.037,0.463,0.045,0.54,0.184&#10;&#9;&#9;&#9;&#9;c0.077,0.139-0.041,0.282-0.262,0.319c-0.853,0.143-1.738,0.189-2.629,0.136C376.423,157.074,376.414,157.073,376.405,157.072z&#10;&#9;&#9;&#9;&#9; M373.941,156.667c-0.036-0.004-0.073-0.01-0.109-0.02c-0.59-0.158-1.188-0.36-1.776-0.601c-0.169-0.069-0.355-0.15-0.551-0.24&#10;&#9;&#9;&#9;&#9;c-0.194-0.089-0.246-0.252-0.115-0.366s0.395-0.133,0.589-0.044c0.184,0.084,0.356,0.159,0.512,0.223&#10;&#9;&#9;&#9;&#9;c0.543,0.222,1.092,0.408,1.633,0.553c0.22,0.059,0.333,0.213,0.253,0.344C374.309,156.626,374.127,156.685,373.941,156.667z&#10;&#9;&#9;&#9;&#9; M369.681,154.842c-0.08-0.008-0.159-0.03-0.227-0.066c-0.535-0.285-1.159-0.625-1.963-1.07c-0.18-0.1-0.205-0.265-0.055-0.368&#10;&#9;&#9;&#9;&#9;c0.15-0.104,0.417-0.107,0.598-0.007c0.799,0.443,1.419,0.78,1.949,1.062c0.183,0.098,0.213,0.262,0.067,0.368&#10;&#9;&#9;&#9;&#9;C369.958,154.828,369.818,154.855,369.681,154.842z M326.795,149.664c-0.209-0.021-0.377-0.133-0.386-0.265&#10;&#9;&#9;&#9;&#9;c-0.039-0.576-0.047-1.088-0.025-1.563c0.007-0.143,0.202-0.248,0.436-0.233c0.232,0.013,0.419,0.142,0.412,0.285&#10;&#9;&#9;&#9;&#9;c-0.021,0.464-0.013,0.963,0.025,1.528c0.01,0.144-0.172,0.257-0.407,0.252C326.832,149.667,326.814,149.666,326.795,149.664z&#10;&#9;&#9;&#9;&#9; M365.786,152.698c-0.083-0.008-0.166-0.031-0.235-0.07c-0.621-0.345-1.269-0.705-1.94-1.075&#10;&#9;&#9;&#9;&#9;c-0.181-0.099-0.206-0.264-0.056-0.368c0.149-0.104,0.417-0.108,0.597-0.008c0.672,0.37,1.321,0.73,1.944,1.077&#10;&#9;&#9;&#9;&#9;c0.18,0.1,0.204,0.265,0.053,0.368C366.057,152.686,365.92,152.711,365.786,152.698z M361.889,150.557&#10;&#9;&#9;&#9;&#9;c-0.081-0.008-0.161-0.03-0.229-0.067c-0.676-0.364-1.339-0.716-1.972-1.047c-0.185-0.096-0.217-0.261-0.073-0.368&#10;&#9;&#9;&#9;&#9;c0.144-0.107,0.411-0.115,0.596-0.018c0.636,0.333,1.303,0.687,1.983,1.053c0.182,0.098,0.21,0.263,0.063,0.368&#10;&#9;&#9;&#9;&#9;C362.164,150.543,362.025,150.57,361.889,150.557z M326.978,146.589c-0.008-0.001-0.017-0.002-0.025-0.003&#10;&#9;&#9;&#9;&#9;c-0.232-0.031-0.392-0.17-0.358-0.31c0.137-0.564,0.333-1.062,0.602-1.521c0.077-0.132,0.319-0.192,0.54-0.136&#10;&#9;&#9;&#9;&#9;c0.221,0.057,0.338,0.21,0.261,0.342c-0.247,0.423-0.436,0.903-0.563,1.428C327.402,146.524,327.2,146.611,326.978,146.589z&#10;&#9;&#9;&#9;&#9; M357.906,148.478c-0.076-0.007-0.151-0.027-0.217-0.06c-0.688-0.346-1.371-0.682-2.031-0.998&#10;&#9;&#9;&#9;&#9;c-0.191-0.092-0.236-0.256-0.1-0.367c0.136-0.111,0.401-0.127,0.592-0.035c0.666,0.319,1.355,0.658,2.049,1.007&#10;&#9;&#9;&#9;&#9;c0.188,0.094,0.226,0.259,0.085,0.367C358.192,148.462,358.048,148.492,357.906,148.478z M353.786,146.507&#10;&#9;&#9;&#9;&#9;c-0.068-0.007-0.136-0.024-0.198-0.051c-0.716-0.323-1.427-0.634-2.114-0.922c-0.2-0.084-0.262-0.247-0.14-0.363&#10;&#9;&#9;&#9;&#9;c0.123-0.117,0.384-0.144,0.584-0.06c0.696,0.292,1.416,0.606,2.141,0.933c0.195,0.088,0.248,0.252,0.118,0.365&#10;&#9;&#9;&#9;&#9;C354.087,146.487,353.935,146.521,353.786,146.507z M328.691,143.791c-0.072-0.007-0.143-0.025-0.206-0.055&#10;&#9;&#9;&#9;&#9;c-0.192-0.091-0.238-0.255-0.104-0.366c0.507-0.42,1.127-0.784,1.842-1.08c0.187-0.078,0.453-0.043,0.594,0.078&#10;&#9;&#9;&#9;&#9;c0.141,0.121,0.103,0.282-0.085,0.36c-0.643,0.267-1.201,0.594-1.657,0.971C328.986,143.773,328.837,143.805,328.691,143.791z&#10;&#9;&#9;&#9;&#9; M349.478,144.704c-0.057-0.006-0.114-0.018-0.168-0.039c-0.754-0.288-1.501-0.558-2.221-0.802&#10;&#9;&#9;&#9;&#9;c-0.211-0.072-0.3-0.231-0.198-0.355c0.102-0.125,0.355-0.168,0.566-0.096c0.734,0.249,1.495,0.524,2.263,0.818&#10;&#9;&#9;&#9;&#9;c0.205,0.078,0.279,0.24,0.166,0.36C349.803,144.678,349.64,144.72,349.478,144.704z M332.642,142.118&#10;&#9;&#9;&#9;&#9;c-0.154-0.015-0.296-0.081-0.357-0.178c-0.087-0.137,0.019-0.283,0.237-0.327c0.088-0.018,0.177-0.035,0.268-0.051&#10;&#9;&#9;&#9;&#9;c0.716-0.131,1.472-0.221,2.247-0.265c0.231-0.012,0.449,0.092,0.488,0.235c0.038,0.143-0.118,0.27-0.349,0.283&#10;&#9;&#9;&#9;&#9;c-0.721,0.041-1.424,0.124-2.089,0.246c-0.084,0.016-0.167,0.031-0.249,0.048C332.773,142.122,332.706,142.124,332.642,142.118z&#10;&#9;&#9;&#9;&#9; M344.926,143.168c-0.04-0.004-0.081-0.011-0.12-0.023c-0.799-0.23-1.588-0.433-2.347-0.605&#10;&#9;&#9;&#9;&#9;c-0.225-0.051-0.352-0.201-0.286-0.336c0.067-0.134,0.303-0.202,0.528-0.152c0.782,0.177,1.596,0.387,2.418,0.623&#10;&#9;&#9;&#9;&#9;c0.218,0.063,0.324,0.218,0.237,0.348C345.286,143.13,345.108,143.186,344.926,143.168z M340.091,142.088&#10;&#9;&#9;&#9;&#9;c-0.012-0.001-0.024-0.003-0.036-0.004c-0.84-0.127-1.661-0.215-2.445-0.261c-0.233-0.011-0.42-0.141-0.414-0.284&#10;&#9;&#9;&#9;&#9;c0.006-0.143,0.2-0.248,0.434-0.234c0.827,0.049,1.69,0.141,2.571,0.274c0.231,0.035,0.385,0.176,0.345,0.316&#10;&#9;&#9;&#9;&#9;C340.507,142.026,340.308,142.109,340.091,142.088z" id="ryCl4tn0T0G"/>
		</g>
		<g id="HJJ-4t2ApCf">
			<path d="M323.379,163.423c-0.113-0.011-0.222-0.049-0.297-0.112c-0.144-0.119-0.112-0.281,0.073-0.361&#10;&#9;&#9;&#9;&#9;c0.322-0.14,0.627-0.293,0.908-0.456c0.164-0.095,0.433-0.085,0.6,0.023c0.167,0.108,0.17,0.272,0.006,0.367&#10;&#9;&#9;&#9;&#9;c-0.306,0.178-0.64,0.345-0.99,0.497C323.589,163.421,323.482,163.434,323.379,163.423z" id="Hyx-EthApRM"/>
		</g>
		<polyline points="321.734,164.42 314.581,162.016 313.403,162.752 319.403,165.715 315.082,167.433 &#10;&#9;&#9;&#9;317.451,168.838 321.472,166.229 326.121,166.685 327.549,165.71 323.629,164.732 327.972,162.783 324.079,161.625 &#10;&#9;&#9;&#9;320.458,164.354 &#9;&#9;" id="HkWZEK2Ra0G"/>
		<polygon points="285.049,136.209 288.776,158.165 280.292,137.041 &#9;&#9;" id="HyGW4YhR6RG"/>
		
			<linearGradient id="SVGID_8_" gradientUnits="userSpaceOnUse" x1="-21.1973" y1="87.1113" x2="-39.2222" y2="95.5229" gradientTransform="matrix(0.993 0.1183 -0.1183 0.993 332.6406 65.4565)">
			<stop offset="0" style="stop-color:#FFFFFF"/>
			<stop offset="0.0376" style="stop-color:#F0E5BE"/>
			<stop offset="1" style="stop-color:#EBCB98"/>
		</linearGradient>
		<path d="M270.601,133.685c0,0,2.099-4.682,11.479-0.634l13.373,45.299c0,0-7.626-3.481-11.354,0.064" id="ByXZVKh06Af"/>
	</g>
	<g id="SyEWVY2RT0G">
		
			<linearGradient id="SVGID_9_" gradientUnits="userSpaceOnUse" x1="5643.9976" y1="-367.1226" x2="5676.0298" y2="-367.1226" gradientTransform="matrix(-0.9947 0.1026 0.1026 0.9947 6082.1187 -74.1325)">
			<stop offset="0" style="stop-color:#189CCD"/>
			<stop offset="1" style="stop-color:#1081A5"/>
		</linearGradient>
		<path d="M417.241,127.583c0,0-0.933,13.437-19.307,7.604c0,0-0.523,3.918,2.192,6.265&#10;&#9;&#9;&#9;c0,0-4.627,7.586,3.029,9.888c0,0,3.341,2.901,6.577,2.567c0,0,4.178,2.815,7.27-1.677c0,0,8.696-2.597,7.531-3.404&#10;&#9;&#9;&#9;c-1.165-0.807-2.13-1.171-2.13-1.171s5.964-0.615,7.99-3.451C432.417,141.368,419.914,128.031,417.241,127.583z" id="SyBW4Y3C60z"/>
		<path d="M404.999,136.568c0,0,6.695,7.043,8.335,5.608l0.461-0.996c0,0,3.58,2.379,4.916,0.535l0.567-0.769&#10;&#9;&#9;&#9;c0,0,4.919,2.562,5.483,0.666v-1.64c0,0,3.587,1.589,3.843,0.564c0.256-1.025,0-2.152,0-2.152l-3.638-4.202l-3.382,0.307&#10;&#9;&#9;&#9;l-4.726,1.794c0,0-4.191,0.717-4.396,0.717s-7.134-0.397-7.134-0.397" id="B1IbEt20aAz"/>
		<path d="M404.714,136.603c-0.006-0.003-0.012-0.006-0.018-0.009c11.74,0.835,12.434-9.011,12.434-9.011&#10;&#9;&#9;&#9;c1.308,0.219,4.967,3.524,8.128,7.175C421.645,137.103,413.417,141.152,404.714,136.603z" id="rkDWVKnCTAf"/>
		<path d="M413.577,139.589c0.015,0.119,0.031,0.234,0.047,0.347c1.639,0.776,5.474-0.591,5.539-0.614&#10;&#9;&#9;&#9;l0.012-0.143c0,0,4.011,1.964,5.495,0.855l0.159,1.581c-0.159,0.505-0.583,0.884-1.582,0.683&#10;&#9;&#9;&#9;c-1.875-0.378-3.413-0.997-3.984-1.243c-1.229,2.941-5.537,0.126-5.537,0.126l-0.001-0.004c-0.028,0.483-0.196,0.894-0.687,1.239&#10;&#9;&#9;&#9;c-0.961,0.675-6.288-4.117-6.288-4.117C410.456,141.545,413.577,139.589,413.577,139.589z" id="r1uZ4KhCa0G"/>
		<path d="M418.022,150.711c0,0,3.512-1.104,4.434-1.924c0.922-0.82-3.638-2.46-3.638-2.46&#10;&#9;&#9;&#9;c4.181,0.712,9.932-2.472,11.378-3.326l0.343-0.207c0,0,0.036,0.095,0.052,0.258c0.004,0.03,0.004,0.06,0.006,0.09&#10;&#9;&#9;&#9;c0.001,0.03,0.001,0.062,0.001,0.095c-0.001,0.145-0.02,0.287-0.061,0.425c-0.283,1.089-1.741,2.94-8.054,3.996&#10;&#9;&#9;&#9;c0,0,0.023,0.003,0.055,0.008c-0.079-0.007-0.135-0.013-0.135-0.013l2.196,1.235c0.013,0.054,0.024,0.109,0.027,0.167l0,0.001&#10;&#9;&#9;&#9;c-0.022,0.03-0.042,0.058-0.068,0.101c-0.572,0.937-6.215,2.663-6.783,2.834L418.022,150.711z" id="r1tW4YnCa0G"/>
		<path d="M428.605,138.384c0,0-2.431,2.155-4.093,1.483c0,0,3.022,1.431,3.86,0.937&#10;&#9;&#9;&#9;C429.21,140.309,428.605,138.384,428.605,138.384z" id="H19-4tn06Rf"/>
		<g id="rJj-4t30TAz">
			<path d="M399.303,139.458l-1.16,0.363l-2.305-1.294c1.19-6.271-3.607-14.39-11.249-18.672&#10;&#9;&#9;&#9;&#9;c-8.119-4.551-16.372-3.065-18.43,3.335c-2.063,6.388,2.851,15.258,10.964,19.805c7.65,4.292,15.408,3.209,18.005-2.277&#10;&#9;&#9;&#9;&#9;l2.305,1.297l0.608,1.356l20.051,11.91c0,0,0.049-0.029,0.101-0.064l0.051,0.04c0.929-0.359,1.368-1.109,1.575-1.907&#10;&#9;&#9;&#9;&#9;c0.01-0.029,0.012-0.049,0.023-0.07c0.008-0.027,0.016-0.051,0.023-0.075c0.299-0.747,0.399-1.682-0.055-2.818l-0.049-0.021&#10;&#9;&#9;&#9;&#9;c-0.024-0.08-0.039-0.145-0.039-0.145L399.303,139.458z M392.718,138.074c-1.666,5.156-8.32,6.361-14.875,2.689&#10;&#9;&#9;&#9;&#9;c-6.549-3.67-10.512-10.834-8.854-15.989c1.667-5.158,8.327-6.367,14.877-2.694C390.42,125.755,394.38,132.913,392.718,138.074z" id="Hk3bEYhC60M"/>
			<g id="ryTZVF20pRz">
				<path d="M381.454,143.439c6.93,1.491,11.752-2.477,10.771-8.862&#10;&#9;&#9;&#9;&#9;&#9;c-0.981-6.385-7.394-12.77-14.324-14.261c-6.93-1.491-11.752,2.477-10.771,8.862&#10;&#9;&#9;&#9;&#9;&#9;C368.111,135.563,374.524,141.948,381.454,143.439z" id="rkCbNF30aAz"/>
				<path d="M398.091,140.421l-1.16,0.363l-2.305-1.294c1.19-6.271-3.607-14.39-11.249-18.672&#10;&#9;&#9;&#9;&#9;&#9;c-8.119-4.551-16.372-3.065-18.43,3.335c-2.063,6.388,2.851,15.258,10.964,19.805c7.65,4.292,15.408,3.209,18.005-2.277&#10;&#9;&#9;&#9;&#9;&#9;l2.305,1.297l0.608,1.356l20.051,11.91c0,0,0.049-0.029,0.101-0.064l0.051,0.04c0.929-0.359,1.368-1.109,1.575-1.907&#10;&#9;&#9;&#9;&#9;&#9;c0.01-0.029,0.012-0.049,0.023-0.07c0.008-0.027,0.016-0.051,0.023-0.075c0.299-0.747,0.399-1.682-0.055-2.818l-0.049-0.021&#10;&#9;&#9;&#9;&#9;&#9;c-0.024-0.08-0.039-0.145-0.039-0.145L398.091,140.421z M391.506,139.038c-1.666,5.156-8.32,6.361-14.874,2.689&#10;&#9;&#9;&#9;&#9;&#9;c-6.549-3.67-10.512-10.834-8.854-15.989c1.667-5.158,8.327-6.367,14.877-2.694&#10;&#9;&#9;&#9;&#9;&#9;C389.208,126.719,393.168,133.876,391.506,139.038z" id="SkJGEYnCa0M"/>
			</g>
		</g>
		<g id="H1ezVYnCTCz">
			
				<linearGradient id="SVGID_10_" gradientUnits="userSpaceOnUse" x1="5657.2407" y1="-356.1974" x2="5665.7217" y2="-356.1974" gradientTransform="matrix(-0.9947 0.1026 0.1026 0.9947 6082.1187 -74.1325)">
				<stop offset="0" style="stop-color:#189CCD"/>
				<stop offset="1" style="stop-color:#1081A5"/>
			</linearGradient>
			<path d="M414.593,149.764c0,0,4.48-0.514,3.311,2.131c-1.17,2.645-4.404,3.751-8.025,2.115&#10;&#9;&#9;&#9;&#9;C409.879,154.011,414.356,152.467,414.593,149.764z" id="B1bMEt2Aa0f"/>
			
				<linearGradient id="SVGID_11_" gradientUnits="userSpaceOnUse" x1="5660.5586" y1="-358.1489" x2="5671.3584" y2="-358.1489" gradientTransform="matrix(-0.9947 0.1026 0.1026 0.9947 6082.1187 -74.1325)">
				<stop offset="0" style="stop-color:#189CCD"/>
				<stop offset="1" style="stop-color:#1081A5"/>
			</linearGradient>
			<path d="M403.959,151.556c0,0,3.353,3.08,5.328,2.67s5.622-2.138,5.304-4.848&#10;&#9;&#9;&#9;&#9;c-0.318-2.71-3.92-2.416-4.901-1.813C408.71,148.168,403.959,151.556,403.959,151.556z" id="ryGfEK3Ca0M"/>
			
				<linearGradient id="SVGID_12_" gradientUnits="userSpaceOnUse" x1="5665.2861" y1="-361.2492" x2="5675.6143" y2="-361.2492" gradientTransform="matrix(-0.9947 0.1026 0.1026 0.9947 6082.1187 -74.1325)">
				<stop offset="0" style="stop-color:#189CCD"/>
				<stop offset="1" style="stop-color:#1081A5"/>
			</linearGradient>
			<path d="M403.608,151.646l6.02-4.315c0,0-0.503-2.877-3.509-2.682c-3.007,0.194-5.861,1.068-6.98,1.608&#10;&#9;&#9;&#9;&#9;C399.139,146.257,399.272,150.564,403.608,151.646z" id="H1XM4KnA6Cz"/>
			<path d="M401.792,148.667c4.046-0.425,5.697-2.117,6.366-3.546c1.213,0.773,1.47,2.211,1.47,2.211&#10;&#9;&#9;&#9;&#9;l-6.02,4.315c-2.009-0.502-3.109-1.695-3.719-2.832C400.5,148.784,401.134,148.736,401.792,148.667z" id="BJEfNt2CaRM"/>
			<path d="M406.823,153.258c4.113-0.857,6.292-3.797,7.141-5.252&#10;&#9;&#9;&#9;&#9;c0.324,0.334,0.558,0.777,0.627,1.372c0.318,2.71-3.329,4.439-5.304,4.848c-0.851,0.176-1.958-0.296-2.942-0.89&#10;&#9;&#9;&#9;&#9;C406.505,153.31,406.657,153.292,406.823,153.258z" id="rJBGVt2ApCz"/>
			<path d="M417.722,150.294c0.375,0.325,0.525,0.824,0.182,1.601&#10;&#9;&#9;&#9;&#9;c-1.17,2.645-4.404,3.751-8.025,2.115c0,0,0.751-0.262,1.652-0.751C415.007,153.322,416.963,151.312,417.722,150.294z" id="H1UzEKh06Cf"/>
		</g>
	</g>
	<ellipse cx="446.981" cy="165.305" rx="40.886" ry="3.307" id="HkDMVKnCa0z"/>
	<g id="BkOGNYhCpRG">
		
			<linearGradient id="SVGID_13_" gradientUnits="userSpaceOnUse" x1="5527.3604" y1="-2795.9299" x2="5562.1138" y2="-2795.9299" gradientTransform="matrix(-0.8413 0.5405 0.5405 0.8413 6661.1284 -528.5052)">
			<stop offset="0" style="stop-color:#189CCD"/>
			<stop offset="1" style="stop-color:#1081A5"/>
		</linearGradient>
		<path d="M475.831,117.655c0,0,14.027-13.343,13.84-23.015c0,0,7.073,2.801,5.89,10.341&#10;&#9;&#9;&#9;s-8.572,13.04-19.17,18.529l0.685,1.066c0,0,12.777-4.442,18.129-9.01c0,0,1.552-0.809,1.989,1.924&#10;&#9;&#9;&#9;c0.437,2.732,0.006,9.977-5.687,11.375c-5.693,1.398-14.384-1.87-14.384-1.87l0.685,1.066c0,0,4.048,3.37,9.635,3.858&#10;&#9;&#9;&#9;c0,0-6.021,8.51-13.168-0.27l-0.053-12.395L475.831,117.655z" id="BkFfVY3CaCz"/>
		<g id="H15G4F2Cp0M">
			<path d="M476.598,123.274c-0.872,0.241-1.682,0.442-2.417,0.609l-0.005-1.109&#10;&#9;&#9;&#9;&#9;c12.896-6.182,17.867-18.002,19.721-24.838c1.208,1.627,2.081,3.901,1.602,6.951C494.327,112.361,487.05,117.831,476.598,123.274&#10;&#9;&#9;&#9;&#9;z" id="HyjGEKh0pRf"/>
			<path d="M497.252,119.615c-0.095,3.295-1.306,8.051-5.806,9.155c-5.693,1.398-14.384-1.87-14.384-1.87&#10;&#9;&#9;&#9;&#9;l0.685,1.066c0,0,4.048,3.37,9.635,3.858c0,0-6.021,8.51-13.168-0.27l-0.023-5.282&#10;&#9;&#9;&#9;&#9;C487.571,126.141,494.159,122.464,497.252,119.615z" id="ry3zVF30aAG"/>
		</g>
	</g>
	<g id="SJaGVtnApAz">
		<path d="M470.972,141.033c0,0-5.689,9.45-3.204,15.429l-2.336-1.929l-1.082,1.929l-1.426-1.35l-2.605,1.35&#10;&#9;&#9;&#9;c0,0,0.666-4.05-2.897-8.679C457.422,147.783,468.109,143,470.972,141.033z" id="rkCMVY3RTRf"/>
		<g id="By17NK3Ap0M">
			<g id="Byl7EF2RTCM">
				<path d="M442.535,155.044l-1.88,4.578c0,0,3.327,0.193,2.7,4.339c0,0-1.555,1.219-1.501,2.201&#10;&#9;&#9;&#9;&#9;&#9;c0,0-3.996,0.114-4.237-0.32c-0.241-0.434-1.398-1.736-1.398-1.736h-0.723c0,0-1.929,3.038-2.266,3.086&#10;&#9;&#9;&#9;&#9;&#9;c-0.337,0.048-5.111,0.391-5.111,0.391s-3.188-0.456-2.58-2.995l-2.435-0.209c0,0-0.096,1.125-0.868,1.366&#10;&#9;&#9;&#9;&#9;&#9;c-0.771,0.241-4.532,0.417-4.532,0.417l-1.929-2.393c0,0,1.495-6.509,6.798-2.941c0,0,9.691-0.289,13.549-4.918l2.17-3.086&#10;&#9;&#9;&#9;&#9;&#9;C438.292,152.824,441.137,153.167,442.535,155.044z" id="ByWXVtn0pRG"/>
				<path d="M418.524,165.456c2.604-0.145,4.58-1.077,4.58-1.077h2.429c0,0,0.367-0.032,0.602,0.932&#10;&#9;&#9;&#9;&#9;&#9;c0.234,0.964,1.646,1.591,1.646,1.591s2.121-0.048,3.664-0.241c1.543-0.193,3.259-2.845,3.259-2.845s0.791-0.193,1.562-0.096&#10;&#9;&#9;&#9;&#9;&#9;c0.771,0.096,1.35,1.109,1.35,1.109l2.459,0.579c0.737-2.053,2.304-1.815,3.408-2.303c0.144,0.552,0,0-0.13,0.857&#10;&#9;&#9;&#9;&#9;&#9;c0,0-1.555,1.219-1.501,2.201c0,0-3.996,0.114-4.237-0.32c-0.241-0.434-1.398-1.736-1.398-1.736h-0.723&#10;&#9;&#9;&#9;&#9;&#9;c0,0-1.929,3.038-2.266,3.086c-0.337,0.048-5.111,0.391-5.111,0.391s-3.194-0.664-2.585-3.204h-2.429&#10;&#9;&#9;&#9;&#9;&#9;c0,0-0.096,1.125-0.868,1.366c-0.771,0.241-4.532,0.417-4.532,0.417l-1.929-2.393c0,0,0.051-0.219,0.165-0.553&#10;&#9;&#9;&#9;&#9;&#9;C417.631,164.21,418.524,165.456,418.524,165.456z" id="HkG7VFhC60z"/>
				<path d="M415.687,163.768c0,0,1.611-0.139,2.335,2.364h-3.83C414.191,166.132,414.018,164.324,415.687,163.768z" id="rkmXEY3CaCM"/>
				<path d="M443.158,163.768c0,0-1.457-0.096-2.181,2.407l3.677-0.043&#10;&#9;&#9;&#9;&#9;&#9;C444.653,166.132,444.827,164.324,443.158,163.768z" id="B1NmVYnRTCz"/>
				<path d="M432.249,161.03c0,0-5.03-1.459-6.71,3.558l-0.683-0.012&#10;&#9;&#9;&#9;&#9;&#9;C424.856,164.576,425.756,159.143,432.249,161.03z" id="SkHQEF3CaAz"/>
				<path d="M425.572,164.393c0,0,2.154-0.186,3.122,3.161h-5.121C423.572,167.553,423.34,165.136,425.572,164.393z" id="SkIX4thATAG"/>
				<path d="M466.638,154.824c0,0,2.314,4.114,5.722,4.886c0,0,5.264-3.071,7.068,2.977&#10;&#9;&#9;&#9;&#9;&#9;c0.023,0.078,0.046,0.157,0.068,0.237c0,0-2.556,1.093-2.242,2.379l-4.187-0.257c0,0-1.326-2.25-2.174-2.186&#10;&#9;&#9;&#9;&#9;&#9;c-0.848,0.064-1.169,0.064-1.169,0.064s0.643,2.7-0.707,3.15c-1.35,0.45-7.65,1.029-9.129,0.321&#10;&#9;&#9;&#9;&#9;&#9;c-1.479-0.707-0.9-3.472-0.9-3.472l-1.929,0.193c0,0-0.643,1.993-1.864,1.993s-4.436,0.257-4.436,0.257&#10;&#9;&#9;&#9;&#9;&#9;s-2.314-1.414-2.057-2.443c0.257-1.029,1.864-6.236,7.072-3.472c0,0,3.882-0.702,4.84-3.592&#10;&#9;&#9;&#9;&#9;&#9;C460.613,155.86,463.873,152.96,466.638,154.824z" id="H1PQEKnRaCf"/>
				<path d="M448.701,163.04c0.041-0.165,0.118-0.439,0.238-0.77c0.483,0.36,1.13,0.732,2.017,1.076&#10;&#9;&#9;&#9;&#9;&#9;c3.23,1.254,6.268-0.916,6.268-0.916l2.17,0.096c0.112,1.631,1.004,2.572,2.261,3.067c0.159-0.701,0.596-1.802,1.789-2.07&#10;&#9;&#9;&#9;&#9;&#9;c1.781-0.401,3.761,2.253,3.766,2.26c2.956-0.725,1.971-4.225,1.971-4.225l1.741-0.07c2.32,2.481,4.43,1.63,4.43,1.63&#10;&#9;&#9;&#9;&#9;&#9;c0.795-1.632,1.746-2.495,2.673-2.915c0.556,0.577,1.046,1.409,1.4,2.599c0.023,0.078,0.046,0.157,0.068,0.237&#10;&#9;&#9;&#9;&#9;&#9;c0,0-2.556,1.093-2.242,2.379l-4.187-0.257c0,0-1.326-2.25-2.174-2.186c-0.848,0.064-1.169,0.064-1.169,0.064&#10;&#9;&#9;&#9;&#9;&#9;s0.643,2.7-0.707,3.15c-1.35,0.45-7.65,1.029-9.129,0.321c-1.479-0.707-0.9-3.472-0.9-3.472l-1.929,0.193&#10;&#9;&#9;&#9;&#9;&#9;c0,0-0.643,1.993-1.864,1.993c-1.221,0-4.436,0.257-4.436,0.257S448.444,164.068,448.701,163.04z" id="HJum4KnAaRz"/>
				<path d="M465.776,165.067c0,0-2.186-1.347-3.343,0c0,0-0.62,2.762,1.233,3.919&#10;&#9;&#9;&#9;&#9;&#9;C463.666,168.986,466.291,168.734,465.776,165.067z" id="S1YmEth0pRf"/>
				<path d="M479.743,162.674c0,0-1.793-0.155-2.599,2.632h4.264C481.407,165.305,481.6,163.293,479.743,162.674z" id="SJ5XEthRTRf"/>
				<path d="M448.481,162.941c0,0,1.611-0.139,2.335,2.364h-3.83C446.986,165.305,446.812,163.498,448.481,162.941z" id="B1i74tn0pRf"/>
				<path d="M469.182,161.558c0,0-6.051-6.825-9.788,0.968l-0.535,0.146c0,0,1.813-4.262,4.609-4.311&#10;&#9;&#9;&#9;&#9;&#9;s4.01,0.676,6.41,3.168" id="H1n7NthC6AG"/>
				<path d="M448.682,148.763c0,0-6.126,6.51-5.74,9.596l-1.325-2.242l-2.893,1.116l-1.414-2.048l-2.861,0.418&#10;&#9;&#9;&#9;&#9;&#9;c0,0,3.376-5.472,3.486-10.407C437.934,145.197,444.283,146.042,448.682,148.763z" id="HJpQEYh0aCf"/>
			</g>
			<path d="M469.432,144.051c0,0-4.968,4.944-10.939,5.306l1.092,1.598&#10;&#9;&#9;&#9;&#9;C459.585,150.956,467.591,150.216,469.432,144.051z" id="r1RQEthA60M"/>
			<path d="M447.907,149.281c0,0-5.225-0.963-9.631-4.038l-0.301,2.019c0,0,4.578,3.013,9.237,2.721" id="ryJV4Yh060G"/>
		</g>
	</g>
	<path d="M390.904,78.903v-6.657l2.869,2.6l2.869-4.201c0,0,0.769,2.847,0.856,5.24&#10;&#9;&#9;c20.358-5.852,31.26,14.651,36.78,23.799c6.052,10.03,7.569,8.323,7.569,8.323c20.663-1.921,31.622,8.11,31.622,8.11&#10;&#9;&#9;s11.739,23.048-17.073,34.999c-28.812,11.951-37.987-18.14-37.804-21.554c0.183-3.414-7.652-9.39-11.058-9.817&#10;&#9;&#9;c-3.406-0.427-4.529-1.494-4.529-1.494C376.978,100.346,388.416,82.27,390.904,78.903z" id="BJe4VFn0pRM"/>
	<path d="M389.934,99.346c0.266-0.109,0.531-0.191,0.795-0.26l-0.01-0.003&#10;&#9;&#9;c1.738-9.563,5.705-11.748,5.705-11.748c-4.022,3.521-4.582,9.856-4.66,11.569c5.539-0.462,10.35,6.784,10.35,6.784l-2.076,0.969&#10;&#9;&#9;l-1.992,1.44h-3.279C394.767,108.098,383.67,101.918,389.934,99.346z" id="ryWVEt2CaRM"/>
	<g id="HkMEVFh0a0M">
		
			<ellipse cx="398.824" cy="94.399" rx="5.944" ry="7.707" id="BJmV4Y2R6AM"/>
		<path d="M403.611,92.171c-1.845-3.826-5.728-5.778-8.683-4.37c0.2-0.139,0.411-0.265,0.635-0.373&#10;&#9;&#9;&#9;c2.957-1.426,6.853,0.527,8.702,4.361c1.848,3.834,0.95,8.098-2.008,9.524c-0.006,0.003-0.012,0.005-0.018,0.008&#10;&#9;&#9;&#9;C404.68,99.624,405.32,95.715,403.611,92.171z" id="H1E4VFn06Rz"/>
		
			<ellipse cx="398.082" cy="97.482" rx="2.3" ry="3.615" id="SJBVNthRpRG"/>
		
			<ellipse cx="398.085" cy="97.479" rx="2.133" ry="3.352" id="SJIN4KhR6CG"/>
		<path d="M398.719,97.398c-0.045,0.19-0.155,0.365-0.327,0.486c-0.374,0.265-0.891,0.176-1.156-0.197&#10;&#9;&#9;&#9;c-0.041-0.059-0.073-0.121-0.098-0.185c-0.156,0.434,0.042,1.101,0.534,1.663c0.615,0.702,1.455,0.973,1.876,0.604&#10;&#9;&#9;&#9;c0.421-0.369,0.264-1.237-0.351-1.939C399.048,97.659,398.885,97.514,398.719,97.398z" id="HyDNVt2CpCM"/>
		<path d="M387.757,91.446c1.125,0.829,2.121,2.001,2.821,3.453c1.849,3.834,0.95,8.098-2.008,9.524&#10;&#9;&#9;&#9;c-0.08,0.038-0.161,0.071-0.242,0.104C386.421,98.913,387.099,94.048,387.757,91.446z" id="BJdE4th0aCM"/>
		
			<ellipse cx="389.243" cy="99.638" rx="1.369" ry="2.597" id="HkF4Nt3AaRf"/>
		
			<ellipse cx="389.245" cy="99.636" rx="1.269" ry="2.408" id="Syq4EY20TCM"/>
		<path d="M390.066,99.538c-0.047,0.132-0.14,0.248-0.272,0.321c-0.288,0.159-0.65,0.055-0.81-0.232&#10;&#9;&#9;&#9;c-0.025-0.045-0.043-0.092-0.055-0.14c-0.146,0.297-0.057,0.789,0.25,1.23c0.383,0.55,0.962,0.81,1.292,0.58&#10;&#9;&#9;&#9;c0.33-0.23,0.286-0.862-0.097-1.412C390.281,99.751,390.176,99.634,390.066,99.538z" id="Hks44F306Rf"/>
		<path d="M390.236,95.352c-0.671-1.415-1.618-2.571-2.695-3.407c0.059-0.27,0.118-0.521,0.175-0.752&#10;&#9;&#9;&#9;c1.282,0.848,2.42,2.133,3.192,3.762c1.86,3.923,0.903,8.312-2.138,9.802c-0.006,0.003-0.013,0.006-0.019,0.009&#10;&#9;&#9;&#9;C391.266,103,391.955,98.978,390.236,95.352z" id="BJhNNthRT0M"/>
		<path d="M403.625,99.803c2.439-2.03,2.221-6.313-0.487-9.565c-0.26-0.312-0.537-0.597-0.821-0.867&#10;&#9;&#9;&#9;c0.67,0.477,1.307,1.055,1.877,1.74c2.708,3.252,2.925,7.534,0.487,9.565c-2.205,1.835-5.822,1.195-8.497-1.346&#10;&#9;&#9;&#9;C398.697,101.119,401.7,101.406,403.625,99.803z" id="SkTNVK206Rf"/>
		<path d="M380.934,101.261c0.977,1.475,2.234,2.627,3.561,3.365c0.171-0.144,0.402-0.328,0.673-0.532&#10;&#9;&#9;&#9;c-1.335-0.638-2.626-1.761-3.609-3.245c-1.062-1.603-1.623-3.397-1.581-5.052c0.041-1.628,0.663-2.92,1.751-3.637&#10;&#9;&#9;&#9;c0.257-0.17,0.538-0.304,0.834-0.401c2.3-0.749,5.346,0.787,7.244,3.653c1.062,1.603,1.623,3.397,1.581,5.052&#10;&#9;&#9;&#9;c-0.022,0.88-0.22,1.657-0.563,2.302c0.334,0.078,0.629,0.155,0.855,0.218c0.308-0.684,0.485-1.475,0.508-2.354&#10;&#9;&#9;&#9;c0.032-1.259-0.255-2.586-0.808-3.867c0.197-0.155,0.506-0.227,0.677-0.255c0.254,0.527,0.542,1.046,0.874,1.548&#10;&#9;&#9;&#9;c2.613,3.954,7.027,6.004,10.497,4.873c0.505-0.165,0.985-0.396,1.425-0.686c1.704-1.126,2.726-3.062,2.879-5.452&#10;&#9;&#9;&#9;c0.152-2.38-0.578-4.922-2.055-7.157c-2.613-3.954-7.027-6.004-10.497-4.874c-0.505,0.165-0.985,0.396-1.425,0.686&#10;&#9;&#9;&#9;c-1.704,1.126-2.726,3.062-2.879,5.452c-0.102,1.602,0.204,3.276,0.86,4.883c-0.214,0.027-0.452,0.111-0.677,0.298&#10;&#9;&#9;&#9;c-0.189-0.366-0.393-0.728-0.626-1.08c-2.126-3.211-5.578-4.919-8.206-4.063c-0.352,0.115-0.685,0.275-0.991,0.476&#10;&#9;&#9;&#9;C378.616,93.139,378.481,97.557,380.934,101.261z M394.205,86.13c0.399-0.263,0.833-0.472,1.29-0.622&#10;&#9;&#9;&#9;c3.173-1.034,7.221,0.856,9.624,4.493c2.811,4.254,2.488,9.439-0.719,11.558c-0.398,0.263-0.833,0.472-1.29,0.622&#10;&#9;&#9;&#9;c-3.173,1.034-7.221-0.855-9.624-4.493C390.675,93.434,390.998,88.249,394.205,86.13z" id="Sy0VVK3CTRf"/>
		<path d="M385.339,103.917c-0.857-0.312-1.704-0.832-2.456-1.546c0.963,0.686,2.016,1.088,3.02,1.178&#10;&#9;&#9;&#9;C385.706,103.672,385.516,103.796,385.339,103.917z" id="rkyrNth0aCG"/>
		<path d="M390.267,102.633c-0.393-0.081-0.819-0.152-1.215-0.186c1.58-1.691,1.313-4.82-0.695-7.231&#10;&#9;&#9;&#9;c-0.205-0.246-0.422-0.47-0.646-0.682c0.527,0.376,1.029,0.83,1.477,1.369C391.012,98.093,391.395,100.874,390.267,102.633z" id="SJxSVF20T0f"/>
	</g>
	<g id="rybHEF2ATAM">
		<path d="M445.089,114.173c0,0,1.902,1.614,0.57,2.668c-0.081,0.064-0.174,0.126-0.28,0.186&#10;&#9;&#9;&#9;c0,0,3.206,1.412,0.837,2.522c0,0,4.919,1.605,2.564,2.586c0,0,6.048,1.536,5.239,3.281c0,0,4.926,1.54,4.023,3.21&#10;&#9;&#9;&#9;c0,0,5.178,1.109,5.126,2.481c0,0,14.194,1.985,13.421,3.407c-0.772,1.422-24.613,1.76-37.992-3.949c0,0-10.057-2.474-0.31-16.52" id="BJfr4Kh0p0G"/>
		
			<linearGradient id="SVGID_14_" gradientUnits="userSpaceOnUse" x1="5066.4868" y1="440.0278" x2="5139.7637" y2="440.0278" gradientTransform="matrix(-0.9937 -0.1122 -0.1122 0.9937 5592.2925 260.2522)">
			<stop offset="0" style="stop-color:#189CCD"/>
			<stop offset="1" style="stop-color:#1081A5"/>
		</linearGradient>
		<path d="M439.141,114.146c0,0,9.899,0.855,20.902,0.063c0,0,4.145-0.35,1.04,1.627&#10;&#9;&#9;&#9;c0,0,12.06-0.671,5.356,2.245c0,0,5.923-0.972,7.98-0.215c2.056,0.757-2.645,2.654-2.645,2.654s8.608-1.259,10.492-0.784&#10;&#9;&#9;&#9;c1.884,0.475-1.494,2.39-1.494,2.39s9.435-1.363,10.801-0.815s0.5,1.894-4.568,3.421c0,0,9.926-2.095,12.228-1.704&#10;&#9;&#9;&#9;s1.463,2.396-4.786,4.446c0,0,13.086-2.985,14.344-2.383s-11.415,9.866-31.806,9.795s-31.677-5.806-31.677-5.806l-5.137-4.188&#10;&#9;&#9;&#9;l-4.255-6.582L439.141,114.146L439.141,114.146z" id="SJXrVK2C6AG"/>
		<path d="M449.183,114.54l2.127,2.719c5.994-0.446,9.17-2.344,10.14-3.03&#10;&#9;&#9;&#9;c0.692,0.095,1.203,0.374,0.303,1.126c-0.285,0.166-0.584,0.339-0.903,0.521c-2.888,1.642-7.739,2.604-7.739,2.604l0.438,0.64&#10;&#9;&#9;&#9;c9.93-0.766,12.816-2.546,13.531-3.158c1.532,0.245,2.182,0.774-0.104,1.873c-0.309,0.119-0.636,0.24-0.982,0.361&#10;&#9;&#9;&#9;c-2.919,1.016-7.361,2.417-7.361,2.417l0.636,0.695c11.026-1.169,12.939-3.262,13.232-3.723c0.765,0.024,1.446,0.106,1.92,0.28&#10;&#9;&#9;&#9;c1.111,0.409,0.249,1.15-0.777,1.746c-0.461,0.191-0.899,0.386-1.295,0.582c-2.917,1.442-8.136,2.953-8.136,2.953l-0.099,0.875&#10;&#9;&#9;&#9;c11.17-0.369,15.529-3.311,16.764-4.391c0.597-0.002,1.083,0.029,1.39,0.106c1.759,0.444-1.067,2.141-1.451,2.365&#10;&#9;&#9;&#9;c-0.135,0.061-0.27,0.122-0.405,0.183c-2.095,0.945-6.254,2.886-6.254,2.886s-16.695,3.553-1.779,1.866&#10;&#9;&#9;&#9;c0.066-0.007,0.131-0.015,0.196-0.022c12.535-1.449,16.166-4.835,16.973-5.816c0.962-0.037,1.712-0.013,2.027,0.113&#10;&#9;&#9;&#9;c1.366,0.548,0.5,1.894-4.568,3.421c0,0,0.182-0.038,0.494-0.102l-14.402,3.816l3.019,1.719&#10;&#9;&#9;&#9;c12.294-0.482,17.836-3.498,19.711-4.96c0.912-0.711,1.205-1.512,1.268-2.15c0.921-0.082,1.681-0.104,2.137-0.026&#10;&#9;&#9;&#9;c1.202,0.204,1.547,0.849,0.712,1.71c0,0-1.304,1.428-5.595,2.996c-6.982,2.844-15.427,5.356-15.427,5.356&#10;&#9;&#9;&#9;c13.751-0.837,22.665-5.288,25.839-7.689c2.01-0.327,3.627-0.503,4.03-0.31c1.258,0.601-11.415,9.866-31.806,9.795&#10;&#9;&#9;&#9;c-20.391-0.071-31.677-5.806-31.677-5.806l-5.137-4.188l-2.926-6.15l1.895-4.595C439.141,114.145,443.283,114.502,449.183,114.54z&#10;&#9;&#9;&#9;" id="rk4HVth0aAf"/>
		<path d="M442.417,113.522c0,0,9.167,0.789,7.177,2.828c0,0,6.62,0.993,4.593,2.684c0,0,6.593,0.547,5.954,2.148&#10;&#9;&#9;&#9;c0,0,9.583,0.491,6.8,2.785c0,0,8.515,0.469,7.854,1.575c-0.66,1.107-2.069,1.39-2.069,1.39s6.993,0.396,7.596,1.153&#10;&#9;&#9;&#9;c0.603,0.757-0.332,1.586-2.535,2.125c0,0,7.921,0.303,8.233,0.929c0.31,0.622-0.554,4.953-21.434,2.842&#10;&#9;&#9;&#9;c-0.125-0.013-0.251-0.026-0.378-0.039c-21.247-2.201-13.688-4.104-13.688-4.104s-8.587-5.25-8.792-5.47&#10;&#9;&#9;&#9;c-0.205-0.22-4.027-4.982-4.027-4.982l1.165-2.87l1.368-1.273L442.417,113.522z" id="SJHSEt2RTCf"/>
		<path d="M446.969,113.087c0,0,1.902,1.614,0.57,2.668c-0.081,0.064-0.174,0.126-0.28,0.186&#10;&#9;&#9;&#9;c0,0,3.206,1.412,0.837,2.522c0,0,4.525,1.233,2.171,2.214c0,0,5.231,0.919,4.422,2.665c0,0,5.252,1.6,4.349,3.27&#10;&#9;&#9;&#9;c0,0,4.107,1.005,4.054,2.377c0,0,9.031,3.742,8.258,5.164c-0.772,1.422-17.493,1.035-30.872-4.674c0,0-10.652-1.932-1.329-16.684&#10;&#9;&#9;&#9;" id="S1USEt30pCG"/>
	</g>
	<path d="M393.785,80.569c0,0,20.807-8.323,41.295,26.89&#10;&#9;&#9;C435.08,107.458,422.487,65.843,393.785,80.569z" id="SyDHVt2RaCz"/>
	<path d="M464.088,146.032c0.461-0.284-30.929,8.803-41.973-10.404&#10;&#9;&#9;C422.116,135.628,432.915,165.239,464.088,146.032z" id="ByOBEF3ATAz"/>
	<path d="M410.797,118.342c0,0,4.757-0.64,9.238,6.562&#10;&#9;&#9;C420.035,124.904,419.299,116.037,410.797,118.342z" id="rkYS4YhC6RG"/>
	<g id="S19rNthR6CM">
		<path d="M442.059,113.604c0,0,2.13,2.223,0.89,4.136c-0.075,0.116-0.163,0.232-0.265,0.345&#10;&#9;&#9;&#9;c0,0,3.439,1.668,1.146,3.856c0,0,5.211,1.668,2.918,3.648c0,0,6.357,1.355,5.732,4.273c0,0,5.211,1.563,4.482,4.377&#10;&#9;&#9;&#9;c0,0,5.419,0.834,5.524,3.022c0,0,14.733,0.608,14.107,3.006s-24.948,7.208-39.277,0.538c0,0-10.562-2.126-2.222-26.185" id="HkiBEtnRa0M"/>
		
			<linearGradient id="SVGID_15_" gradientUnits="userSpaceOnUse" x1="5426.4976" y1="126.2678" x2="5501.8496" y2="126.2678" gradientTransform="matrix(-1 0 0 1 5935.0132 0)">
			<stop offset="0" style="stop-color:#189CCD"/>
			<stop offset="1" style="stop-color:#1081A5"/>
		</linearGradient>
		<path d="M435.977,114.627c0,0,10.214-0.417,21.365-3.648c0,0,4.195-1.299,1.251,2.397&#10;&#9;&#9;&#9;c0,0,12.246-3.227,5.732,2.606c0,0,5.941-2.606,8.129-1.772c2.189,0.834-2.397,4.69-2.397,4.69s8.65-3.544,10.631-3.127&#10;&#9;&#9;&#9;s-1.251,4.065-1.251,4.065s9.484-3.856,10.943-3.231c1.459,0.625,0.73,2.918-4.273,6.253c0,0,9.901-5.107,12.298-4.898&#10;&#9;&#9;&#9;c2.397,0.208,1.772,3.544-4.377,7.921c0,0,13.028-7.087,14.383-6.357c1.355,0.73-10.526,17.718-31.371,21.261&#10;&#9;&#9;&#9;c-20.844,3.544-33.038-3.544-33.038-3.544l-5.732-5.732l-5.107-9.693L435.977,114.627L435.977,114.627z" id="r1nBNYhR6Cz"/>
		<path d="M446.284,113.453l2.487,3.937c6.073-1.784,9.1-5.366,10.012-6.631&#10;&#9;&#9;&#9;c0.718,0.027,1.273,0.378,0.439,1.734c-0.272,0.315-0.558,0.644-0.863,0.989c-2.762,3.127-7.608,5.524-7.608,5.524l0.521,0.938&#10;&#9;&#9;&#9;c10.059-2.996,12.803-6.342,13.463-7.442c1.594,0.114,2.319,0.839,0.11,2.994c-0.302,0.245-0.622,0.495-0.962,0.749&#10;&#9;&#9;&#9;c-2.866,2.137-7.243,5.159-7.243,5.159l0.73,0.99c11.132-3.834,12.846-7.501,13.092-8.286c0.785-0.099,1.49-0.091,1.994,0.101&#10;&#9;&#9;&#9;c1.182,0.45,0.388,1.782-0.593,2.912c-0.449,0.385-0.874,0.774-1.257,1.156c-2.814,2.814-7.973,6.149-7.973,6.149v1.407&#10;&#9;&#9;&#9;c11.371-2.588,15.487-8.043,16.624-9.981c0.609-0.11,1.11-0.148,1.432-0.08c1.848,0.389-0.843,3.593-1.209,4.017&#10;&#9;&#9;&#9;c-0.131,0.121-0.262,0.242-0.393,0.363c-2.032,1.876-6.058,5.706-6.058,5.706s-16.649,8.637-1.602,3.283&#10;&#9;&#9;&#9;c0.066-0.024,0.132-0.047,0.198-0.071c12.641-4.548,15.962-10.578,16.672-12.282c0.979-0.231,1.748-0.328,2.085-0.184&#10;&#9;&#9;&#9;c1.459,0.625,0.73,2.918-4.273,6.253c0,0,0.181-0.093,0.493-0.251l-14.276,8.644l3.283,2.189&#10;&#9;&#9;&#9;c12.507-2.97,17.822-8.755,19.57-11.412c0.85-1.292,1.057-2.618,1.047-3.643c0.931-0.296,1.705-0.466,2.181-0.425&#10;&#9;&#9;&#9;c1.252,0.109,1.679,1.071,0.925,2.589c0,0-1.168,2.503-5.371,5.762c-6.806,5.77-15.147,11.273-15.147,11.273&#10;&#9;&#9;&#9;c13.955-3.794,22.55-12.462,25.516-16.846c2.017-0.88,3.648-1.449,4.082-1.215c1.355,0.73-10.526,17.718-31.371,21.261&#10;&#9;&#9;&#9;c-20.844,3.543-33.038-3.544-33.038-3.544l-5.732-5.732l-3.7-9.245l1.407-7.639C435.977,114.625,440.251,114.449,446.284,113.453z&#10;&#9;&#9;&#9;" id="Sy6H4Fn0pCG"/>
		<path d="M439.253,113.049c0,0,9.458-0.391,7.66,3.205c0,0,6.879,0.391,5.003,3.439c0,0,6.8-0.313,6.331,2.345&#10;&#9;&#9;&#9;c0,0,9.849-0.938,7.269,3.205c0,0,8.755-0.782,8.207,1.094c-0.547,1.876-1.954,2.579-1.954,2.579s7.191-0.625,7.895,0.469&#10;&#9;&#9;&#9;s-0.156,2.579-2.345,3.83c0,0,8.129-0.938,8.52,0c0.389,0.932,0.005,7.966-21.574,8.357c-0.13,0.002-0.26,0.004-0.391,0.006&#10;&#9;&#9;&#9;c-21.965,0.313-14.461-4.065-14.461-4.065s-9.38-6.8-9.614-7.113c-0.234-0.313-4.69-7.191-4.69-7.191l0.86-4.768l1.251-2.267&#10;&#9;&#9;&#9;L439.253,113.049z" id="rk0BNY3RTAG"/>
		<path d="M484.828,132.859c0.555,0.061,0.935,0.172,1.012,0.356&#10;&#9;&#9;&#9;c0.388,0.932,0.005,7.966-21.574,8.357c-0.13,0.002-0.26,0.004-0.391,0.006c-9.799,0.139-13.73-0.655-15.082-1.577&#10;&#9;&#9;&#9;c3.183,0.041,7.118,0.092,7.118,0.092l0.024-0.012c0.096,0.001,0.191,0.002,0.289,0.004&#10;&#9;&#9;&#9;C476.75,140.338,483.125,134.961,484.828,132.859z" id="Hyk8NF30pAM"/>
		<path d="M456.769,137.305c13.872-1.488,19.292-6.309,21.03-8.404&#10;&#9;&#9;&#9;c0.898,0.089,1.591,0.26,1.785,0.563c0.481,0.748,0.23,1.678-0.674,2.591c-0.339,0.267-0.684,0.546-1.031,0.839l0,0&#10;&#9;&#9;&#9;c-0.2,0.135-0.411,0.269-0.64,0.4c0,0,0.046-0.005,0.123-0.014c-4.534,3.073-18.092,5.164-18.092,5.164l-3.415,1.716&#10;&#9;&#9;&#9;c-3.109-0.038-5.446-0.067-7.153-0.087c-0.924-0.637-0.62-1.335-0.171-1.827C451.513,138.153,454.326,137.866,456.769,137.305z" id="B1g84Kn0aRf"/>
		<path d="M462.163,133.911c0,0,9.055-3.871,10.755-6c1.7-2.129,0.652-2.987-3.375-2.828&#10;&#9;&#9;&#9;c0,0,0.906,4.588-9.308,7.776" id="HyZI4thCTAz"/>
		<path d="M462.371,122.033c0,0,4.768,4.218-7.947,7.657l2.892,1.172c0,0,7.072-3.604,8.2-5.619&#10;&#9;&#9;&#9;S465.238,122.102,462.371,122.033z" id="BJGUEFhCTRM"/>
		<path d="M458.248,122.038c0,0,0.403-1.932-3.365-2.221c0,0,5.873,2.237-2.517,5.247l0.221,1.577&#10;&#9;&#9;&#9;C452.588,126.641,457.864,123.697,458.248,122.038z" id="ByXLVt306RG"/>
		<path d="M449.635,116.69c0,0,3.461,3.073-2.167,6.043l0.43,0.496c0,0,4.498-2.452,4.34-4.444&#10;&#9;&#9;&#9;c-0.158-1.993-2.103-1.987-2.723-2.127" id="H1VU4F30T0G"/>
		<path d="M443.855,111.542c0,0,2.13,2.223,0.89,4.136c-0.075,0.116-0.163,0.232-0.265,0.345&#10;&#9;&#9;&#9;c0,0,3.439,1.668,1.146,3.856c0,0,4.766,1.147,2.474,3.127c0,0,5.451,0.523,4.826,3.441c0,0,5.551,1.601,4.821,4.415&#10;&#9;&#9;&#9;c0,0,4.312,0.86,4.416,3.048c0,0,9.66,4.325,9.034,6.722c-0.625,2.397-17.756,4.78-32.086-1.89c0,0-11.107-1.159-3.282-26.264" id="SJSIVt2R6Rf"/>
	</g>
	<g id="BkUUEtnA6Cf">
		
			<ellipse cx="398.087" cy="97.596" rx="2.073" ry="3.311" id="ryPUVKhC6Cf"/>
		<path d="M396.435,95.614c0.355-0.325,0.903-0.357,1.482-0.159c-0.372-0.03-0.705,0.059-0.948,0.282&#10;&#9;&#9;&#9;c-0.65,0.596-0.405,1.92,0.546,2.958c0.432,0.472,0.935,0.795,1.418,0.96c-0.624-0.05-1.356-0.433-1.952-1.083&#10;&#9;&#9;&#9;C396.029,97.534,395.785,96.209,396.435,95.614z" id="ryO84tn0pAM"/>
	</g>
	<g id="BytU4KhCpRz">
		
			<ellipse cx="389.043" cy="99.513" rx="1.403" ry="2.242" id="SJcLEK206RM"/>
		<path d="M388.308,97.928c0.289-0.151,0.653-0.076,0.998,0.155c-0.238-0.084-0.472-0.084-0.669,0.019&#10;&#9;&#9;&#9;c-0.529,0.276-0.6,1.186-0.159,2.031c0.201,0.384,0.473,0.683,0.76,0.875c-0.399-0.141-0.812-0.52-1.088-1.049&#10;&#9;&#9;&#9;C387.708,99.114,387.779,98.204,388.308,97.928z" id="H1oINY2CT0z"/>
	</g>
	<g id="SJh84K2C60G">
		<path d="M390.427,101.311c0.182-0.042,0.355-0.082,0.531-0.123c0.585-0.008,2.654,0.182,6.21,2.803&#10;&#9;&#9;&#9;c4.257,3.137,3.852,3.171,7.639,2.237c3.787-0.934,6.427,0.428,5.929,4.134c-0.141,1.053-0.525,2.233-0.997,3.386&#10;&#9;&#9;&#9;c-2.204,5.984-9.083,7.577-10.039,7.629c-0.957,0.052-1.358-2.221-1.358-2.221l-0.001-0.011c-1.122,0.403-2.377,0.761-3.822,1.027&#10;&#9;&#9;&#9;c0,0-1.669,0.052-1.148,1.599c0.521,1.547,0.435,2.45-1.37,2.279C390.197,123.879,372.546,105.442,390.427,101.311z" id="H1TLEF2C6Rz"/>
		<path d="M398.839,116.197c3.822-1.22,2.987-6.25,1.876-9.744c1.105,0.528,1.892,0.313,4.09-0.228&#10;&#9;&#9;&#9;c3.787-0.934,6.426,0.428,5.929,4.134c-0.217,1.616-0.996,3.535-1.806,5.186c-0.422,0.794-1.764,2.819-4.984,4.369&#10;&#9;&#9;&#9;c-4.451,2.125-4.698,1.3-4.927,1.046c-0.197-0.218-0.603-1.457-0.715-1.806c-1.113,0.398-2.354,0.752-3.784,1.015&#10;&#9;&#9;&#9;c0,0-1.669,0.052-1.148,1.599c0.521,1.547,0.435,2.45-1.37,2.279c-0.355-0.034-1.327-0.779-2.52-1.981&#10;&#9;&#9;&#9;C388.649,118.414,392.836,118.114,398.839,116.197z" id="SyRLEt206AG"/>
		<g id="r1JwEF30TAf">
			<path d="M404.691,115.861c0.004-0.002,0.008-0.005,0.012-0.007c3.526-2.362,4.017-6.141,4.037-6.3&#10;&#9;&#9;&#9;&#9;c0.022-0.187-0.111-0.357-0.298-0.38c-0.186-0.022-0.357,0.109-0.379,0.297c-0.004,0.037-0.48,3.633-3.739,5.815&#10;&#9;&#9;&#9;&#9;c-0.157,0.105-0.198,0.316-0.093,0.474C404.332,115.912,404.536,115.956,404.691,115.861z" id="SygPNY2060f"/>
		</g>
	</g>
</g>
<script>(function(){var a=document.querySelector('#r14YhCaAf'),b=a.querySelectorAll('style'),c=function(d){b.forEach(function(f){var g=f.textContent;g&amp;&amp;(f.textContent=g.replace(/transform-box:[^;\r\n]*/gi,'transform-box: '+d))})};c('initial'),window.requestAnimationFrame(function(){return c('fill-box')})})();</script></svg>