<?xml version="1.0" encoding="utf-8"?>
<!-- Generator: Adobe Illustrator 17.0.0, SVG Export Plug-In . SVG Version: 6.00 Build 0)  -->
<!DOCTYPE svg PUBLIC "-//W3C//DTD SVG 1.1//EN" "http://www.w3.org/Graphics/SVG/1.1/DTD/svg11.dtd">
<svg version="1.1" id="Layer_1" xmlns="http://www.w3.org/2000/svg" xmlns:xlink="http://www.w3.org/1999/xlink" x="0px" y="0px"
  enable-background="new 0 0 315 330" xml:space="preserve">
  <style type="text/css">

@keyframes up{
  from {
    transform: translateY(0px);
  }
  to {
    transform: translateY(-15px);
  }
}
@-webkit-keyframes up {
  from {
    transform: translateY(0px);
  }
  to {
    transform: translateY(-15px);
  }
}

@keyframes up2{
  from {
    transform: translateY(-15px);
  }
  to {
    transform: translateY(0px);
  }
}
@-webkit-keyframes up {
  from {
    transform: translateY(-15px);
  }
  to {
    transform: translateY(0px);
  }
}



.jump {
  animation: up 2s infinite alternate;
  -webkit-animation: up 2s infinite alternate;
}

.jump2 {
  animation: up 2s infinite alternate;
  -webkit-animation: up 2s infinite alternate;
}

</style>
<g>
	<g>
		<g>
			<path fill="blue" d="M154.303,174.651c-0.008-0.001-0.015-0.002-0.023-0.004c-0.007-0.001-0.675-0.119-1.865-0.296
				c-0.002,0-0.003-0.001-0.005-0.001c-0.608-0.094-1.027-0.662-0.936-1.271c0.091-0.611,0.661-1.032,1.272-0.941
				c1.218,0.182,1.893,0.3,1.921,0.305c0.609,0.107,1.015,0.687,0.908,1.295C155.47,174.339,154.903,174.743,154.303,174.651z"/>
		</g>
		<g>
			<path fill="#CB2128" d="M180.388,240.383c-0.331-0.051-0.636-0.25-0.81-0.566c-0.582-1.056-1.269-2.074-2.039-3.026
				c-0.389-0.48-0.315-1.184,0.165-1.573c0.48-0.389,1.184-0.316,1.573,0.165c0.854,1.053,1.615,2.182,2.261,3.354
				c0.298,0.541,0.101,1.221-0.44,1.52C180.872,240.381,180.623,240.419,180.388,240.383z M175.573,234.413
				c-0.206-0.032-0.406-0.121-0.573-0.27c-0.885-0.789-1.87-1.549-2.928-2.258c-0.513-0.344-0.65-1.039-0.306-1.552
				c0.345-0.513,1.041-0.65,1.552-0.306c1.142,0.766,2.209,1.589,3.17,2.446c0.461,0.411,0.502,1.118,0.091,1.58
				C176.317,234.346,175.935,234.469,175.573,234.413z M169.207,230.103c-0.118-0.018-0.235-0.056-0.346-0.114
				c-1.062-0.553-2.208-1.085-3.407-1.581c-0.571-0.236-0.842-0.891-0.606-1.462c0.236-0.571,0.891-0.84,1.462-0.606
				c1.259,0.521,2.465,1.081,3.585,1.664c0.548,0.285,0.761,0.961,0.476,1.509C170.142,229.95,169.668,230.174,169.207,230.103z
				 M162.1,227.134c-0.062-0.01-0.124-0.025-0.186-0.045c-1.15-0.385-2.372-0.757-3.631-1.103c-0.596-0.164-0.945-0.78-0.781-1.376
				c0.164-0.595,0.779-0.944,1.376-0.781c1.298,0.358,2.559,0.741,3.748,1.139c0.586,0.196,0.902,0.83,0.705,1.416
				C163.155,226.908,162.629,227.216,162.1,227.134z M112.661,219.326c-0.605-0.093-1.024-0.657-0.937-1.265
				c0.088-0.611,0.655-1.036,1.267-0.948c1.187,0.171,2.431,0.338,3.804,0.513c0.614,0.077,1.047,0.638,0.969,1.251
				c-0.078,0.613-0.638,1.047-1.251,0.969c-1.385-0.176-2.64-0.346-3.84-0.518C112.669,219.327,112.665,219.327,112.661,219.326z
				 M108.851,218.735c-0.005-0.001-0.01-0.002-0.015-0.002c-1.34-0.224-2.628-0.46-3.828-0.7c-0.606-0.121-0.999-0.71-0.877-1.316
				c0.121-0.606,0.7-1.011,1.316-0.877c1.177,0.235,2.442,0.467,3.759,0.687c0.609,0.102,1.021,0.679,0.919,1.288
				C110.023,218.419,109.455,218.828,108.851,218.735z M120.309,220.305c-0.592-0.091-1.01-0.635-0.94-1.235
				c0.071-0.614,0.627-1.053,1.241-0.982c1.266,0.147,2.542,0.29,3.824,0.431c0.605,0.071,1.057,0.62,0.99,1.235
				c-0.068,0.614-0.62,1.057-1.235,0.99c-1.287-0.142-2.568-0.285-3.838-0.433C120.337,220.309,120.323,220.307,120.309,220.305z
				 M101.293,217.209c-0.032-0.005-0.065-0.011-0.097-0.019c-1.326-0.325-2.599-0.673-3.782-1.037
				c-0.59-0.182-0.922-0.807-0.74-1.398c0.181-0.59,0.803-0.923,1.398-0.74c1.141,0.351,2.371,0.688,3.655,1.003
				c0.6,0.147,0.968,0.752,0.821,1.352C102.409,216.937,101.86,217.296,101.293,217.209z M127.973,221.155
				c-0.588-0.091-1.006-0.629-0.941-1.226c0.066-0.614,0.618-1.058,1.233-0.991c1.276,0.138,2.556,0.278,3.836,0.42
				c0.613,0.07,1.056,0.621,0.988,1.236c-0.068,0.614-0.621,1.056-1.236,0.988c-1.278-0.142-2.556-0.281-3.831-0.419
				C128.007,221.16,127.99,221.157,127.973,221.155z M154.671,225.072c-0.027-0.004-0.054-0.009-0.082-0.016
				c-1.182-0.271-2.439-0.537-3.735-0.788c-0.607-0.117-1.003-0.705-0.885-1.311c0.117-0.606,0.696-0.999,1.311-0.885
				c1.322,0.256,2.604,0.527,3.811,0.804c0.602,0.138,0.978,0.739,0.84,1.341C155.798,224.792,155.245,225.16,154.671,225.072z
				 M135.638,222.012c-0.593-0.091-1.011-0.636-0.94-1.236c0.072-0.614,0.628-1.053,1.242-0.98c1.285,0.151,2.566,0.308,3.841,0.473
				c0.611,0.072,1.045,0.64,0.966,1.253c-0.079,0.613-0.64,1.045-1.253,0.966c-1.267-0.163-2.54-0.319-3.816-0.469
				C135.665,222.015,135.652,222.014,135.638,222.012z M147.101,223.594c-0.004-0.001-0.009-0.001-0.013-0.002
				c-1.251-0.208-2.515-0.402-3.789-0.587c-0.003-0.001-0.007-0.001-0.01-0.002c-0.606-0.093-1.025-0.658-0.937-1.266
				c0.089-0.612,0.656-1.035,1.268-0.947c1.289,0.187,2.568,0.384,3.834,0.594c0.609,0.101,1.022,0.677,0.921,1.287
				C148.274,223.277,147.706,223.687,147.101,223.594z M93.934,214.918c-0.082-0.013-0.163-0.035-0.243-0.067
				c-1.295-0.514-2.511-1.072-3.615-1.66c-0.546-0.29-0.752-0.968-0.462-1.513c0.29-0.546,0.967-0.752,1.513-0.462
				c1.031,0.549,2.171,1.072,3.389,1.556c0.574,0.228,0.855,0.878,0.627,1.452C94.947,214.719,94.438,214.996,93.934,214.918z
				 M87.173,211.256c-0.176-0.027-0.348-0.097-0.501-0.211c-1.132-0.851-2.141-1.781-2.998-2.766
				c-0.405-0.466-0.357-1.173,0.11-1.578c0.466-0.405,1.172-0.357,1.578,0.11c0.754,0.867,1.647,1.689,2.654,2.446
				c0.494,0.371,0.594,1.072,0.223,1.566C87.983,211.164,87.568,211.317,87.173,211.256z M82.208,205.464
				c-0.347-0.053-0.663-0.269-0.832-0.606c-0.605-1.211-1.06-2.52-1.353-3.89c-0.13-0.604,0.255-1.199,0.86-1.328
				c0.604-0.13,1.199,0.255,1.328,0.86c0.254,1.186,0.647,2.316,1.168,3.36c0.276,0.553,0.051,1.225-0.502,1.501
				C82.662,205.467,82.429,205.498,82.208,205.464z M80.552,198.017c-0.543-0.084-0.955-0.557-0.947-1.122
				c-0.002-1.355,0.094-2.665,0.286-3.91l0.013-0.085c0.094-0.611,0.665-1.029,1.276-0.935c0.611,0.094,1.029,0.665,0.935,1.276
				l-0.015,0.097c-0.172,1.119-0.26,2.313-0.258,3.538l0,0.052c-0.009,0.618-0.517,1.111-1.135,1.102
				C80.654,198.029,80.602,198.025,80.552,198.017z M81.785,190.457c-0.07-0.011-0.14-0.028-0.208-0.053
				c-0.582-0.208-0.884-0.849-0.676-1.431c0.458-1.277,1.045-2.508,1.745-3.66c0.321-0.528,1.011-0.695,1.537-0.375
				c0.528,0.321,0.696,1.009,0.375,1.537c-0.622,1.024-1.144,2.119-1.551,3.254C82.823,190.241,82.303,190.537,81.785,190.457z
				 M85.734,183.936c-0.211-0.032-0.414-0.125-0.583-0.279c-0.456-0.417-0.488-1.124-0.072-1.581
				c0.879-0.963,1.877-1.881,2.966-2.729c0.487-0.379,1.19-0.292,1.57,0.195c0.379,0.488,0.292,1.191-0.195,1.57
				c-0.989,0.77-1.894,1.602-2.688,2.472C86.469,183.872,86.092,183.991,85.734,183.936z M91.76,179.196
				c-0.324-0.05-0.623-0.241-0.799-0.547c-0.309-0.535-0.125-1.219,0.41-1.528c1.103-0.636,2.298-1.237,3.552-1.786
				c0.566-0.248,1.226,0.01,1.473,0.576c0.248,0.566-0.01,1.226-0.576,1.473c-1.179,0.516-2.3,1.08-3.332,1.675
				C92.26,179.191,92.003,179.233,91.76,179.196z M98.802,176.083c-0.4-0.062-0.753-0.339-0.891-0.75
				c-0.197-0.586,0.118-1.22,0.704-1.417c1.197-0.402,2.467-0.778,3.777-1.116c0.599-0.155,1.209,0.205,1.363,0.803
				c0.155,0.598-0.205,1.208-0.803,1.363c-1.258,0.325-2.477,0.685-3.623,1.071C99.152,176.097,98.973,176.11,98.802,176.083z
				 M106.265,174.138c-0.453-0.07-0.834-0.415-0.928-0.89c-0.119-0.606,0.276-1.194,0.882-1.313
				c1.242-0.244,2.541-0.465,3.859-0.658c0.614-0.089,1.18,0.334,1.269,0.945c0.089,0.611-0.334,1.179-0.945,1.269
				c-1.283,0.187-2.545,0.403-3.751,0.64C106.52,174.155,106.39,174.157,106.265,174.138z M113.901,173.013
				c-0.491-0.076-0.888-0.473-0.942-0.991c-0.064-0.615,0.383-1.165,0.997-1.228c1.262-0.131,2.571-0.242,3.89-0.331
				c0.616-0.043,1.15,0.425,1.191,1.041c0.041,0.617-0.425,1.15-1.041,1.191c-1.292,0.087-2.574,0.196-3.809,0.324
				C114.09,173.03,113.993,173.027,113.901,173.013z M121.602,172.489c-0.52-0.08-0.927-0.52-0.946-1.065
				c-0.022-0.618,0.46-1.136,1.078-1.158c1.261-0.046,2.57-0.073,3.893-0.083c0.619-0.002,1.123,0.493,1.127,1.11
				c0.005,0.618-0.493,1.122-1.11,1.127c-1.302,0.009-2.591,0.037-3.829,0.082C121.742,172.504,121.671,172.5,121.602,172.489z
				 M129.326,172.428c-0.545-0.084-0.957-0.559-0.947-1.126c0.011-0.618,0.521-1.11,1.138-1.098
				c1.267,0.022,2.575,0.061,3.888,0.115c0.618,0.028,1.097,0.547,1.072,1.164c-0.026,0.617-0.547,1.097-1.164,1.072
				c-1.296-0.053-2.586-0.092-3.836-0.114C129.426,172.44,129.376,172.436,129.326,172.428z M137.046,172.744
				c-0.566-0.087-0.982-0.593-0.945-1.176c0.039-0.617,0.57-1.085,1.187-1.046c1.279,0.081,2.583,0.177,3.877,0.285
				c0.616,0.053,1.073,0.592,1.022,1.208c-0.051,0.616-0.592,1.073-1.208,1.022c-1.278-0.107-2.567-0.201-3.831-0.281
				C137.113,172.753,137.079,172.75,137.046,172.744z M144.749,173.389c-0.586-0.09-1.003-0.625-0.942-1.221
				c0.064-0.615,0.614-1.061,1.229-0.997c1.299,0.135,2.599,0.284,3.863,0.442c0.626,0.075,1.048,0.636,0.971,1.249
				c-0.077,0.613-0.636,1.048-1.249,0.971c-1.249-0.156-2.534-0.303-3.817-0.437C144.785,173.394,144.767,173.391,144.749,173.389z"
				/>
		</g>
		<g>
			<path fill="#CB2128" d="M182.489,245.783c-0.432-0.067-0.804-0.385-0.916-0.836c-0.147-0.593-0.32-1.183-0.512-1.752
				c-0.198-0.585,0.116-1.22,0.702-1.418c0.585-0.199,1.22,0.116,1.418,0.702c0.212,0.627,0.402,1.276,0.564,1.929
				c0.149,0.6-0.216,1.207-0.816,1.356C182.781,245.8,182.632,245.805,182.489,245.783z"/>
		</g>
	</g>
	<g>
		<g>
			<path fill="#CB2128" d="M57.494,52.007c-0.438,0-0.853-0.258-1.032-0.687c-0.484-1.154-0.723-1.789-0.733-1.815
				c-0.218-0.578,0.075-1.223,0.653-1.441c0.579-0.219,1.223,0.075,1.441,0.652c0.002,0.006,0.237,0.628,0.703,1.739
				c0.239,0.57-0.029,1.226-0.599,1.464C57.785,51.979,57.638,52.007,57.494,52.007z"/>
		</g>
		<g>
			<path fill="#CB2128" d="M141.681,131.965c-0.083,0-0.167-0.009-0.251-0.029c-1.229-0.282-2.47-0.594-3.689-0.926
				c-0.596-0.163-0.947-0.778-0.784-1.374c0.163-0.596,0.776-0.947,1.374-0.785c1.189,0.325,2.4,0.629,3.6,0.904
				c0.602,0.138,0.979,0.738,0.84,1.341C142.651,131.614,142.191,131.965,141.681,131.965z M134.433,129.986
				c-0.112,0-0.226-0.017-0.339-0.053c-1.2-0.381-2.411-0.793-3.599-1.225c-0.581-0.211-0.881-0.853-0.67-1.433
				c0.211-0.581,0.852-0.88,1.433-0.67c1.16,0.421,2.342,0.823,3.513,1.195c0.589,0.187,0.915,0.816,0.728,1.405
				C135.347,129.682,134.907,129.986,134.433,129.986z M127.371,127.423c-0.141,0-0.285-0.027-0.424-0.084
				c-1.164-0.477-2.338-0.984-3.489-1.509c-0.562-0.256-0.81-0.92-0.554-1.482c0.257-0.562,0.921-0.81,1.482-0.554
				c1.124,0.513,2.271,1.009,3.408,1.474c0.572,0.234,0.846,0.887,0.612,1.459C128.229,127.161,127.811,127.423,127.371,127.423z
				 M120.534,124.306c-0.169,0-0.341-0.039-0.502-0.12c-1.121-0.565-2.252-1.162-3.361-1.774c-0.541-0.299-0.737-0.979-0.439-1.52
				c0.299-0.541,0.98-0.737,1.52-0.439c1.084,0.598,2.19,1.182,3.286,1.734c0.552,0.278,0.774,0.951,0.496,1.503
				C121.338,124.08,120.943,124.306,120.534,124.306z M113.955,120.675c-0.196,0-0.395-0.052-0.576-0.16
				c-1.075-0.646-2.158-1.324-3.219-2.015c-0.518-0.337-0.665-1.03-0.327-1.548c0.337-0.518,1.03-0.664,1.548-0.327
				c1.039,0.676,2.1,1.34,3.152,1.973c0.529,0.318,0.7,1.006,0.382,1.535C114.705,120.482,114.334,120.675,113.955,120.675z
				 M107.655,116.576c-0.222,0-0.446-0.066-0.642-0.203c-1.029-0.722-2.062-1.474-3.07-2.232c-0.494-0.372-0.593-1.073-0.221-1.567
				c0.372-0.493,1.073-0.593,1.567-0.221c0.988,0.744,2.001,1.48,3.01,2.188c0.506,0.355,0.628,1.053,0.273,1.558
				C108.354,116.41,108.007,116.576,107.655,116.576z M101.649,112.056c-0.246,0-0.494-0.081-0.701-0.247
				c-0.978-0.787-1.959-1.603-2.918-2.425c-0.469-0.402-0.523-1.108-0.121-1.577c0.402-0.469,1.108-0.524,1.578-0.121
				c0.941,0.807,1.905,1.608,2.864,2.38c0.481,0.388,0.558,1.092,0.17,1.573C102.3,111.913,101.975,112.056,101.649,112.056z
				 M95.941,107.163c-0.269,0-0.539-0.096-0.754-0.292c-0.927-0.845-1.857-1.718-2.765-2.595c-0.445-0.429-0.457-1.137-0.027-1.582
				c0.429-0.445,1.137-0.457,1.582-0.028c0.892,0.862,1.807,1.72,2.718,2.551c0.456,0.416,0.489,1.124,0.073,1.58
				C96.547,107.04,96.245,107.163,95.941,107.163z M90.532,101.94c-0.29,0-0.58-0.112-0.799-0.336
				c-0.876-0.895-1.755-1.818-2.615-2.745c-0.42-0.453-0.393-1.161,0.06-1.581c0.453-0.42,1.161-0.393,1.581,0.059
				c0.846,0.912,1.712,1.821,2.573,2.701c0.432,0.442,0.425,1.15-0.017,1.582C91.097,101.834,90.815,101.94,90.532,101.94z
				 M85.418,96.426c-0.31,0-0.619-0.128-0.84-0.38c-0.825-0.938-1.655-1.905-2.467-2.876c-0.396-0.474-0.334-1.179,0.14-1.576
				c0.474-0.396,1.18-0.334,1.576,0.14c0.8,0.956,1.618,1.909,2.431,2.833c0.408,0.464,0.363,1.171-0.101,1.579
				C85.944,96.334,85.68,96.426,85.418,96.426z M80.592,90.657c-0.329,0-0.655-0.145-0.876-0.422
				c-0.781-0.982-1.563-1.988-2.323-2.992c-0.373-0.492-0.277-1.194,0.216-1.567c0.493-0.373,1.194-0.276,1.567,0.216
				c0.75,0.99,1.521,1.982,2.291,2.95c0.385,0.484,0.304,1.187-0.179,1.572C81.082,90.578,80.836,90.657,80.592,90.657z
				 M76.047,84.663c-0.347,0-0.689-0.161-0.908-0.464c-0.733-1.015-1.467-2.056-2.183-3.094c-0.351-0.509-0.222-1.206,0.287-1.556
				c0.508-0.35,1.206-0.222,1.556,0.287c0.706,1.025,1.431,2.053,2.154,3.053c0.362,0.501,0.249,1.2-0.252,1.562
				C76.503,84.594,76.274,84.663,76.047,84.663z M71.778,78.467c-0.364,0-0.721-0.177-0.936-0.504
				c-0.69-1.05-1.378-2.122-2.046-3.186c-0.328-0.523-0.17-1.214,0.353-1.542c0.523-0.328,1.214-0.17,1.542,0.354
				c0.659,1.051,1.339,2.109,2.02,3.146c0.339,0.516,0.196,1.21-0.32,1.549C72.202,78.408,71.989,78.467,71.778,78.467z
				 M67.78,72.092c-0.381,0-0.751-0.194-0.961-0.545c-0.645-1.078-1.287-2.179-1.909-3.271c-0.306-0.537-0.119-1.22,0.418-1.526
				c0.536-0.306,1.22-0.119,1.526,0.418c0.614,1.078,1.249,2.165,1.886,3.23c0.317,0.53,0.144,1.217-0.386,1.534
				C68.173,72.041,67.975,72.092,67.78,72.092z M64.053,65.552c-0.397,0-0.782-0.212-0.985-0.586c-0.6-1.108-1.196-2.235-1.77-3.35
				c-0.283-0.549-0.066-1.224,0.483-1.507c0.55-0.282,1.224-0.066,1.507,0.483c0.567,1.101,1.154,2.214,1.747,3.308
				c0.294,0.543,0.093,1.222-0.45,1.517C64.416,65.508,64.233,65.552,64.053,65.552z M60.609,58.855
				c-0.415,0-0.813-0.232-1.007-0.63c-0.563-1.159-1.108-2.313-1.618-3.432c-0.256-0.562-0.008-1.226,0.554-1.482
				c0.563-0.257,1.226-0.008,1.482,0.554c0.503,1.102,1.039,2.24,1.594,3.382c0.27,0.556,0.039,1.225-0.517,1.495
				C60.94,58.819,60.773,58.855,60.609,58.855z"/>
		</g>
		<g>
			<path fill="#CB2128" d="M147.211,133.054c-0.061,0-0.122-0.005-0.184-0.015c-0.641-0.106-1.278-0.218-1.912-0.336
				c-0.607-0.113-1.008-0.698-0.894-1.305c0.113-0.607,0.698-1.008,1.305-0.894c0.618,0.115,1.24,0.225,1.865,0.328
				c0.61,0.101,1.022,0.676,0.921,1.286C148.223,132.665,147.749,133.054,147.211,133.054z"/>
		</g>
	</g>
	<g>
		<polyline fill="#CE962C" points="25.85,26.547 35.95,29.58 34.253,41.768 45.504,44.81 54.17,36.612 50.896,28.185 57.287,22.272 
			64.161,28.185 62.321,36.931 69.755,45.405 80.443,41.511 79.422,29.899 88.834,26.719 84.377,37.091 85.016,45.082 
			80.381,55.163 62.161,57.229 49.094,56.43 33.873,55.163 31.625,51.156 29.717,39.489 29.238,31.338 27.282,28.398 		"/>
		
			<ellipse transform="matrix(-0.9925 -0.122 0.122 -0.9925 167.5975 84.5783)" fill="#E46528" cx="86.389" cy="37.157" rx="2.219" ry="4.829"/>
		
			<ellipse transform="matrix(0.9925 -0.122 0.122 0.9925 -4.3229 3.7326)" fill="#E46528" cx="28.31" cy="37.157" rx="2.219" ry="4.829"/>
		<path fill="#FCD235" d="M88.669,26.833l-6.58,5.337l0.746,11.827l-9.483,6.713l-8.524-5.54l1.811-12.466l-9.353-5.647
			l-9.353,5.647l1.811,12.466l-8.524,5.54l-9.483-6.713l0.505-11.589l-6.393-5.86c4.716,5.729,4.397,30.875,4.397,30.875v1.172
			c11.507,6.819,27.04,5.86,27.04,5.86s15.533,0.959,27.04-5.86v-1.172C84.327,57.422,84.194,32.8,88.669,26.833z"/>
		<g>
			<path fill="#EFC01B" d="M59.326,65.055L59.326,65.055c-1.146,0-1.866-0.036-2.039-0.045c-0.173,0.01-0.893,0.045-2.039,0.045
				c-4.573,0-16.195-0.584-25.327-5.996l-0.313-0.186v-1.536c0.003-0.257,0.415-25.138-3.879-30.863l0,0l7.413,5.346l-0.743,11.776
				l8.838,6.256l7.817-5.081L47.24,32.291l10.047-6.066l10.047,6.066L65.52,44.772l7.817,5.081l8.838-6.256l-0.743-11.776
				l7.562-5.212l0,0c-4.295,5.726-4.031,30.471-4.027,30.72v1.545l-0.313,0.186C75.521,64.471,63.899,65.055,59.326,65.055z
				 M57.286,63.729l0.039,0.002c0.007,0,0.749,0.045,1.999,0.045c4.415,0,15.55-0.554,24.363-5.634v-0.805
				c-0.012-0.897-0.209-19.622,2.775-28.393l-3.716,3.406l0.749,11.878l-10.128,7.169l-9.23-6l1.809-12.451l-8.66-5.228
				l-8.659,5.228l1.809,12.451l-9.231,6l-10.128-7.169l0.749-11.878l-3.716-3.406c2.984,8.771,2.787,27.497,2.775,28.402v0.797
				c8.812,5.08,19.947,5.634,24.362,5.634c1.251,0,1.992-0.044,1.999-0.045L57.286,63.729z"/>
		</g>
		<path fill="#EFC01B" d="M88.834,26.719l-6.558,5.484l0.746,11.827l-9.483,6.713l-0.024-0.015
			c-1.748,4.465-5.135,9.217-11.221,13.74c5.505-0.255,14.717-1.394,22.219-5.84v-1.172C84.514,57.455,84.359,32.686,88.834,26.719z
			"/>
		<g>
			<path fill="#E46528" d="M54.026,54.203c-0.202-1.603-1.574-2.848-3.232-2.848c-1.796,0-3.257,1.461-3.257,3.257
				c0,1.796,1.461,3.257,3.257,3.257c0.499,0,0.97-0.116,1.393-0.317c-0.048,0.079-0.099,0.156-0.158,0.229
				c-0.334,0.413-0.809,0.671-1.337,0.726c-0.396,0.042-0.79-0.034-1.14-0.22c-0.385-0.205-0.863-0.059-1.068,0.326
				c-0.205,0.385-0.059,0.863,0.326,1.068c0.517,0.275,1.088,0.417,1.669,0.417c0.126,0,0.252-0.007,0.379-0.02
				c0.948-0.1,1.799-0.563,2.399-1.304c0.428-0.529,0.691-1.154,0.769-1.814C54.211,56.184,54.026,54.203,54.026,54.203z
				 M50.794,56.291c-0.925,0-1.678-0.753-1.678-1.678c0-0.925,0.753-1.678,1.678-1.678s1.678,0.753,1.678,1.678
				C52.472,55.538,51.719,56.291,50.794,56.291z"/>
			<circle fill="#E46528" cx="55.381" cy="51.014" r="0.817"/>
			<path fill="#E46528" d="M57.821,51.356c-0.495,0-0.964,0.113-1.384,0.313c-0.111,0.059-0.277,0.18-0.391,0.266v0
				c-0.684,0.525-1.482-0.103-1.482-0.103v0.191v0.357v6.93c0,0.436,0.354,0.79,0.79,0.79s0.79-0.354,0.79-0.79V57.4
				c0.491,0.297,1.064,0.471,1.678,0.471c1.796,0,3.257-1.461,3.257-3.257C61.079,52.817,59.617,51.356,57.821,51.356z
				 M57.821,56.291c-0.925,0-1.678-0.753-1.678-1.678c0-0.925,0.753-1.678,1.678-1.678c0.925,0,1.678,0.753,1.678,1.678
				C59.499,55.538,58.747,56.291,57.821,56.291z"/>
			<g>
				<path fill="#E46528" d="M64.997,57.712h-3.479c-0.418,0-0.758-0.339-0.758-0.758s0.339-0.758,0.758-0.758h3.479
					c0.259,0,0.47-0.211,0.47-0.47c0-0.259-0.211-0.47-0.47-0.47h-1.718c-1.095,0-1.985-0.891-1.985-1.985
					c0-1.095,0.89-1.985,1.985-1.985h2.392c0.418,0,0.758,0.339,0.758,0.758c0,0.418-0.339,0.758-0.758,0.758h-2.392
					c-0.259,0-0.47,0.211-0.47,0.47c0,0.259,0.211,0.47,0.47,0.47h1.718c1.095,0,1.985,0.891,1.985,1.985
					C66.982,56.821,66.092,57.712,64.997,57.712z"/>
			</g>
			<circle fill="#E46528" cx="56.776" cy="49.663" r="0.553"/>
			<linearGradient id="SVGID_1_" gradientUnits="userSpaceOnUse" x1="54.9934" y1="51.0143" x2="55.7685" y2="51.0143">
				<stop  offset="0.1989" style="stop-color:#D0EDF7"/>
				<stop  offset="1" style="stop-color:#E9F6F5"/>
			</linearGradient>
			<polygon fill="url(#SVGID_1_)" points="55.768,50.939 55.456,50.939 55.456,50.627 55.306,50.627 55.306,50.939 54.993,50.939 
				54.993,51.09 55.306,51.09 55.306,51.402 55.456,51.402 55.456,51.09 55.768,51.09 			"/>
			<path fill="#CE5327" d="M55.737,50.282c0.133,0.145,0.216,0.337,0.216,0.549c0,0.451-0.366,0.817-0.817,0.817
				c-0.128,0-0.248-0.032-0.356-0.085c0.149,0.163,0.362,0.268,0.601,0.268c0.451,0,0.817-0.366,0.817-0.817
				C56.198,50.691,56.009,50.415,55.737,50.282z"/>
		</g>
		<g>
			<circle fill="#E46528" cx="57.143" cy="39.15" r="5.559"/>
			<linearGradient id="SVGID_2_" gradientUnits="userSpaceOnUse" x1="54.2782" y1="39.1498" x2="60.0084" y2="39.1498">
				<stop  offset="0.1989" style="stop-color:#D0EDF7"/>
				<stop  offset="1" style="stop-color:#E9F6F5"/>
			</linearGradient>
			<polygon fill="url(#SVGID_2_)" points="60.008,38.593 57.7,38.593 57.7,36.285 56.587,36.285 56.587,38.593 54.278,38.593 
				54.278,39.706 56.587,39.706 56.587,42.015 57.7,42.015 57.7,39.706 60.008,39.706 			"/>
			<path fill="#CE5327" d="M59.931,34.323c1.042,1.01,1.691,2.422,1.691,3.988c0,3.07-2.489,5.559-5.559,5.559
				c-1.017,0-1.968-0.278-2.788-0.755c1.001,0.971,2.364,1.571,3.868,1.571c3.07,0,5.559-2.489,5.559-5.559
				C62.703,37.074,61.587,35.285,59.931,34.323z"/>
		</g>
	</g>
	<g>
		
			<linearGradient id="SVGID_3_" gradientUnits="userSpaceOnUse" x1="-474.1324" y1="-1283.3593" x2="-439.2978" y2="-1283.3593" gradientTransform="matrix(0.9998 -0.0194 0.0194 0.9998 648.5707 1450.9846)">
			<stop  offset="0.1271" style="stop-color:#FEE589"/>
			<stop  offset="0.2031" style="stop-color:#FEE484"/>
			<stop  offset="0.3062" style="stop-color:#FFDF75"/>
			<stop  offset="0.4247" style="stop-color:#FFD85A"/>
			<stop  offset="0.5432" style="stop-color:#FFCF30"/>
			<stop  offset="1" style="stop-color:#FFD23C"/>
		</linearGradient>
		<path fill="url(#SVGID_3_)" d="M184.458,176.1c0.074,3.814-6.099,6.983-17.281,7.2c-11.179,0.217-17.473-2.71-17.547-6.525
			c-0.067-3.471,6.113-6.409,17.292-6.626C178.103,169.933,184.391,172.629,184.458,176.1z"/>
		
			<linearGradient id="SVGID_4_" gradientUnits="userSpaceOnUse" x1="-472.3605" y1="-1284.7952" x2="-441.0696" y2="-1284.7952" gradientTransform="matrix(0.9998 -0.0194 0.0194 0.9998 648.5707 1450.9846)">
			<stop  offset="0.1271" style="stop-color:#FEE589"/>
			<stop  offset="0.2031" style="stop-color:#FEE484"/>
			<stop  offset="0.3062" style="stop-color:#FFDF75"/>
			<stop  offset="0.4247" style="stop-color:#FFD85A"/>
			<stop  offset="0.5432" style="stop-color:#FFCF30"/>
			<stop  offset="1" style="stop-color:#FFD23C"/>
		</linearGradient>
		<path fill="url(#SVGID_4_)" d="M182.664,174.985c0.061,3.121-5.489,5.758-15.533,5.953c-10.042,0.195-15.692-2.225-15.752-5.346
			c-0.06-3.118,5.491-5.757,15.533-5.951C176.956,169.446,182.604,171.867,182.664,174.985z"/>
		
			<linearGradient id="SVGID_5_" gradientUnits="userSpaceOnUse" x1="-471.0063" y1="-1285.8566" x2="-442.4239" y2="-1285.8566" gradientTransform="matrix(0.9998 -0.0194 0.0194 0.9998 648.5707 1450.9846)">
			<stop  offset="0.1271" style="stop-color:#FEE589"/>
			<stop  offset="0.2031" style="stop-color:#FEE484"/>
			<stop  offset="0.3062" style="stop-color:#FFDF75"/>
			<stop  offset="0.4247" style="stop-color:#FFD85A"/>
			<stop  offset="0.5432" style="stop-color:#FFCF30"/>
			<stop  offset="1" style="stop-color:#FFD23C"/>
		</linearGradient>
		<path fill="url(#SVGID_5_)" d="M181.29,173.95c0.055,2.851-5.014,5.26-14.188,5.438c-9.173,0.178-14.333-2.033-14.389-4.883
			c-0.055-2.848,5.016-5.258,14.188-5.436C176.075,168.89,181.234,171.102,181.29,173.95z"/>
		
			<linearGradient id="SVGID_6_" gradientUnits="userSpaceOnUse" x1="-469.5764" y1="-1286.7551" x2="-443.8539" y2="-1286.7551" gradientTransform="matrix(0.9998 -0.0194 0.0194 0.9998 648.5707 1450.9846)">
			<stop  offset="0.1271" style="stop-color:#FEE589"/>
			<stop  offset="0.2031" style="stop-color:#FEE484"/>
			<stop  offset="0.3062" style="stop-color:#FFDF75"/>
			<stop  offset="0.4247" style="stop-color:#FFD85A"/>
			<stop  offset="0.5432" style="stop-color:#FFCF30"/>
			<stop  offset="1" style="stop-color:#FFD23C"/>
		</linearGradient>
		<path fill="url(#SVGID_6_)" d="M179.842,173.08c0.05,2.566-4.512,4.734-12.769,4.894c-8.255,0.16-12.899-1.829-12.949-4.395
			c-0.046-2.393,4.514-4.732,12.769-4.893C175.15,168.526,179.796,170.687,179.842,173.08z"/>
		
			<linearGradient id="SVGID_7_" gradientUnits="userSpaceOnUse" x1="-464.5464" y1="-1289.113" x2="-448.8839" y2="-1289.113" gradientTransform="matrix(0.9998 -0.0194 0.0194 0.9998 648.5707 1450.9846)">
			<stop  offset="0.1271" style="stop-color:#FEE589"/>
			<stop  offset="0.2031" style="stop-color:#FEE484"/>
			<stop  offset="0.3062" style="stop-color:#FFDF75"/>
			<stop  offset="0.4247" style="stop-color:#FFD85A"/>
			<stop  offset="0.5432" style="stop-color:#FFCF30"/>
			<stop  offset="1" style="stop-color:#FFD23C"/>
		</linearGradient>
		<path fill="url(#SVGID_7_)" d="M174.765,170.661c0.03,1.562-2.748,2.882-7.775,2.98c-5.027,0.098-7.854-1.114-7.885-2.676
			c-0.027-1.392,2.754-2.563,7.781-2.661C171.914,168.207,174.738,169.27,174.765,170.661z"/>
		
			<linearGradient id="SVGID_8_" gradientUnits="userSpaceOnUse" x1="-461.2849" y1="-1289.4979" x2="-452.1453" y2="-1289.4979" gradientTransform="matrix(0.9998 -0.0194 0.0194 0.9998 648.5707 1450.9846)">
			<stop  offset="0.1271" style="stop-color:#FEE589"/>
			<stop  offset="0.2031" style="stop-color:#FEE484"/>
			<stop  offset="0.3062" style="stop-color:#FFDF75"/>
			<stop  offset="0.4247" style="stop-color:#FFD85A"/>
			<stop  offset="0.5432" style="stop-color:#FFCF30"/>
			<stop  offset="1" style="stop-color:#FFD23C"/>
		</linearGradient>
		<path fill="url(#SVGID_8_)" d="M171.499,170.499c0.015,0.784-2.018,1.459-4.541,1.508c-2.524,0.049-4.581-0.547-4.596-1.331
			c-0.015-0.784,2.018-1.459,4.541-1.508C169.427,169.119,171.484,169.715,171.499,170.499z"/>
		
			<linearGradient id="SVGID_9_" gradientUnits="userSpaceOnUse" x1="-460.4279" y1="-1290.4369" x2="-453.0023" y2="-1290.4369" gradientTransform="matrix(0.9998 -0.0194 0.0194 0.9998 648.5707 1450.9846)">
			<stop  offset="0.1271" style="stop-color:#FEE589"/>
			<stop  offset="0.2031" style="stop-color:#FEE484"/>
			<stop  offset="0.3062" style="stop-color:#FFDF75"/>
			<stop  offset="0.4247" style="stop-color:#FFD85A"/>
			<stop  offset="0.5432" style="stop-color:#FFCF30"/>
			<stop  offset="1" style="stop-color:#FFD23C"/>
		</linearGradient>
		<path fill="url(#SVGID_9_)" d="M170.624,169.577c0.012,0.637-1.639,1.186-3.69,1.225c-2.05,0.04-3.722-0.444-3.735-1.081
			c-0.012-0.637,1.64-1.185,3.69-1.225C168.94,168.456,170.612,168.94,170.624,169.577z"/>
		<path fill="#FAA61A" d="M170.24,168.97c0.012,0.603-1.391,1.155-3.331,1.193c-1.94,0.038-3.363-0.46-3.375-1.063
			c-0.012-0.603,1.392-1.082,3.333-1.12C168.806,167.943,170.228,168.367,170.24,168.97z"/>
		
			<linearGradient id="SVGID_10_" gradientUnits="userSpaceOnUse" x1="-459.8329" y1="-1296.3975" x2="-453.6245" y2="-1296.3975" gradientTransform="matrix(0.9998 -0.0194 0.0194 0.9998 648.5707 1450.9846)">
			<stop  offset="0.1271" style="stop-color:#FEE589"/>
			<stop  offset="0.2031" style="stop-color:#FEE484"/>
			<stop  offset="0.3062" style="stop-color:#FFDF75"/>
			<stop  offset="0.4247" style="stop-color:#FFD85A"/>
			<stop  offset="0.5432" style="stop-color:#FFCF30"/>
			<stop  offset="1" style="stop-color:#FFD23C"/>
		</linearGradient>
		<path fill="url(#SVGID_10_)" d="M169.964,167.635c-0.036-1.849-1.434-2.926-1.487-5.629c-0.038-1.974,0.319-2.949,0.312-3.31
			c-0.007-0.361-0.954-0.635-2.116-0.613c-1.161,0.023-2.097,0.333-2.09,0.694c0.007,0.361,0.402,1.321,0.44,3.296
			c0.052,2.703-1.303,3.834-1.267,5.683c0.02,1.042,1.42,1.573,3.135,1.54C168.606,169.263,169.985,168.678,169.964,167.635z"/>
		
			<linearGradient id="SVGID_11_" gradientUnits="userSpaceOnUse" x1="-459.8329" y1="-1296.3975" x2="-453.6245" y2="-1296.3975" gradientTransform="matrix(0.9998 -0.0194 0.0194 0.9998 648.5707 1450.9846)">
			<stop  offset="0.1271" style="stop-color:#FEE589"/>
			<stop  offset="0.2031" style="stop-color:#FEE484"/>
			<stop  offset="0.3062" style="stop-color:#FFDF75"/>
			<stop  offset="0.4247" style="stop-color:#FFD85A"/>
			<stop  offset="0.5432" style="stop-color:#FFCF30"/>
			<stop  offset="1" style="stop-color:#FFD23C"/>
		</linearGradient>
		<path fill="url(#SVGID_11_)" d="M169.964,167.635c-0.036-1.849-1.434-2.926-1.487-5.629c-0.038-1.974,0.319-2.949,0.312-3.31
			c-0.007-0.359-0.947-0.633-2.103-0.613c-0.139,0.041-0.217,0.063-0.217,0.063c0.528,3.155,1.536,10.138-2.647,8.844
			c-0.045,0.245-0.071,0.497-0.066,0.765c0.02,1.042,1.42,1.573,3.135,1.54C168.606,169.263,169.985,168.678,169.964,167.635z"/>
		
			<linearGradient id="SVGID_12_" gradientUnits="userSpaceOnUse" x1="-459.393" y1="-1300.8909" x2="-454.0645" y2="-1300.8909" gradientTransform="matrix(0.9998 -0.0194 0.0194 0.9998 648.5707 1450.9846)">
			<stop  offset="0.1271" style="stop-color:#FEE589"/>
			<stop  offset="0.2031" style="stop-color:#FEE484"/>
			<stop  offset="0.3062" style="stop-color:#FFDF75"/>
			<stop  offset="0.4247" style="stop-color:#FFD85A"/>
			<stop  offset="0.5432" style="stop-color:#FFCF30"/>
			<stop  offset="1" style="stop-color:#FFD23C"/>
		</linearGradient>
		<path fill="url(#SVGID_12_)" d="M169.357,159.018c0.013,0.648-1.1,1.207-2.641,1.237c-1.542,0.03-2.674-0.485-2.687-1.134
			c-0.009-0.479,1.104-0.953,2.646-0.982C168.217,158.109,169.348,158.539,169.357,159.018z"/>
		
			<linearGradient id="SVGID_13_" gradientUnits="userSpaceOnUse" x1="-460.532" y1="-1303.0201" x2="-452.9252" y2="-1303.0201" gradientTransform="matrix(0.9998 -0.0194 0.0194 0.9998 648.5707 1450.9846)">
			<stop  offset="0.1271" style="stop-color:#FEE589"/>
			<stop  offset="0.2031" style="stop-color:#FEE484"/>
			<stop  offset="0.3062" style="stop-color:#FFDF75"/>
			<stop  offset="0.4247" style="stop-color:#FFD85A"/>
			<stop  offset="0.5432" style="stop-color:#FFCF30"/>
			<stop  offset="1" style="stop-color:#FFD23C"/>
		</linearGradient>
		<path fill="url(#SVGID_13_)" d="M170.457,156.995c0.03,1.536-1.649,2.815-3.749,2.855c-2.1,0.041-3.827-1.171-3.857-2.708
			c-0.03-1.536,1.648-2.815,3.749-2.855C168.701,154.246,170.428,155.458,170.457,156.995z"/>
		<path opacity="0.04" d="M166.601,154.287c-0.031,0.001-0.061,0.004-0.093,0.005c0.784,2.62,0.727,4.579-3.122,4.225
			c0.673,0.822,1.912,1.361,3.322,1.333c2.1-0.041,3.779-1.319,3.749-2.855C170.428,155.458,168.701,154.246,166.601,154.287z"/>
		
			<linearGradient id="SVGID_14_" gradientUnits="userSpaceOnUse" x1="-459.393" y1="-1305.2701" x2="-454.0645" y2="-1305.2701" gradientTransform="matrix(0.9998 -0.0194 0.0194 0.9998 648.5707 1450.9846)">
			<stop  offset="0.1271" style="stop-color:#FEE589"/>
			<stop  offset="0.2031" style="stop-color:#FEE484"/>
			<stop  offset="0.3062" style="stop-color:#FFDF75"/>
			<stop  offset="0.4247" style="stop-color:#FFD85A"/>
			<stop  offset="0.5432" style="stop-color:#FFCF30"/>
			<stop  offset="1" style="stop-color:#FFD23C"/>
		</linearGradient>
		<path fill="url(#SVGID_14_)" d="M169.276,154.831c0.009,0.479-1.107,0.825-2.648,0.855c-1.541,0.03-2.67-0.273-2.679-0.752
			c-0.009-0.479,1.104-0.952,2.646-0.982C168.136,153.922,169.266,154.352,169.276,154.831z"/>
		
			<linearGradient id="SVGID_15_" gradientUnits="userSpaceOnUse" x1="-459.6419" y1="-1310.1464" x2="-453.8154" y2="-1310.1464" gradientTransform="matrix(0.9998 -0.0194 0.0194 0.9998 648.5707 1450.9846)">
			<stop  offset="0.1271" style="stop-color:#FEE589"/>
			<stop  offset="0.2031" style="stop-color:#FEE484"/>
			<stop  offset="0.3062" style="stop-color:#FFDF75"/>
			<stop  offset="0.4247" style="stop-color:#FFD85A"/>
			<stop  offset="0.5432" style="stop-color:#FFCF30"/>
			<stop  offset="1" style="stop-color:#FFD23C"/>
		</linearGradient>
		<path fill="url(#SVGID_15_)" d="M166.616,155.067c-1.161,0.023-2.109-0.252-2.116-0.613c-0.007-0.361,0.478-1.338,0.439-3.313
			c-0.075-3.848-1.422-5.563-1.435-6.267l5.825-0.113c0.014,0.704-1.266,2.47-1.191,6.317c0.038,1.974,0.561,2.932,0.568,3.293
			C168.713,154.734,167.777,155.045,166.616,155.067z"/>
		
			<linearGradient id="SVGID_16_" gradientUnits="userSpaceOnUse" x1="-458.8319" y1="-1310.1464" x2="-453.8154" y2="-1310.1464" gradientTransform="matrix(0.9998 -0.0194 0.0194 0.9998 648.5707 1450.9846)">
			<stop  offset="0.1271" style="stop-color:#FEE589"/>
			<stop  offset="0.2031" style="stop-color:#FEE484"/>
			<stop  offset="0.3062" style="stop-color:#FFDF75"/>
			<stop  offset="0.4247" style="stop-color:#FFD85A"/>
			<stop  offset="0.5432" style="stop-color:#FFCF30"/>
			<stop  offset="1" style="stop-color:#FFD23C"/>
		</linearGradient>
		<path fill="url(#SVGID_16_)" d="M168.706,154.373c-0.007-0.361-0.529-1.319-0.568-3.293c-0.075-3.848,1.205-5.613,1.191-6.317
			l-2.724,0.053c0.083,3.693,1.551,8.638-1.94,8.876c-0.09,0.37-0.168,0.618-0.165,0.763c0.007,0.361,0.954,0.635,2.116,0.613
			C167.777,155.045,168.713,154.734,168.706,154.373z"/>
		
			<linearGradient id="SVGID_17_" gradientUnits="userSpaceOnUse" x1="-462.8515" y1="-1315.5455" x2="-450.6059" y2="-1315.5455" gradientTransform="matrix(0.9998 -0.0194 0.0194 0.9998 648.5707 1450.9846)">
			<stop  offset="0.1271" style="stop-color:#FEE589"/>
			<stop  offset="0.2031" style="stop-color:#FEE484"/>
			<stop  offset="0.3062" style="stop-color:#FFDF75"/>
			<stop  offset="0.4247" style="stop-color:#FFD85A"/>
			<stop  offset="0.5432" style="stop-color:#FFCF30"/>
			<stop  offset="1" style="stop-color:#FFD23C"/>
		</linearGradient>
		<path fill="url(#SVGID_17_)" d="M172.539,144.745c0.018,0.91-2.703,1.996-6.084,2.062c-3.38,0.066-6.142-0.914-6.159-1.824
			c-0.024-1.249,2.691-2.633,6.072-2.699C169.749,142.218,172.515,143.496,172.539,144.745z"/>
		
			<linearGradient id="SVGID_18_" gradientUnits="userSpaceOnUse" x1="-477.0846" y1="-1331.0143" x2="-436.3726" y2="-1331.0143" gradientTransform="matrix(0.9998 -0.0194 0.0194 0.9998 648.5707 1450.9846)">
			<stop  offset="0.1271" style="stop-color:#FEE589"/>
			<stop  offset="0.2031" style="stop-color:#FEE484"/>
			<stop  offset="0.3062" style="stop-color:#FFDF75"/>
			<stop  offset="0.4247" style="stop-color:#FFD85A"/>
			<stop  offset="0.5432" style="stop-color:#FFCF30"/>
			<stop  offset="1" style="stop-color:#FFD23C"/>
		</linearGradient>
		<path fill="url(#SVGID_18_)" d="M166.436,145.784c11.24-0.218,20.175-9.507,19.957-20.747c0,0-0.143-7.356-0.167-8.605
			c-0.021-1.079-6.481-4.328-20.438-4.057l-0.001,0c-13.958,0.271-20.286,3.768-20.265,4.847c0.024,1.249,0.167,8.605,0.167,8.605
			C145.907,137.067,155.196,146.002,166.436,145.784z"/>
		<path opacity="0.04" d="M186.393,125.037c0,0-0.068-3.487-0.118-6.067c-7.511,3.479-8.15,6.61-11.583,14.567
			c-3.609,8.366-16.079,11.816-25.415,3.444c3.75,5.432,10.065,8.941,17.159,8.803C177.676,145.566,186.611,136.277,186.393,125.037
			z"/>
		<path fill="#CE962C" d="M165.948,120.652c10.916-0.212,19.528-2.768,19.505-3.984c-0.024-1.216-8.738-3.947-19.654-3.735
			c-10.916,0.212-19.518,3.278-19.495,4.494C146.327,118.643,155.032,120.863,165.948,120.652z"/>
		<g>
			<path fill="#E46528" d="M163.174,131.418c-0.244-1.675-1.707-2.951-3.443-2.917c-1.881,0.036-3.382,1.597-3.346,3.478
				c0.036,1.881,1.597,3.382,3.478,3.346c0.523-0.01,1.014-0.141,1.453-0.361c-0.048,0.084-0.1,0.166-0.161,0.243
				c-0.341,0.439-0.833,0.719-1.385,0.788c-0.414,0.052-0.829-0.02-1.199-0.208c-0.407-0.207-0.905-0.044-1.112,0.363
				c-0.207,0.407-0.044,0.905,0.363,1.112c0.547,0.278,1.148,0.414,1.757,0.403c0.132-0.003,0.264-0.012,0.396-0.029
				c0.99-0.124,1.873-0.626,2.486-1.414c0.438-0.563,0.7-1.223,0.769-1.915C163.408,133.488,163.174,131.418,163.174,131.418z
				 M159.831,133.67c-0.969,0.019-1.773-0.754-1.792-1.723c-0.019-0.969,0.754-1.773,1.723-1.792s1.773,0.754,1.792,1.723
				C161.574,132.848,160.8,133.652,159.831,133.67z"/>
			<circle fill="#E46528" cx="164.529" cy="128.05" r="0.856"/>
			<path fill="#E46528" d="M167.091,128.358c-0.519,0.01-1.007,0.138-1.443,0.355c-0.115,0.064-0.287,0.194-0.404,0.287v0
				c-0.706,0.564-1.555-0.077-1.555-0.077l0.004,0.2l0.007,0.374l0.141,7.258c0.009,0.457,0.386,0.82,0.843,0.811
				c0.457-0.009,0.82-0.386,0.811-0.843l-0.039-2c0.52,0.301,1.124,0.471,1.767,0.459c1.881-0.036,3.382-1.597,3.346-3.478
				C170.533,129.823,168.973,128.322,167.091,128.358z M167.192,133.528c-0.969,0.019-1.773-0.754-1.792-1.723
				c-0.019-0.969,0.754-1.773,1.723-1.792c0.969-0.019,1.773,0.754,1.792,1.723C168.934,132.705,168.161,133.509,167.192,133.528z"
				/>
			<g>
				<path fill="#E46528" d="M174.736,134.87l-3.643,0.071c-0.438,0.009-0.8-0.34-0.809-0.778c-0.009-0.438,0.34-0.8,0.778-0.809
					l3.643-0.071c0.271-0.005,0.488-0.23,0.483-0.502c-0.005-0.271-0.23-0.488-0.502-0.483l-1.799,0.035
					c-1.147,0.022-2.097-0.892-2.12-2.039c-0.022-1.147,0.892-2.097,2.039-2.12l2.506-0.049c0.438-0.008,0.8,0.34,0.809,0.778
					c0.008,0.438-0.34,0.8-0.03,0.556l-2.506,0.049c-1.019,0.258-1.236,0.483-1.231,0.754s0.23,0.488,0.502,0.483l1.799-0.035
					c1.147-0.022,2.097,0.893,2.12,2.039S175.883,134.848,174.736,134.87z"/>
			</g>
			
				<linearGradient id="SVGID_19_" gradientUnits="userSpaceOnUse" x1="-457.4096" y1="-1333.489" x2="-456.2511" y2="-1333.489" gradientTransform="matrix(0.9998 -0.0194 0.0194 0.9998 648.5707 1450.9846)">
				<stop  offset="0.1636" style="stop-color:#D38328"/>
				<stop  offset="1" style="stop-color:#D38328"/>
			</linearGradient>
			<circle fill="url(#SVGID_19_)" cx="165.962" cy="126.607" r="0.579"/>
			
				<linearGradient id="SVGID_20_" gradientUnits="userSpaceOnUse" x1="-458.6974" y1="-1332.0739" x2="-457.8855" y2="-1332.0739" gradientTransform="matrix(0.9998 -0.0194 0.0194 0.9998 648.5707 1450.9846)">
				<stop  offset="0.1989" style="stop-color:#D0EDF7"/>
				<stop  offset="1" style="stop-color:#E9F6F5"/>
			</linearGradient>
			<polygon fill="url(#SVGID_20_)" points="164.933,127.964 164.606,127.97 164.6,127.643 164.442,127.646 164.448,127.973 
				164.121,127.979 164.124,128.137 164.451,128.131 164.458,128.458 164.615,128.455 164.609,128.128 164.936,128.121 			"/>
			<path fill="#CE5327" d="M164.887,127.276c0.142,0.149,0.233,0.349,0.237,0.571c0.009,0.473-0.367,0.863-0.839,0.872
				c-0.134,0.003-0.261-0.029-0.375-0.082c0.16,0.168,0.385,0.273,0.635,0.268c0.473-0.009,0.848-0.4,0.839-0.872
				C165.378,127.696,165.174,127.41,164.887,127.276z"/>
		</g>
	</g>
	<g>
		<path fill="#CB2128" d="M243.449,297.487c-0.697,0-1.267-0.559-1.278-1.259c-0.011-0.706,0.552-1.287,1.258-1.299
			c1.232-0.019,2.467-0.112,3.67-0.275c0.7-0.094,1.344,0.396,1.439,1.095c0.095,0.7-0.395,1.344-1.095,1.439
			c-1.304,0.177-2.641,0.277-3.974,0.298C243.463,297.487,243.456,297.487,243.449,297.487z M239.623,297.33
			c-0.041,0-0.083-0.002-0.125-0.006c-1.289-0.125-2.607-0.322-3.917-0.587c-0.692-0.14-1.14-0.814-1.001-1.506
			c0.139-0.692,0.813-1.141,1.506-1.001c1.225,0.247,2.456,0.431,3.659,0.548c0.703,0.068,1.217,0.693,1.149,1.396
			C240.83,296.835,240.274,297.33,239.623,297.33z M251.03,296.454c-0.567,0-1.084-0.38-1.236-0.953
			c-0.18-0.683,0.228-1.382,0.911-1.562c1.176-0.31,2.352-0.696,3.495-1.15c0.658-0.259,1.4,0.061,1.66,0.717
			c0.26,0.656-0.061,1.4-0.717,1.66c-1.238,0.491-2.512,0.91-3.786,1.245C251.247,296.44,251.137,296.454,251.03,296.454z
			 M232.114,295.831c-0.121,0-0.245-0.017-0.367-0.054c-1.229-0.367-2.482-0.799-3.725-1.283c-0.658-0.256-0.984-0.997-0.728-1.655
			c0.257-0.658,0.998-0.984,1.655-0.728c1.179,0.459,2.367,0.868,3.53,1.216c0.676,0.202,1.061,0.915,0.858,1.591
			C233.173,295.473,232.665,295.831,232.114,295.831z M258.149,293.642c-0.457,0-0.899-0.245-1.129-0.676
			c-0.333-0.623-0.098-1.397,0.525-1.73c1.066-0.57,2.132-1.214,3.167-1.914c0.585-0.395,1.38-0.242,1.776,0.343
			c0.395,0.585,0.242,1.38-0.343,1.776c-1.108,0.749-2.25,1.44-3.394,2.051C258.558,293.593,258.352,293.642,258.149,293.642z
			 M224.962,293.059c-0.183,0-0.37-0.04-0.546-0.123c-1.151-0.545-2.323-1.147-3.485-1.789c-0.618-0.341-0.842-1.119-0.501-1.737
			c0.342-0.618,1.12-0.842,1.737-0.501c1.115,0.616,2.24,1.194,3.343,1.716c0.638,0.302,0.911,1.065,0.608,1.703
			C225.9,292.789,225.441,293.059,224.962,293.059z M264.499,289.365c-0.37,0-0.736-0.16-0.989-0.468
			c-0.448-0.546-0.368-1.352,0.178-1.8c0.937-0.769,1.874-1.604,2.783-2.483c0.508-0.491,1.317-0.477,1.808,0.031
			c0.491,0.508,0.477,1.317-0.031,1.808c-0.959,0.927-1.948,1.809-2.938,2.622C265.071,289.27,264.784,289.365,264.499,289.365z
			 M218.244,289.358c-0.232,0-0.467-0.063-0.678-0.196c-1.074-0.673-2.169-1.399-3.253-2.155c-0.579-0.404-0.721-1.201-0.317-1.78
			c0.405-0.579,1.201-0.721,1.78-0.317c1.05,0.733,2.109,1.435,3.148,2.086c0.598,0.375,0.779,1.164,0.404,1.762
			C219.086,289.146,218.67,289.358,218.244,289.358z M211.945,284.969c-0.271,0-0.544-0.086-0.776-0.263
			c-1.01-0.773-2.033-1.59-3.041-2.428c-0.543-0.451-0.617-1.258-0.166-1.801c0.451-0.543,1.258-0.617,1.801-0.166
			c0.982,0.816,1.978,1.612,2.961,2.365c0.561,0.429,0.667,1.232,0.238,1.792C212.71,284.796,212.329,284.969,211.945,284.969z
			 M270.017,284.049c-0.304,0-0.61-0.108-0.854-0.327c-0.525-0.472-0.569-1.28-0.097-1.805c0.866-0.964,1.67-1.93,2.391-2.87
			c0.43-0.561,1.233-0.666,1.792-0.237c0.56,0.43,0.666,1.232,0.237,1.793c-0.761,0.992-1.608,2.009-2.517,3.022
			C270.716,283.906,270.367,284.049,270.017,284.049z M206.037,280.062c-0.304,0-0.609-0.108-0.853-0.326
			c-0.951-0.852-1.91-1.742-2.849-2.643c-0.509-0.489-0.526-1.298-0.037-1.808c0.489-0.51,1.298-0.526,1.808-0.037
			c0.918,0.881,1.855,1.75,2.785,2.583c0.526,0.471,0.57,1.28,0.099,1.805C206.737,279.919,206.388,280.062,206.037,280.062z
			 M274.658,277.956c-0.23,0-0.463-0.062-0.673-0.193c-0.6-0.372-0.784-1.16-0.412-1.761c0.672-1.083,1.257-2.17,1.737-3.229
			c0.292-0.643,1.05-0.927,1.693-0.637c0.643,0.292,0.928,1.049,0.637,1.693c-0.526,1.159-1.162,2.344-1.893,3.521
			C275.503,277.741,275.085,277.956,274.658,277.956z M200.493,274.743c-0.332,0-0.665-0.129-0.915-0.385
			c-0.902-0.924-1.799-1.874-2.668-2.824c-0.476-0.521-0.44-1.33,0.081-1.806c0.521-0.476,1.33-0.44,1.806,0.081
			c0.85,0.929,1.728,1.859,2.61,2.763c0.493,0.505,0.484,1.315-0.022,1.808C201.137,274.623,200.815,274.743,200.493,274.743z
			 M277.77,270.976c-0.108,0-0.218-0.014-0.327-0.042c-0.683-0.18-1.091-0.879-0.911-1.562c0.312-1.182,0.5-2.367,0.559-3.521
			c0.037-0.705,0.635-1.241,1.343-1.211c0.705,0.037,1.247,0.638,1.211,1.343c-0.069,1.329-0.285,2.689-0.641,4.04
			C278.854,270.596,278.336,270.976,277.77,270.976z M195.308,269.069c-0.361,0-0.72-0.152-0.973-0.449
			c-1.584-1.856-2.45-3.003-2.486-3.05c-0.425-0.564-0.312-1.365,0.251-1.791c0.563-0.425,1.365-0.313,1.791,0.251
			c0.008,0.011,0.862,1.139,2.39,2.931c0.458,0.537,0.394,1.344-0.143,1.802C195.897,268.968,195.602,269.069,195.308,269.069z
			 M278.142,263.391c-0.611,0-1.151-0.439-1.258-1.062c-0.196-1.135-0.523-2.283-0.971-3.413c-0.261-0.656,0.06-1.4,0.717-1.66
			c0.657-0.261,1.4,0.06,1.66,0.717c0.513,1.293,0.888,2.613,1.114,3.922c0.12,0.696-0.347,1.357-1.043,1.477
			C278.287,263.385,278.214,263.391,278.142,263.391z M275.383,256.309c-0.431,0-0.852-0.218-1.093-0.613
			c-0.602-0.987-1.314-1.994-2.116-2.992c-0.442-0.551-0.355-1.355,0.196-1.798c0.551-0.443,1.356-0.355,1.798,0.196
			c0.871,1.084,1.647,2.182,2.306,3.263c0.368,0.603,0.177,1.39-0.426,1.757C275.84,256.249,275.61,256.309,275.383,256.309z
			 M270.622,250.315c-0.333,0-0.665-0.129-0.916-0.387c-0.823-0.845-1.736-1.716-2.712-2.588c-0.527-0.47-0.572-1.279-0.102-1.805
			c0.47-0.527,1.279-0.572,1.805-0.102c1.021,0.911,1.977,1.824,2.841,2.712c0.493,0.506,0.482,1.315-0.024,1.808
			C271.266,250.195,270.944,250.315,270.622,250.315z M264.913,245.184c-0.282,0-0.565-0.093-0.802-0.283
			c-0.932-0.751-1.913-1.512-2.999-2.326c-0.565-0.423-0.68-1.225-0.257-1.79c0.423-0.565,1.225-0.68,1.79-0.257
			c1.111,0.832,2.116,1.611,3.071,2.382c0.55,0.443,0.636,1.248,0.193,1.798C265.657,245.021,265.287,245.184,264.913,245.184z
			 M258.777,240.568c-0.257,0-0.516-0.077-0.741-0.238c-0.917-0.654-1.913-1.353-3.134-2.2c-0.58-0.402-0.724-1.199-0.322-1.779
			c0.402-0.58,1.199-0.724,1.779-0.322c1.23,0.853,2.234,1.559,3.161,2.219c0.575,0.41,0.709,1.208,0.299,1.783
			C259.569,240.381,259.176,240.568,258.777,240.568z M252.468,236.174c-0.25,0-0.503-0.073-0.725-0.226
			c-1.07-0.739-2.128-1.471-3.164-2.201c-0.577-0.407-0.716-1.204-0.31-1.782c0.406-0.577,1.204-0.716,1.782-0.31
			c1.03,0.725,2.081,1.453,3.145,2.188c0.581,0.401,0.727,1.197,0.326,1.779C253.274,235.981,252.874,236.174,252.468,236.174z
			 M246.194,231.738c-0.264,0-0.53-0.081-0.758-0.25c-1.147-0.846-2.158-1.621-3.09-2.37c-0.551-0.442-0.639-1.247-0.197-1.797
			c0.442-0.551,1.247-0.639,1.797-0.197c0.905,0.726,1.888,1.481,3.007,2.306c0.568,0.419,0.689,1.22,0.27,1.788
			C246.973,231.558,246.586,231.738,246.194,231.738z M240.229,226.903c-0.31,0-0.621-0.112-0.867-0.339
			c-1.073-0.991-1.982-1.925-2.779-2.856c-0.459-0.537-0.396-1.344,0.14-1.803c0.536-0.459,1.343-0.396,1.803,0.14
			c0.721,0.843,1.586,1.731,2.571,2.641c0.519,0.479,0.551,1.288,0.072,1.807C240.917,226.765,240.574,226.903,240.229,226.903z
			 M235.349,221.033c-0.451,0-0.889-0.239-1.122-0.663c-0.733-1.334-1.21-2.678-1.417-3.996c-0.11-0.698,0.367-1.352,1.065-1.461
			c0.697-0.111,1.352,0.367,1.461,1.065c0.161,1.024,0.541,2.087,1.131,3.16c0.34,0.619,0.115,1.396-0.504,1.736
			C235.768,220.982,235.557,221.033,235.349,221.033z M234.31,213.66c-0.115,0-0.232-0.016-0.348-0.048
			c-0.679-0.192-1.075-0.899-0.883-1.578c0.243-0.861,0.606-1.731,1.077-2.588c0.341-0.618,1.118-0.843,1.737-0.503
			c0.618,0.341,0.844,1.118,0.503,1.737c-0.378,0.686-0.666,1.376-0.856,2.05C235.38,213.292,234.868,213.66,234.31,213.66z"/>
	</g>
	<g>
		<g>
			<path fill-rule="evenodd" clip-rule="evenodd" fill="#A9DDE1" d="M178.762,268.763c-3.663-1.293-7.308,1.334-6.984,5.227
				c0.03,0.362,0.187,0.777,0.425,1.042c0.549,0.613,1.177,1.154,1.783,1.715c1.328,1.229,2.891,1.2,4.513,0.822
				c0.348-0.081,0.549-0.325,0.697-0.647c0.345-0.751,0.6-1.582,1.103-2.213c0.821-1.032,0.806-2.108,0.586-3.286
				C180.615,269.968,179.619,269.197,178.762,268.763z M191.128,273.079c1.09,0.529,1.088,0.505,1.892,0.444
				c1.19-0.091,2.248-0.555,3.262-1.123c0.698-0.391,1.238-0.974,1.364-1.787c0.16-1.031,0.307-2.074,0.314-3.114
				c0.006-0.893-0.385-1.725-0.893-2.46c-0.915-1.325-3.149-1.997-4.605-1.325c-1.222,0.565-2.211,1.44-2.849,2.668
				c-0.278,0.535-0.308,1.004,0.039,1.547c0.35,0.551,0.678,1.153,0.841,1.778C190.769,270.771,190.908,271.87,191.128,273.079z
				 M171.11,271.148c-0.632-1.222-1.652-1.606-2.773-1.811c-0.433-0.08-0.879-0.089-1.316-0.15c-2.34-0.321-4.62,1.96-4.416,4.276
				c0.155,1.768,1.004,3.102,2.347,4.204c0.999,0.82,2.083,0.958,3.27,0.593c0.631-0.194,1.259-0.408,1.873-0.653
				c0.688-0.275,1.235-0.709,1.467-1.51C170.363,274.566,170.718,272.876,171.11,271.148z M163.041,269.631
				c-0.488-1.654-1.539-2.389-3.069-2.545c-1.237-0.127-2.422-0.104-3.457,0.745c-2.562,2.098-2.74,3.763-1.729,6.222
				c0.598,1.456,1.687,2.179,3.135,2.358c1.382,0.172,2.715-0.181,4.049-0.731c-0.085-0.716-0.164-1.368-0.239-2.018
				c-0.111-0.962-0.019-1.857,0.618-2.666C162.65,270.614,162.801,270.117,163.041,269.631z M205.466,261.942
				c0.284,0.074,0.543,0.175,0.809,0.201c0.326,0.031,0.66,0.013,0.988-0.008c2.279-0.153,3.634-1.574,3.576-3.878
				c-0.024-0.925-0.291-1.843-0.421-2.767c-0.118-0.84-0.634-1.397-1.283-1.844c-0.452-0.311-0.922-0.645-1.435-0.811
				c-1.246-0.402-2.535-0.422-3.641,0.353c-0.959,0.672-1.636,1.629-1.978,2.786c-0.294,0.997-0.252,1.158,0.644,1.757
				c1.189,0.797,2.018,1.858,2.441,3.23C205.262,261.273,205.356,261.584,205.466,261.942z M153.374,272.013
				c-0.029-1.539,0.482-2.783,1.509-3.812c0.116-0.116,0.184-0.283,0.305-0.393c0.72-0.652,0.615-1.379,0.165-2.1
				c-0.633-1.014-1.526-1.761-2.629-2.199c-1.631-0.646-3.284-0.273-4.345,1.1c-1.206,1.559-1.696,3.628-0.698,5.622
				c0.346,0.692,0.852,1.323,1.562,1.672C150.532,272.538,151.87,272.754,153.374,272.013z M196.572,262.953
				c0.687,0.936,1.247,1.552,1.63,2.264c0.383,0.71,0.589,1.515,0.912,2.381c0.89-0.03,1.777,0.022,2.637-0.109
				c1.309-0.201,2.228-0.965,2.551-2.288c0.183-0.748,0.356-1.525,0.353-2.288c-0.007-1.558-0.567-2.942-1.807-3.928
				c-1.081-0.86-2.391-0.928-3.609-0.433c-0.917,0.372-1.638,1.147-2.115,2.041C196.682,261.426,196.369,262.322,196.572,262.953z
				 M211.473,255.459c1.627-0.042,2.479-1.045,2.867-2.374c0.591-2.022,0.128-3.937-1.052-5.668
				c-0.351-0.516-0.857-0.875-1.464-1.023c-0.587-0.142-1.189-0.225-1.788-0.305c-2.224-0.298-3.941,1.877-4.109,3.512
				c-0.044,0.428,0.001,0.897,0.141,1.301c0.092,0.27,0.397,0.497,0.656,0.669c0.168,0.112,0.428,0.075,0.642,0.128
				c1.648,0.408,2.86,1.375,3.65,2.873C211.168,254.863,211.316,255.153,211.473,255.459z M182.27,269.311
				c0.33,0.974,0.688,1.784,0.867,2.631c0.178,0.841,0.517,1.407,1.391,1.629c1.002,0.254,1.568,0.964,1.846,1.938
				c0.1,0.354,0.246,0.695,0.389,1.097c0.343-0.121,0.601-0.206,0.854-0.304c1.543-0.595,2.369-1.669,2.397-3.375
				c0.019-1.183-0.163-2.319-0.587-3.4c-0.635-1.614-1.991-2.285-3.616-2.481c-0.804-0.097-1.515,0.239-2.166,0.68
				C183.001,268.162,182.391,268.636,182.27,269.311z M151.607,262.041c0.208-0.818,0.214-1.542-0.15-2.19
				c-0.911-1.625-2.281-2.664-4.126-3.017c-1.134-0.218-2.063,0.159-2.762,1.083c-1.015,1.34-1.352,2.857-1.212,4.514
				c0.073,0.869,0.39,1.594,1.042,2.176c0.664,0.591,1.416,0.813,2.285,0.56C148.882,262.847,148.882,262.847,151.607,262.041z
				 M149.562,256.488c0.131-0.186,0.267-0.304,0.311-0.45c0.493-1.664,0.173-3.161-0.924-4.509c-0.84-1.034-1.93-1.496-3.222-1.322
				c-3.23,0.435-4.143,2.801-3.869,5.515c0.073,0.727,0.668,1.127,1.287,1.404c0.539,0.242,0.936-0.094,1.331-0.426
				c1.328-1.116,2.789-1.183,4.334-0.507C149.053,256.299,149.304,256.388,149.562,256.488z M213.95,246.174
				c0.052-0.542,0.161-1.036,0.133-1.523c-0.08-1.355-0.459-2.617-1.502-3.558c-0.795-0.718-1.773-1.136-2.813-1.335
				c-1.075-0.204-2.17-0.063-2.912,0.789c-1.122,1.291-1.352,2.875-0.99,4.515c0.168,0.763,0.852,1.237,1.636,0.751
				c1.139-0.706,2.404-0.848,3.674-0.583C212.067,245.415,212.914,245.812,213.95,246.174z M205.163,241.675
				c0.198-0.346,0.456-0.701,0.616-1.096c0.316-0.784,0.912-1.247,1.67-1.493c0.998-0.322,2.015-0.594,3.073-0.195
				c0.193,0.073,0.42,0.057,0.617,0.08c0.343-0.568,0.263-1.12,0.166-1.659c-0.36-2.006-2.434-3.574-4.347-3.199
				c-2.123,0.416-3.874,1.785-4.168,4.301c-0.102,0.872,0.164,1.625,0.627,2.34C203.808,241.358,204.351,241.659,205.163,241.675z
				 M144.102,249.456c2.751-0.515,3.265-0.665,5.805,1.52c0.609-0.47,0.842-1.1,0.846-1.855c0.007-1.133-0.31-2.177-0.867-3.146
				c-0.159-0.278-0.393-0.533-0.646-0.733c-1.673-1.326-3.882-0.86-4.887,1.029c-0.206,0.387-0.39,0.797-0.505,1.218
				C143.673,248.13,143.581,248.79,144.102,249.456z M207.959,232.865c0.18-0.618-0.057-1.211-0.433-1.779
				c-0.41-0.619-0.941-1.078-1.649-1.329c-0.922-0.327-1.759-0.216-2.422,0.535c-0.362,0.41-0.673,0.873-0.961,1.341
				c-0.739,1.198-0.546,2.29,0.425,3.35c0.896-0.28,1.465-1.061,2.282-1.357C206.073,233.311,206.992,233.126,207.959,232.865z
				 M150.919,245.605c0.673,0.056,1.059-0.149,1.182-0.637c0.105-0.418,0.184-0.877,0.123-1.297c-0.22-1.52-1.099-2.629-2.391-3.391
				c-0.295-0.174-0.757-0.189-1.11-0.119c-1.131,0.223-1.827,1.378-1.583,2.512c0.087,0.404,0.275,0.734,0.703,0.83
				C149.147,243.792,150.113,244.576,150.919,245.605z"/>
			<g>
				<path fill-rule="evenodd" clip-rule="evenodd" fill="#A9DDE1" d="M178.762,268.763c0.856,0.434,1.852,1.206,2.123,2.66
					c0.22,1.178,0.234,2.254-0.586,3.286c-0.503,0.631-0.758,1.462-1.103,2.213c-0.149,0.322-0.349,0.566-0.697,0.647
					c-1.622,0.378-3.185,0.407-4.513-0.822c-0.605-0.561-1.234-1.102-1.783-1.715c-0.238-0.265-0.395-0.68-0.425-1.042
					C171.455,270.096,175.099,267.469,178.762,268.763z"/>
				<path fill-rule="evenodd" clip-rule="evenodd" fill="#CFE7E8" d="M191.128,273.079c-0.22-1.209-0.359-2.308-0.635-3.371
					c-0.163-0.625-0.49-1.227-0.841-1.778c-0.347-0.543-0.317-1.012-0.039-1.547c0.638-1.228,1.627-2.103,2.849-2.668
					c1.455-0.672,3.69,0,4.605,1.325c0.508,0.734,0.899,1.567,0.893,2.46c-0.007,1.04-0.154,2.084-0.314,3.114
					c-0.126,0.814-0.666,1.396-1.364,1.787c-1.015,0.568-2.072,1.032-3.262,1.123C192.216,273.584,192.218,273.608,191.128,273.079z
					"/>
				<path fill-rule="evenodd" clip-rule="evenodd" fill="#CFE7E8" d="M171.11,271.148c-0.393,1.728-0.747,3.419,0.452,4.95
					c-0.232,0.801-0.779,1.234-1.467,1.51c-0.614,0.245-1.241,0.458-1.873,0.653c-1.187,0.365-2.271,0.227-3.27-0.593
					c-1.343-1.102-2.192-2.436-2.347-4.204c-0.204-2.315,2.076-4.597,4.416-4.276c0.437,0.061,0.883,0.07,1.316,0.15
					C169.458,269.542,170.479,269.925,171.11,271.148z"/>
				<path fill-rule="evenodd" clip-rule="evenodd" fill="#CFE7E8" d="M163.041,269.631c-0.24,0.486-0.391,0.984-0.692,1.365
					c-0.638,0.809-0.729,1.704-0.618,2.666c0.075,0.651,0.154,1.302,0.239,2.018c-1.334,0.55-2.667,0.904-4.049,0.731
					c-1.448-0.179-2.537-0.902-3.135-2.358c-1.011-2.459-0.833-4.124,1.729-6.222c1.035-0.848,2.22-0.871,3.457-0.745
					C161.502,267.242,162.553,267.977,163.041,269.631z"/>
				<path fill-rule="evenodd" clip-rule="evenodd" fill="#CFE7E8" d="M205.466,261.942c-0.109-0.358-0.204-0.67-0.3-0.981
					c-0.423-1.372-1.252-2.433-2.441-3.23c-0.896-0.599-0.938-0.761-0.644-1.757c0.341-1.157,1.018-2.114,1.978-2.786
					c1.105-0.775,2.394-0.755,3.641-0.353c0.513,0.166,0.983,0.499,1.435,0.811c0.649,0.448,1.165,1.005,1.283,1.844
					c0.13,0.924,0.398,1.842,0.421,2.767c0.059,2.304-1.296,3.725-3.576,3.878c-0.328,0.021-0.662,0.039-0.988,0.008
					C206.009,262.117,205.75,262.016,205.466,261.942z"/>
				<path fill-rule="evenodd" clip-rule="evenodd" fill="#CFE7E8" d="M153.374,272.013c-1.504,0.741-2.842,0.525-4.132-0.109
					c-0.71-0.349-1.216-0.98-1.562-1.672c-0.998-1.994-0.509-4.063,0.698-5.622c1.061-1.373,2.714-1.746,4.345-1.1
					c1.104,0.438,1.997,1.185,2.629,2.199c0.45,0.72,0.555,1.448-0.165,2.1c-0.121,0.109-0.189,0.276-0.305,0.393
					C153.856,269.23,153.345,270.473,153.374,272.013z"/>
				<path fill-rule="evenodd" clip-rule="evenodd" fill="#CFE7E8" d="M196.572,262.953c-0.204-0.631,0.109-1.527,0.552-2.36
					c0.476-0.894,1.198-1.669,2.115-2.041c1.219-0.494,2.528-0.426,3.609,0.433c1.239,0.986,1.8,2.371,1.807,3.928
					c0.003,0.763-0.169,1.54-0.353,2.288c-0.323,1.322-1.242,2.086-2.551,2.288c-0.859,0.131-1.747,0.079-2.637,0.109
					c-0.322-0.866-0.529-1.671-0.912-2.381C197.82,264.505,197.259,263.888,196.572,262.953z"/>
				<path fill-rule="evenodd" clip-rule="evenodd" fill="#A9DDE1" d="M211.473,255.459c-0.156-0.306-0.304-0.597-0.456-0.886
					c-0.79-1.499-2.002-2.465-3.65-2.873c-0.213-0.053-0.474-0.016-0.642-0.128c-0.259-0.172-0.564-0.399-0.656-0.669
					c-0.14-0.404-0.185-0.873-0.141-1.301c0.168-1.635,1.885-3.81,4.109-3.512c0.599,0.081,1.201,0.163,1.788,0.305
					c0.606,0.148,1.113,0.507,1.464,1.023c1.179,1.731,1.643,3.646,1.052,5.668C213.951,254.414,213.099,255.417,211.473,255.459z"
					/>
				<path fill-rule="evenodd" clip-rule="evenodd" fill="#A9DDE1" d="M182.27,269.311c0.121-0.675,0.73-1.149,1.374-1.585
					c0.652-0.441,1.363-0.778,2.166-0.68c1.625,0.196,2.981,0.867,3.616,2.481c0.424,1.081,0.606,2.217,0.587,3.4
					c-0.028,1.706-0.854,2.78-2.397,3.375c-0.253,0.098-0.511,0.183-0.854,0.304c-0.143-0.402-0.289-0.743-0.389-1.097
					c-0.277-0.974-0.844-1.684-1.846-1.938c-0.875-0.222-1.213-0.788-1.391-1.629C182.958,271.094,182.6,270.284,182.27,269.311z"/>
				<path fill-rule="evenodd" clip-rule="evenodd" fill="#A9DDE1" d="M151.607,262.041c-2.725,0.806-2.725,0.806-4.924,3.126
					c-0.868,0.252-1.62,0.03-2.284-0.561c-0.652-0.582-0.969-1.306-1.042-2.176c-0.139-1.658,0.197-3.175,1.212-4.514
					c0.699-0.923,1.628-1.301,2.762-1.083c1.845,0.353,3.215,1.393,4.126,3.017C151.821,260.499,151.815,261.223,151.607,262.041z"
					/>
				<path fill-rule="evenodd" clip-rule="evenodd" fill="#CFE7E8" d="M149.562,256.488c-0.259-0.1-0.509-0.189-0.752-0.295
					c-1.545-0.677-3.006-0.61-4.334,0.507c-0.395,0.332-0.792,0.668-1.331,0.426c-0.619-0.277-1.214-0.677-1.287-1.404
					c-0.274-2.714,0.638-5.08,3.869-5.515c1.292-0.174,2.382,0.289,3.222,1.322c1.097,1.348,1.417,2.845,0.924,4.509
					C149.83,256.184,149.693,256.303,149.562,256.488z"/>
				<path fill-rule="evenodd" clip-rule="evenodd" fill="#CFE7E8" d="M213.95,246.174c-1.036-0.362-1.883-0.759-2.774-0.945
					c-1.27-0.264-2.535-0.123-3.674,0.583c-0.784,0.486-1.468,0.012-1.636-0.751c-0.361-1.64-0.132-3.224,0.99-4.515
					c0.742-0.853,1.837-0.994,2.912-0.789c1.039,0.199,2.018,0.617,2.813,1.335c1.043,0.941,1.422,2.203,1.502,3.558
					C214.111,245.138,214.001,245.632,213.95,246.174z"/>
				<path fill-rule="evenodd" clip-rule="evenodd" fill="#CFE7E8" d="M205.163,241.675c-0.812-0.015-1.355-0.317-1.746-0.92
					c-0.463-0.715-0.73-1.468-0.627-2.34c0.294-2.516,2.044-3.885,4.168-4.301c1.913-0.375,3.987,1.194,4.347,3.199
					c0.096,0.539,0.177,1.091-0.166,1.659c-0.197-0.024-0.424-0.007-0.617-0.08c-1.058-0.4-2.074-0.127-3.073,0.195
					c-0.758,0.245-1.354,0.709-1.67,1.493C205.619,240.974,205.361,241.329,205.163,241.675z"/>
				<path fill-rule="evenodd" clip-rule="evenodd" fill="#CFE7E8" d="M144.102,249.456c-0.52-0.666-0.428-1.326-0.254-1.968
					c0.115-0.421,0.299-0.831,0.505-1.218c1.006-1.889,3.214-2.354,4.887-1.029c0.252,0.2,0.487,0.456,0.646,0.733
					c0.557,0.969,0.874,2.014,0.867,3.146c-0.004,0.755-0.238,1.385-0.846,1.855C147.366,248.791,146.852,248.941,144.102,249.456z"
					/>
				<path fill-rule="evenodd" clip-rule="evenodd" fill="#A9DDE1" d="M207.959,232.865c-0.967,0.261-1.887,0.446-2.759,0.762
					c-0.816,0.295-1.385,1.077-2.282,1.357c-0.971-1.06-1.163-2.153-0.425-3.35c0.288-0.468,0.599-0.931,0.961-1.341
					c0.663-0.751,1.5-0.862,2.422-0.535c0.708,0.251,1.239,0.711,1.649,1.329C207.902,231.654,208.14,232.247,207.959,232.865z"/>
				<path fill-rule="evenodd" clip-rule="evenodd" fill="#A9DDE1" d="M150.919,245.605c-0.806-1.029-1.772-1.813-3.076-2.102
					c-0.428-0.095-0.617-0.425-0.703-0.83c-0.244-1.134,0.452-2.29,1.583-2.512c0.353-0.069,0.815-0.055,1.11,0.119
					c1.292,0.762,2.171,1.871,2.391,3.391c0.061,0.42-0.017,0.879-0.123,1.297C151.978,245.456,151.593,245.662,150.919,245.605z"/>
			</g>
		</g>
		<g>
			<circle fill="#E46528" cx="182.998" cy="277.827" r="5.912"/>
			
				<linearGradient id="SVGID_21_" gradientUnits="userSpaceOnUse" x1="482.2405" y1="-1051.9005" x2="488.3347" y2="-1051.9005" gradientTransform="matrix(0.9512 -0.3087 0.3087 0.9512 46.1313 1428.16)">
				<stop  offset="0.1989" style="stop-color:#D0EDF7"/>
				<stop  offset="1" style="stop-color:#E9F6F5"/>
			</linearGradient>
			<polygon fill="url(#SVGID_21_)" points="185.713,276.323 183.378,277.081 182.62,274.746 181.494,275.111 182.252,277.447 
				179.917,278.205 180.282,279.33 182.617,278.573 183.375,280.908 184.501,280.542 183.743,278.207 186.078,277.449 			"/>
			<path fill="#CE5327" d="M184.233,272.029c1.385,0.68,2.506,1.895,3.02,3.479c1.008,3.106-0.693,6.441-3.799,7.449
				c-1.029,0.334-2.082,0.365-3.068,0.152c1.331,0.654,2.907,0.814,4.429,0.32c3.106-1.008,4.807-4.343,3.799-7.449
				C187.94,273.902,186.223,272.459,184.233,272.029z"/>
		</g>
	</g>
	<path fill="#FCD235" d="M276.5,164.084c-4.694-5.909-11.993-10.963-20.553-14.229c-6.175-2.356-12.553-3.602-18.445-3.602
		c-2.209,0-4.35,0.176-6.362,0.522c-7.527,1.296-12.763,4.869-14.745,10.061c-1.981,5.192-0.456,11.345,4.294,17.326
		c4.693,5.909,11.992,10.963,20.553,14.229c6.176,2.356,12.554,3.602,18.445,3.602c2.209,0,4.35-0.176,6.362-0.522
		c7.527-1.296,12.763-4.869,14.745-10.061C282.775,176.218,281.25,170.065,276.5,164.084z M279.897,181.067
		c-2.379,6.234-9.927,9.955-20.192,9.955c-5.806,0-12.072-1.22-18.12-3.529c-17.26-6.586-28.157-20.186-24.292-30.315
		c2.379-6.233,9.927-9.955,20.192-9.955c5.805,0,12.071,1.22,18.12,3.529C272.865,157.338,283.762,170.937,279.897,181.067z"/>
	<g>
		<path fill-rule="evenodd" clip-rule="evenodd" fill="#FCD235" d="M230.524,198.037c-0.024-0.043,0.009-0.091,0.018-0.156
			c0.255-0.05,0.447,0.137,0.657,0.238c0.384,0.183,0.754,0.263,1.126,0.199c0.559-0.095,0.769-0.54,0.457-0.995
			c-0.035-0.05-0.069-0.104-0.119-0.148c-0.666-0.592-0.893-1.247-1.177-1.897c-0.169-0.389-0.351-0.781-0.591-1.162
			c-0.31-0.493-0.814-0.689-1.426-0.604c-0.584,0.081-0.921,0.481-0.766,0.955c0.061,0.187,0.194,0.377,0.304,0.585
			c-0.567-0.136-0.824-0.444-0.938-0.8c-0.237-0.739,0.397-1.472,1.59-1.164c0.42,0.108,0.837,0.246,1.255,0.375
			c0.487,0.15,0.661,0.135,0.788-0.175c0.191-0.467,0.337-0.952,0.484-1.435c0.095-0.314-0.097-0.603-0.512-0.856
			c-0.092-0.056-0.182-0.115-0.274-0.171c-0.448-0.273-0.778-0.329-1.16-0.179c-0.215,0.085-0.399,0.2-0.614,0.285
			c-0.161,0.063-0.341,0.111-0.526,0.145c-1.032,0.191-2.053-0.44-2.045-1.281c0.002-0.239,0.115-0.466,0.244-0.666
			c0.168-0.26,0.402-0.488,0.629-0.755c-0.377-0.265-0.714-0.502-1.097-0.771c-0.624,0.101-1.274,0.198-1.972-0.307
			c0.055-0.173,0.265-0.039,0.396-0.013c0.398,0.08,0.662-0.004,0.867-0.187c0.212-0.19,0.263-0.407-0.006-0.69
			c-0.272-0.285-0.538-0.574-0.823-0.854c-0.926-0.911-1.883-1.808-2.527-2.819c-0.209-0.328-0.532-0.637-0.789-0.958
			c-1.018-1.268-1.749-2.584-2.478-3.896c-0.441-0.794-0.761-1.603-1.11-2.406c-0.259-0.597-0.469-1.195-0.711-1.792
			c-0.665-1.641-1.046-3.27-1.452-4.896c-0.224-0.897-0.325-1.79-0.423-2.681c-0.179-1.637-0.009-3.191,0.067-4.769
			c0.007-0.143,0.066-0.274,0.164-0.402c0.206,0.353,0.356,0.706,0.419,1.043c0.257,1.392,0.702,2.791,1.265,4.195
			c0.135,0.337,0.262,0.682,0.483,1.007c0.435,0.638,0.73,1.284,1.028,1.932c0.489,1.065,0.975,2.138,1.718,3.169
			c1.013,1.405,2.067,2.808,3.565,4.063c0.499,0.418,0.966,0.857,1.419,1.299c1.321,1.291,2.862,2.441,4.465,3.546
			c1.838,1.267,3.772,2.445,5.773,3.546c0.725,0.399,1.502,0.739,2.271,1.076c1.107,0.486,2.224,0.956,3.346,1.413
			c0.508,0.207,1.038,0.367,1.558,0.548c1.734,0.603,3.473,1.161,5.255,1.49c0.739,0.137,1.483,0.33,2.223,0.52
			c0.956,0.245,1.905,0.42,2.852,0.516c0.279,0.028,0.561,0.06,0.843,0.108c2.456,0.416,4.81,0.472,7.145,0.436
			c1.756-0.027,3.476-0.126,5.182-0.256c1.925-0.146,3.634-0.564,5.141-1.267c1.31-0.611,2.496-1.316,3.627-2.077
			c0.952-0.64,1.943-1.249,2.819-1.947c0.038-0.03,0.108-0.036,0.238-0.077c0.04,0.121,0.089,0.188,0.067,0.217
			c-0.46,0.631-0.793,1.328-1.434,1.865c-0.656,0.549-1.195,1.169-1.627,1.85c-0.142,0.225-0.323,0.435-0.53,0.623
			c-0.869,0.791-1.729,1.588-2.64,2.35c-0.878,0.733-1.937,1.311-3.22,1.697c-0.685,0.206-1.301,0.497-1.931,0.767
			c-1.238,0.53-2.547,0.977-3.92,1.359c-1.984,0.553-3.992,1.073-6.114,1.435c-0.869,0.148-1.788,0.235-2.721,0.268
			c-0.73,0.025-1.512-0.057-2.279-0.129c-0.471-0.044-0.763,0.08-0.995,0.296c-0.227,0.21-0.191,0.41,0.136,0.693
			c0.174,0.151,0.368,0.291,0.598,0.47c-0.594,0.145-1.069-0.094-1.557-0.361c-0.155-0.255-0.31-0.508-0.482-0.789
			c-0.474-0.113-0.907-0.145-1.373-0.126c-0.033,0.178-0.043,0.348-0.096,0.502c-0.162,0.47-1.067,0.618-1.758,0.277
			c-0.138-0.068-0.272-0.222-0.316-0.337c-0.066-0.177-0.053-0.353-0.073-0.523c-0.592-0.256-0.592-0.256-1.495-0.294
			c-0.335,0.307-0.693,0.632-1.047,0.959c-0.262,0.243-0.156,0.547,0.115,0.855c0.256,0.29,0.58,0.559,0.823,0.852
			c0.134,0.162,0.221,0.367,0.223,0.531c0.002,0.193-0.075,0.385-0.385,0.415c-0.219-0.052-0.159-0.163-0.17-0.249
			c-0.049-0.381-0.298-0.722-0.71-1.031c-0.342-0.256-0.661-0.307-0.94-0.15c-0.048,0.027-0.101,0.053-0.129,0.092
			c-0.312,0.416-0.905,0.567-1.507,0.71c-0.12,0.028-0.238,0.06-0.348,0.1c-0.711,0.259-0.949,0.843-0.579,1.495
			c0.082,0.145,0.255,0.286,0.413,0.413c0.178,0.143,0.386,0.268,0.624,0.43c-1.106-0.096-1.528-0.359-1.78-1.078
			c-0.072-0.206-0.134-0.411-0.205-0.63c-0.379-0.156-0.696-0.128-1.012-0.076c-0.833,0.137-1.639-0.131-2.437-0.581
			c-0.732-0.412-1.381-0.87-1.709-1.45c-0.386-0.132-0.511,0.015-0.673,0.106 M233.729,191.154
			c-0.257,0.683-0.488,1.363-0.574,2.093c-0.129,1.101-0.096,2.216,0.481,3.412c0.576,1.193,1.523,2.213,3.043,2.989
			c0.829,0.423,1.644,0.552,2.452,0.445c1.049-0.138,1.868-0.51,2.515-1.047c1.065-0.884,1.748-1.972,2.286-3.131
			c0.294-0.634,0.48-1.308,0.537-2.023c0.023-0.294,0.057-0.584,0.092-0.875c0.118-0.959,0.014-1.942-0.608-2.97
			c-0.393-0.65-0.955-1.224-1.759-1.715c-0.669-0.409-1.399-0.613-2.114-0.887c-0.469-0.18-0.927-0.251-1.35-0.216
			c-1.163,0.096-2.197,0.353-2.911,0.963c-0.886,0.756-1.686,1.558-1.938,2.647C233.854,190.955,233.777,191.056,233.729,191.154z
			 M234.392,186.752c0.034-0.089,0.075-0.177,0.101-0.269c0.052-0.185,0.105-0.37,0.143-0.559c0.088-0.439-0.202-0.917-0.79-1.191
			c-1.134-0.528-2.236-0.712-3.173-0.313c-0.741,0.315-1.206,0.839-1.714,1.331c-0.354,0.344-0.59,0.728-0.679,1.182
			c-0.222,1.138,1.332,2.358,2.909,2.276c0.319-0.017,0.62-0.116,0.867-0.235C233.158,188.443,234.07,187.784,234.392,186.752z
			 M247.494,192.082c-0.367,0.842-0.273,1.778-0.012,2.745c0.169,0.628,0.65,1.194,1.388,1.639c0.928,0.56,1.374,0.507,1.845,0.143
			c0.676-0.522,1.131-1.17,1.025-2.02c-0.088-0.711-0.287-1.441-0.5-2.165c-0.146-0.496-0.615-0.905-1.239-1.215
			c-0.79-0.392-1.815-0.319-2.147,0.165C247.704,191.595,247.612,191.845,247.494,192.082z M256.337,195.425
			c0.033-0.268,0.094-0.455,0.075-0.655c-0.065-0.658-0.143-1.318-0.253-1.982c-0.033-0.197-0.164-0.413-0.295-0.613
			c-0.163-0.248-0.432-0.386-0.694-0.4c-0.27-0.014-0.436,0.109-0.465,0.348c-0.006,0.048-0.012,0.098-0.006,0.148
			c0.108,0.936,0.208,1.871,0.337,2.81c0.027,0.196,0.137,0.411,0.259,0.61c0.12,0.196,0.479,0.289,0.623,0.167
			C256.093,195.711,256.23,195.538,256.337,195.425z M252.778,191.737c0.061,0.484,0.127,0.889,0.159,1.288
			c0.039,0.48,0.011,0.949,0.083,1.432c0.057,0.377,0.211,0.768,0.349,1.154c0.057,0.159,0.361,0.251,0.534,0.189
			c0.402-0.144,0.491-0.444,0.473-0.776c-0.038-0.677-0.084-1.358-0.19-2.045c-0.066-0.433-0.333-0.866-0.769-1.284
			C253.181,191.71,252.99,191.723,252.778,191.737z M226.009,184.294c0.177,0.116,0.332,0.265,0.51,0.323
			c0.396,0.129,0.754,0.127,1.052-0.033c0.799-0.429,1.623-0.837,2.425-1.264c0.356-0.19,0.419-0.472,0.202-0.694
			c-0.251-0.257-0.684-0.319-1.114-0.142c-0.689,0.283-1.368,0.577-2.05,0.867C226.551,183.555,226.234,183.866,226.009,184.294z
			 M265.821,194.4c0.016-0.312,0.043-0.579,0.04-0.852c-0.005-0.472-0.004-0.944-0.053-1.424c-0.032-0.317-0.407-0.551-0.84-0.573
			c-0.479-0.024-0.778,0.217-0.699,0.577c0.118,0.538,0.24,1.077,0.365,1.616c0.036,0.154,0.072,0.31,0.142,0.463
			c0.081,0.176,0.384,0.365,0.6,0.35C265.551,194.544,265.686,194.451,265.821,194.4z M263.673,194.945
			c-0.037-0.863-0.129-1.643-0.38-2.443c-0.04-0.128-0.103-0.258-0.177-0.385c-0.101-0.172-0.342-0.27-0.526-0.202
			c-0.186,0.068-0.341,0.169-0.46,0.23c0.058,0.437,0.108,0.818,0.16,1.199c0.042,0.305,0.068,0.609,0.134,0.917
			c0.068,0.315,0.183,0.41,0.609,0.544C263.201,194.857,263.375,194.88,263.673,194.945z M229.13,181.668
			c-0.121-0.157-0.191-0.342-0.339-0.419c-0.475-0.248-0.998-0.339-1.392-0.182c-0.827,0.329-1.612,0.701-2.401,1.068
			c-0.217,0.101-0.23,0.344-0.09,0.533c0.197,0.266,0.581,0.455,0.909,0.41c0.248-0.034,0.471-0.115,0.689-0.193
			c0.683-0.245,1.227-0.629,1.967-0.823C228.724,181.997,228.886,181.819,229.13,181.668z M260.698,194.057
			c0.147-0.215-0.033-0.587-0.176-0.948c-0.108-0.272-0.352-0.434-0.716-0.509c-0.789-0.161-1.33,0.001-1.678,0.418
			c-0.357,0.429-0.018,1.097,0.777,1.514c0.611,0.322,1.342,0.241,1.645-0.184C260.591,194.29,260.615,194.221,260.698,194.057z
			 M225.117,179.117c0.167-0.532-0.329-1.143-1.185-1.462c-0.705-0.262-1.716-0.042-1.818,0.408
			c-0.127,0.559,0.308,1.155,1.191,1.452C224.095,179.78,224.966,179.598,225.117,179.117z M246.953,189.9
			c-0.707-0.38-1.424-0.355-2.103-0.566c-0.074-0.023-0.164,0.027-0.237,0.041c0.202,0.462,0.408,0.897,0.578,1.333
			c0.175,0.45-0.036,0.88,0.348,1.361c0.439-0.181,0.451-0.178,0.551-0.505c0.156-0.506,0.316-1.006,0.768-1.379
			C246.927,190.13,246.917,190.019,246.953,189.9z M223.125,175.91c-0.191-0.399-0.548-0.633-0.94-0.57
			c-0.749,0.121-1.448,0.32-2.156,0.502c-0.232,0.06-0.283,0.224-0.16,0.432c0.071,0.121,0.163,0.24,0.239,0.351
			C220.96,176.6,222.131,176.321,223.125,175.91z M237.359,186.646c-0.494-0.441-0.885-0.801-1.296-1.149
			c-0.09-0.076-0.269-0.149-0.382-0.152c-0.196-0.005-0.24,0.115-0.197,0.261c0.015,0.052,0.031,0.104,0.045,0.156
			c0.124,0.488,0.018,0.889-0.357,1.212c-0.208,0.179-0.346,0.405-0.502,0.594c0.238,0.264,0.432,0.197,0.578,0.132
			c0.468-0.205,0.922-0.425,1.373-0.648C236.869,186.928,237.099,186.79,237.359,186.646z M245.523,193.876
			c-0.136,0.767-0.264,1.488-0.395,2.231c0.706,0.238,1.267,0.209,1.794,0.101c-0.28-0.66-0.537-1.272-0.802-1.884
			C246.036,194.13,245.864,193.98,245.523,193.876z M232.778,190.74c0.11-0.018,0.205-0.01,0.229-0.04
			c0.358-0.451,0.706-0.907,1.055-1.359c-0.49-0.307-0.507-0.318-0.732-0.214c-0.557,0.259-1.107,0.526-1.653,0.795
			c-0.09,0.045-0.15,0.117-0.242,0.191C231.859,190.488,232.406,190.495,232.778,190.74z M218.996,174.65
			c0.197,0.219,0.383,0.426,0.551,0.614c0.573,0.069,0.854-0.161,1.224-0.265c0.365-0.103,0.861-0.068,1.074-0.364
			c-0.09-0.13-0.162-0.26-0.265-0.38c-0.165-0.191-0.41-0.309-0.652-0.261C220.263,174.126,219.509,174.161,218.996,174.65z
			 M227.992,189.869c-0.026,0.102,0.179,0.307,0.384,0.384c0.256,0.096,0.475,0.051,0.564-0.114
			c0.089-0.165,0.003-0.408-0.173-0.484c-0.032-0.014-0.068-0.026-0.102-0.032C228.353,189.565,228.04,189.68,227.992,189.869z
			 M247.636,197.186c-0.249-0.107-0.494-0.08-0.572,0.028c-0.066,0.093,0.021,0.264,0.172,0.334c0.218,0.103,0.52,0.046,0.528-0.12
			C247.767,197.349,247.669,197.246,247.636,197.186z"/>
		<path fill-rule="evenodd" clip-rule="evenodd" fill="#821B18" d="M233.729,191.154c0.049-0.098,0.125-0.199,0.152-0.315
			c0.251-1.089,1.052-1.891,1.938-2.647c0.714-0.609,1.748-0.866,2.911-0.963c0.423-0.035,0.881,0.036,1.35,0.216
			c0.715,0.274,1.445,0.479,2.114,0.887c0.804,0.491,1.366,1.065,1.759,1.715c0.622,1.028,0.726,2.012,0.608,2.97
			c-0.035,0.291-0.07,0.581-0.092,0.875c-0.057,0.715-0.242,1.39-0.537,2.023c-0.538,1.159-1.221,2.247-2.286,3.131
			c-0.647,0.537-1.466,0.909-2.515,1.047c-0.808,0.106-1.623-0.022-2.452-0.445c-1.52-0.775-2.468-1.796-3.043-2.989
			c-0.577-1.195-0.61-2.311-0.481-3.412C233.241,192.517,233.472,191.838,233.729,191.154z M233.871,194.607
			c1.034,0.184,1.781,0.221,2.487,0.138c0.605-1.273,1.205-2.53,1.801-3.788c0.109-0.23,0.055-0.358-0.256-0.559
			c-0.537-0.349-1.079-0.695-1.627-1.034c-0.144-0.088-0.319-0.144-0.527-0.235c-0.486,0.423-0.854,0.879-1.065,1.418
			c-0.176,0.447-0.299,0.916-0.515,1.344c-0.264,0.524-0.287,1.119-0.4,1.686C233.709,193.876,233.722,194.208,233.871,194.607z
			 M239.824,199.348c-0.291-0.967-0.055-1.868-0.245-2.864c-0.897-0.419-1.738-0.826-2.663-1.057
			c-0.827,0.653-1.185,1.546-2.122,2.101c0.382,0.534,0.858,1.005,1.431,1.405c0.587,0.41,1.298,0.717,2.005,0.73
			C238.794,199.673,239.356,199.607,239.824,199.348z M238.917,191.038c-0.097,0.055-0.164,0.071-0.187,0.109
			c-0.681,1.089-1.147,2.267-1.583,3.458c-0.046,0.125,0.001,0.284,0.005,0.447c0.84,0.335,1.618,0.708,2.518,0.895
			c0.186-0.416,0.382-0.798,0.53-1.198c0.305-0.83,0.593-1.667,0.87-2.508c0.086-0.263-0.028-0.414-0.454-0.584
			C240.045,191.429,239.459,191.234,238.917,191.038z M238.071,187.837c0.28,0.85,0.541,1.653,0.813,2.456
			c0.062,0.184,0.167,0.389,0.446,0.476c0.722,0.226,1.415,0.593,2.113,0.682c0.675-0.431,1.304-0.832,1.924-1.228
			c-0.424-0.846-1.101-1.521-2.166-1.923C240.192,187.921,239.133,187.485,238.071,187.837z M241.674,192.219
			c-0.475,1.35-0.94,2.674-1.408,4.007c0.422,0.332,0.796,0.633,1.183,0.926c0.188,0.143,0.398,0.269,0.663,0.446
			c1.209-1.37,1.82-2.913,1.724-4.73c-0.361-0.138-0.662-0.274-0.971-0.365C242.488,192.392,242.104,192.32,241.674,192.219z
			 M234.481,196.929c0.136-0.018,0.269-0.004,0.308-0.046c0.428-0.45,0.846-0.907,1.253-1.369c0.055-0.062,0.036-0.167,0.061-0.31
			c-0.554-0.038-1.034-0.082-1.505-0.098c-0.266-0.009-0.517,0.027-0.801,0.044C233.881,195.756,234.094,196.333,234.481,196.929z
			 M240.217,196.857c0.031,0.683-0.103,1.224,0.068,1.824c0.031,0.109,0.122,0.221,0.228,0.407c0.56-0.335,1.08-0.593,1.261-1.094
			C241.397,197.546,240.941,197.204,240.217,196.857z M236.136,188.778c0.503,0.356,1.004,0.722,1.524,1.072
			c0.12,0.081,0.301,0.108,0.605,0.212c-0.351-0.741-0.342-1.385-0.82-2.046C236.617,188.259,236.617,188.259,236.136,188.778z
			 M243.967,192.293c0.01-0.488-0.038-0.934-0.325-1.479c-0.605,0.317-1.259,0.5-1.631,0.989
			C242.683,192.049,243.289,192.186,243.967,192.293z"/>
		<g>
			<path fill-rule="evenodd" clip-rule="evenodd" fill="#1072BA" d="M234.392,186.752c-0.322,1.031-1.234,1.69-2.336,2.222
				c-0.247,0.119-0.548,0.218-0.867,0.235c-1.577,0.082-3.131-1.138-2.909-2.276c0.088-0.454,0.325-0.838,0.679-1.182
				c0.508-0.492,0.973-1.016,1.714-1.331c0.937-0.399,2.039-0.215,3.173,0.313c0.588,0.274,0.878,0.752,0.79,1.191
				c-0.038,0.189-0.091,0.374-0.143,0.559C234.467,186.576,234.426,186.663,234.392,186.752z M232.172,188.409
				c-0.097-0.503-0.113-0.988-0.686-1.636c-0.347,0.678-0.645,1.241-0.669,1.949C231.497,188.848,231.762,188.558,232.172,188.409z
				 M231.934,186.304c0.58,0.107,0.982,0.15,1.379,0.17c0.374,0.019,0.614-0.096,0.677-0.359c0.052-0.217,0.271-0.404-0.061-0.735
				C233.291,185.675,232.674,185.961,231.934,186.304z M229.043,187.469c0.803-0.176,1.51-0.631,1.63-1.072
				c-0.216,0.004-0.42-0.006-0.606,0.016c-0.221,0.026-0.437,0.066-0.637,0.123C228.895,186.687,228.824,186.873,229.043,187.469z
				 M232.106,186.77c0.124,0.394,0.261,0.789,0.624,1.262c0.311-0.314,0.582-0.567,0.82-0.839c0.066-0.076,0.037-0.206,0.053-0.318
				C232.669,186.699,232.669,186.699,232.106,186.77z M231.8,185.775c0.791-0.091,1.336-0.283,1.644-0.715
				c-0.353-0.331-0.717-0.387-1.052-0.412C232.19,185.031,232.015,185.366,231.8,185.775z M229.896,188.545
				c0.573-0.404,0.607-0.461,0.701-1.16c-0.403,0.125-1.034,0.474-1.169,0.645C229.305,188.187,229.449,188.345,229.896,188.545z
				 M230.717,185.019c-0.353,0.258-0.673,0.477-0.964,0.716c-0.077,0.064-0.067,0.188-0.111,0.33
				c0.508,0.04,0.897,0.044,1.239-0.093C230.901,185.682,230.945,185.405,230.717,185.019z M231.433,185.276
				c0.3-0.129,0.488-0.304,0.448-0.609C231.064,184.656,231.054,184.67,231.433,185.276z"/>
			<path fill-rule="evenodd" clip-rule="evenodd" fill="#1072BA" d="M247.494,192.082c0.118-0.237,0.21-0.487,0.361-0.707
				c0.331-0.484,1.356-0.557,2.147-0.165c0.624,0.31,1.094,0.718,1.239,1.215c0.212,0.725,0.411,1.454,0.5,2.165
				c0.106,0.85-0.349,1.499-1.025,2.02c-0.471,0.364-0.918,0.417-1.845-0.143c-0.738-0.445-1.219-1.012-1.388-1.639
				C247.221,193.86,247.127,192.924,247.494,192.082z M250.407,196.19c-0.077-0.207-0.151-0.387-0.209-0.566
				c-0.066-0.205-0.091-0.412-0.184-0.615c-0.07-0.152-0.034-0.357-0.406-0.469c-0.201,0.567-0.304,1.147-0.286,1.756
				C249.867,196.642,250.109,196.434,250.407,196.19z M248.082,191.875c0.26,0.466,0.537,0.906,1.121,1.343
				c0.035-0.137,0.096-0.22,0.071-0.307c-0.136-0.482-0.317-0.968-0.3-1.437c0.002-0.049-0.091-0.12-0.198-0.252
				C248.521,191.463,248.31,191.661,248.082,191.875z M247.876,194.105c0.527-0.142,0.929-0.266,1.211-0.538
				c-0.226-0.244-0.411-0.46-0.622-0.665c-0.102-0.099-0.251-0.177-0.424-0.296C247.774,193.055,247.671,193.486,247.876,194.105z
				 M249.185,194.036c-0.644,0.196-0.971,0.41-1.225,0.689c0.207,0.346,0.235,0.695,0.772,1.056
				C248.973,195.232,249.036,194.697,249.185,194.036z M249.799,193.05c0.286-0.257,0.486-0.415,0.648-0.594
				c0.06-0.067,0.089-0.192,0.036-0.277c-0.172-0.281-0.396-0.549-0.934-0.657C249.306,191.944,249.43,192.408,249.799,193.05z
				 M251.018,194.268c0.119-0.485-0.062-0.871-0.323-1.369c-0.288,0.286-0.627,0.423-0.699,0.787
				C250.303,193.86,250.598,194.028,251.018,194.268z M250.663,195.549c0.328-0.205,0.328-0.205,0.424-0.775
				c-0.201-0.209-0.404-0.419-0.814-0.443C250.218,194.729,250.491,195.13,250.663,195.549z"/>
		</g>
		<path fill-rule="evenodd" clip-rule="evenodd" fill="#FBB03C" d="M256.337,195.425c-0.107,0.113-0.243,0.286-0.418,0.433
			c-0.144,0.122-0.503,0.029-0.623-0.167c-0.122-0.199-0.232-0.414-0.259-0.61c-0.129-0.939-0.229-1.874-0.337-2.81
			c-0.006-0.051,0-0.1,0.006-0.148c0.029-0.239,0.194-0.362,0.465-0.348c0.262,0.014,0.532,0.153,0.694,0.4
			c0.131,0.2,0.262,0.416,0.295,0.613c0.11,0.664,0.188,1.324,0.253,1.982C256.431,194.97,256.37,195.157,256.337,195.425z
			 M255.237,192.182c-0.035,0.056-0.108,0.109-0.099,0.172c0.143,0.944,0.297,1.89,0.455,2.836c0.004,0.025,0.093,0.061,0.195,0.124
			c0.067-0.099,0.197-0.183,0.183-0.288c-0.112-0.84-0.248-1.684-0.386-2.528c-0.012-0.072-0.076-0.156-0.14-0.226
			C255.413,192.236,255.326,192.219,255.237,192.182z"/>
		<path fill-rule="evenodd" clip-rule="evenodd" fill="#FBB03C" d="M252.778,191.737c0.212-0.014,0.404-0.026,0.64-0.042
			c0.436,0.419,0.703,0.852,0.769,1.284c0.106,0.687,0.152,1.368,0.19,2.045c0.019,0.331-0.071,0.632-0.473,0.776
			c-0.174,0.062-0.477-0.029-0.534-0.189c-0.139-0.385-0.292-0.777-0.349-1.154c-0.073-0.483-0.045-0.953-0.083-1.432
			C252.905,192.626,252.839,192.221,252.778,191.737z M253.787,195.217c0.28-0.165,0.221-0.422,0.159-0.64
			c-0.188-0.657-0.197-1.302-0.51-2.069c-0.083,0.536-0.011,1.972,0.116,2.327C253.595,194.957,253.7,195.08,253.787,195.217z"/>
		<path fill-rule="evenodd" clip-rule="evenodd" fill="#FBB03C" d="M226.009,184.294c0.225-0.428,0.542-0.739,1.024-0.944
			c0.683-0.29,1.361-0.584,2.05-0.867c0.43-0.177,0.863-0.115,1.114,0.142c0.217,0.222,0.154,0.504-0.202,0.694
			c-0.801,0.427-1.626,0.835-2.425,1.264c-0.299,0.16-0.656,0.162-1.052,0.033C226.34,184.559,226.186,184.41,226.009,184.294z
			 M229.741,182.941c-0.038-0.052-0.077-0.105-0.115-0.157c-0.367,0.102-0.755,0.183-1.097,0.312
			c-0.701,0.263-1.477,0.463-1.927,0.956c-0.053,0.058-0.041,0.155-0.074,0.297c0.226-0.021,0.377-0.006,0.471-0.048
			C227.949,183.88,228.912,183.47,229.741,182.941z"/>
		<path fill-rule="evenodd" clip-rule="evenodd" fill="#FBB03C" d="M229.13,181.668c-0.244,0.152-0.406,0.329-0.657,0.395
			c-0.741,0.193-1.284,0.577-1.967,0.823c-0.217,0.078-0.441,0.158-0.689,0.193c-0.328,0.045-0.712-0.144-0.909-0.41
			c-0.14-0.189-0.127-0.431,0.09-0.533c0.788-0.368,1.574-0.74,2.401-1.068c0.395-0.157,0.917-0.066,1.392,0.182
			C228.939,181.326,229.008,181.511,229.13,181.668z M228.281,181.487c-0.215-0.056-0.295-0.095-0.351-0.089
			c-1.098,0.106-1.875,0.555-2.652,1.001c-0.046,0.026-0.024,0.166,0.03,0.206c0.094,0.069,0.281,0.158,0.354,0.14
			c0.836-0.203,1.493-0.59,2.207-0.918C228.012,181.759,228.1,181.639,228.281,181.487z"/>
		<path fill-rule="evenodd" clip-rule="evenodd" fill="#FBB03C" d="M260.698,194.057c-0.082,0.164-0.106,0.233-0.148,0.292
			c-0.302,0.425-1.033,0.505-1.645,0.184c-0.794-0.418-1.134-1.085-0.777-1.514c0.348-0.417,0.889-0.58,1.678-0.418
			c0.364,0.075,0.609,0.237,0.716,0.509C260.665,193.469,260.844,193.842,260.698,194.057z M259.863,193.01
			c-0.47-0.056-0.825-0.036-1.071,0.151c-0.231,0.175-0.24,0.412-0.054,0.693c0.155,0.236,0.406,0.402,0.674,0.439
			c0.408,0.056,0.615-0.102,0.758-0.308c0.051-0.074,0.062-0.189,0.025-0.285C260.105,193.472,259.978,193.244,259.863,193.01z"/>
		<path fill-rule="evenodd" clip-rule="evenodd" fill="#FBB03C" d="M225.117,179.117c-0.152,0.482-1.022,0.664-1.812,0.398
			c-0.883-0.297-1.318-0.892-1.191-1.452c0.102-0.45,1.113-0.67,1.818-0.408C224.789,177.973,225.284,178.585,225.117,179.117z
			 M223.375,179.142c0.203,0.01,0.448,0.04,0.674,0.03c0.476-0.02,0.659-0.317,0.448-0.683c-0.218-0.377-0.681-0.608-1.122-0.552
			c-0.332,0.042-0.572,0.162-0.607,0.431C222.729,178.672,222.947,178.917,223.375,179.142z"/>
		<g>
			<path fill-rule="evenodd" clip-rule="evenodd" fill="#FBB03C" d="M246.953,189.9c-0.036,0.119-0.026,0.23-0.095,0.286
				c-0.451,0.373-0.612,0.873-0.768,1.379c-0.1,0.327-0.112,0.324-0.551,0.505c-0.384-0.481-0.173-0.912-0.348-1.361
				c-0.17-0.436-0.376-0.872-0.578-1.333c0.073-0.014,0.163-0.064,0.237-0.041C245.528,189.545,246.246,189.52,246.953,189.9z
				 M246.252,190.031c-0.339-0.09-0.534-0.141-0.732-0.193c-0.068,0.242,0.009,0.435,0.334,0.677
				C245.988,190.351,246.088,190.23,246.252,190.031z"/>
			<path fill-rule="evenodd" clip-rule="evenodd" fill="#FBB03C" d="M237.359,186.646c-0.26,0.144-0.491,0.283-0.738,0.405
				c-0.451,0.223-0.905,0.442-1.373,0.648c-0.147,0.064-0.34,0.131-0.578-0.132c0.156-0.189,0.293-0.415,0.502-0.594
				c0.375-0.322,0.481-0.724,0.357-1.212c-0.013-0.052-0.029-0.104-0.045-0.156c-0.043-0.146,0.001-0.266,0.197-0.261
				c0.113,0.003,0.292,0.076,0.382,0.152C236.475,185.844,236.865,186.204,237.359,186.646z M236.011,186.587
				c0.049,0.028,0.099,0.056,0.148,0.083c0.093-0.047,0.206-0.081,0.274-0.144c0.085-0.079,0.056-0.189-0.12-0.249
				c-0.067-0.023-0.195,0.004-0.224,0.045C236.035,186.396,236.034,186.497,236.011,186.587z"/>
			<path fill-rule="evenodd" clip-rule="evenodd" fill="#FBB03C" d="M245.523,193.876c0.34,0.104,0.513,0.254,0.597,0.448
				c0.265,0.612,0.522,1.224,0.802,1.884c-0.527,0.108-1.087,0.137-1.794-0.101C245.26,195.364,245.387,194.643,245.523,193.876z
				 M245.732,195.77c0.481,0.163,0.563,0.151,0.486-0.053c-0.039-0.101-0.098-0.204-0.166-0.303c-0.024-0.035-0.101-0.06-0.206-0.12
				C245.806,195.461,245.769,195.616,245.732,195.77z"/>
			<path fill-rule="evenodd" clip-rule="evenodd" fill="#FBB03C" d="M232.778,190.74c-0.372-0.245-0.919-0.253-1.343-0.628
				c0.092-0.074,0.151-0.147,0.242-0.191c0.547-0.269,1.096-0.536,1.653-0.795c0.225-0.104,0.242-0.092,0.732,0.214
				c-0.349,0.453-0.698,0.909-1.055,1.359C232.983,190.73,232.888,190.723,232.778,190.74z M232.753,189.872
				c-0.119,0.074-0.228,0.133-0.318,0.205c-0.019,0.015,0.023,0.099,0.061,0.119c0.051,0.027,0.163,0.046,0.183,0.027
				C232.76,190.146,232.92,190.092,232.753,189.872z"/>
		</g>
		<path fill-rule="evenodd" clip-rule="evenodd" fill="#ED2224" d="M227.992,189.869c0.049-0.188,0.361-0.304,0.673-0.247
			c0.034,0.006,0.07,0.018,0.102,0.032c0.176,0.077,0.262,0.32,0.173,0.484c-0.09,0.165-0.308,0.209-0.564,0.114
			C228.17,190.176,227.965,189.971,227.992,189.869z"/>
		<path fill-rule="evenodd" clip-rule="evenodd" fill="#ED2224" d="M247.636,197.186c0.034,0.06,0.131,0.163,0.127,0.242
			c-0.008,0.166-0.31,0.222-0.528,0.12c-0.151-0.071-0.238-0.242-0.172-0.334C247.141,197.105,247.387,197.079,247.636,197.186z"/>
		<path fill-rule="evenodd" clip-rule="evenodd" fill="#CB4427" d="M233.871,194.607c-0.149-0.398-0.162-0.731-0.102-1.031
			c0.113-0.567,0.136-1.162,0.4-1.686c0.217-0.429,0.339-0.898,0.515-1.344c0.211-0.539,0.579-0.995,1.065-1.418
			c0.208,0.091,0.383,0.147,0.527,0.235c0.548,0.338,1.09,0.684,1.627,1.034c0.31,0.202,0.365,0.329,0.256,0.559
			c-0.596,1.259-1.196,2.516-1.801,3.788C235.652,194.827,234.905,194.791,233.871,194.607z"/>
		<path fill-rule="evenodd" clip-rule="evenodd" fill="#E46528" d="M239.824,199.348c-0.468,0.259-1.03,0.325-1.593,0.315
			c-0.707-0.013-1.418-0.32-2.005-0.73c-0.574-0.4-1.05-0.871-1.431-1.405c0.937-0.556,1.295-1.449,2.122-2.101
			c0.925,0.231,1.766,0.639,2.663,1.057C239.768,197.48,239.533,198.382,239.824,199.348z"/>
		<path fill-rule="evenodd" clip-rule="evenodd" fill="#E46528" d="M238.917,191.038c0.542,0.196,1.127,0.391,1.699,0.619
			c0.426,0.17,0.54,0.321,0.454,0.584c-0.276,0.841-0.564,1.678-0.87,2.508c-0.148,0.4-0.344,0.782-0.53,1.198
			c-0.9-0.187-1.678-0.56-2.518-0.895c-0.004-0.163-0.051-0.322-0.005-0.447c0.436-1.19,0.902-2.369,1.583-3.458
			C238.754,191.109,238.82,191.093,238.917,191.038z"/>
		<path fill-rule="evenodd" clip-rule="evenodd" fill="#E46528" d="M238.071,187.837c1.062-0.353,2.12,0.084,3.13,0.464
			c1.065,0.401,1.742,1.076,2.166,1.923c-0.62,0.396-1.249,0.797-1.924,1.228c-0.698-0.089-1.391-0.456-2.113-0.682
			c-0.279-0.088-0.384-0.293-0.446-0.476C238.612,189.491,238.352,188.688,238.071,187.837z"/>
		<path fill-rule="evenodd" clip-rule="evenodd" fill="#CB4427" d="M241.674,192.219c0.43,0.1,0.813,0.173,1.19,0.284
			c0.309,0.091,0.61,0.227,0.971,0.365c0.096,1.817-0.515,3.36-1.724,4.73c-0.264-0.177-0.475-0.303-0.663-0.446
			c-0.386-0.293-0.76-0.594-1.183-0.926C240.734,194.893,241.2,193.57,241.674,192.219z"/>
		<path fill-rule="evenodd" clip-rule="evenodd" fill="#CB4427" d="M234.481,196.929c-0.387-0.596-0.6-1.173-0.683-1.78
			c0.283-0.017,0.535-0.053,0.801-0.044c0.471,0.016,0.95,0.06,1.505,0.098c-0.025,0.143-0.006,0.248-0.061,0.31
			c-0.407,0.462-0.825,0.919-1.253,1.369C234.75,196.925,234.617,196.911,234.481,196.929z"/>
		<path fill-rule="evenodd" clip-rule="evenodd" fill="#CB4427" d="M240.217,196.857c0.724,0.346,1.18,0.689,1.557,1.137
			c-0.18,0.502-0.701,0.76-1.261,1.094c-0.106-0.187-0.197-0.299-0.228-0.407C240.114,198.081,240.248,197.54,240.217,196.857z"/>
		<path fill-rule="evenodd" clip-rule="evenodd" fill="#CB4427" d="M236.136,188.778c0.481-0.52,0.481-0.52,1.31-0.762
			c0.478,0.661,0.469,1.305,0.82,2.046c-0.304-0.103-0.485-0.131-0.605-0.212C237.141,189.5,236.639,189.134,236.136,188.778z"/>
		<path fill-rule="evenodd" clip-rule="evenodd" fill="#CB4427" d="M243.967,192.293c-0.678-0.107-1.284-0.244-1.955-0.49
			c0.371-0.489,1.025-0.672,1.631-0.989C243.929,191.358,243.977,191.805,243.967,192.293z"/>
		<g>
			<path fill-rule="evenodd" clip-rule="evenodd" fill="#70CDDD" d="M232.172,188.409c-0.41,0.15-0.675,0.439-1.354,0.313
				c0.024-0.708,0.322-1.271,0.669-1.949C232.059,187.421,232.075,187.906,232.172,188.409z"/>
			<path fill-rule="evenodd" clip-rule="evenodd" fill="#70CDDD" d="M231.934,186.304c0.739-0.343,1.357-0.629,1.995-0.925
				c0.332,0.331,0.113,0.519,0.061,0.735c-0.063,0.263-0.303,0.378-0.677,0.359C232.917,186.454,232.514,186.411,231.934,186.304z"
				/>
			<path fill-rule="evenodd" clip-rule="evenodd" fill="#70CDDD" d="M229.043,187.469c-0.219-0.596-0.149-0.781,0.387-0.934
				c0.199-0.057,0.416-0.097,0.637-0.123c0.186-0.021,0.39-0.012,0.606-0.016C230.554,186.838,229.846,187.293,229.043,187.469z"/>
			<path fill-rule="evenodd" clip-rule="evenodd" fill="#70CDDD" d="M232.106,186.77c0.563-0.071,0.563-0.071,1.497,0.106
				c-0.016,0.111,0.013,0.242-0.053,0.318c-0.238,0.272-0.509,0.525-0.82,0.839C232.367,187.559,232.23,187.164,232.106,186.77z"/>
			<path fill-rule="evenodd" clip-rule="evenodd" fill="#70CDDD" d="M231.8,185.775c0.215-0.409,0.391-0.745,0.592-1.127
				c0.335,0.025,0.699,0.081,1.052,0.412C233.136,185.493,232.591,185.685,231.8,185.775z"/>
			<path fill-rule="evenodd" clip-rule="evenodd" fill="#70CDDD" d="M229.896,188.545c-0.447-0.2-0.591-0.358-0.468-0.515
				c0.134-0.171,0.766-0.52,1.169-0.645C230.503,188.084,230.469,188.141,229.896,188.545z"/>
			<path fill-rule="evenodd" clip-rule="evenodd" fill="#70CDDD" d="M230.717,185.019c0.228,0.386,0.184,0.664,0.164,0.953
				c-0.342,0.136-0.731,0.133-1.239,0.093c0.044-0.142,0.034-0.266,0.111-0.33C230.044,185.496,230.364,185.277,230.717,185.019z"/>
			<path fill-rule="evenodd" clip-rule="evenodd" fill="#70CDDD" d="M231.433,185.276c-0.379-0.606-0.368-0.62,0.448-0.609
				C231.921,184.972,231.733,185.147,231.433,185.276z"/>
		</g>
		<g>
			<path fill-rule="evenodd" clip-rule="evenodd" fill="#70CDDD" d="M250.407,196.19c-0.298,0.244-0.54,0.452-1.086,0.106
				c-0.018-0.609,0.085-1.189,0.286-1.756c0.372,0.112,0.336,0.317,0.406,0.469c0.093,0.203,0.118,0.41,0.184,0.615
				C250.256,195.803,250.33,195.983,250.407,196.19z"/>
			<path fill-rule="evenodd" clip-rule="evenodd" fill="#70CDDD" d="M248.082,191.875c0.227-0.214,0.438-0.412,0.694-0.653
				c0.107,0.132,0.199,0.203,0.198,0.252c-0.017,0.469,0.165,0.954,0.3,1.437c0.025,0.087-0.036,0.17-0.071,0.307
				C248.619,192.781,248.342,192.341,248.082,191.875z"/>
			<path fill-rule="evenodd" clip-rule="evenodd" fill="#70CDDD" d="M247.876,194.105c-0.205-0.619-0.102-1.05,0.166-1.498
				c0.173,0.118,0.322,0.196,0.424,0.296c0.211,0.205,0.396,0.421,0.622,0.665C248.805,193.839,248.403,193.963,247.876,194.105z"/>
			<path fill-rule="evenodd" clip-rule="evenodd" fill="#70CDDD" d="M249.185,194.036c-0.149,0.661-0.212,1.197-0.453,1.745
				c-0.537-0.361-0.565-0.71-0.772-1.056C248.213,194.445,248.541,194.231,249.185,194.036z"/>
			<path fill-rule="evenodd" clip-rule="evenodd" fill="#70CDDD" d="M249.799,193.05c-0.369-0.642-0.492-1.106-0.25-1.528
				c0.537,0.108,0.761,0.376,0.934,0.657c0.052,0.085,0.024,0.211-0.036,0.277C250.285,192.635,250.085,192.792,249.799,193.05z"/>
			<path fill-rule="evenodd" clip-rule="evenodd" fill="#70CDDD" d="M251.018,194.268c-0.421-0.24-0.715-0.407-1.022-0.582
				c0.072-0.363,0.411-0.501,0.699-0.787C250.956,193.397,251.138,193.782,251.018,194.268z"/>
			<path fill-rule="evenodd" clip-rule="evenodd" fill="#70CDDD" d="M250.663,195.549c-0.172-0.42-0.445-0.82-0.39-1.218
				c0.41,0.024,0.614,0.234,0.814,0.443C250.991,195.345,250.991,195.345,250.663,195.549z"/>
		</g>
		<path fill-rule="evenodd" clip-rule="evenodd" fill="#FFFFFF" d="M265.284,193.428c0.008,0.046,0.02,0.093,0.022,0.138
			c0,0.007-0.044,0.005-0.067,0.007c0.023-0.049,0.046-0.099,0.072-0.148C265.315,193.424,265.284,193.428,265.284,193.428z"/>
		<g>
			<path fill-rule="evenodd" clip-rule="evenodd" fill="#ED2224" d="M255.237,192.182c0.089,0.037,0.175,0.054,0.209,0.091
				c0.064,0.07,0.128,0.154,0.14,0.226c0.138,0.844,0.274,1.688,0.386,2.528c0.014,0.105-0.117,0.189-0.183,0.288
				c-0.102-0.063-0.191-0.099-0.195-0.124c-0.159-0.946-0.312-1.891-0.455-2.836C255.129,192.291,255.203,192.239,255.237,192.182z"
				/>
			<path fill-rule="evenodd" clip-rule="evenodd" fill="#ED2224" d="M253.787,195.217c-0.086-0.137-0.191-0.26-0.235-0.382
				c-0.127-0.355-0.2-1.791-0.116-2.327c0.313,0.767,0.322,1.413,0.51,2.069C254.008,194.796,254.067,195.052,253.787,195.217z"/>
			<path fill-rule="evenodd" clip-rule="evenodd" fill="#ED2224" d="M229.741,182.941c-0.829,0.53-1.792,0.94-2.743,1.36
				c-0.094,0.041-0.245,0.027-0.471,0.048c0.033-0.142,0.021-0.239,0.074-0.297c0.45-0.493,1.226-0.693,1.927-0.956
				c0.343-0.128,0.73-0.209,1.097-0.312C229.664,182.836,229.703,182.888,229.741,182.941z"/>
			<path fill-rule="evenodd" clip-rule="evenodd" fill="#ED2224" d="M228.281,181.487c-0.181,0.152-0.268,0.273-0.412,0.339
				c-0.714,0.328-1.372,0.715-2.207,0.918c-0.073,0.018-0.26-0.071-0.354-0.14c-0.054-0.04-0.075-0.18-0.03-0.206
				c0.777-0.446,1.555-0.895,2.652-1.001C227.986,181.392,228.066,181.431,228.281,181.487z"/>
		</g>
		<g>
			<path fill-rule="evenodd" clip-rule="evenodd" fill="#70CDDD" d="M259.863,193.01c0.115,0.233,0.242,0.461,0.331,0.69
				c0.037,0.096,0.027,0.21-0.025,0.285c-0.143,0.207-0.35,0.364-0.758,0.308c-0.268-0.037-0.519-0.202-0.674-0.439
				c-0.185-0.281-0.176-0.518,0.054-0.693C259.038,192.975,259.393,192.954,259.863,193.01z"/>
			<path fill-rule="evenodd" clip-rule="evenodd" fill="#70CDDD" d="M223.375,179.142c-0.428-0.225-0.646-0.469-0.606-0.774
				c0.035-0.268,0.275-0.388,0.607-0.431c0.441-0.056,0.904,0.175,1.122,0.552c0.211,0.366,0.028,0.662-0.448,0.683
				C223.822,179.182,223.578,179.152,223.375,179.142z"/>
		</g>
		<path fill-rule="evenodd" clip-rule="evenodd" fill="#FFFFFF" d="M246.252,190.031c-0.164,0.199-0.264,0.32-0.399,0.484
			c-0.325-0.242-0.401-0.435-0.334-0.677C245.718,189.89,245.912,189.942,246.252,190.031z"/>
		<path fill-rule="evenodd" clip-rule="evenodd" fill="#FFFFFF" d="M236.011,186.587c0.023-0.09,0.024-0.191,0.078-0.265
			c0.03-0.041,0.157-0.067,0.224-0.045c0.176,0.06,0.206,0.17,0.12,0.249c-0.068,0.063-0.181,0.097-0.274,0.144
			C236.11,186.643,236.061,186.615,236.011,186.587z"/>
		<path fill-rule="evenodd" clip-rule="evenodd" fill="#FFFFFF" d="M245.732,195.77c0.037-0.154,0.074-0.309,0.114-0.476
			c0.105,0.06,0.182,0.085,0.206,0.12c0.068,0.099,0.128,0.201,0.166,0.303C246.295,195.921,246.213,195.933,245.732,195.77z"/>
		<path fill-rule="evenodd" clip-rule="evenodd" fill="#FFFFFF" d="M232.753,189.872c0.167,0.22,0.007,0.274-0.074,0.351
			c-0.021,0.019-0.132,0-0.183-0.027c-0.038-0.02-0.079-0.104-0.061-0.119C232.524,190.005,232.634,189.946,232.753,189.872z"/>
		<g>
			<path fill-rule="evenodd" clip-rule="evenodd" fill="#FBB03C" d="M265.821,194.4c-0.135,0.051-0.27,0.145-0.445,0.157
				c-0.216,0.015-0.519-0.174-0.6-0.35c-0.07-0.153-0.106-0.309-0.142-0.463c-0.125-0.539-0.247-1.078-0.365-1.616
				c-0.078-0.36,0.22-0.601,0.699-0.577c0.434,0.022,0.808,0.256,0.84,0.573c0.048,0.48,0.048,0.952,0.053,1.424
				C265.864,193.82,265.837,194.087,265.821,194.4z M265.309,193.425c-0.023,0.049-0.046,0.098-0.069,0.148
				c0.023-0.002,0.067-0.001,0.067-0.007c-0.002-0.045-0.014-0.092-0.022-0.138c0.027-0.448,0.132-0.889-0.228-1.409
				c-0.087,0.054-0.17,0.076-0.164,0.107c0.073,0.402,0.156,0.805,0.249,1.208C265.147,193.36,265.255,193.394,265.309,193.425z"/>
			<path fill-rule="evenodd" clip-rule="evenodd" fill="#FBB03C" d="M263.673,194.945c-0.298-0.064-0.472-0.088-0.64-0.141
				c-0.427-0.134-0.542-0.228-0.609-0.544c-0.066-0.307-0.092-0.611-0.134-0.917c-0.052-0.381-0.101-0.762-0.16-1.199
				c0.119-0.061,0.274-0.162,0.46-0.23c0.185-0.068,0.426,0.03,0.526,0.202c0.074,0.127,0.137,0.257,0.177,0.385
				C263.545,193.302,263.636,194.082,263.673,194.945z"/>
			<path fill-rule="evenodd" clip-rule="evenodd" fill="#FBB03C" d="M223.125,175.91c-0.994,0.41-2.165,0.69-3.017,0.715
				c-0.077-0.111-0.168-0.23-0.239-0.351c-0.123-0.208-0.071-0.372,0.16-0.432c0.708-0.182,1.407-0.381,2.156-0.502
				C222.577,175.277,222.934,175.511,223.125,175.91z"/>
			<path fill-rule="evenodd" clip-rule="evenodd" fill="#FBB03C" d="M218.996,174.65c0.513-0.489,1.267-0.524,1.932-0.656
				c0.242-0.048,0.487,0.069,0.652,0.261c0.103,0.12,0.175,0.249,0.265,0.38c-0.214,0.296-0.709,0.262-1.074,0.364
				c-0.37,0.104-0.65,0.334-1.224,0.265C219.379,175.076,219.192,174.869,218.996,174.65z M219.606,174.842
				c0.881-0.123,0.881-0.123,1.255-0.372C220.399,174.446,219.953,174.443,219.606,174.842z"/>
			<path fill-rule="evenodd" clip-rule="evenodd" fill="#FBB03C" d="M265.315,193.424c-0.061-0.03-0.169-0.065-0.175-0.09
				c-0.093-0.404-0.176-0.807-0.249-1.208c-0.006-0.031,0.077-0.053,0.164-0.107c0.36,0.521,0.255,0.961,0.228,1.409
				L265.315,193.424z"/>
			<path fill-rule="evenodd" clip-rule="evenodd" fill="#FBB03C" d="M219.606,174.842c0.347-0.399,0.793-0.396,1.255-0.372
				C220.488,174.719,220.488,174.719,219.606,174.842z"/>
		</g>
	</g>
</g>
</svg>
