<?xml version="1.0" encoding="utf-8"?>
<!-- Generator: Adobe Illustrator 17.0.0, SVG Export Plug-In . SVG Version: 6.00 Build 0)  -->
<!DOCTYPE svg PUBLIC "-//W3C//DTD SVG 1.1//EN" "http://www.w3.org/Graphics/SVG/1.1/DTD/svg11.dtd">
<svg version="1.1" id="Layer_1" xmlns="http://www.w3.org/2000/svg" xmlns:xlink="http://www.w3.org/1999/xlink" x="0px" y="0px"
	 width="415px" height="430px" viewBox="0 0 315 330" enable-background="new 0 0 315 330" xml:space="preserve">
	 
	 <style type="text/css">

@keyframes up{
  from {
    transform: translateY(0px);
  }
  to {
    transform: translateY(-15px);
  }
}
@-webkit-keyframes up {
  from {
    transform: translateY(0px);
  }
  to {
    transform: translateY(-15px);
  }
}

@keyframes up2{
  from {
    transform: translateY(-15px);
  }
  to {
    transform: translateY(0px);
  }
}
@-webkit-keyframes up {
  from {
    transform: translateY(-15px);
  }
  to {
    transform: translateY(0px);
  }
}



.jump {
  animation: up 2s infinite alternate;
  -webkit-animation: up 2s infinite alternate;
  fill:red;
}

.jump2 {
  animation: up 2s infinite alternate;
  -webkit-animation: up 2s infinite alternate;
  fill:blue;
}



</style>
<g>
	<g>
		<g>
			<path fill="#CB2128" d="M157.899,178.613c-0.009-0.001-0.017-0.003-0.026-0.004c-0.008-0.001-0.747-0.131-2.064-0.327
				c-0.002,0-0.004-0.001-0.005-0.001c-0.673-0.104-1.137-0.732-1.036-1.407c0.101-0.676,0.731-1.142,1.407-1.041
				c1.348,0.201,2.095,0.332,2.126,0.338c0.673,0.118,1.123,0.76,1.005,1.433C159.189,178.268,158.563,178.715,157.899,178.613z"/>
		</g>
		<g>
			<path fill="#CB2128" d="M186.762,251.348c-0.367-0.056-0.704-0.276-0.897-0.626c-0.644-1.169-1.404-2.295-2.256-3.348
				c-0.431-0.531-0.349-1.31,0.182-1.741c0.531-0.431,1.311-0.35,1.741,0.182c0.945,1.166,1.787,2.414,2.502,3.711
				c0.33,0.599,0.112,1.352-0.487,1.682C187.298,251.345,187.023,251.388,186.762,251.348z M181.434,244.742
				c-0.228-0.035-0.449-0.134-0.634-0.299c-0.98-0.873-2.07-1.714-3.24-2.498c-0.568-0.381-0.719-1.15-0.339-1.718
				c0.381-0.568,1.151-0.719,1.718-0.339c1.264,0.848,2.444,1.758,3.508,2.706c0.51,0.455,0.556,1.237,0.101,1.748
				C182.258,244.668,181.835,244.804,181.434,244.742z M174.39,239.973c-0.13-0.02-0.26-0.062-0.383-0.126
				c-1.175-0.612-2.443-1.201-3.77-1.75c-0.632-0.262-0.932-0.986-0.67-1.618c0.262-0.632,0.986-0.929,1.618-0.67
				c1.393,0.577,2.728,1.196,3.967,1.842c0.606,0.316,0.842,1.064,0.526,1.67C175.425,239.803,174.9,240.051,174.39,239.973z
				 M166.526,236.688c-0.069-0.011-0.138-0.027-0.206-0.05c-1.273-0.426-2.625-0.837-4.018-1.221
				c-0.659-0.182-1.046-0.863-0.865-1.522c0.182-0.659,0.862-1.044,1.522-0.865c1.436,0.396,2.831,0.82,4.147,1.26
				c0.648,0.217,0.998,0.919,0.781,1.567C167.693,236.437,167.111,236.778,166.526,236.688z M111.82,228.048
				c-0.67-0.103-1.133-0.727-1.037-1.4c0.097-0.677,0.725-1.146,1.402-1.049c1.314,0.189,2.69,0.375,4.209,0.568
				c0.679,0.085,1.158,0.706,1.072,1.384c-0.086,0.678-0.706,1.158-1.384,1.072c-1.532-0.195-2.922-0.383-4.249-0.573
				C111.829,228.049,111.824,228.048,111.82,228.048z M107.604,227.394c-0.005-0.001-0.011-0.002-0.016-0.003
				c-1.483-0.248-2.908-0.509-4.236-0.775c-0.67-0.134-1.105-0.786-0.971-1.457c0.134-0.671,0.774-1.119,1.457-0.971
				c1.303,0.26,2.702,0.516,4.16,0.76c0.674,0.113,1.129,0.751,1.017,1.426C108.901,227.044,108.272,227.497,107.604,227.394z
				 M120.283,229.131c-0.655-0.101-1.118-0.703-1.041-1.366c0.079-0.679,0.694-1.166,1.373-1.087
				c1.401,0.163,2.812,0.321,4.232,0.477c0.669,0.078,1.17,0.686,1.095,1.366c-0.075,0.68-0.687,1.17-1.366,1.095
				c-1.424-0.157-2.841-0.316-4.247-0.479C120.314,229.135,120.298,229.133,120.283,229.131z M99.241,225.705
				c-0.036-0.006-0.071-0.012-0.107-0.021c-1.468-0.359-2.875-0.745-4.184-1.148c-0.653-0.201-1.02-0.894-0.819-1.547
				c0.201-0.653,0.888-1.022,1.547-0.819c1.263,0.388,2.624,0.762,4.045,1.11c0.664,0.162,1.071,0.832,0.908,1.497
				C100.476,225.404,99.868,225.801,99.241,225.705z M128.763,230.071c-0.65-0.1-1.113-0.696-1.041-1.357
				c0.074-0.68,0.684-1.171,1.364-1.097c1.412,0.153,2.829,0.307,4.245,0.464c0.678,0.078,1.169,0.688,1.094,1.367
				c-0.076,0.679-0.688,1.169-1.367,1.094c-1.414-0.157-2.828-0.311-4.239-0.464C128.801,230.077,128.782,230.074,128.763,230.071z
				 M158.306,234.406c-0.03-0.005-0.06-0.01-0.09-0.017c-1.308-0.3-2.699-0.594-4.133-0.872c-0.671-0.13-1.11-0.78-0.98-1.451
				c0.13-0.671,0.77-1.105,1.451-0.98c1.462,0.283,2.881,0.583,4.217,0.89c0.666,0.153,1.082,0.817,0.929,1.484
				C159.553,234.096,158.941,234.504,158.306,234.406z M137.245,231.019c-0.656-0.101-1.119-0.704-1.04-1.368
				c0.08-0.679,0.695-1.165,1.374-1.085c1.421,0.168,2.839,0.341,4.25,0.523c0.676,0.079,1.157,0.708,1.069,1.386
				c-0.087,0.678-0.708,1.157-1.386,1.069c-1.402-0.181-2.811-0.353-4.222-0.519C137.275,231.023,137.26,231.021,137.245,231.019z
				 M149.929,232.771c-0.005-0.001-0.01-0.001-0.014-0.002c-1.385-0.23-2.783-0.445-4.192-0.649
				c-0.004-0.001-0.008-0.001-0.011-0.002c-0.67-0.103-1.134-0.728-1.036-1.401c0.098-0.677,0.726-1.146,1.403-1.048
				c1.426,0.207,2.842,0.425,4.242,0.657c0.674,0.112,1.13,0.749,1.019,1.424C151.227,232.419,150.598,232.874,149.929,232.771z
				 M91.098,223.17c-0.09-0.014-0.181-0.038-0.269-0.074c-1.433-0.569-2.778-1.187-4-1.837c-0.604-0.321-0.832-1.071-0.511-1.674
				c0.321-0.604,1.07-0.833,1.674-0.511c1.141,0.607,2.403,1.186,3.75,1.722c0.636,0.252,0.946,0.972,0.694,1.607
				C92.219,222.949,91.656,223.256,91.098,223.17z M83.617,219.118c-0.195-0.03-0.385-0.107-0.554-0.234
				c-1.253-0.941-2.369-1.971-3.318-3.061c-0.449-0.516-0.395-1.298,0.121-1.747c0.515-0.448,1.297-0.395,1.747,0.121
				c0.834,0.959,1.823,1.869,2.937,2.707c0.547,0.411,0.657,1.187,0.246,1.733C84.512,219.016,84.054,219.185,83.617,219.118z
				 M78.123,212.709c-0.384-0.059-0.734-0.297-0.92-0.671c-0.669-1.341-1.173-2.789-1.497-4.305
				c-0.143-0.669,0.283-1.326,0.951-1.469c0.668-0.144,1.326,0.283,1.469,0.951c0.281,1.312,0.716,2.563,1.292,3.718
				c0.305,0.612,0.057,1.355-0.555,1.661C78.625,212.712,78.367,212.747,78.123,212.709z M76.29,204.469
				c-0.601-0.093-1.057-0.616-1.048-1.242c-0.002-1.5,0.104-2.949,0.316-4.326l0.015-0.094c0.104-0.676,0.736-1.139,1.412-1.035
				c0.676,0.104,1.139,0.736,1.035,1.412l-0.017,0.107c-0.191,1.238-0.287,2.56-0.285,3.915l0,0.057
				c-0.01,0.684-0.572,1.23-1.256,1.219C76.403,204.482,76.346,204.477,76.29,204.469z M77.654,196.103
				c-0.077-0.012-0.155-0.031-0.231-0.059c-0.644-0.231-0.978-0.939-0.748-1.583c0.507-1.413,1.156-2.775,1.931-4.05
				c0.356-0.584,1.118-0.769,1.701-0.415c0.584,0.355,0.77,1.117,0.415,1.701c-0.689,1.133-1.266,2.344-1.717,3.6
				C78.803,195.864,78.228,196.191,77.654,196.103z M82.025,188.887c-0.233-0.036-0.458-0.138-0.645-0.309
				c-0.505-0.461-0.54-1.244-0.079-1.749c0.973-1.065,2.077-2.081,3.282-3.019c0.539-0.42,1.317-0.323,1.738,0.216
				c0.42,0.54,0.323,1.317-0.216,1.738c-1.095,0.853-2.096,1.773-2.975,2.735C82.838,188.816,82.42,188.948,82.025,188.887z
				 M88.693,183.642c-0.358-0.055-0.689-0.267-0.885-0.605c-0.341-0.592-0.139-1.349,0.454-1.691
				c1.22-0.704,2.543-1.369,3.931-1.976c0.626-0.274,1.356,0.011,1.63,0.638c0.274,0.626-0.011,1.356-0.638,1.63
				c-1.305,0.571-2.545,1.195-3.687,1.853C89.245,183.637,88.961,183.683,88.693,183.642z M96.484,180.198
				c-0.443-0.068-0.833-0.375-0.986-0.83c-0.218-0.648,0.131-1.35,0.779-1.568c1.324-0.445,2.73-0.861,4.179-1.235
				c0.663-0.171,1.337,0.227,1.508,0.889c0.171,0.662-0.227,1.337-0.889,1.508c-1.392,0.359-2.741,0.758-4.009,1.185
				C96.872,180.213,96.673,180.227,96.484,180.198z M104.743,178.045c-0.501-0.077-0.923-0.459-1.026-0.985
				c-0.132-0.671,0.305-1.322,0.976-1.453c1.374-0.27,2.811-0.515,4.27-0.728c0.679-0.099,1.305,0.37,1.404,1.046
				c0.099,0.676-0.369,1.305-1.046,1.404c-1.419,0.207-2.816,0.446-4.151,0.708C105.025,178.065,104.881,178.067,104.743,178.045z
				 M113.192,176.8c-0.543-0.084-0.983-0.524-1.042-1.096c-0.071-0.68,0.424-1.289,1.104-1.359c1.396-0.145,2.844-0.268,4.304-0.366
				c0.682-0.047,1.272,0.47,1.318,1.152c0.046,0.682-0.47,1.272-1.152,1.318c-1.43,0.096-2.848,0.217-4.215,0.358
				C113.401,176.819,113.294,176.816,113.192,176.8z M121.714,176.221c-0.576-0.089-1.025-0.576-1.047-1.179
				c-0.025-0.684,0.509-1.257,1.192-1.282c1.395-0.05,2.844-0.081,4.308-0.092c0.685-0.002,1.242,0.545,1.247,1.229
				c0.005,0.684-0.545,1.242-1.229,1.247c-1.441,0.01-2.866,0.041-4.237,0.09C121.869,176.237,121.79,176.232,121.714,176.221z
				 M130.261,176.153c-0.603-0.093-1.059-0.619-1.047-1.245c0.012-0.683,0.576-1.228,1.26-1.215
				c1.402,0.025,2.849,0.068,4.302,0.128c0.684,0.031,1.214,0.605,1.186,1.288c-0.028,0.683-0.605,1.214-1.288,1.186
				c-1.434-0.059-2.861-0.101-4.244-0.126C130.372,176.167,130.315,176.162,130.261,176.153z M138.803,176.503
				c-0.626-0.096-1.086-0.657-1.046-1.301c0.043-0.683,0.631-1.201,1.313-1.158c1.416,0.089,2.859,0.195,4.29,0.315
				c0.682,0.059,1.188,0.655,1.131,1.337c-0.057,0.681-0.655,1.188-1.337,1.131c-1.414-0.118-2.84-0.223-4.239-0.311
				C138.877,176.513,138.84,176.509,138.803,176.503z M147.326,177.216c-0.648-0.1-1.11-0.692-1.042-1.352
				c0.071-0.68,0.68-1.174,1.36-1.103c1.437,0.15,2.875,0.314,4.275,0.489c0.693,0.083,1.16,0.704,1.075,1.382
				c-0.085,0.679-0.704,1.16-1.382,1.075c-1.382-0.173-2.804-0.335-4.224-0.483C147.367,177.222,147.346,177.219,147.326,177.216z"
				/>
		</g>
		<g>
			<path fill="#CB2128" d="M189.087,257.324c-0.478-0.074-0.889-0.426-1.013-0.925c-0.163-0.657-0.354-1.309-0.567-1.939
				c-0.219-0.648,0.129-1.35,0.776-1.569c0.648-0.22,1.35,0.129,1.569,0.776c0.235,0.694,0.444,1.412,0.624,2.134
				c0.165,0.664-0.239,1.335-0.903,1.5C189.41,257.342,189.245,257.348,189.087,257.324z"/>
		</g>
	</g>
	<g>
		<g>
			<path fill="#CB2128" d="M50.776,42.903c-0.484,0-0.944-0.285-1.142-0.76c-0.535-1.277-0.8-1.98-0.811-2.009
				c-0.241-0.64,0.083-1.353,0.722-1.594c0.64-0.242,1.354,0.083,1.595,0.722c0.002,0.007,0.262,0.695,0.778,1.924
				c0.265,0.631-0.032,1.356-0.663,1.62C51.098,42.872,50.936,42.903,50.776,42.903z"/>
		</g>
		<g>
			<path fill="#CB2128" d="M143.931,131.379c-0.092,0-0.185-0.01-0.278-0.032c-1.36-0.312-2.734-0.657-4.082-1.025
				c-0.659-0.18-1.048-0.861-0.868-1.52c0.18-0.659,0.859-1.048,1.52-0.868c1.316,0.359,2.656,0.696,3.983,1
				c0.667,0.153,1.083,0.817,0.93,1.483C145.005,130.991,144.496,131.379,143.931,131.379z M135.911,129.189
				c-0.124,0-0.25-0.019-0.375-0.058c-1.327-0.422-2.668-0.878-3.983-1.355c-0.643-0.233-0.974-0.943-0.741-1.586
				s0.943-0.974,1.586-0.741c1.284,0.466,2.592,0.911,3.888,1.323c0.651,0.207,1.012,0.903,0.805,1.555
				C136.923,128.853,136.436,129.189,135.911,129.189z M128.097,126.353c-0.156,0-0.315-0.03-0.469-0.093
				c-1.288-0.527-2.587-1.089-3.86-1.67c-0.622-0.284-0.896-1.018-0.613-1.64c0.284-0.622,1.019-0.896,1.64-0.613
				c1.244,0.567,2.513,1.116,3.771,1.631c0.632,0.259,0.936,0.982,0.677,1.615C129.047,126.063,128.584,126.353,128.097,126.353z
				 M120.532,122.904c-0.187,0-0.377-0.043-0.556-0.133c-1.241-0.625-2.492-1.285-3.719-1.963c-0.599-0.33-0.816-1.083-0.486-1.682
				c0.331-0.599,1.084-0.816,1.682-0.485c1.2,0.662,2.423,1.308,3.636,1.919c0.611,0.308,0.856,1.052,0.549,1.663
				C121.421,122.655,120.985,122.904,120.532,122.904z M113.252,118.887c-0.217,0-0.437-0.057-0.637-0.177
				c-1.19-0.715-2.388-1.466-3.562-2.23c-0.573-0.373-0.735-1.14-0.362-1.713c0.373-0.573,1.14-0.735,1.713-0.362
				c1.15,0.748,2.323,1.483,3.488,2.183c0.586,0.352,0.775,1.113,0.423,1.699C114.081,118.673,113.672,118.887,113.252,118.887z
				 M106.281,114.351c-0.246,0-0.494-0.073-0.71-0.225c-1.139-0.799-2.282-1.631-3.397-2.47c-0.546-0.411-0.656-1.187-0.245-1.734
				c0.411-0.546,1.188-0.656,1.734-0.245c1.094,0.823,2.214,1.638,3.331,2.422c0.56,0.393,0.695,1.165,0.302,1.724
				C107.054,114.167,106.671,114.351,106.281,114.351z M99.634,109.349c-0.273,0-0.547-0.089-0.775-0.274
				c-1.082-0.871-2.168-1.773-3.229-2.683c-0.519-0.445-0.579-1.227-0.134-1.746c0.445-0.518,1.227-0.58,1.746-0.134
				c1.041,0.893,2.108,1.779,3.169,2.634c0.533,0.429,0.617,1.208,0.188,1.741C100.355,109.192,99.996,109.349,99.634,109.349z
				 M93.319,103.935c-0.298,0-0.596-0.107-0.834-0.323c-1.026-0.935-2.055-1.901-3.06-2.871c-0.492-0.475-0.505-1.259-0.03-1.75
				c0.475-0.492,1.259-0.506,1.751-0.031c0.988,0.954,2,1.903,3.008,2.823c0.505,0.461,0.541,1.244,0.081,1.749
				C93.99,103.799,93.655,103.935,93.319,103.935z M87.334,98.156c-0.321,0-0.642-0.124-0.885-0.372
				c-0.969-0.99-1.942-2.012-2.893-3.037c-0.465-0.501-0.435-1.284,0.066-1.749c0.502-0.465,1.285-0.435,1.749,0.066
				c0.936,1.009,1.894,2.015,2.847,2.989c0.478,0.489,0.47,1.272-0.019,1.751C87.959,98.038,87.646,98.156,87.334,98.156z
				 M81.674,92.055c-0.343,0-0.685-0.142-0.93-0.42c-0.913-1.038-1.831-2.108-2.73-3.182c-0.439-0.524-0.369-1.305,0.155-1.744
				c0.525-0.438,1.305-0.369,1.744,0.155c0.885,1.058,1.79,2.113,2.69,3.135c0.451,0.513,0.402,1.295-0.112,1.747
				C82.256,91.953,81.965,92.055,81.674,92.055z M76.334,85.671c-0.364,0-0.725-0.16-0.97-0.467c-0.864-1.086-1.729-2.2-2.571-3.31
				c-0.413-0.545-0.306-1.321,0.239-1.734c0.545-0.413,1.322-0.306,1.734,0.239c0.83,1.095,1.683,2.194,2.535,3.264
				c0.426,0.535,0.337,1.314-0.198,1.739C76.876,85.583,76.604,85.671,76.334,85.671z M71.306,79.038
				c-0.384,0-0.762-0.178-1.004-0.513c-0.811-1.123-1.624-2.275-2.416-3.424c-0.388-0.563-0.246-1.334,0.317-1.722
				c0.562-0.388,1.334-0.246,1.722,0.317c0.782,1.134,1.584,2.271,2.384,3.379c0.4,0.554,0.276,1.328-0.278,1.728
				C71.81,78.961,71.557,79.038,71.306,79.038z M66.582,72.182c-0.403,0-0.798-0.196-1.036-0.558
				c-0.764-1.162-1.525-2.348-2.264-3.526c-0.363-0.579-0.188-1.343,0.391-1.706c0.579-0.363,1.343-0.188,1.706,0.391
				c0.729,1.163,1.481,2.334,2.235,3.481c0.375,0.571,0.217,1.339-0.354,1.714C67.051,72.116,66.815,72.182,66.582,72.182z
				 M62.157,65.128c-0.421,0-0.831-0.215-1.064-0.603c-0.714-1.193-1.424-2.411-2.113-3.619c-0.339-0.594-0.131-1.35,0.463-1.688
				c0.593-0.338,1.35-0.131,1.688,0.463c0.68,1.193,1.382,2.396,2.087,3.574c0.351,0.587,0.16,1.347-0.427,1.698
				C62.592,65.071,62.373,65.128,62.157,65.128z M58.033,57.891c-0.44,0-0.865-0.235-1.089-0.648
				c-0.664-1.226-1.323-2.473-1.958-3.707c-0.313-0.608-0.074-1.354,0.534-1.667c0.609-0.313,1.355-0.073,1.667,0.535
				c0.627,1.218,1.277,2.45,1.933,3.66c0.326,0.601,0.103,1.352-0.498,1.678C58.435,57.842,58.233,57.891,58.033,57.891z
				 M54.223,50.481c-0.459,0-0.9-0.256-1.114-0.697c-0.623-1.282-1.226-2.56-1.79-3.798c-0.284-0.622-0.009-1.356,0.613-1.64
				c0.623-0.284,1.356-0.009,1.64,0.613c0.556,1.219,1.15,2.478,1.764,3.742c0.299,0.615,0.043,1.356-0.572,1.655
				C54.589,50.44,54.404,50.481,54.223,50.481z"/>
		</g>
		<g>
			<path fill="#CB2128" d="M150.051,132.584c-0.067,0-0.135-0.005-0.203-0.017c-0.709-0.117-1.414-0.241-2.115-0.372
				c-0.672-0.126-1.115-0.772-0.99-1.444c0.125-0.672,0.772-1.115,1.444-0.99c0.684,0.128,1.372,0.249,2.064,0.363
				c0.675,0.111,1.131,0.748,1.02,1.423C151.171,132.154,150.646,132.584,150.051,132.584z"/>
		</g>
	</g>
	
	<!--crown-->
	
	<g class="jump">
		<polyline fill="#CE962C" points="15.76,14.731 26.937,18.086 25.059,31.574 37.509,34.939 47.098,25.868 43.475,16.543 50.546,10 
			58.153,16.543 56.117,26.221 64.343,35.597 76.17,31.288 75.04,18.44 85.455,14.921 80.522,26.398 81.23,35.241 76.101,46.395 
			55.94,48.681 41.481,47.797 24.638,46.395 22.151,41.961 20.04,29.051 19.509,20.032 17.345,16.779 		"/>
		
			<ellipse transform="matrix(-0.9925 -0.122 0.122 -0.9925 161.649 62.8417)" fill="#E46528" cx="82.749" cy="26.471" rx="2.455" ry="5.344"/>
		
			<ellipse transform="matrix(0.9925 -0.122 0.122 0.9925 -3.0922 2.4534)" fill="#E46528" cx="18.482" cy="26.471" rx="2.455" ry="5.344"/>
		<path fill="#FCD235" d="M85.272,15.047l-7.28,5.905l0.825,13.087l-10.493,7.428l-9.432-6.131l2.004-13.794l-10.35-6.249
			l-10.35,6.249l2.004,13.794l-9.432,6.131l-10.493-7.428l0.558-12.824l-7.074-6.484c5.219,6.34,4.865,34.164,4.865,34.164v1.297
			c12.733,7.546,29.921,6.484,29.921,6.484s17.188,1.061,29.921-6.484v-1.297C80.467,48.895,80.32,21.649,85.272,15.047z"/>
		<g>
			<path fill="#EFC01B" d="M52.803,57.341L52.803,57.341c-1.268,0-2.065-0.039-2.257-0.05c-0.191,0.011-0.988,0.05-2.256,0.05
				c-5.06,0-17.921-0.646-28.025-6.634l-0.347-0.206v-1.7c0.003-0.285,0.459-27.816-4.292-34.151l0,0l8.203,5.916l-0.822,13.03
				l9.779,6.922l8.65-5.622l-2.007-13.811l11.117-6.712l11.117,6.712l-2.006,13.811l8.65,5.622l9.779-6.922l-0.822-13.03
				l8.367-5.767l0,0c-4.752,6.336-4.46,33.717-4.456,33.993v1.709l-0.347,0.206C70.724,56.695,57.863,57.341,52.803,57.341z
				 M50.546,55.874l0.044,0.003c0.008,0.001,0.828,0.05,2.212,0.05c4.885,0,17.207-0.613,26.958-6.234v-0.891
				c-0.013-0.993-0.231-21.713,3.071-31.418l-4.112,3.769l0.829,13.143L68.34,42.229l-10.214-6.639l2.002-13.778l-9.582-5.785
				l-9.582,5.785l2.002,13.778l-10.214,6.639l-11.207-7.933l0.829-13.143l-4.112-3.769c3.302,9.706,3.083,30.427,3.071,31.427v0.882
				c9.751,5.621,22.072,6.234,26.957,6.234c1.385,0,2.204-0.049,2.212-0.05L50.546,55.874z"/>
		</g>
		<path fill="#EFC01B" d="M85.455,14.921l-7.257,6.068l0.825,13.087L68.53,41.504l-0.026-0.017
			c-1.934,4.94-5.682,10.199-12.416,15.204c6.091-0.282,16.285-1.543,24.586-6.462v-1.297
			C80.674,48.931,80.503,21.523,85.455,14.921z"/>
		<g>
			<path fill="#E46528" d="M46.938,45.333c-0.224-1.774-1.742-3.151-3.576-3.151c-1.988,0-3.604,1.617-3.604,3.604
				s1.617,3.604,3.604,3.604c0.552,0,1.073-0.128,1.542-0.351c-0.053,0.087-0.109,0.173-0.175,0.254
				c-0.369,0.457-0.895,0.742-1.479,0.804c-0.439,0.046-0.875-0.038-1.262-0.244c-0.426-0.227-0.955-0.065-1.182,0.361
				c-0.227,0.426-0.065,0.955,0.361,1.182c0.572,0.304,1.204,0.461,1.847,0.461c0.139,0,0.279-0.007,0.419-0.022
				c1.048-0.111,1.991-0.623,2.654-1.443c0.474-0.585,0.764-1.277,0.851-2.007C47.142,47.525,46.938,45.333,46.938,45.333z
				 M43.362,47.643c-1.024,0-1.857-0.833-1.857-1.857s0.833-1.857,1.857-1.857s1.857,0.833,1.857,1.857S44.386,47.643,43.362,47.643
				z"/>
			<circle fill="#E46528" cx="48.438" cy="41.804" r="0.904"/>
			<path fill="#E46528" d="M51.138,42.182c-0.548,0-1.066,0.125-1.531,0.346c-0.123,0.065-0.307,0.199-0.433,0.294v0
				c-0.757,0.581-1.64-0.114-1.64-0.114v0.212v0.395v7.668c0,0.483,0.391,0.874,0.874,0.874s0.874-0.391,0.874-0.874V48.87
				c0.543,0.328,1.177,0.521,1.857,0.521c1.988,0,3.604-1.617,3.604-3.604S53.125,42.182,51.138,42.182z M51.138,47.643
				c-1.024,0-1.857-0.833-1.857-1.857s0.833-1.857,1.857-1.857s1.857,0.833,1.857,1.857S52.162,47.643,51.138,47.643z"/>
			<g>
				<path fill="#E46528" d="M59.078,49.216h-3.849c-0.463,0-0.838-0.375-0.838-0.838s0.375-0.838,0.838-0.838h3.849
					c0.287,0,0.52-0.233,0.52-0.52c0-0.287-0.233-0.52-0.52-0.52h-1.901c-1.211,0-2.197-0.985-2.197-2.197
					c0-1.211,0.985-2.197,2.197-2.197h2.647c0.463,0,0.838,0.375,0.838,0.838c0,0.463-0.375,0.838-0.838,0.838h-2.647
					c-0.287,0-0.52,0.233-0.52,0.52c0,0.287,0.233,0.52,0.52,0.52h1.901c1.211,0,2.197,0.986,2.197,2.197
					S60.289,49.216,59.078,49.216z"/>
			</g>
			<circle fill="#E46528" cx="49.981" cy="40.31" r="0.612"/>
			<linearGradient id="SVGID_1_" gradientUnits="userSpaceOnUse" x1="48.0088" y1="41.8045" x2="48.8664" y2="41.8045">
				<stop  offset="0.1989" style="stop-color:#D0EDF7"/>
				<stop  offset="1" style="stop-color:#E9F6F5"/>
			</linearGradient>
			<polygon fill="url(#SVGID_1_)" points="48.866,41.721 48.521,41.721 48.521,41.376 48.354,41.376 48.354,41.721 48.009,41.721 
				48.009,41.888 48.354,41.888 48.354,42.233 48.521,42.233 48.521,41.888 48.866,41.888 			"/>
			<path fill="#CE5327" d="M48.832,40.994c0.147,0.161,0.239,0.373,0.239,0.608c0,0.499-0.405,0.904-0.904,0.904
				c-0.142,0-0.275-0.036-0.394-0.094c0.165,0.181,0.401,0.296,0.665,0.296c0.499,0,0.904-0.405,0.904-0.904
				C49.342,41.447,49.133,41.141,48.832,40.994z"/>
		</g>
		<g>
			<circle fill="#E46528" cx="50.388" cy="28.676" r="6.152"/>
			<linearGradient id="SVGID_2_" gradientUnits="userSpaceOnUse" x1="47.2173" y1="28.676" x2="53.5581" y2="28.676">
				<stop  offset="0.1989" style="stop-color:#D0EDF7"/>
				<stop  offset="1" style="stop-color:#E9F6F5"/>
			</linearGradient>
			<polygon fill="url(#SVGID_2_)" points="53.558,28.06 51.004,28.06 51.004,25.506 49.772,25.506 49.772,28.06 47.217,28.06 
				47.217,29.292 49.772,29.292 49.772,31.846 51.004,31.846 51.004,29.292 53.558,29.292 			"/>
			<path fill="#CE5327" d="M53.472,23.335c1.152,1.118,1.871,2.68,1.871,4.413c0,3.397-2.754,6.152-6.152,6.152
				c-1.126,0-2.177-0.307-3.085-0.835c1.108,1.075,2.616,1.739,4.281,1.739c3.397,0,6.152-2.754,6.152-6.152
				C56.539,26.379,55.304,24.4,53.472,23.335z"/>
		</g>
	</g>
	
	<!--cup-->
	<g class="jump">
		
			<linearGradient id="SVGID_3_" gradientUnits="userSpaceOnUse" x1="-471.1166" y1="-1279.0809" x2="-432.5709" y2="-1279.0809" gradientTransform="matrix(0.9998 -0.0194 0.0194 0.9998 648.5707 1450.9846)">
			<stop  offset="0.1271" style="stop-color:#FEE589"/>
			<stop  offset="0.2031" style="stop-color:#FEE484"/>
			<stop  offset="0.3062" style="stop-color:#FFDF75"/>
			<stop  offset="0.4247" style="stop-color:#FFD85A"/>
			<stop  offset="0.5432" style="stop-color:#FFCF30"/>
			<stop  offset="1" style="stop-color:#FFD23C"/>
		</linearGradient>
		<path fill="url(#SVGID_3_)" d="M191.266,180.216c0.082,4.221-6.749,7.727-19.122,7.967c-12.37,0.24-19.335-2.999-19.417-7.22
			c-0.075-3.841,6.764-7.091,19.134-7.331C184.234,173.393,191.191,176.375,191.266,180.216z"/>
		
			<linearGradient id="SVGID_4_" gradientUnits="userSpaceOnUse" x1="-469.156" y1="-1280.6698" x2="-434.5315" y2="-1280.6698" gradientTransform="matrix(0.9998 -0.0194 0.0194 0.9998 648.5707 1450.9846)">
			<stop  offset="0.1271" style="stop-color:#FEE589"/>
			<stop  offset="0.2031" style="stop-color:#FEE484"/>
			<stop  offset="0.3062" style="stop-color:#FFDF75"/>
			<stop  offset="0.4247" style="stop-color:#FFD85A"/>
			<stop  offset="0.5432" style="stop-color:#FFCF30"/>
			<stop  offset="1" style="stop-color:#FFD23C"/>
		</linearGradient>
		<path fill="url(#SVGID_4_)" d="M189.281,178.983c0.067,3.454-6.074,6.372-17.188,6.588c-11.112,0.216-17.363-2.462-17.43-5.916
			c-0.067-3.45,6.076-6.37,17.188-6.586C182.965,172.853,189.214,175.533,189.281,178.983z"/>
		
			<linearGradient id="SVGID_5_" gradientUnits="userSpaceOnUse" x1="-467.6575" y1="-1281.8444" x2="-436.03" y2="-1281.8444" gradientTransform="matrix(0.9998 -0.0194 0.0194 0.9998 648.5707 1450.9846)">
			<stop  offset="0.1271" style="stop-color:#FEE589"/>
			<stop  offset="0.2031" style="stop-color:#FEE484"/>
			<stop  offset="0.3062" style="stop-color:#FFDF75"/>
			<stop  offset="0.4247" style="stop-color:#FFD85A"/>
			<stop  offset="0.5432" style="stop-color:#FFCF30"/>
			<stop  offset="1" style="stop-color:#FFD23C"/>
		</linearGradient>
		<path fill="url(#SVGID_5_)" d="M187.76,177.838c0.061,3.154-5.548,5.82-15.7,6.017c-10.15,0.197-15.86-2.249-15.922-5.404
			c-0.061-3.152,5.55-5.819,15.7-6.016C181.99,172.239,187.699,174.686,187.76,177.838z"/>
		
			<linearGradient id="SVGID_6_" gradientUnits="userSpaceOnUse" x1="-466.0753" y1="-1282.8385" x2="-437.6123" y2="-1282.8385" gradientTransform="matrix(0.9998 -0.0194 0.0194 0.9998 648.5707 1450.9846)">
			<stop  offset="0.1271" style="stop-color:#FEE589"/>
			<stop  offset="0.2031" style="stop-color:#FEE484"/>
			<stop  offset="0.3062" style="stop-color:#FFDF75"/>
			<stop  offset="0.4247" style="stop-color:#FFD85A"/>
			<stop  offset="0.5432" style="stop-color:#FFCF30"/>
			<stop  offset="1" style="stop-color:#FFD23C"/>
		</linearGradient>
		<path fill="url(#SVGID_6_)" d="M186.159,176.875c0.055,2.839-4.993,5.238-14.129,5.415c-9.135,0.177-14.274-2.024-14.329-4.863
			c-0.051-2.648,4.994-5.237,14.129-5.414C180.967,171.836,186.107,174.227,186.159,176.875z"/>
		
			<linearGradient id="SVGID_7_" gradientUnits="userSpaceOnUse" x1="-460.5094" y1="-1285.4478" x2="-443.1783" y2="-1285.4478" gradientTransform="matrix(0.9998 -0.0194 0.0194 0.9998 648.5707 1450.9846)">
			<stop  offset="0.1271" style="stop-color:#FEE589"/>
			<stop  offset="0.2031" style="stop-color:#FEE484"/>
			<stop  offset="0.3062" style="stop-color:#FFDF75"/>
			<stop  offset="0.4247" style="stop-color:#FFD85A"/>
			<stop  offset="0.5432" style="stop-color:#FFCF30"/>
			<stop  offset="1" style="stop-color:#FFD23C"/>
		</linearGradient>
		<path fill="url(#SVGID_7_)" d="M180.54,174.198c0.034,1.728-3.04,3.189-8.603,3.297c-5.562,0.108-8.691-1.233-8.725-2.961
			c-0.03-1.54,3.048-2.837,8.61-2.944C177.385,171.482,180.51,172.658,180.54,174.198z"/>
		
			<linearGradient id="SVGID_8_" gradientUnits="userSpaceOnUse" x1="-456.9004" y1="-1285.8735" x2="-446.7871" y2="-1285.8735" gradientTransform="matrix(0.9998 -0.0194 0.0194 0.9998 648.5707 1450.9846)">
			<stop  offset="0.1271" style="stop-color:#FEE589"/>
			<stop  offset="0.2031" style="stop-color:#FEE484"/>
			<stop  offset="0.3062" style="stop-color:#FFDF75"/>
			<stop  offset="0.4247" style="stop-color:#FFD85A"/>
			<stop  offset="0.5432" style="stop-color:#FFCF30"/>
			<stop  offset="1" style="stop-color:#FFD23C"/>
		</linearGradient>
		<path fill="url(#SVGID_8_)" d="M176.927,174.019c0.017,0.868-2.233,1.615-5.025,1.669c-2.792,0.054-5.069-0.605-5.086-1.473
			c-0.017-0.867,2.233-1.614,5.025-1.669C174.633,172.492,176.91,173.152,176.927,174.019z"/>
		
			<linearGradient id="SVGID_9_" gradientUnits="userSpaceOnUse" x1="-455.9521" y1="-1286.9126" x2="-447.7354" y2="-1286.9126" gradientTransform="matrix(0.9998 -0.0194 0.0194 0.9998 648.5707 1450.9846)">
			<stop  offset="0.1271" style="stop-color:#FEE589"/>
			<stop  offset="0.2031" style="stop-color:#FEE484"/>
			<stop  offset="0.3062" style="stop-color:#FFDF75"/>
			<stop  offset="0.4247" style="stop-color:#FFD85A"/>
			<stop  offset="0.5432" style="stop-color:#FFCF30"/>
			<stop  offset="1" style="stop-color:#FFD23C"/>
		</linearGradient>
		<path fill="url(#SVGID_9_)" d="M175.959,172.998c0.014,0.705-1.814,1.312-4.083,1.356c-2.268,0.044-4.119-0.491-4.132-1.197
			c-0.014-0.705,1.814-1.312,4.083-1.356C174.095,171.758,175.945,172.294,175.959,172.998z"/>
		<path fill="#FAA61A" d="M175.533,172.327c0.013,0.667-1.539,1.278-3.686,1.32c-2.147,0.042-3.722-0.509-3.735-1.176
			c-0.013-0.667,1.541-1.198,3.688-1.239C173.947,171.19,175.52,171.66,175.533,172.327z"/>
		
			<linearGradient id="SVGID_10_" gradientUnits="userSpaceOnUse" x1="-455.2937" y1="-1293.5083" x2="-448.4239" y2="-1293.5083" gradientTransform="matrix(0.9998 -0.0194 0.0194 0.9998 648.5707 1450.9846)">
			<stop  offset="0.1271" style="stop-color:#FEE589"/>
			<stop  offset="0.2031" style="stop-color:#FEE484"/>
			<stop  offset="0.3062" style="stop-color:#FFDF75"/>
			<stop  offset="0.4247" style="stop-color:#FFD85A"/>
			<stop  offset="0.5432" style="stop-color:#FFCF30"/>
			<stop  offset="1" style="stop-color:#FFD23C"/>
		</linearGradient>
		<path fill="url(#SVGID_10_)" d="M175.228,170.85c-0.04-2.046-1.587-3.238-1.645-6.229c-0.042-2.185,0.353-3.263,0.345-3.663
			c-0.008-0.399-1.056-0.703-2.341-0.678c-1.285,0.025-2.321,0.369-2.313,0.768c0.008,0.399,0.445,1.462,0.487,3.647
			c0.058,2.991-1.442,4.242-1.402,6.288c0.022,1.153,1.572,1.741,3.469,1.704C173.725,172.651,175.251,172.003,175.228,170.85z"/>
		
			<linearGradient id="SVGID_11_" gradientUnits="userSpaceOnUse" x1="-455.2937" y1="-1293.5082" x2="-448.4239" y2="-1293.5082" gradientTransform="matrix(0.9998 -0.0194 0.0194 0.9998 648.5707 1450.9846)">
			<stop  offset="0.1271" style="stop-color:#FEE589"/>
			<stop  offset="0.2031" style="stop-color:#FEE484"/>
			<stop  offset="0.3062" style="stop-color:#FFDF75"/>
			<stop  offset="0.4247" style="stop-color:#FFD85A"/>
			<stop  offset="0.5432" style="stop-color:#FFCF30"/>
			<stop  offset="1" style="stop-color:#FFD23C"/>
		</linearGradient>
		<path fill="url(#SVGID_11_)" d="M175.228,170.85c-0.04-2.046-1.587-3.238-1.645-6.229c-0.042-2.185,0.353-3.263,0.345-3.663
			c-0.008-0.398-1.048-0.7-2.327-0.678c-0.154,0.045-0.24,0.07-0.24,0.07c0.584,3.491,1.7,11.218-2.929,9.786
			c-0.05,0.271-0.079,0.55-0.073,0.847c0.022,1.153,1.572,1.741,3.469,1.704C173.725,172.651,175.251,172.003,175.228,170.85z"/>
		
			<linearGradient id="SVGID_12_" gradientUnits="userSpaceOnUse" x1="-454.8069" y1="-1298.4802" x2="-448.9108" y2="-1298.4802" gradientTransform="matrix(0.9998 -0.0194 0.0194 0.9998 648.5707 1450.9846)">
			<stop  offset="0.1271" style="stop-color:#FEE589"/>
			<stop  offset="0.2031" style="stop-color:#FEE484"/>
			<stop  offset="0.3062" style="stop-color:#FFDF75"/>
			<stop  offset="0.4247" style="stop-color:#FFD85A"/>
			<stop  offset="0.5432" style="stop-color:#FFCF30"/>
			<stop  offset="1" style="stop-color:#FFD23C"/>
		</linearGradient>
		<path fill="url(#SVGID_12_)" d="M174.556,161.315c0.014,0.718-1.217,1.336-2.922,1.369c-1.706,0.033-2.959-0.537-2.973-1.255
			c-0.01-0.53,1.222-1.054,2.928-1.087C173.295,160.309,174.546,160.785,174.556,161.315z"/>
		
			<linearGradient id="SVGID_13_" gradientUnits="userSpaceOnUse" x1="-456.0672" y1="-1300.8364" x2="-447.6501" y2="-1300.8364" gradientTransform="matrix(0.9998 -0.0194 0.0194 0.9998 648.5707 1450.9846)">
			<stop  offset="0.1271" style="stop-color:#FEE589"/>
			<stop  offset="0.2031" style="stop-color:#FEE484"/>
			<stop  offset="0.3062" style="stop-color:#FFDF75"/>
			<stop  offset="0.4247" style="stop-color:#FFD85A"/>
			<stop  offset="0.5432" style="stop-color:#FFCF30"/>
			<stop  offset="1" style="stop-color:#FFD23C"/>
		</linearGradient>
		<path fill="url(#SVGID_13_)" d="M175.774,159.076c0.033,1.7-1.824,3.114-4.148,3.159c-2.324,0.045-4.234-1.296-4.267-2.996
			c-0.033-1.7,1.824-3.115,4.148-3.16C173.83,156.034,175.741,157.376,175.774,159.076z"/>
		<path opacity="0.04" d="M171.506,156.079c-0.035,0.001-0.068,0.004-0.102,0.006c0.867,2.899,0.804,5.067-3.455,4.675
			c0.744,0.909,2.115,1.506,3.676,1.475c2.324-0.045,4.181-1.459,4.148-3.159C175.741,157.376,173.83,156.034,171.506,156.079z"/>
		
			<linearGradient id="SVGID_14_" gradientUnits="userSpaceOnUse" x1="-454.8069" y1="-1303.3262" x2="-448.9108" y2="-1303.3262" gradientTransform="matrix(0.9998 -0.0194 0.0194 0.9998 648.5707 1450.9846)">
			<stop  offset="0.1271" style="stop-color:#FEE589"/>
			<stop  offset="0.2031" style="stop-color:#FEE484"/>
			<stop  offset="0.3062" style="stop-color:#FFDF75"/>
			<stop  offset="0.4247" style="stop-color:#FFD85A"/>
			<stop  offset="0.5432" style="stop-color:#FFCF30"/>
			<stop  offset="1" style="stop-color:#FFD23C"/>
		</linearGradient>
		<path fill="url(#SVGID_14_)" d="M174.466,156.681c0.01,0.53-1.225,0.913-2.93,0.946c-1.706,0.033-2.955-0.302-2.965-0.832
			c-0.01-0.53,1.222-1.054,2.928-1.087C173.205,155.675,174.456,156.151,174.466,156.681z"/>
		
			<linearGradient id="SVGID_15_" gradientUnits="userSpaceOnUse" x1="-455.0824" y1="-1308.7219" x2="-448.6352" y2="-1308.7219" gradientTransform="matrix(0.9998 -0.0194 0.0194 0.9998 648.5707 1450.9846)">
			<stop  offset="0.1271" style="stop-color:#FEE589"/>
			<stop  offset="0.2031" style="stop-color:#FEE484"/>
			<stop  offset="0.3062" style="stop-color:#FFDF75"/>
			<stop  offset="0.4247" style="stop-color:#FFD85A"/>
			<stop  offset="0.5432" style="stop-color:#FFCF30"/>
			<stop  offset="1" style="stop-color:#FFD23C"/>
		</linearGradient>
		<path fill="url(#SVGID_15_)" d="M171.523,156.943c-1.285,0.025-2.333-0.279-2.341-0.678c-0.008-0.399,0.529-1.481,0.486-3.665
			c-0.083-4.258-1.573-6.155-1.588-6.934l6.446-0.125c0.015,0.779-1.401,2.733-1.318,6.991c0.042,2.185,0.621,3.245,0.628,3.644
			C173.844,156.574,172.808,156.918,171.523,156.943z"/>
		
			<linearGradient id="SVGID_16_" gradientUnits="userSpaceOnUse" x1="-454.1861" y1="-1308.7219" x2="-448.6352" y2="-1308.7219" gradientTransform="matrix(0.9998 -0.0194 0.0194 0.9998 648.5707 1450.9846)">
			<stop  offset="0.1271" style="stop-color:#FEE589"/>
			<stop  offset="0.2031" style="stop-color:#FEE484"/>
			<stop  offset="0.3062" style="stop-color:#FFDF75"/>
			<stop  offset="0.4247" style="stop-color:#FFD85A"/>
			<stop  offset="0.5432" style="stop-color:#FFCF30"/>
			<stop  offset="1" style="stop-color:#FFD23C"/>
		</linearGradient>
		<path fill="url(#SVGID_16_)" d="M173.836,156.175c-0.008-0.399-0.586-1.459-0.628-3.644c-0.083-4.258,1.333-6.212,1.318-6.991
			l-3.015,0.058c0.091,4.087,1.716,9.558-2.147,9.822c-0.1,0.41-0.185,0.684-0.182,0.844c0.008,0.399,1.056,0.703,2.341,0.678
			C172.808,156.918,173.844,156.574,173.836,156.175z"/>
		
			<linearGradient id="SVGID_17_" gradientUnits="userSpaceOnUse" x1="-458.6339" y1="-1314.6963" x2="-445.0836" y2="-1314.6963" gradientTransform="matrix(0.9998 -0.0194 0.0194 0.9998 648.5707 1450.9846)">
			<stop  offset="0.1271" style="stop-color:#FEE589"/>
			<stop  offset="0.2031" style="stop-color:#FEE484"/>
			<stop  offset="0.3062" style="stop-color:#FFDF75"/>
			<stop  offset="0.4247" style="stop-color:#FFD85A"/>
			<stop  offset="0.5432" style="stop-color:#FFCF30"/>
			<stop  offset="1" style="stop-color:#FFD23C"/>
		</linearGradient>
		<path fill="url(#SVGID_17_)" d="M178.078,145.521c0.02,1.007-2.991,2.209-6.732,2.281c-3.74,0.073-6.796-1.011-6.816-2.019
			c-0.027-1.382,2.978-2.914,6.719-2.986C174.99,142.725,178.051,144.139,178.078,145.521z"/>
		
			<linearGradient id="SVGID_18_" gradientUnits="userSpaceOnUse" x1="-474.3833" y1="-1331.813" x2="-429.334" y2="-1331.813" gradientTransform="matrix(0.9998 -0.0194 0.0194 0.9998 648.5707 1450.9846)">
			<stop  offset="0.1271" style="stop-color:#FEE589"/>
			<stop  offset="0.2031" style="stop-color:#FEE484"/>
			<stop  offset="0.3062" style="stop-color:#FFDF75"/>
			<stop  offset="0.4247" style="stop-color:#FFD85A"/>
			<stop  offset="0.5432" style="stop-color:#FFCF30"/>
			<stop  offset="1" style="stop-color:#FFD23C"/>
		</linearGradient>
		<path fill="url(#SVGID_18_)" d="M171.324,146.671c12.438-0.241,22.325-10.52,22.084-22.957c0,0-0.158-8.14-0.185-9.522
			c-0.023-1.194-7.171-4.789-22.616-4.489l-0.001,0c-15.445,0.3-22.448,4.169-22.424,5.363c0.027,1.382,0.185,9.522,0.185,9.522
			C148.608,137.025,158.886,146.912,171.324,146.671z"/>
		<path opacity="0.04" d="M193.407,123.713c0,0-0.075-3.858-0.13-6.713c-8.311,3.85-9.018,7.314-12.817,16.119
			c-3.994,9.257-17.792,13.075-28.123,3.811c4.149,6.011,11.138,9.893,18.987,9.741C183.761,146.43,193.649,136.151,193.407,123.713
			z"/>
		<path fill="#CE962C" d="M170.784,118.861c12.079-0.234,21.609-3.063,21.583-4.408c-0.026-1.345-9.669-4.367-21.748-4.133
			s-21.598,3.628-21.572,4.973C149.073,116.638,158.705,119.095,170.784,118.861z"/>
		<g>
			<path fill="#E46528" d="M167.714,130.774c-0.27-1.854-1.889-3.265-3.81-3.228c-2.082,0.04-3.742,1.767-3.702,3.848
				c0.04,2.082,1.767,3.742,3.848,3.702c0.578-0.011,1.122-0.156,1.607-0.399c-0.053,0.093-0.111,0.183-0.178,0.269
				c-0.378,0.486-0.922,0.796-1.533,0.872c-0.458,0.057-0.917-0.022-1.327-0.23c-0.45-0.229-1.002-0.049-1.23,0.402
				s-0.049,1.002,0.402,1.23c0.606,0.307,1.27,0.459,1.944,0.445c0.146-0.003,0.292-0.013,0.438-0.032
				c1.096-0.137,2.073-0.693,2.75-1.565c0.484-0.623,0.774-1.353,0.851-2.119C167.973,133.065,167.714,130.774,167.714,130.774z
				 M164.016,133.266c-1.072,0.021-1.962-0.835-1.983-1.907s0.835-1.962,1.907-1.983c1.072-0.021,1.962,0.835,1.983,1.907
				C165.944,132.356,165.088,133.246,164.016,133.266z"/>
			<circle fill="#E46528" cx="169.213" cy="127.048" r="0.947"/>
			<path fill="#E46528" d="M172.049,127.388c-0.574,0.011-1.114,0.153-1.597,0.393c-0.127,0.071-0.317,0.215-0.448,0.317v0
				c-0.781,0.624-1.72-0.086-1.72-0.086l0.004,0.222l0.008,0.414l0.156,8.031c0.01,0.505,0.427,0.907,0.933,0.897
				c0.505-0.01,0.907-0.427,0.897-0.933l-0.043-2.213c0.576,0.333,1.244,0.522,1.955,0.508c2.082-0.04,3.742-1.767,3.702-3.848
				C175.857,129.009,174.131,127.348,172.049,127.388z M172.16,133.108c-1.072,0.021-1.962-0.835-1.983-1.907
				c-0.021-1.072,0.835-1.962,1.907-1.983c1.072-0.021,1.962,0.835,1.983,1.907C174.088,132.198,173.233,133.088,172.16,133.108z"/>
			<g>
				<path fill="#E46528" d="M180.509,134.594l-4.032,0.078c-0.485,0.009-0.886-0.376-0.895-0.861
					c-0.009-0.485,0.376-0.886,0.861-0.895l4.032-0.078c0.3-0.006,0.54-0.255,0.534-0.555c-0.006-0.3-0.255-0.54-0.555-0.534
					l-1.991,0.039c-1.269,0.025-2.321-0.987-2.345-2.256c-0.025-1.269,0.987-2.321,2.256-2.345l2.773-0.054
					c0.485-0.009,0.886,0.376,0.895,0.861c0.009,0.485-0.376,0.886-0.033,0.616l-2.773,0.054c-1.128,0.285-1.368,0.534-1.362,0.835
					c0.006,0.3,0.255,0.54,0.555,0.534l1.991-0.039c1.269-0.025,2.321,0.988,2.346,2.256S181.777,134.569,180.509,134.594z"/>
			</g>
			
				<linearGradient id="SVGID_19_" gradientUnits="userSpaceOnUse" x1="-452.6123" y1="-1334.5513" x2="-451.3303" y2="-1334.5513" gradientTransform="matrix(0.9998 -0.0194 0.0194 0.9998 648.5707 1450.9846)">
				<stop  offset="0.1636" style="stop-color:#D38328"/>
				<stop  offset="1" style="stop-color:#D38328"/>
			</linearGradient>
			<circle fill="url(#SVGID_19_)" cx="170.799" cy="125.451" r="0.641"/>
			
				<linearGradient id="SVGID_20_" gradientUnits="userSpaceOnUse" x1="-454.0373" y1="-1332.9855" x2="-453.1388" y2="-1332.9855" gradientTransform="matrix(0.9998 -0.0194 0.0194 0.9998 648.5707 1450.9846)">
				<stop  offset="0.1989" style="stop-color:#D0EDF7"/>
				<stop  offset="1" style="stop-color:#E9F6F5"/>
			</linearGradient>
			<polygon fill="url(#SVGID_20_)" points="169.661,126.952 169.299,126.959 169.292,126.597 169.117,126.6 169.124,126.962 
				168.763,126.969 168.766,127.144 169.128,127.137 169.135,127.499 169.309,127.495 169.302,127.133 169.664,127.126 			"/>
			<path fill="#CE5327" d="M169.61,126.191c0.157,0.165,0.258,0.386,0.262,0.632c0.01,0.523-0.406,0.955-0.929,0.965
				c-0.149,0.003-0.288-0.032-0.415-0.09c0.177,0.186,0.426,0.302,0.703,0.297c0.523-0.01,0.939-0.442,0.929-0.965
				C170.153,126.655,169.928,126.339,169.61,126.191z"/>
		</g>
	</g>
	
	
	
	<g >
		<path fill="#CB2128" d="M256.542,314.536c-0.771,0-1.402-0.619-1.414-1.393c-0.012-0.781,0.611-1.424,1.392-1.437
			c1.363-0.021,2.73-0.124,4.061-0.305c0.774-0.104,1.487,0.438,1.592,1.212c0.105,0.774-0.437,1.487-1.212,1.592
			c-1.442,0.196-2.922,0.307-4.398,0.33C256.557,314.536,256.55,314.536,256.542,314.536z M252.308,314.361
			c-0.046,0-0.092-0.002-0.138-0.007c-1.427-0.138-2.885-0.357-4.335-0.649c-0.766-0.154-1.262-0.9-1.107-1.666
			c0.154-0.766,0.899-1.262,1.666-1.107c1.356,0.273,2.718,0.477,4.049,0.606c0.778,0.075,1.347,0.767,1.272,1.545
			C253.644,313.814,253.028,314.361,252.308,314.361z M264.93,313.392c-0.627,0-1.2-0.42-1.367-1.055
			c-0.199-0.756,0.252-1.529,1.008-1.728c1.301-0.343,2.602-0.771,3.867-1.272c0.728-0.287,1.549,0.068,1.837,0.794
			c0.288,0.726-0.068,1.549-0.794,1.837c-1.37,0.543-2.78,1.007-4.19,1.378C265.17,313.377,265.049,313.392,264.93,313.392z
			 M244,312.703c-0.134,0-0.271-0.019-0.406-0.06c-1.36-0.407-2.747-0.885-4.122-1.42c-0.728-0.284-1.089-1.104-0.805-1.832
			c0.284-0.728,1.104-1.089,1.832-0.805c1.305,0.508,2.619,0.961,3.907,1.346c0.749,0.224,1.174,1.012,0.95,1.761
			C245.171,312.307,244.609,312.703,244,312.703z M272.807,310.281c-0.505,0-0.994-0.271-1.249-0.748
			c-0.369-0.689-0.108-1.546,0.581-1.915c1.18-0.631,2.359-1.343,3.504-2.118c0.648-0.437,1.527-0.267,1.965,0.379
			c0.438,0.647,0.268,1.527-0.379,1.965c-1.226,0.829-2.49,1.593-3.756,2.269C273.26,310.227,273.032,310.281,272.807,310.281z
			 M236.085,309.636c-0.203,0-0.409-0.044-0.604-0.136c-1.274-0.603-2.571-1.269-3.856-1.98c-0.684-0.378-0.932-1.239-0.554-1.923
			c0.378-0.684,1.239-0.932,1.923-0.554c1.234,0.682,2.479,1.321,3.699,1.899c0.706,0.335,1.008,1.178,0.673,1.884
			C237.123,309.337,236.615,309.636,236.085,309.636z M279.834,305.548c-0.409,0-0.815-0.176-1.095-0.517
			c-0.495-0.604-0.408-1.496,0.197-1.991c1.037-0.851,2.073-1.775,3.08-2.748c0.562-0.543,1.457-0.528,2,0.034
			c0.543,0.562,0.528,1.457-0.034,2c-1.061,1.026-2.155,2.002-3.251,2.901C280.468,305.443,280.15,305.548,279.834,305.548z
			 M228.652,305.541c-0.257,0-0.516-0.07-0.75-0.217c-1.189-0.745-2.4-1.548-3.6-2.385c-0.641-0.447-0.798-1.329-0.351-1.97
			c0.448-0.64,1.329-0.798,1.97-0.351c1.162,0.811,2.334,1.587,3.483,2.308c0.662,0.415,0.862,1.288,0.447,1.95
			C229.583,305.306,229.123,305.541,228.652,305.541z M221.682,300.684c-0.3,0-0.602-0.095-0.859-0.292
			c-1.118-0.856-2.25-1.76-3.365-2.687c-0.601-0.499-0.683-1.392-0.184-1.992c0.499-0.601,1.392-0.683,1.992-0.184
			c1.087,0.903,2.189,1.783,3.277,2.616c0.62,0.475,0.738,1.363,0.263,1.983C222.528,300.493,222.107,300.684,221.682,300.684z
			 M285.94,299.666c-0.337,0-0.675-0.12-0.945-0.362c-0.581-0.522-0.63-1.416-0.108-1.998c0.958-1.067,1.848-2.136,2.645-3.176
			c0.476-0.62,1.364-0.737,1.983-0.262c0.62,0.476,0.737,1.364,0.262,1.984c-0.842,1.098-1.779,2.223-2.785,3.344
			C286.714,299.508,286.328,299.666,285.94,299.666z M215.144,295.254c-0.336,0-0.674-0.119-0.944-0.361
			c-1.053-0.943-2.114-1.927-3.153-2.924c-0.564-0.541-0.582-1.437-0.041-2c0.541-0.564,1.436-0.582,2-0.041
			c1.016,0.975,2.052,1.936,3.081,2.858c0.582,0.521,0.631,1.416,0.11,1.998C215.919,295.096,215.532,295.254,215.144,295.254z
			 M291.075,292.923c-0.255,0-0.512-0.069-0.745-0.213c-0.664-0.412-0.868-1.284-0.456-1.948c0.744-1.199,1.391-2.401,1.922-3.573
			c0.323-0.712,1.162-1.026,1.873-0.705c0.712,0.323,1.027,1.161,0.705,1.873c-0.582,1.283-1.286,2.594-2.095,3.897
			C292.011,292.686,291.549,292.923,291.075,292.923z M209.009,289.369c-0.368,0-0.735-0.143-1.012-0.427
			c-0.998-1.022-1.991-2.074-2.952-3.125c-0.527-0.577-0.487-1.471,0.089-1.999c0.576-0.527,1.471-0.487,1.999,0.089
			c0.94,1.028,1.912,2.057,2.888,3.058c0.546,0.559,0.535,1.455-0.024,2.001C209.722,289.235,209.365,289.369,209.009,289.369z
			 M294.519,285.2c-0.12,0-0.241-0.015-0.361-0.047c-0.756-0.199-1.207-0.973-1.008-1.728c0.345-1.308,0.553-2.619,0.619-3.896
			c0.041-0.78,0.702-1.373,1.486-1.34c0.78,0.041,1.38,0.706,1.34,1.486c-0.076,1.471-0.315,2.975-0.709,4.47
			C295.719,284.78,295.146,285.2,294.519,285.2z M203.272,283.09c-0.4,0-0.797-0.169-1.077-0.497
			c-1.752-2.054-2.711-3.322-2.751-3.375c-0.47-0.624-0.346-1.511,0.278-1.981c0.623-0.47,1.511-0.346,1.981,0.277
			c0.009,0.012,0.953,1.26,2.644,3.243c0.507,0.594,0.436,1.487-0.158,1.994C203.923,282.978,203.597,283.09,203.272,283.09z
			 M294.93,276.807c-0.676,0-1.274-0.486-1.392-1.175c-0.217-1.256-0.578-2.527-1.074-3.777c-0.288-0.726,0.067-1.549,0.793-1.837
			c0.727-0.288,1.549,0.067,1.837,0.793c0.568,1.431,0.983,2.891,1.232,4.34c0.133,0.77-0.384,1.502-1.154,1.634
			C295.091,276.8,295.01,276.807,294.93,276.807z M291.878,268.971c-0.477,0-0.943-0.241-1.209-0.678
			c-0.666-1.092-1.454-2.206-2.342-3.311c-0.489-0.609-0.392-1.5,0.217-1.989c0.61-0.49,1.5-0.392,1.989,0.217
			c0.964,1.2,1.823,2.415,2.552,3.61c0.407,0.667,0.196,1.538-0.471,1.945C292.383,268.904,292.129,268.971,291.878,268.971z
			 M286.61,262.338c-0.368,0-0.736-0.143-1.014-0.428c-0.911-0.935-1.92-1.899-3.001-2.864c-0.583-0.52-0.633-1.415-0.113-1.997
			c0.521-0.583,1.415-0.633,1.997-0.113c1.129,1.009,2.187,2.018,3.144,3.001c0.545,0.56,0.533,1.456-0.027,2.001
			C287.322,262.205,286.966,262.338,286.61,262.338z M280.293,256.66c-0.312,0-0.626-0.103-0.887-0.313
			c-1.031-0.831-2.117-1.673-3.319-2.574c-0.625-0.468-0.752-1.355-0.284-1.981c0.468-0.626,1.356-0.752,1.981-0.284
			c1.229,0.921,2.341,1.783,3.398,2.635c0.608,0.49,0.704,1.381,0.213,1.99C281.115,256.48,280.706,256.66,280.293,256.66z
			 M273.502,251.552c-0.284,0-0.571-0.085-0.82-0.263c-1.015-0.724-2.117-1.497-3.468-2.435c-0.642-0.445-0.801-1.327-0.356-1.969
			c0.445-0.642,1.326-0.801,1.969-0.356c1.361,0.944,2.472,1.725,3.497,2.456c0.636,0.454,0.784,1.337,0.331,1.973
			C274.379,251.346,273.944,251.552,273.502,251.552z M266.522,246.69c-0.277,0-0.557-0.081-0.802-0.25
			c-1.184-0.817-2.355-1.628-3.501-2.435c-0.639-0.45-0.792-1.333-0.343-1.972c0.45-0.639,1.332-0.792,1.972-0.343
			c1.139,0.802,2.303,1.608,3.48,2.421c0.643,0.444,0.804,1.325,0.361,1.968C267.413,246.477,266.971,246.69,266.522,246.69z
			 M259.579,241.781c-0.292,0-0.586-0.09-0.839-0.276c-1.269-0.936-2.388-1.794-3.419-2.622c-0.609-0.489-0.707-1.38-0.218-1.989
			c0.489-0.609,1.38-0.707,1.989-0.218c1.001,0.804,2.089,1.638,3.327,2.552c0.629,0.464,0.763,1.35,0.299,1.978
			C260.441,241.582,260.013,241.781,259.579,241.781z M252.979,236.432c-0.343,0-0.687-0.124-0.96-0.375
			c-1.187-1.096-2.193-2.13-3.075-3.16c-0.508-0.594-0.439-1.487,0.155-1.995c0.593-0.508,1.486-0.438,1.995,0.155
			c0.798,0.933,1.755,1.916,2.845,2.922c0.574,0.53,0.61,1.425,0.079,1.999C253.74,236.279,253.36,236.432,252.979,236.432z
			 M247.578,229.936c-0.499,0-0.983-0.265-1.241-0.733c-0.811-1.476-1.339-2.963-1.567-4.421c-0.121-0.772,0.406-1.496,1.178-1.617
			c0.771-0.122,1.496,0.406,1.617,1.178c0.178,1.133,0.599,2.309,1.252,3.496c0.376,0.685,0.127,1.545-0.558,1.922
			C248.043,229.88,247.809,229.936,247.578,229.936z M246.429,221.778c-0.127,0-0.257-0.017-0.385-0.054
			c-0.752-0.212-1.189-0.994-0.977-1.746c0.269-0.952,0.67-1.916,1.192-2.863c0.377-0.684,1.237-0.933,1.922-0.557
			c0.684,0.377,0.934,1.237,0.557,1.922c-0.418,0.759-0.737,1.522-0.947,2.268C247.614,221.371,247.046,221.778,246.429,221.778z"/>
	</g>
	
	<!--silver-->
	<g class="jump">
		<g>
			<path fill-rule="evenodd" clip-rule="evenodd" fill="#A9DDE1" d="M184.846,264.751c-4.054-1.431-8.086,1.476-7.728,5.784
				c0.033,0.4,0.207,0.859,0.47,1.153c0.607,0.678,1.303,1.277,1.972,1.898c1.469,1.36,3.199,1.328,4.994,0.91
				c0.385-0.09,0.607-0.359,0.772-0.715c0.382-0.831,0.664-1.751,1.22-2.449c0.908-1.142,0.892-2.332,0.649-3.636
				C186.896,266.086,185.794,265.232,184.846,264.751z M198.529,269.528c1.206,0.585,1.204,0.559,2.093,0.492
				c1.317-0.101,2.487-0.614,3.61-1.243c0.772-0.433,1.37-1.078,1.509-1.978c0.177-1.14,0.34-2.295,0.347-3.446
				c0.007-0.988-0.426-1.909-0.988-2.722c-1.013-1.466-3.485-2.21-5.096-1.466c-1.353,0.625-2.447,1.593-3.153,2.953
				c-0.308,0.592-0.341,1.111,0.043,1.712c0.388,0.61,0.75,1.276,0.93,1.967C198.132,266.974,198.286,268.19,198.529,269.528z
				 M176.379,267.391c-0.699-1.353-1.828-1.777-3.069-2.004c-0.479-0.088-0.972-0.099-1.456-0.166
				c-2.59-0.356-5.112,2.169-4.887,4.731c0.172,1.956,1.111,3.432,2.597,4.652c1.106,0.907,2.305,1.06,3.618,0.656
				c0.699-0.215,1.393-0.452,2.072-0.722c0.761-0.304,1.367-0.784,1.624-1.67C175.553,271.173,175.945,269.303,176.379,267.391z
				 M167.45,265.712c-0.54-1.83-1.703-2.643-3.396-2.816c-1.369-0.14-2.68-0.115-3.826,0.824c-2.835,2.322-3.032,4.164-1.913,6.885
				c0.661,1.611,1.867,2.411,3.469,2.609c1.529,0.191,3.005-0.2,4.481-0.809c-0.094-0.793-0.182-1.513-0.264-2.233
				c-0.123-1.064-0.021-2.055,0.684-2.95C167.017,266.801,167.185,266.25,167.45,265.712z M214.395,257.204
				c0.314,0.082,0.601,0.194,0.895,0.222c0.361,0.034,0.73,0.015,1.093-0.009c2.522-0.169,4.022-1.742,3.957-4.292
				c-0.026-1.024-0.322-2.04-0.466-3.062c-0.13-0.929-0.701-1.545-1.42-2.041c-0.501-0.344-1.02-0.713-1.588-0.897
				c-1.379-0.445-2.805-0.466-4.028,0.391c-1.062,0.744-1.811,1.802-2.188,3.083c-0.326,1.103-0.279,1.281,0.712,1.945
				c1.316,0.882,2.233,2.056,2.701,3.574C214.169,256.464,214.274,256.808,214.395,257.204z M156.753,268.348
				c-0.032-1.703,0.534-3.079,1.669-4.218c0.129-0.129,0.203-0.314,0.338-0.435c0.796-0.721,0.681-1.526,0.182-2.323
				c-0.7-1.122-1.688-1.949-2.909-2.433c-1.805-0.715-3.633-0.302-4.808,1.217c-1.335,1.725-1.877,4.015-0.772,6.221
				c0.383,0.766,0.942,1.464,1.728,1.85C153.608,268.929,155.088,269.168,156.753,268.348z M204.554,258.323
				c0.76,1.035,1.38,1.718,1.804,2.505c0.424,0.785,0.652,1.676,1.009,2.634c0.985-0.033,1.966,0.025,2.917-0.12
				c1.449-0.223,2.465-1.068,2.823-2.531c0.203-0.828,0.394-1.687,0.39-2.531c-0.008-1.724-0.628-3.256-1.999-4.347
				c-1.196-0.951-2.645-1.026-3.994-0.48c-1.014,0.412-1.813,1.269-2.34,2.258C204.674,256.633,204.328,257.625,204.554,258.323z
				 M221.041,250.031c1.8-0.046,2.743-1.157,3.173-2.627c0.654-2.238,0.141-4.356-1.164-6.272c-0.388-0.571-0.949-0.968-1.62-1.132
				c-0.649-0.158-1.316-0.249-1.978-0.338c-2.461-0.329-4.361,2.077-4.547,3.886c-0.049,0.474,0.001,0.993,0.156,1.44
				c0.102,0.299,0.44,0.55,0.726,0.741c0.186,0.124,0.474,0.083,0.71,0.142c1.824,0.452,3.165,1.521,4.038,3.18
				C220.704,249.371,220.868,249.692,221.041,250.031z M188.728,265.358c0.365,1.077,0.761,1.974,0.959,2.911
				c0.197,0.931,0.572,1.557,1.54,1.803c1.109,0.281,1.735,1.066,2.042,2.144c0.111,0.391,0.272,0.769,0.431,1.213
				c0.38-0.134,0.665-0.228,0.945-0.336c1.707-0.658,2.621-1.847,2.652-3.735c0.021-1.309-0.18-2.566-0.65-3.762
				c-0.702-1.786-2.203-2.529-4.001-2.746c-0.889-0.108-1.676,0.265-2.397,0.753C189.536,264.087,188.862,264.611,188.728,265.358z
				 M154.798,257.314c0.231-0.906,0.237-1.706-0.166-2.423c-1.008-1.798-2.524-2.948-4.565-3.339
				c-1.255-0.241-2.283,0.176-3.057,1.198c-1.123,1.482-1.496,3.161-1.342,4.995c0.081,0.962,0.432,1.764,1.153,2.407
				c0.735,0.654,1.566,0.899,2.528,0.62C151.782,258.206,151.782,258.206,154.798,257.314z M152.535,251.17
				c0.145-0.205,0.296-0.336,0.344-0.498c0.546-1.842,0.191-3.498-1.022-4.989c-0.93-1.144-2.136-1.655-3.565-1.463
				c-3.574,0.482-4.584,3.1-4.281,6.102c0.081,0.805,0.739,1.247,1.424,1.554c0.597,0.268,1.036-0.104,1.473-0.471
				c1.47-1.235,3.086-1.309,4.796-0.561C151.972,250.96,152.249,251.058,152.535,251.17z M223.782,239.756
				c0.057-0.599,0.178-1.146,0.147-1.685c-0.088-1.499-0.508-2.896-1.662-3.937c-0.879-0.794-1.962-1.257-3.112-1.477
				c-1.189-0.226-2.401-0.07-3.222,0.873c-1.242,1.428-1.496,3.181-1.096,4.996c0.186,0.845,0.943,1.369,1.811,0.831
				c1.26-0.781,2.66-0.938,4.065-0.646C221.699,238.917,222.636,239.356,223.782,239.756z M214.06,234.778
				c0.219-0.383,0.505-0.776,0.682-1.213c0.35-0.868,1.009-1.38,1.847-1.652c1.105-0.356,2.23-0.658,3.4-0.215
				c0.213,0.081,0.464,0.063,0.683,0.089c0.38-0.628,0.291-1.239,0.184-1.836c-0.398-2.22-2.693-3.955-4.81-3.54
				c-2.35,0.46-4.287,1.975-4.612,4.76c-0.113,0.965,0.182,1.798,0.694,2.589C212.561,234.427,213.161,234.76,214.06,234.778z
				 M146.493,243.388c3.044-0.57,3.612-0.736,6.423,1.682c0.673-0.52,0.932-1.217,0.937-2.053c0.008-1.254-0.343-2.409-0.959-3.482
				c-0.176-0.307-0.435-0.59-0.715-0.811c-1.851-1.467-4.295-0.952-5.408,1.138c-0.228,0.429-0.432,0.882-0.559,1.348
				C146.019,241.921,145.917,242.651,146.493,243.388z M217.154,225.03c0.199-0.684-0.063-1.34-0.479-1.968
				c-0.454-0.684-1.041-1.193-1.825-1.471c-1.021-0.362-1.946-0.239-2.68,0.592c-0.401,0.454-0.745,0.966-1.063,1.484
				c-0.817,1.325-0.605,2.534,0.47,3.707c0.992-0.309,1.621-1.174,2.525-1.501C215.066,225.523,216.083,225.318,217.154,225.03z
				 M154.037,239.127c0.745,0.062,1.172-0.165,1.308-0.705c0.116-0.462,0.203-0.97,0.136-1.435
				c-0.244-1.682-1.216-2.909-2.646-3.753c-0.326-0.193-0.838-0.209-1.228-0.132c-1.251,0.246-2.022,1.525-1.752,2.78
				c0.096,0.447,0.305,0.813,0.778,0.918C152.076,237.121,153.145,237.988,154.037,239.127z"/>
			<g>
				<path fill-rule="evenodd" clip-rule="evenodd" fill="#A9DDE1" d="M184.846,264.751c0.947,0.481,2.049,1.334,2.35,2.943
					c0.243,1.304,0.259,2.494-0.649,3.636c-0.556,0.698-0.839,1.618-1.22,2.449c-0.164,0.356-0.387,0.626-0.772,0.715
					c-1.795,0.418-3.525,0.45-4.994-0.91c-0.67-0.62-1.366-1.22-1.972-1.898c-0.263-0.293-0.437-0.753-0.47-1.153
					C176.76,266.227,180.792,263.32,184.846,264.751z"/>
				<path fill-rule="evenodd" clip-rule="evenodd" fill="#CFE7E8" d="M198.529,269.528c-0.244-1.337-0.397-2.554-0.703-3.73
					c-0.18-0.691-0.542-1.358-0.93-1.967c-0.384-0.601-0.351-1.12-0.043-1.712c0.706-1.359,1.8-2.327,3.153-2.953
					c1.611-0.744,4.083,0,5.096,1.466c0.562,0.813,0.995,1.734,0.988,2.722c-0.008,1.15-0.171,2.306-0.347,3.446
					c-0.139,0.9-0.737,1.545-1.509,1.978c-1.123,0.629-2.293,1.142-3.61,1.243C199.734,270.087,199.736,270.113,198.529,269.528z"/>
				<path fill-rule="evenodd" clip-rule="evenodd" fill="#CFE7E8" d="M176.379,267.391c-0.434,1.912-0.827,3.783,0.5,5.477
					c-0.256,0.886-0.863,1.366-1.624,1.67c-0.679,0.271-1.373,0.507-2.072,0.722c-1.313,0.404-2.513,0.251-3.618-0.656
					c-1.486-1.219-2.425-2.696-2.597-4.652c-0.226-2.562,2.297-5.087,4.887-4.731c0.484,0.067,0.977,0.077,1.456,0.166
					C174.551,265.613,175.68,266.038,176.379,267.391z"/>
				<path fill-rule="evenodd" clip-rule="evenodd" fill="#CFE7E8" d="M167.45,265.712c-0.265,0.538-0.433,1.089-0.765,1.51
					c-0.706,0.895-0.807,1.886-0.684,2.95c0.083,0.72,0.17,1.441,0.264,2.233c-1.476,0.609-2.951,1-4.481,0.809
					c-1.602-0.199-2.808-0.999-3.469-2.609c-1.118-2.721-0.922-4.563,1.913-6.885c1.146-0.939,2.457-0.964,3.826-0.824
					C165.747,263.069,166.91,263.882,167.45,265.712z"/>
				<path fill-rule="evenodd" clip-rule="evenodd" fill="#CFE7E8" d="M214.395,257.204c-0.121-0.396-0.226-0.741-0.332-1.086
					c-0.468-1.518-1.385-2.692-2.701-3.574c-0.992-0.663-1.038-0.842-0.712-1.945c0.378-1.28,1.127-2.339,2.188-3.083
					c1.223-0.857,2.649-0.836,4.028-0.391c0.568,0.184,1.087,0.553,1.588,0.897c0.719,0.495,1.289,1.112,1.42,2.041
					c0.144,1.022,0.44,2.038,0.466,3.062c0.065,2.55-1.434,4.122-3.957,4.292c-0.363,0.024-0.733,0.043-1.093,0.009
					C214.995,257.398,214.709,257.286,214.395,257.204z"/>
				<path fill-rule="evenodd" clip-rule="evenodd" fill="#CFE7E8" d="M156.753,268.348c-1.665,0.82-3.145,0.581-4.572-0.121
					c-0.786-0.387-1.345-1.085-1.728-1.85c-1.105-2.206-0.563-4.496,0.772-6.221c1.175-1.519,3.003-1.932,4.808-1.217
					c1.221,0.484,2.21,1.312,2.909,2.433c0.498,0.797,0.614,1.602-0.182,2.323c-0.134,0.121-0.209,0.306-0.338,0.435
					C157.286,265.269,156.721,266.645,156.753,268.348z"/>
				<path fill-rule="evenodd" clip-rule="evenodd" fill="#CFE7E8" d="M204.554,258.323c-0.225-0.698,0.121-1.69,0.611-2.611
					c0.527-0.99,1.325-1.847,2.34-2.258c1.348-0.547,2.797-0.472,3.994,0.48c1.371,1.091,1.991,2.623,1.999,4.347
					c0.003,0.844-0.188,1.704-0.39,2.531c-0.358,1.463-1.375,2.309-2.823,2.531c-0.951,0.145-1.933,0.087-2.917,0.12
					c-0.357-0.958-0.585-1.849-1.009-2.634C205.934,260.04,205.314,259.358,204.554,258.323z"/>
				<path fill-rule="evenodd" clip-rule="evenodd" fill="#A9DDE1" d="M221.041,250.031c-0.173-0.339-0.337-0.66-0.505-0.98
					c-0.874-1.658-2.215-2.728-4.038-3.18c-0.236-0.059-0.524-0.018-0.71-0.142c-0.286-0.19-0.624-0.442-0.726-0.741
					c-0.155-0.447-0.204-0.966-0.156-1.44c0.186-1.809,2.086-4.215,4.547-3.886c0.663,0.089,1.329,0.18,1.978,0.338
					c0.671,0.164,1.231,0.561,1.62,1.132c1.305,1.916,1.818,4.034,1.164,6.272C223.784,248.874,222.841,249.984,221.041,250.031z"/>
				<path fill-rule="evenodd" clip-rule="evenodd" fill="#A9DDE1" d="M188.728,265.358c0.134-0.747,0.808-1.271,1.521-1.754
					c0.721-0.488,1.508-0.861,2.397-0.753c1.798,0.217,3.299,0.96,4.001,2.746c0.469,1.196,0.671,2.453,0.65,3.762
					c-0.031,1.887-0.945,3.077-2.652,3.735c-0.28,0.108-0.565,0.202-0.945,0.336c-0.159-0.445-0.319-0.822-0.431-1.213
					c-0.307-1.078-0.934-1.863-2.042-2.144c-0.968-0.245-1.343-0.872-1.54-1.803C189.489,267.331,189.093,266.435,188.728,265.358z"
					/>
				<path fill-rule="evenodd" clip-rule="evenodd" fill="#A9DDE1" d="M154.798,257.314c-3.015,0.892-3.015,0.892-5.448,3.459
					c-0.961,0.279-1.793,0.033-2.527-0.621c-0.722-0.643-1.072-1.445-1.153-2.407c-0.154-1.834,0.218-3.513,1.342-4.995
					c0.773-1.021,1.802-1.439,3.057-1.198c2.041,0.391,3.558,1.541,4.565,3.339C155.034,255.607,155.028,256.408,154.798,257.314z"
					/>
				<path fill-rule="evenodd" clip-rule="evenodd" fill="#CFE7E8" d="M152.535,251.17c-0.286-0.111-0.564-0.21-0.832-0.327
					c-1.71-0.749-3.326-0.674-4.796,0.561c-0.438,0.368-0.876,0.739-1.473,0.471c-0.684-0.307-1.343-0.749-1.424-1.554
					c-0.304-3.003,0.706-5.621,4.281-6.102c1.429-0.192,2.635,0.319,3.565,1.463c1.213,1.492,1.568,3.148,1.022,4.989
					C152.831,250.833,152.68,250.964,152.535,251.17z"/>
				<path fill-rule="evenodd" clip-rule="evenodd" fill="#CFE7E8" d="M223.782,239.756c-1.146-0.401-2.084-0.84-3.069-1.045
					c-1.405-0.292-2.806-0.136-4.065,0.646c-0.868,0.538-1.625,0.014-1.811-0.831c-0.4-1.815-0.146-3.568,1.096-4.996
					c0.821-0.943,2.033-1.099,3.222-0.873c1.15,0.22,2.233,0.683,3.112,1.477c1.154,1.041,1.574,2.438,1.662,3.937
					C223.961,238.61,223.839,239.157,223.782,239.756z"/>
				<path fill-rule="evenodd" clip-rule="evenodd" fill="#CFE7E8" d="M214.06,234.778c-0.899-0.017-1.499-0.35-1.932-1.018
					c-0.512-0.791-0.807-1.624-0.694-2.589c0.325-2.784,2.262-4.299,4.612-4.76c2.117-0.415,4.412,1.321,4.81,3.54
					c0.107,0.597,0.196,1.208-0.184,1.836c-0.219-0.026-0.47-0.008-0.683-0.089c-1.17-0.442-2.295-0.141-3.4,0.215
					c-0.838,0.271-1.498,0.784-1.847,1.652C214.564,234.002,214.279,234.395,214.06,234.778z"/>
				<path fill-rule="evenodd" clip-rule="evenodd" fill="#CFE7E8" d="M146.493,243.388c-0.576-0.737-0.474-1.467-0.281-2.178
					c0.127-0.466,0.331-0.919,0.559-1.348c1.113-2.09,3.557-2.605,5.408-1.138c0.279,0.221,0.539,0.504,0.715,0.811
					c0.617,1.073,0.967,2.228,0.959,3.482c-0.005,0.836-0.263,1.532-0.937,2.053C150.106,242.652,149.537,242.818,146.493,243.388z"
					/>
				<path fill-rule="evenodd" clip-rule="evenodd" fill="#A9DDE1" d="M217.154,225.03c-1.071,0.288-2.088,0.493-3.053,0.843
					c-0.903,0.327-1.533,1.192-2.525,1.501c-1.074-1.173-1.287-2.382-0.47-3.707c0.319-0.517,0.663-1.03,1.063-1.484
					c0.734-0.831,1.66-0.954,2.68-0.592c0.783,0.277,1.371,0.786,1.825,1.471C217.091,223.69,217.353,224.346,217.154,225.03z"/>
				<path fill-rule="evenodd" clip-rule="evenodd" fill="#A9DDE1" d="M154.037,239.127c-0.892-1.139-1.961-2.007-3.404-2.326
					c-0.474-0.105-0.683-0.471-0.778-0.918c-0.27-1.255,0.5-2.534,1.752-2.78c0.391-0.077,0.902-0.061,1.228,0.132
					c1.429,0.844,2.402,2.071,2.646,3.753c0.068,0.465-0.019,0.973-0.136,1.435C155.209,238.962,154.782,239.189,154.037,239.127z"
					/>
			</g>
		</g>
		<g>
			<circle fill="#E46528" cx="189.533" cy="274.781" r="6.542"/>
			
				<linearGradient id="SVGID_21_" gradientUnits="userSpaceOnUse" x1="489.0719" y1="-1052.7799" x2="495.8153" y2="-1052.7799" gradientTransform="matrix(0.9512 -0.3087 0.3087 0.9512 46.1313 1428.16)">
				<stop  offset="0.1989" style="stop-color:#D0EDF7"/>
				<stop  offset="1" style="stop-color:#E9F6F5"/>
			</linearGradient>
			<polygon fill="url(#SVGID_21_)" points="192.537,273.118 189.953,273.956 189.115,271.372 187.869,271.777 188.707,274.361 
				186.123,275.199 186.528,276.445 189.112,275.607 189.951,278.191 191.196,277.786 190.358,275.202 192.942,274.363 			"/>
			<path fill="#CE5327" d="M190.899,268.365c1.533,0.753,2.773,2.097,3.342,3.85c1.115,3.437-0.767,7.127-4.203,8.242
				c-1.139,0.37-2.303,0.404-3.395,0.168c1.473,0.723,3.217,0.9,4.901,0.354c3.437-1.115,5.319-4.806,4.203-8.242
				C195.001,270.438,193.102,268.842,190.899,268.365z"/>
		</g>
	</g>
	
	<!--ring-->
	
	<g class="jump">
		<path fill="#FCD235" d="M293.037,173.626c-5.194-6.539-13.27-12.131-22.742-15.745c-6.833-2.607-13.891-3.986-20.41-3.986
			c-2.444,0-4.813,0.194-7.04,0.578c-8.329,1.434-14.123,5.388-16.315,11.133c-2.192,5.745-0.505,12.553,4.751,19.172
			c5.193,6.539,13.27,12.131,22.742,15.745c6.834,2.607,13.891,3.986,20.411,3.986c2.444,0,4.813-0.194,7.04-0.578
			c8.329-1.434,14.123-5.388,16.316-11.133C299.98,187.053,298.293,180.244,293.037,173.626z M296.795,192.419
			c-2.632,6.898-10.985,11.016-22.343,11.015c-6.424,0-13.358-1.35-20.051-3.904c-19.099-7.288-31.157-22.336-26.88-33.545
			c2.632-6.897,10.985-11.015,22.343-11.015c6.424,0,13.357,1.35,20.051,3.904C289.014,166.161,301.073,181.21,296.795,192.419z"/>
		<g>
			<path fill-rule="evenodd" clip-rule="evenodd" fill="#FCD235" d="M242.163,211.196c-0.026-0.047,0.01-0.101,0.02-0.172
				c0.282-0.056,0.494,0.152,0.727,0.263c0.425,0.202,0.834,0.291,1.246,0.221c0.618-0.106,0.851-0.597,0.506-1.101
				c-0.038-0.056-0.076-0.115-0.131-0.164c-0.737-0.655-0.988-1.38-1.302-2.099c-0.187-0.43-0.388-0.865-0.654-1.286
				c-0.343-0.545-0.901-0.762-1.578-0.668c-0.646,0.09-1.019,0.532-0.848,1.057c0.068,0.207,0.215,0.417,0.337,0.648
				c-0.628-0.15-0.911-0.492-1.038-0.885c-0.262-0.818,0.439-1.629,1.76-1.288c0.465,0.12,0.926,0.273,1.388,0.415
				c0.538,0.166,0.732,0.149,0.872-0.194c0.211-0.517,0.373-1.053,0.535-1.588c0.106-0.347-0.108-0.668-0.566-0.948
				c-0.102-0.062-0.202-0.127-0.304-0.189c-0.496-0.302-0.861-0.364-1.283-0.198c-0.238,0.094-0.442,0.222-0.68,0.315
				c-0.178,0.07-0.377,0.123-0.582,0.161c-1.142,0.212-2.272-0.486-2.263-1.417c0.002-0.265,0.127-0.516,0.27-0.737
				c0.185-0.288,0.444-0.54,0.696-0.836c-0.417-0.293-0.79-0.556-1.213-0.853c-0.691,0.112-1.41,0.219-2.182-0.339
				c0.061-0.192,0.293-0.043,0.438-0.014c0.441,0.088,0.732-0.004,0.96-0.207c0.235-0.21,0.291-0.451-0.007-0.764
				c-0.301-0.316-0.595-0.635-0.911-0.944c-1.025-1.008-2.084-2.001-2.797-3.119c-0.231-0.363-0.588-0.704-0.873-1.06
				c-1.126-1.403-1.935-2.859-2.742-4.311c-0.488-0.879-0.842-1.774-1.228-2.662c-0.286-0.66-0.519-1.322-0.787-1.983
				c-0.736-1.815-1.158-3.618-1.606-5.417c-0.247-0.992-0.36-1.981-0.468-2.966c-0.199-1.812-0.01-3.531,0.075-5.277
				c0.007-0.158,0.073-0.303,0.182-0.445c0.228,0.39,0.394,0.781,0.463,1.154c0.284,1.54,0.777,3.088,1.4,4.642
				c0.149,0.372,0.29,0.755,0.535,1.114c0.481,0.706,0.807,1.42,1.137,2.138c0.542,1.178,1.079,2.366,1.901,3.507
				c1.121,1.555,2.288,3.107,3.945,4.496c0.552,0.463,1.069,0.948,1.57,1.437c1.461,1.428,3.167,2.701,4.941,3.924
				c2.034,1.402,4.174,2.705,6.389,3.924c0.802,0.442,1.662,0.817,2.513,1.191c1.225,0.538,2.461,1.058,3.702,1.563
				c0.563,0.229,1.149,0.406,1.725,0.606c1.919,0.668,3.843,1.285,5.814,1.649c0.818,0.151,1.641,0.365,2.459,0.575
				c1.058,0.272,2.108,0.464,3.156,0.571c0.309,0.031,0.621,0.066,0.933,0.119c2.718,0.461,5.323,0.522,7.907,0.483
				c1.943-0.03,3.846-0.14,5.734-0.283c2.13-0.162,4.021-0.624,5.689-1.402c1.449-0.677,2.762-1.457,4.014-2.299
				c1.053-0.708,2.15-1.383,3.119-2.155c0.041-0.033,0.12-0.04,0.264-0.085c0.044,0.134,0.098,0.208,0.074,0.241
				c-0.51,0.698-0.878,1.47-1.587,2.063c-0.726,0.608-1.322,1.294-1.8,2.048c-0.158,0.248-0.358,0.481-0.587,0.69
				c-0.961,0.875-1.913,1.757-2.921,2.6c-0.971,0.811-2.143,1.451-3.563,1.878c-0.758,0.228-1.44,0.55-2.136,0.848
				c-1.37,0.587-2.818,1.081-4.337,1.504c-2.195,0.612-4.417,1.188-6.766,1.588c-0.962,0.164-1.979,0.26-3.01,0.296
				c-0.808,0.028-1.673-0.063-2.522-0.142c-0.522-0.049-0.844,0.089-1.101,0.327c-0.251,0.232-0.211,0.454,0.15,0.767
				c0.192,0.167,0.407,0.322,0.662,0.52c-0.657,0.161-1.182-0.104-1.723-0.399c-0.172-0.282-0.343-0.562-0.533-0.873
				c-0.525-0.126-1.003-0.16-1.52-0.139c-0.036,0.196-0.047,0.385-0.107,0.556c-0.18,0.52-1.181,0.684-1.946,0.306
				c-0.153-0.076-0.301-0.246-0.349-0.372c-0.073-0.195-0.059-0.391-0.08-0.578c-0.655-0.283-0.655-0.283-1.655-0.325
				c-0.37,0.339-0.767,0.699-1.159,1.062c-0.289,0.268-0.172,0.606,0.128,0.946c0.283,0.321,0.642,0.618,0.911,0.943
				c0.149,0.18,0.244,0.406,0.246,0.588c0.003,0.213-0.083,0.426-0.426,0.459c-0.242-0.058-0.176-0.181-0.189-0.275
				c-0.054-0.422-0.33-0.799-0.786-1.14c-0.379-0.284-0.731-0.339-1.04-0.166c-0.053,0.03-0.111,0.059-0.143,0.101
				c-0.346,0.461-1.001,0.628-1.667,0.786c-0.133,0.031-0.264,0.067-0.385,0.111c-0.786,0.286-1.05,0.933-0.641,1.655
				c0.091,0.16,0.282,0.317,0.457,0.457c0.197,0.158,0.428,0.297,0.69,0.476c-1.224-0.106-1.691-0.398-1.97-1.192
				c-0.08-0.228-0.148-0.455-0.227-0.697c-0.42-0.172-0.77-0.141-1.12-0.084c-0.922,0.151-1.814-0.145-2.697-0.643
				c-0.81-0.456-1.529-0.963-1.891-1.604c-0.427-0.146-0.565,0.017-0.745,0.117 M245.708,203.581
				c-0.284,0.756-0.54,1.508-0.635,2.316c-0.143,1.218-0.106,2.453,0.532,3.775c0.637,1.32,1.686,2.449,3.367,3.307
				c0.917,0.468,1.819,0.61,2.713,0.493c1.161-0.153,2.067-0.564,2.783-1.159c1.178-0.978,1.934-2.182,2.529-3.464
				c0.325-0.701,0.531-1.448,0.594-2.239c0.025-0.325,0.063-0.647,0.102-0.968c0.131-1.061,0.015-2.149-0.673-3.287
				c-0.435-0.719-1.057-1.354-1.947-1.898c-0.74-0.452-1.548-0.678-2.34-0.982c-0.52-0.199-1.026-0.278-1.494-0.239
				c-1.286,0.106-2.431,0.391-3.221,1.065c-0.98,0.837-1.866,1.724-2.144,2.929C245.847,203.361,245.762,203.472,245.708,203.581z
				 M246.442,198.71c0.038-0.099,0.083-0.196,0.112-0.298c0.058-0.205,0.116-0.41,0.158-0.619c0.097-0.486-0.223-1.014-0.874-1.318
				c-1.255-0.585-2.475-0.788-3.511-0.346c-0.82,0.349-1.334,0.928-1.897,1.473c-0.392,0.38-0.653,0.805-0.751,1.308
				c-0.245,1.259,1.474,2.609,3.219,2.518c0.353-0.019,0.686-0.128,0.96-0.26C245.077,200.58,246.086,199.851,246.442,198.71z
				 M260.94,204.607c-0.406,0.932-0.302,1.968-0.013,3.038c0.187,0.694,0.719,1.321,1.536,1.814c1.026,0.62,1.52,0.561,2.042,0.159
				c0.748-0.577,1.251-1.295,1.134-2.236c-0.098-0.787-0.318-1.594-0.553-2.396c-0.161-0.549-0.68-1.001-1.371-1.344
				c-0.874-0.434-2.009-0.353-2.375,0.183C261.172,204.068,261.071,204.345,260.94,204.607z M270.725,208.306
				c0.037-0.296,0.104-0.503,0.083-0.724c-0.072-0.728-0.158-1.458-0.279-2.193c-0.036-0.218-0.181-0.457-0.326-0.678
				c-0.18-0.274-0.478-0.428-0.768-0.443c-0.299-0.016-0.482,0.121-0.514,0.385c-0.006,0.054-0.013,0.108-0.006,0.164
				c0.12,1.036,0.23,2.071,0.373,3.11c0.03,0.217,0.152,0.455,0.286,0.675c0.133,0.217,0.53,0.319,0.689,0.185
				C270.456,208.623,270.607,208.431,270.725,208.306z M266.787,204.225c0.068,0.536,0.141,0.984,0.176,1.426
				c0.043,0.531,0.012,1.05,0.092,1.585c0.063,0.417,0.233,0.85,0.387,1.277c0.064,0.176,0.399,0.277,0.591,0.209
				c0.444-0.159,0.544-0.492,0.523-0.858c-0.042-0.749-0.093-1.502-0.21-2.263c-0.074-0.479-0.368-0.958-0.851-1.421
				C267.234,204.196,267.021,204.21,266.787,204.225z M237.166,195.99c0.196,0.128,0.367,0.293,0.564,0.357
				c0.438,0.143,0.834,0.14,1.165-0.037c0.884-0.475,1.796-0.926,2.683-1.399c0.394-0.21,0.463-0.522,0.223-0.768
				c-0.277-0.284-0.757-0.353-1.233-0.157c-0.763,0.313-1.514,0.638-2.269,0.959C237.766,195.172,237.415,195.516,237.166,195.99z
				 M281.22,207.172c0.018-0.346,0.048-0.641,0.044-0.943c-0.005-0.523-0.005-1.045-0.058-1.576c-0.035-0.35-0.45-0.609-0.93-0.634
				c-0.53-0.027-0.861,0.24-0.774,0.638c0.13,0.596,0.265,1.192,0.404,1.788c0.04,0.17,0.079,0.343,0.157,0.512
				c0.089,0.195,0.425,0.404,0.664,0.387C280.921,207.332,281.071,207.228,281.22,207.172z M278.843,207.775
				c-0.041-0.955-0.142-1.817-0.421-2.704c-0.044-0.141-0.114-0.286-0.196-0.426c-0.111-0.19-0.378-0.298-0.582-0.223
				c-0.206,0.075-0.377,0.187-0.509,0.255c0.065,0.484,0.12,0.905,0.177,1.327c0.046,0.338,0.076,0.674,0.148,1.014
				c0.075,0.349,0.202,0.453,0.674,0.602C278.321,207.677,278.514,207.704,278.843,207.775z M240.62,193.083
				c-0.134-0.173-0.211-0.378-0.375-0.464c-0.526-0.274-1.104-0.375-1.541-0.201c-0.915,0.364-1.784,0.775-2.656,1.182
				c-0.24,0.112-0.254,0.381-0.1,0.589c0.218,0.295,0.643,0.504,1.006,0.454c0.274-0.038,0.522-0.127,0.762-0.213
				c0.756-0.271,1.357-0.696,2.177-0.91C240.17,193.448,240.35,193.251,240.62,193.083z M275.551,206.792
				c0.162-0.238-0.036-0.65-0.194-1.049c-0.119-0.301-0.389-0.48-0.793-0.563c-0.873-0.179-1.472,0.001-1.857,0.463
				c-0.395,0.475-0.019,1.214,0.859,1.676c0.677,0.356,1.485,0.267,1.82-0.203C275.433,207.05,275.459,206.974,275.551,206.792z
				 M236.18,190.26c0.185-0.589-0.364-1.265-1.311-1.617c-0.78-0.29-1.899-0.047-2.012,0.451c-0.14,0.619,0.341,1.278,1.318,1.606
				C235.049,190.995,236.012,190.794,236.18,190.26z M260.341,202.193c-0.782-0.42-1.576-0.393-2.327-0.626
				c-0.082-0.025-0.181,0.03-0.262,0.045c0.223,0.511,0.452,0.993,0.64,1.475c0.193,0.497-0.04,0.974,0.385,1.506
				c0.486-0.201,0.499-0.197,0.61-0.559c0.172-0.559,0.35-1.113,0.849-1.526C260.313,202.447,260.302,202.324,260.341,202.193z
				 M233.975,186.712c-0.212-0.442-0.607-0.7-1.04-0.631c-0.829,0.134-1.603,0.354-2.386,0.556
				c-0.257,0.066-0.314,0.248-0.178,0.478c0.079,0.134,0.18,0.265,0.265,0.389C231.579,187.476,232.875,187.166,233.975,186.712z
				 M249.726,198.591c-0.547-0.488-0.979-0.887-1.434-1.272c-0.099-0.084-0.297-0.165-0.423-0.168
				c-0.217-0.006-0.266,0.127-0.218,0.288c0.017,0.057,0.035,0.115,0.049,0.172c0.138,0.54,0.02,0.984-0.395,1.341
				c-0.23,0.198-0.383,0.449-0.555,0.657c0.264,0.292,0.478,0.217,0.64,0.147c0.518-0.227,1.02-0.471,1.519-0.717
				C249.183,198.904,249.438,198.751,249.726,198.591z M258.76,206.592c-0.15,0.849-0.292,1.647-0.437,2.468
				c0.781,0.263,1.402,0.232,1.985,0.112c-0.31-0.73-0.594-1.407-0.887-2.084C259.327,206.874,259.136,206.708,258.76,206.592z
				 M244.657,203.123c0.122-0.02,0.226-0.011,0.253-0.045c0.396-0.499,0.781-1.003,1.168-1.504c-0.542-0.339-0.561-0.352-0.81-0.237
				c-0.617,0.286-1.225,0.582-1.83,0.88c-0.1,0.049-0.166,0.13-0.268,0.212C243.64,202.843,244.245,202.852,244.657,203.123z
				 M229.406,185.318c0.217,0.242,0.424,0.472,0.61,0.679c0.634,0.076,0.945-0.179,1.354-0.293c0.404-0.114,0.952-0.076,1.189-0.403
				c-0.099-0.144-0.179-0.287-0.293-0.42c-0.183-0.212-0.454-0.342-0.722-0.288C230.808,184.738,229.974,184.776,229.406,185.318z
				 M239.36,202.158c-0.029,0.113,0.198,0.34,0.425,0.424c0.284,0.106,0.525,0.057,0.624-0.126c0.099-0.182,0.004-0.451-0.191-0.536
				c-0.036-0.016-0.075-0.029-0.113-0.036C239.76,201.822,239.414,201.949,239.36,202.158z M261.097,210.255
				c-0.276-0.118-0.547-0.089-0.633,0.031c-0.073,0.103,0.024,0.292,0.19,0.37c0.241,0.113,0.575,0.051,0.584-0.132
				C261.242,210.435,261.134,210.321,261.097,210.255z"/>
			<path fill-rule="evenodd" clip-rule="evenodd" fill="#821B18" d="M245.708,203.581c0.054-0.109,0.139-0.22,0.168-0.349
				c0.278-1.205,1.164-2.093,2.144-2.929c0.79-0.674,1.935-0.959,3.221-1.065c0.468-0.039,0.975,0.04,1.494,0.239
				c0.791,0.303,1.599,0.53,2.34,0.982c0.89,0.544,1.511,1.178,1.947,1.898c0.688,1.138,0.804,2.226,0.673,3.287
				c-0.039,0.321-0.077,0.643-0.102,0.968c-0.063,0.791-0.268,1.538-0.594,2.239c-0.595,1.282-1.351,2.486-2.529,3.464
				c-0.716,0.594-1.622,1.006-2.783,1.159c-0.894,0.117-1.796-0.025-2.713-0.493c-1.682-0.858-2.73-1.987-3.367-3.307
				c-0.639-1.323-0.675-2.557-0.532-3.775C245.169,205.088,245.424,204.337,245.708,203.581z M245.866,207.401
				c1.144,0.204,1.971,0.244,2.752,0.152c0.67-1.408,1.334-2.799,1.993-4.192c0.121-0.255,0.06-0.396-0.283-0.619
				c-0.595-0.387-1.194-0.769-1.801-1.144c-0.159-0.098-0.353-0.16-0.583-0.26c-0.538,0.468-0.945,0.972-1.179,1.569
				c-0.194,0.494-0.33,1.013-0.57,1.488c-0.293,0.579-0.317,1.238-0.443,1.865C245.687,206.592,245.701,206.96,245.866,207.401z
				 M252.453,212.648c-0.322-1.07-0.061-2.067-0.271-3.169c-0.992-0.463-1.923-0.914-2.946-1.17
				c-0.915,0.722-1.312,1.71-2.348,2.325c0.422,0.591,0.949,1.112,1.584,1.555c0.649,0.453,1.436,0.793,2.219,0.807
				C251.314,213.007,251.935,212.934,252.453,212.648z M251.45,203.452c-0.107,0.061-0.181,0.079-0.207,0.121
				c-0.754,1.205-1.269,2.509-1.752,3.826c-0.051,0.138,0.001,0.314,0.006,0.495c0.929,0.371,1.79,0.783,2.786,0.991
				c0.206-0.46,0.423-0.883,0.586-1.326c0.338-0.919,0.656-1.844,0.962-2.775c0.096-0.291-0.031-0.459-0.502-0.646
				C252.697,203.884,252.05,203.668,251.45,203.452z M250.514,199.91c0.31,0.941,0.598,1.829,0.9,2.718
				c0.069,0.203,0.185,0.43,0.494,0.527c0.798,0.25,1.566,0.656,2.338,0.755c0.747-0.477,1.443-0.921,2.129-1.359
				c-0.469-0.936-1.219-1.683-2.397-2.128C252.86,200.003,251.689,199.52,250.514,199.91z M254.501,204.759
				c-0.525,1.494-1.04,2.959-1.559,4.434c0.467,0.367,0.881,0.701,1.309,1.025c0.208,0.158,0.441,0.298,0.733,0.493
				c1.338-1.516,2.014-3.223,1.908-5.234c-0.399-0.152-0.732-0.303-1.075-0.404C255.401,204.95,254.976,204.87,254.501,204.759z
				 M246.541,209.971c0.151-0.02,0.297-0.005,0.341-0.051c0.473-0.498,0.936-1.003,1.386-1.515c0.06-0.069,0.04-0.184,0.067-0.343
				c-0.613-0.042-1.144-0.091-1.665-0.109c-0.294-0.01-0.573,0.03-0.886,0.048C245.877,208.673,246.113,209.311,246.541,209.971z
				 M252.888,209.891c0.034,0.756-0.114,1.354,0.076,2.019c0.034,0.12,0.134,0.244,0.252,0.451c0.62-0.37,1.196-0.656,1.395-1.211
				C254.194,210.654,253.689,210.274,252.888,209.891z M248.373,200.952c0.556,0.394,1.112,0.799,1.687,1.186
				c0.133,0.089,0.334,0.12,0.67,0.234c-0.388-0.82-0.378-1.533-0.907-2.264C248.905,200.376,248.905,200.376,248.373,200.952z
				 M257.037,204.84c0.011-0.54-0.042-1.034-0.359-1.636c-0.67,0.351-1.394,0.553-1.804,1.094
				C255.617,204.571,256.287,204.722,257.037,204.84z"/>
			<g>
				<path fill-rule="evenodd" clip-rule="evenodd" fill="#1072BA" d="M246.442,198.71c-0.356,1.141-1.365,1.87-2.585,2.458
					c-0.273,0.132-0.607,0.241-0.96,0.26c-1.745,0.091-3.464-1.259-3.219-2.518c0.098-0.502,0.359-0.927,0.751-1.308
					c0.562-0.545,1.077-1.124,1.897-1.473c1.037-0.442,2.256-0.238,3.511,0.346c0.651,0.303,0.971,0.832,0.874,1.318
					c-0.042,0.209-0.1,0.414-0.158,0.619C246.525,198.514,246.48,198.611,246.442,198.71z M243.986,200.543
					c-0.107-0.556-0.125-1.093-0.759-1.81c-0.384,0.75-0.714,1.373-0.74,2.157C243.239,201.029,243.532,200.708,243.986,200.543z
					 M243.723,198.214c0.642,0.119,1.087,0.166,1.525,0.188c0.414,0.021,0.679-0.107,0.749-0.398c0.058-0.24,0.3-0.447-0.068-0.814
					C245.224,197.517,244.541,197.834,243.723,198.214z M240.524,199.503c0.888-0.195,1.671-0.698,1.804-1.186
					c-0.239,0.005-0.465-0.006-0.671,0.017c-0.244,0.029-0.484,0.073-0.704,0.136C240.359,198.638,240.282,198.843,240.524,199.503z
					 M243.913,198.729c0.137,0.436,0.289,0.873,0.691,1.396c0.344-0.347,0.644-0.627,0.907-0.928
					c0.073-0.084,0.041-0.228,0.059-0.352C244.536,198.651,244.536,198.651,243.913,198.729z M243.574,197.629
					c0.875-0.1,1.479-0.313,1.819-0.791c-0.391-0.366-0.794-0.429-1.164-0.456C244.006,196.805,243.812,197.176,243.574,197.629z
					 M241.467,200.693c0.634-0.447,0.672-0.51,0.776-1.284c-0.445,0.138-1.145,0.524-1.293,0.714
					C240.814,200.297,240.972,200.472,241.467,200.693z M242.376,196.791c-0.39,0.286-0.745,0.528-1.067,0.792
					c-0.086,0.07-0.074,0.208-0.123,0.365c0.563,0.044,0.993,0.048,1.371-0.103C242.58,197.526,242.628,197.218,242.376,196.791z
					 M243.168,197.076c0.332-0.143,0.54-0.337,0.496-0.674C242.76,196.39,242.749,196.406,243.168,197.076z"/>
				<path fill-rule="evenodd" clip-rule="evenodd" fill="#1072BA" d="M260.94,204.607c0.131-0.262,0.232-0.539,0.399-0.783
					c0.367-0.535,1.501-0.616,2.375-0.183c0.691,0.343,1.21,0.795,1.371,1.344c0.235,0.802,0.455,1.609,0.553,2.396
					c0.117,0.941-0.387,1.659-1.134,2.236c-0.521,0.402-1.015,0.461-2.042-0.159c-0.817-0.493-1.349-1.12-1.536-1.814
					C260.638,206.574,260.535,205.539,260.94,204.607z M264.164,209.153c-0.085-0.229-0.167-0.428-0.231-0.626
					c-0.073-0.227-0.101-0.456-0.204-0.68c-0.078-0.168-0.038-0.395-0.45-0.519c-0.223,0.628-0.337,1.27-0.317,1.944
					C263.566,209.653,263.834,209.422,264.164,209.153z M261.591,204.378c0.287,0.516,0.594,1.002,1.241,1.486
					c0.038-0.152,0.106-0.243,0.078-0.34c-0.15-0.534-0.35-1.071-0.332-1.59c0.002-0.055-0.101-0.133-0.219-0.279
					C262.076,203.922,261.843,204.141,261.591,204.378z M261.363,206.845c0.583-0.157,1.028-0.294,1.34-0.595
					c-0.25-0.27-0.455-0.509-0.688-0.736c-0.113-0.11-0.278-0.196-0.469-0.327C261.25,205.683,261.137,206.161,261.363,206.845z
					 M262.811,206.769c-0.712,0.217-1.075,0.453-1.355,0.763c0.23,0.383,0.26,0.769,0.854,1.169
					C262.576,208.093,262.646,207.501,262.811,206.769z M263.491,205.678c0.317-0.285,0.538-0.459,0.717-0.657
					c0.067-0.074,0.098-0.212,0.04-0.307c-0.191-0.311-0.439-0.608-1.033-0.727C262.946,204.454,263.083,204.968,263.491,205.678z
					 M264.84,207.025c0.132-0.537-0.069-0.963-0.357-1.514c-0.319,0.316-0.694,0.468-0.774,0.87
					C264.049,206.575,264.375,206.76,264.84,207.025z M264.447,208.444c0.363-0.227,0.363-0.227,0.47-0.857
					c-0.222-0.231-0.447-0.464-0.901-0.49C263.955,207.536,264.257,207.979,264.447,208.444z"/>
			</g>
			<path fill-rule="evenodd" clip-rule="evenodd" fill="#FBB03C" d="M270.725,208.306c-0.119,0.125-0.269,0.317-0.463,0.479
				c-0.16,0.134-0.557,0.032-0.689-0.185c-0.135-0.22-0.257-0.458-0.286-0.675c-0.143-1.039-0.253-2.074-0.373-3.11
				c-0.006-0.056,0-0.11,0.006-0.164c0.032-0.264,0.215-0.401,0.514-0.385c0.29,0.016,0.588,0.169,0.768,0.443
				c0.145,0.221,0.29,0.46,0.326,0.678c0.122,0.735,0.208,1.465,0.279,2.193C270.83,207.803,270.762,208.01,270.725,208.306z
				 M269.508,204.718c-0.038,0.063-0.12,0.121-0.109,0.191c0.159,1.045,0.328,2.091,0.504,3.138
				c0.005,0.028,0.103,0.067,0.216,0.137c0.074-0.109,0.218-0.203,0.203-0.318c-0.124-0.93-0.275-1.863-0.427-2.797
				c-0.013-0.08-0.084-0.173-0.155-0.25C269.703,204.778,269.607,204.759,269.508,204.718z"/>
			<path fill-rule="evenodd" clip-rule="evenodd" fill="#FBB03C" d="M266.787,204.225c0.235-0.015,0.447-0.029,0.708-0.046
				c0.483,0.463,0.778,0.942,0.851,1.421c0.117,0.76,0.168,1.513,0.21,2.263c0.02,0.367-0.079,0.699-0.523,0.858
				c-0.192,0.069-0.528-0.032-0.591-0.209c-0.153-0.426-0.323-0.859-0.387-1.277c-0.081-0.535-0.049-1.054-0.092-1.585
				C266.927,205.209,266.855,204.761,266.787,204.225z M267.903,208.076c0.31-0.183,0.245-0.467,0.176-0.708
				c-0.208-0.727-0.218-1.441-0.564-2.29c-0.092,0.593-0.012,2.182,0.129,2.575C267.692,207.789,267.808,207.924,267.903,208.076z"
				/>
			<path fill-rule="evenodd" clip-rule="evenodd" fill="#FBB03C" d="M237.166,195.99c0.249-0.474,0.6-0.818,1.134-1.044
				c0.755-0.321,1.506-0.646,2.269-0.959c0.476-0.196,0.955-0.127,1.233,0.157c0.24,0.246,0.171,0.558-0.223,0.768
				c-0.887,0.473-1.799,0.924-2.683,1.399c-0.331,0.177-0.726,0.179-1.165,0.037C237.533,196.283,237.362,196.117,237.166,195.99z
				 M241.296,194.492c-0.042-0.058-0.085-0.116-0.128-0.174c-0.406,0.113-0.835,0.203-1.214,0.345
				c-0.776,0.291-1.635,0.512-2.132,1.058c-0.059,0.064-0.045,0.171-0.082,0.329c0.25-0.023,0.417-0.007,0.521-0.053
				C239.313,195.532,240.379,195.078,241.296,194.492z"/>
			<path fill-rule="evenodd" clip-rule="evenodd" fill="#FBB03C" d="M240.62,193.083c-0.27,0.168-0.45,0.364-0.727,0.437
				c-0.82,0.214-1.421,0.639-2.177,0.91c-0.241,0.086-0.488,0.175-0.762,0.213c-0.363,0.05-0.788-0.159-1.006-0.454
				c-0.155-0.209-0.14-0.477,0.1-0.589c0.872-0.407,1.741-0.818,2.656-1.182c0.437-0.174,1.015-0.073,1.541,0.201
				C240.409,192.705,240.485,192.91,240.62,193.083z M239.68,192.883c-0.238-0.062-0.326-0.105-0.389-0.099
				c-1.215,0.117-2.075,0.614-2.935,1.107c-0.05,0.029-0.027,0.184,0.033,0.228c0.104,0.076,0.311,0.174,0.392,0.154
				c0.925-0.225,1.652-0.653,2.442-1.016C239.383,193.185,239.48,193.052,239.68,192.883z"/>
			<path fill-rule="evenodd" clip-rule="evenodd" fill="#FBB03C" d="M275.551,206.792c-0.091,0.182-0.117,0.258-0.164,0.323
				c-0.335,0.47-1.143,0.559-1.82,0.203c-0.879-0.462-1.255-1.201-0.859-1.676c0.385-0.462,0.984-0.642,1.857-0.463
				c0.403,0.083,0.673,0.262,0.793,0.563C275.515,206.142,275.713,206.554,275.551,206.792z M274.627,205.635
				c-0.52-0.062-0.913-0.04-1.186,0.167c-0.255,0.194-0.265,0.455-0.06,0.767c0.172,0.262,0.449,0.445,0.746,0.485
				c0.451,0.062,0.681-0.113,0.839-0.341c0.057-0.082,0.068-0.209,0.027-0.315C274.895,206.145,274.754,205.893,274.627,205.635z"/>
			<path fill-rule="evenodd" clip-rule="evenodd" fill="#FBB03C" d="M236.18,190.26c-0.168,0.533-1.131,0.734-2.005,0.44
				c-0.977-0.328-1.458-0.987-1.318-1.606c0.113-0.498,1.232-0.741,2.012-0.451C235.816,188.995,236.365,189.672,236.18,190.26z
				 M234.252,190.288c0.224,0.011,0.495,0.045,0.746,0.034c0.527-0.023,0.73-0.351,0.496-0.755
				c-0.241-0.417-0.754-0.673-1.242-0.611c-0.368,0.047-0.633,0.179-0.672,0.476C233.537,189.769,233.778,190.039,234.252,190.288z"
				/>
			<g>
				<path fill-rule="evenodd" clip-rule="evenodd" fill="#FBB03C" d="M260.341,202.193c-0.04,0.131-0.029,0.254-0.105,0.317
					c-0.499,0.412-0.677,0.966-0.849,1.526c-0.111,0.362-0.124,0.358-0.61,0.559c-0.425-0.532-0.191-1.009-0.385-1.506
					c-0.188-0.482-0.417-0.965-0.64-1.475c0.081-0.016,0.18-0.07,0.262-0.045C258.765,201.8,259.559,201.772,260.341,202.193z
					 M259.566,202.338c-0.375-0.099-0.591-0.156-0.81-0.213c-0.075,0.267,0.01,0.481,0.369,0.749
					C259.274,202.692,259.384,202.558,259.566,202.338z"/>
				<path fill-rule="evenodd" clip-rule="evenodd" fill="#FBB03C" d="M249.726,198.591c-0.288,0.16-0.543,0.313-0.817,0.448
					c-0.499,0.246-1.001,0.49-1.519,0.717c-0.162,0.071-0.376,0.145-0.64-0.147c0.172-0.209,0.324-0.459,0.555-0.657
					c0.415-0.357,0.533-0.801,0.395-1.341c-0.015-0.057-0.032-0.115-0.049-0.172c-0.047-0.161,0.002-0.294,0.218-0.288
					c0.125,0.003,0.323,0.084,0.423,0.168C248.747,197.705,249.18,198.103,249.726,198.591z M248.234,198.527
					c0.055,0.031,0.109,0.062,0.164,0.092c0.103-0.052,0.228-0.09,0.303-0.159c0.094-0.087,0.062-0.209-0.133-0.275
					c-0.074-0.025-0.215,0.004-0.248,0.049C248.261,198.316,248.26,198.427,248.234,198.527z"/>
				<path fill-rule="evenodd" clip-rule="evenodd" fill="#FBB03C" d="M258.76,206.592c0.377,0.115,0.568,0.281,0.66,0.496
					c0.293,0.677,0.577,1.354,0.887,2.084c-0.583,0.12-1.203,0.152-1.985-0.112C258.468,208.239,258.609,207.441,258.76,206.592z
					 M258.991,208.688c0.532,0.18,0.623,0.167,0.538-0.059c-0.043-0.112-0.109-0.226-0.184-0.335
					c-0.027-0.039-0.111-0.067-0.228-0.133C259.072,208.346,259.032,208.517,258.991,208.688z"/>
				<path fill-rule="evenodd" clip-rule="evenodd" fill="#FBB03C" d="M244.657,203.123c-0.412-0.271-1.017-0.28-1.486-0.695
					c0.102-0.082,0.168-0.162,0.268-0.212c0.605-0.298,1.213-0.593,1.83-0.88c0.249-0.115,0.268-0.102,0.81,0.237
					c-0.386,0.501-0.772,1.005-1.168,1.504C244.883,203.112,244.778,203.103,244.657,203.123z M244.628,202.162
					c-0.131,0.082-0.252,0.147-0.352,0.227c-0.021,0.016,0.025,0.11,0.067,0.131c0.057,0.03,0.18,0.051,0.203,0.03
					C244.637,202.465,244.814,202.405,244.628,202.162z"/>
			</g>
			<path fill-rule="evenodd" clip-rule="evenodd" fill="#ED2224" d="M239.36,202.158c0.054-0.209,0.4-0.336,0.745-0.273
				c0.038,0.007,0.077,0.02,0.113,0.036c0.195,0.085,0.29,0.354,0.191,0.536c-0.099,0.183-0.341,0.232-0.624,0.126
				C239.558,202.498,239.331,202.271,239.36,202.158z"/>
			<path fill-rule="evenodd" clip-rule="evenodd" fill="#ED2224" d="M261.097,210.255c0.037,0.067,0.145,0.18,0.141,0.268
				c-0.008,0.184-0.343,0.246-0.584,0.132c-0.167-0.078-0.264-0.267-0.19-0.37C260.55,210.166,260.822,210.136,261.097,210.255z"/>
			<path fill-rule="evenodd" clip-rule="evenodd" fill="#CB4427" d="M245.866,207.401c-0.164-0.441-0.179-0.809-0.113-1.141
				c0.125-0.628,0.15-1.286,0.443-1.865c0.24-0.474,0.376-0.993,0.57-1.488c0.234-0.597,0.641-1.101,1.179-1.569
				c0.23,0.101,0.424,0.163,0.583,0.26c0.607,0.374,1.206,0.757,1.801,1.144c0.343,0.223,0.404,0.364,0.283,0.619
				c-0.66,1.393-1.323,2.784-1.993,4.192C247.837,207.645,247.01,207.605,245.866,207.401z"/>
			<path fill-rule="evenodd" clip-rule="evenodd" fill="#E46528" d="M252.453,212.648c-0.518,0.287-1.139,0.36-1.763,0.349
				c-0.783-0.014-1.569-0.354-2.219-0.807c-0.635-0.443-1.161-0.964-1.584-1.555c1.037-0.615,1.433-1.603,2.348-2.325
				c1.023,0.256,1.954,0.707,2.946,1.17C252.392,210.58,252.131,211.578,252.453,212.648z"/>
			<path fill-rule="evenodd" clip-rule="evenodd" fill="#E46528" d="M251.45,203.452c0.599,0.216,1.247,0.432,1.88,0.684
				c0.471,0.188,0.597,0.355,0.502,0.646c-0.306,0.93-0.624,1.856-0.962,2.775c-0.163,0.443-0.381,0.866-0.586,1.326
				c-0.996-0.207-1.857-0.62-2.786-0.991c-0.005-0.18-0.057-0.357-0.006-0.495c0.483-1.317,0.998-2.621,1.752-3.826
				C251.269,203.531,251.343,203.512,251.45,203.452z"/>
			<path fill-rule="evenodd" clip-rule="evenodd" fill="#E46528" d="M250.514,199.91c1.175-0.39,2.346,0.093,3.463,0.513
				c1.179,0.444,1.928,1.191,2.397,2.128c-0.686,0.438-1.382,0.882-2.129,1.359c-0.772-0.099-1.54-0.505-2.338-0.755
				c-0.309-0.097-0.425-0.324-0.494-0.527C251.112,201.74,250.824,200.851,250.514,199.91z"/>
			<path fill-rule="evenodd" clip-rule="evenodd" fill="#CB4427" d="M254.501,204.759c0.475,0.111,0.9,0.191,1.317,0.314
				c0.342,0.101,0.675,0.252,1.075,0.404c0.106,2.01-0.57,3.718-1.908,5.234c-0.293-0.195-0.526-0.336-0.733-0.493
				c-0.428-0.324-0.841-0.657-1.309-1.025C253.461,207.718,253.976,206.253,254.501,204.759z"/>
			<path fill-rule="evenodd" clip-rule="evenodd" fill="#CB4427" d="M246.541,209.971c-0.428-0.659-0.664-1.298-0.756-1.969
				c0.314-0.019,0.592-0.059,0.886-0.048c0.521,0.018,1.052,0.067,1.665,0.109c-0.028,0.159-0.007,0.274-0.067,0.343
				c-0.451,0.512-0.913,1.017-1.386,1.515C246.839,209.966,246.692,209.951,246.541,209.971z"/>
			<path fill-rule="evenodd" clip-rule="evenodd" fill="#CB4427" d="M252.888,209.891c0.801,0.383,1.306,0.763,1.723,1.258
				c-0.2,0.555-0.775,0.841-1.395,1.211c-0.118-0.206-0.218-0.33-0.252-0.451C252.774,211.245,252.923,210.647,252.888,209.891z"/>
			<path fill-rule="evenodd" clip-rule="evenodd" fill="#CB4427" d="M248.373,200.952c0.532-0.575,0.532-0.575,1.449-0.843
				c0.529,0.731,0.519,1.444,0.907,2.264c-0.336-0.114-0.537-0.145-0.67-0.234C249.484,201.75,248.929,201.345,248.373,200.952z"/>
			<path fill-rule="evenodd" clip-rule="evenodd" fill="#CB4427" d="M257.037,204.84c-0.75-0.118-1.42-0.27-2.164-0.542
				c0.411-0.541,1.135-0.744,1.804-1.094C256.996,203.806,257.048,204.301,257.037,204.84z"/>
			<g>
				<path fill-rule="evenodd" clip-rule="evenodd" fill="#70CDDD" d="M243.986,200.543c-0.453,0.166-0.747,0.486-1.499,0.347
					c0.026-0.784,0.356-1.406,0.74-2.157C243.861,199.449,243.879,199.986,243.986,200.543z"/>
				<path fill-rule="evenodd" clip-rule="evenodd" fill="#70CDDD" d="M243.723,198.214c0.818-0.379,1.501-0.696,2.207-1.024
					c0.368,0.366,0.125,0.574,0.068,0.814c-0.07,0.291-0.335,0.418-0.749,0.398C244.81,198.38,244.365,198.332,243.723,198.214z"/>
				<path fill-rule="evenodd" clip-rule="evenodd" fill="#70CDDD" d="M240.524,199.503c-0.243-0.66-0.165-0.865,0.428-1.033
					c0.221-0.063,0.46-0.107,0.704-0.136c0.206-0.024,0.431-0.013,0.671-0.017C242.195,198.805,241.413,199.307,240.524,199.503z"/>
				<path fill-rule="evenodd" clip-rule="evenodd" fill="#70CDDD" d="M243.913,198.729c0.623-0.078,0.623-0.078,1.657,0.117
					c-0.017,0.123,0.014,0.268-0.059,0.352c-0.263,0.301-0.563,0.581-0.907,0.928C244.202,199.602,244.05,199.165,243.913,198.729z"
					/>
				<path fill-rule="evenodd" clip-rule="evenodd" fill="#70CDDD" d="M243.574,197.629c0.238-0.453,0.432-0.824,0.655-1.248
					c0.37,0.028,0.773,0.09,1.164,0.456C245.053,197.316,244.449,197.528,243.574,197.629z"/>
				<path fill-rule="evenodd" clip-rule="evenodd" fill="#70CDDD" d="M241.467,200.693c-0.495-0.221-0.654-0.396-0.517-0.57
					c0.149-0.189,0.848-0.575,1.293-0.714C242.139,200.183,242.101,200.247,241.467,200.693z"/>
				<path fill-rule="evenodd" clip-rule="evenodd" fill="#70CDDD" d="M242.376,196.791c0.252,0.427,0.203,0.734,0.181,1.054
					c-0.379,0.151-0.809,0.147-1.371,0.103c0.049-0.157,0.037-0.294,0.123-0.365C241.632,197.319,241.986,197.077,242.376,196.791z"
					/>
				<path fill-rule="evenodd" clip-rule="evenodd" fill="#70CDDD" d="M243.168,197.076c-0.42-0.671-0.408-0.686,0.496-0.674
					C243.708,196.74,243.5,196.933,243.168,197.076z"/>
			</g>
			<g>
				<path fill-rule="evenodd" clip-rule="evenodd" fill="#70CDDD" d="M264.164,209.153c-0.33,0.27-0.598,0.5-1.201,0.117
					c-0.02-0.674,0.094-1.316,0.317-1.944c0.412,0.124,0.372,0.351,0.45,0.519c0.103,0.225,0.131,0.453,0.204,0.68
					C263.996,208.725,264.079,208.924,264.164,209.153z"/>
				<path fill-rule="evenodd" clip-rule="evenodd" fill="#70CDDD" d="M261.591,204.378c0.252-0.237,0.485-0.456,0.768-0.723
					c0.118,0.146,0.22,0.224,0.219,0.279c-0.018,0.519,0.182,1.056,0.332,1.59c0.027,0.097-0.04,0.188-0.078,0.34
					C262.185,205.38,261.879,204.894,261.591,204.378z"/>
				<path fill-rule="evenodd" clip-rule="evenodd" fill="#70CDDD" d="M261.363,206.845c-0.227-0.685-0.113-1.162,0.183-1.658
					c0.191,0.131,0.356,0.217,0.469,0.327c0.233,0.227,0.438,0.466,0.688,0.736C262.391,206.551,261.946,206.688,261.363,206.845z"
					/>
				<path fill-rule="evenodd" clip-rule="evenodd" fill="#70CDDD" d="M262.811,206.769c-0.165,0.732-0.235,1.324-0.501,1.931
					c-0.594-0.4-0.625-0.786-0.854-1.169C261.736,207.222,262.099,206.985,262.811,206.769z"/>
				<path fill-rule="evenodd" clip-rule="evenodd" fill="#70CDDD" d="M263.491,205.678c-0.408-0.71-0.545-1.224-0.276-1.691
					c0.595,0.119,0.843,0.416,1.033,0.727c0.058,0.094,0.027,0.233-0.04,0.307C264.029,205.219,263.808,205.393,263.491,205.678z"/>
				<path fill-rule="evenodd" clip-rule="evenodd" fill="#70CDDD" d="M264.84,207.025c-0.466-0.265-0.792-0.451-1.131-0.644
					c0.08-0.402,0.455-0.554,0.774-0.87C264.771,206.062,264.972,206.489,264.84,207.025z"/>
				<path fill-rule="evenodd" clip-rule="evenodd" fill="#70CDDD" d="M264.447,208.444c-0.19-0.465-0.493-0.908-0.432-1.348
					c0.454,0.027,0.679,0.259,0.901,0.49C264.81,208.217,264.81,208.217,264.447,208.444z"/>
			</g>
			<path fill-rule="evenodd" clip-rule="evenodd" fill="#FFFFFF" d="M280.626,206.096c0.009,0.051,0.022,0.103,0.025,0.153
				c0,0.007-0.048,0.006-0.074,0.008c0.025-0.055,0.05-0.109,0.079-0.164C280.66,206.093,280.626,206.096,280.626,206.096z"/>
			<g>
				<path fill-rule="evenodd" clip-rule="evenodd" fill="#ED2224" d="M269.508,204.718c0.098,0.041,0.194,0.06,0.231,0.1
					c0.071,0.077,0.142,0.17,0.155,0.25c0.153,0.934,0.304,1.867,0.427,2.797c0.015,0.116-0.129,0.209-0.203,0.318
					c-0.113-0.07-0.211-0.109-0.216-0.137c-0.176-1.047-0.345-2.093-0.504-3.138C269.389,204.839,269.47,204.78,269.508,204.718z"/>
				<path fill-rule="evenodd" clip-rule="evenodd" fill="#ED2224" d="M267.903,208.076c-0.096-0.152-0.212-0.288-0.26-0.423
					c-0.141-0.393-0.221-1.982-0.129-2.575c0.347,0.849,0.357,1.563,0.564,2.29C268.148,207.61,268.213,207.894,267.903,208.076z"/>
				<path fill-rule="evenodd" clip-rule="evenodd" fill="#ED2224" d="M241.296,194.492c-0.918,0.586-1.983,1.04-3.035,1.505
					c-0.104,0.046-0.271,0.03-0.521,0.053c0.037-0.157,0.023-0.264,0.082-0.329c0.497-0.546,1.356-0.767,2.132-1.058
					c0.379-0.142,0.808-0.232,1.214-0.345C241.211,194.376,241.254,194.434,241.296,194.492z"/>
				<path fill-rule="evenodd" clip-rule="evenodd" fill="#ED2224" d="M239.68,192.883c-0.201,0.168-0.297,0.302-0.456,0.375
					c-0.79,0.363-1.518,0.791-2.442,1.016c-0.081,0.02-0.288-0.078-0.392-0.154c-0.06-0.044-0.083-0.199-0.033-0.228
					c0.86-0.493,1.72-0.991,2.935-1.107C239.354,192.778,239.443,192.821,239.68,192.883z"/>
			</g>
			<g>
				<path fill-rule="evenodd" clip-rule="evenodd" fill="#70CDDD" d="M274.627,205.635c0.127,0.258,0.268,0.511,0.366,0.763
					c0.041,0.106,0.029,0.233-0.027,0.315c-0.158,0.229-0.388,0.403-0.839,0.341c-0.297-0.041-0.574-0.224-0.746-0.485
					c-0.205-0.311-0.195-0.573,0.06-0.767C273.714,205.595,274.108,205.572,274.627,205.635z"/>
				<path fill-rule="evenodd" clip-rule="evenodd" fill="#70CDDD" d="M234.252,190.288c-0.474-0.249-0.715-0.519-0.671-0.856
					c0.039-0.297,0.304-0.429,0.672-0.476c0.488-0.062,1.001,0.194,1.242,0.611c0.233,0.405,0.031,0.733-0.496,0.755
					C234.747,190.333,234.476,190.3,234.252,190.288z"/>
			</g>
			<path fill-rule="evenodd" clip-rule="evenodd" fill="#FFFFFF" d="M259.566,202.338c-0.182,0.22-0.292,0.354-0.441,0.535
				c-0.359-0.267-0.444-0.481-0.369-0.749C258.975,202.182,259.19,202.239,259.566,202.338z"/>
			<path fill-rule="evenodd" clip-rule="evenodd" fill="#FFFFFF" d="M248.234,198.527c0.026-0.099,0.027-0.211,0.086-0.293
				c0.033-0.045,0.174-0.075,0.248-0.049c0.195,0.066,0.227,0.188,0.133,0.275c-0.076,0.07-0.2,0.108-0.303,0.159
				C248.344,198.588,248.289,198.558,248.234,198.527z"/>
			<path fill-rule="evenodd" clip-rule="evenodd" fill="#FFFFFF" d="M258.991,208.688c0.041-0.17,0.081-0.342,0.126-0.527
				c0.117,0.066,0.201,0.094,0.228,0.133c0.075,0.109,0.141,0.223,0.184,0.335C259.614,208.855,259.523,208.868,258.991,208.688z"/>
			<path fill-rule="evenodd" clip-rule="evenodd" fill="#FFFFFF" d="M244.628,202.162c0.185,0.243,0.008,0.303-0.082,0.388
				c-0.023,0.021-0.146,0-0.203-0.03c-0.042-0.022-0.088-0.115-0.067-0.131C244.376,202.309,244.497,202.244,244.628,202.162z"/>
			<g>
				<path fill-rule="evenodd" clip-rule="evenodd" fill="#FBB03C" d="M281.22,207.172c-0.15,0.057-0.299,0.16-0.493,0.174
					c-0.239,0.017-0.575-0.192-0.664-0.387c-0.078-0.169-0.117-0.342-0.157-0.512c-0.139-0.597-0.274-1.193-0.404-1.788
					c-0.087-0.398,0.244-0.665,0.774-0.638c0.48,0.024,0.894,0.283,0.93,0.634c0.053,0.531,0.053,1.053,0.058,1.576
					C281.268,206.531,281.238,206.826,281.22,207.172z M280.653,206.093c-0.026,0.054-0.051,0.109-0.076,0.164
					c0.026-0.003,0.074-0.001,0.074-0.008c-0.002-0.05-0.015-0.102-0.025-0.153c0.03-0.496,0.146-0.983-0.252-1.559
					c-0.096,0.06-0.188,0.084-0.182,0.118c0.081,0.445,0.173,0.89,0.275,1.337C280.474,206.021,280.593,206.059,280.653,206.093z"/>
				<path fill-rule="evenodd" clip-rule="evenodd" fill="#FBB03C" d="M278.843,207.775c-0.329-0.071-0.523-0.097-0.709-0.156
					c-0.472-0.148-0.599-0.253-0.674-0.602c-0.073-0.34-0.102-0.676-0.148-1.014c-0.057-0.421-0.112-0.843-0.177-1.327
					c0.132-0.067,0.303-0.179,0.509-0.255c0.204-0.075,0.471,0.033,0.582,0.223c0.082,0.14,0.151,0.285,0.196,0.426
					C278.701,205.957,278.802,206.82,278.843,207.775z"/>
				<path fill-rule="evenodd" clip-rule="evenodd" fill="#FBB03C" d="M233.975,186.712c-1.1,0.454-2.396,0.764-3.339,0.791
					c-0.085-0.123-0.186-0.254-0.265-0.389c-0.136-0.23-0.079-0.412,0.178-0.478c0.783-0.202,1.557-0.422,2.386-0.556
					C233.368,186.012,233.763,186.27,233.975,186.712z"/>
				<path fill-rule="evenodd" clip-rule="evenodd" fill="#FBB03C" d="M229.406,185.318c0.568-0.542,1.401-0.58,2.138-0.726
					c0.268-0.053,0.539,0.077,0.722,0.288c0.114,0.133,0.194,0.276,0.293,0.42c-0.236,0.328-0.784,0.29-1.189,0.403
					c-0.409,0.115-0.72,0.37-1.354,0.293C229.83,185.79,229.624,185.56,229.406,185.318z M230.082,185.53
					c0.975-0.136,0.975-0.136,1.389-0.412C230.959,185.092,230.466,185.089,230.082,185.53z"/>
				<path fill-rule="evenodd" clip-rule="evenodd" fill="#FBB03C" d="M280.66,206.093c-0.067-0.033-0.187-0.072-0.193-0.1
					c-0.103-0.447-0.194-0.893-0.275-1.337c-0.006-0.035,0.086-0.059,0.182-0.118c0.398,0.576,0.283,1.063,0.252,1.559
					L280.66,206.093z"/>
				<path fill-rule="evenodd" clip-rule="evenodd" fill="#FBB03C" d="M230.082,185.53c0.384-0.441,0.878-0.438,1.389-0.412
					C231.057,185.395,231.057,185.395,230.082,185.53z"/>
			</g>
		</g>
	</g>
</g>
</svg>
