<?xml version="1.0" encoding="utf-8"?>
<!DOCTYPE svg PUBLIC "-//W3C//DTD SVG 1.1//EN" "http://www.w3.org/Graphics/SVG/1.1/DTD/svg11.dtd">
<svg version="1.1" id="Layer_1" xmlns="http://www.w3.org/2000/svg" xmlns:xlink="http://www.w3.org/1999/xlink" x="0px" y="0px"
	 width="304px" height="457px" viewBox="0 0 217 327" enable-background="new 0 0 217 327" xml:space="preserve">
	  <style type="text/css">
@keyframes shake3{
   0% {transform:rotate(0deg);transform-origin:0% 0%;}
  
  50%{transform: rotate(1deg);transform-origin:0% 3%;}
 
  100%{transform:rotate(0deg);transform-origin:0% 0%;}
}

@keyframes shake1{
   0% {transform:rotate(0deg) translate(0px, 2px);}
  
  50%{transform: rotate(1deg) translate(0px, 2px);}
 
  100%{transform:rotate(0deg) translate(0px,2px);}
}

@keyframes shake2{
   0% {transform:rotate(0deg) translate(4px, 2px);}
  
  50%{transform: rotate(-2deg) translate(4px, 2px);}
 
  100%{transform:rotate(0deg) translate(4px, 2px);}
}

@keyframes animateOne {
	0% { transform: translateZ(0px) translateY(0) translateX(0) skewY(0deg); }
	25% { transform: translateZ(2px) translateY(2px) translateX(2px) skewY(2deg); }
	50% { transform: translateZ(-2px) translateY(-2px) translateX(-2px) skewY(2deg); }
	75% { transform: translateZ(2px) translateY(2px) translateX(2px) skewY(2deg); }
	100% { transform: translateZ(0px) translateY(0px) translateX(0px) skewY(0deg); }
} 

animation { float: left; width: auto; transform: rotate(21deg); }
.palm, .palm-body { animation: animateOne 10s .5s ease infinite; }


.palm_leaf_2{
  animation: shake2 3s ease-out;
  animation-iteration-count:infinite;
}
.palm_leaf_1{
  animation: shake1 7s ease-out;
  animation-iteration-count:infinite;
 }
.palm_leaf_3 {
  animation: shake3 3s ease-out;
  animation-iteration-count:infinite;
}

.top{top:-1%;}
</style>
<g>
	<path fill="#9E5B29" d="M88.01,88.469l-5.36,2.886c10.256,19.352,47.3,96.157,39.037,181.858h8.179
		C137.083,177.954,88.01,88.469,88.01,88.469z"/>
	<path fill="#84441E" d="M88.228,88.874c-0.007-0.014-0.013-0.025-0.021-0.038c-0.055-0.103-0.099-0.184-0.13-0.242
		c-0.012-0.021-0.017-0.032-0.026-0.048c-0.027-0.049-0.042-0.077-0.042-0.077l-1.908,1.027l0,0l-3.452,1.859
		c0.557,1.051,1.197,2.281,1.9,3.663c2.466,1.883,5.721,5.151,10.011,10.574c9.651,20.267,18.845,46.692,26.099,80.182
		c10.73,49.539,10.018,64.529,6.628,87.439h2.578C136.806,181.604,91.696,95.349,88.228,88.874z"/>
</g>
<path fill="#9E5B29" d="M178.413,158.449c0,0-30.113,57.488-22.242,112.922h-8.897c0,0,1.369-81.441,31.139-117.028V158.449z"/>
<path fill="#84441E" d="M170.45,166.023l0.434-0.084c0,0-24.655,57.993-15.202,105.431h0.488
	c-7.87-55.435,22.242-112.922,22.242-112.922v-4.106C175.493,157.833,172.85,161.77,170.45,166.023z"/>
<g>
	
		<radialGradient id="SVGID_1_" cx="235.6711" cy="1688.5386" r="23.3262" gradientTransform="matrix(-0.9998 0.0187 -0.0187 -0.9998 348.6809 1773.0862)" gradientUnits="userSpaceOnUse">
		<stop  offset="0" style="stop-color:#371910"/>
		<stop  offset="0.7957" style="stop-color:#532516"/>
	</radialGradient>
	<path fill="url(#SVGID_1_)" d="M73.22,101.047c0.375-6.416,4.787-11.377,9.853-11.08c5.066,0.296,8.869,5.738,8.494,12.153
		c-0.375,6.416-4.787,11.377-9.853,11.08S72.845,107.463,73.22,101.047z"/>
	
		<ellipse transform="matrix(-0.9998 0.0187 -0.0187 -0.9998 166.5356 221.3334)" opacity="0.7" fill="#2F1911" cx="82.233" cy="111.445" rx="1.035" ry="0.868"/>
	<path opacity="0.6" fill="#2F1911" d="M73.606,105.329c0.004-0.106,0.006-0.212,0.012-0.319c0.089-1.527,0.438-2.959,0.982-4.237
		c0.023,0.135,0.049,0.281,0.077,0.433c0.008,0.089,0.016,0.18,0.025,0.277c0.002,0.022,0.005,0.044,0.007,0.066
		c0.099,1.286,0.329,2.446,0.597,3.422c0.267,0.972,0.587,1.836,0.898,2.562c0.49,1.168,0.903,1.829,0.903,1.829v0
		c0.228,0.401,0.378,0.623,0.382,0.629c0.021,0.031,0.062,0.038,0.093,0.017c0.03-0.021,0.038-0.062,0.017-0.093
		c0,0-2.086-5.221-1.95-11.072c0.388-0.57,0.823-1.087,1.295-1.544c0.302,8.479,3.188,13.062,3.188,13.062l-0.005-0.245
		c-2.039-5.25-2.545-10.296-2.642-13.3c1.425-1.17,3.133-1.81,4.935-1.705c1.236,0.072,2.387,0.488,3.401,1.17
		c0.404,6.286-1.816,13.729-1.816,13.729c2.153-4.531,2.385-10.155,2.305-13.371c0.829,0.658,1.552,1.501,2.133,2.485
		c0.346,4.596-1.142,9.2-1.596,10.478c-0.091,0.162-0.146,0.251-0.149,0.255c-0.02,0.031-0.01,0.072,0.021,0.092
		c0.031,0.02,0.072,0.011,0.092-0.021c0.366-0.483,0.696-1.188,0.991-2.002c0.346-0.829,0.719-1.881,1.004-3.096
		c0.195-0.832,0.36-1.793,0.437-2.849c0.052-0.306,0.097-0.583,0.134-0.822c0.498,1.459,0.733,3.095,0.633,4.809
		c-0.053,0.903-0.195,1.773-0.415,2.598c1.113-1.804,1.831-4.021,1.973-6.446c0.375-6.416-3.428-11.857-8.494-12.153
		c-5.066-0.296-9.478,4.665-9.853,11.08C73.132,102.546,73.275,103.99,73.606,105.329z"/>
</g>
<g  class="palm_leaf_1">
	
		<radialGradient id="SVGID_2_" cx="1122.2241" cy="17.9694" r="19.0073" gradientTransform="matrix(0.4399 -0.898 0.898 0.4399 -410.1426 1095.8352)" gradientUnits="userSpaceOnUse">
		<stop  offset="0" style="stop-color:#371910"/>
		<stop  offset="0.7957" style="stop-color:#532516"/>
	</radialGradient>
	<path fill="url(#SVGID_2_)" d="M94.193,85.565c4.511,2.659,6.466,7.703,4.366,11.266c-2.1,3.563-7.46,4.295-11.971,1.636
		c-4.511-2.659-6.466-7.703-4.366-11.266C84.322,83.638,89.682,82.905,94.193,85.565z"/>
	
		<ellipse transform="matrix(0.4399 -0.898 0.898 0.4399 -32.5775 124.2248)" opacity="0.7" fill="#2F1911" cx="83.302" cy="88.23" rx="0.843" ry="0.707"/>
	<path opacity="0.6" fill="#2F1911" d="M90.946,84.252c0.076,0.042,0.151,0.083,0.227,0.128c1.074,0.633,1.982,1.418,2.707,2.288
		c-0.107-0.033-0.222-0.069-0.343-0.106c-0.067-0.027-0.137-0.055-0.21-0.085c-0.017-0.007-0.034-0.013-0.051-0.02
		c-0.969-0.407-1.896-0.672-2.703-0.84c-0.804-0.168-1.549-0.258-2.191-0.302c-1.029-0.08-1.662-0.026-1.662-0.026l0,0
		c-0.376,0.016-0.592,0.042-0.598,0.043c-0.03,0.004-0.051,0.031-0.047,0.061c0.004,0.03,0.031,0.051,0.061,0.047
		c0,0,4.561,0.43,8.752,2.706c0.269,0.494,0.482,1.001,0.637,1.513C89.266,86.724,84.87,87.11,84.87,87.11l0.179,0.088
		c4.564,0.475,8.411,1.986,10.625,3.033c0.318,1.468,0.147,2.945-0.6,4.212c-0.512,0.869-1.242,1.549-2.114,2.03
		c-4.707-2.046-9.277-6.425-9.277-6.425c2.483,3.247,6.474,5.508,8.836,6.646c-0.785,0.356-1.666,0.566-2.595,0.622
		c-3.46-1.459-6.245-4.251-7.002-5.056c-0.084-0.127-0.128-0.2-0.13-0.203c-0.015-0.026-0.049-0.034-0.075-0.019
		c-0.026,0.015-0.035,0.049-0.019,0.075c0.214,0.445,0.603,0.947,1.082,1.463c0.472,0.559,1.096,1.221,1.871,1.88
		c0.531,0.451,1.166,0.928,1.902,1.377c0.202,0.151,0.387,0.287,0.546,0.403c-1.243-0.182-2.516-0.62-3.722-1.331
		c-0.635-0.374-1.213-0.801-1.729-1.268c0.894,1.478,2.234,2.824,3.939,3.829c4.511,2.659,9.871,1.927,11.971-1.636
		c2.1-3.563,0.145-8.606-4.366-11.266C93.14,84.943,92.04,84.51,90.946,84.252z"/>
</g>
<polygon opacity="0.3" fill="#0D4422" points="85.926,84.955 90.802,88.069 90.628,85.364 86.52,84.326 "/>


<g class="palm">
	<path fill="#116E39" d="M3.251,140.831c0,0,35.926-49.528,81.423-54.579l-0.269-1.832C84.404,84.419,27.978,73.741,3.251,140.831z"
		/>
	<path fill="#A2C74B" d="M61.462,88.968c0,0-19.442,1.715-47.257,34.572C14.205,123.54,35.846,92.724,61.462,88.968z"/>
	<path opacity="0.3" fill="#0D4422" d="M34.469,96.963c2.347,1.814,4.735,4.177,6.672,7.204
		c12.537-8.763,27.429-16.13,43.532-17.918l-0.269-1.832C84.404,84.417,58.758,79.568,34.469,96.963z"/>
</g>



<g class="palm">
	<g>
		<path fill="#116E39" d="M66.945,143.654l7.26,10.394C85.468,120.094,86.36,84.84,86.36,84.84l-4.309-1.1
			c-17.872,14.911-24.653,39.755-26.852,61.727l5.555-5.013l-5.636,5.834c-2.277,23.907,0.813,44.199,0.813,44.199
			c7.419-9.741,13.695-22.956,17.908-34.912L66.945,143.654z"/>
		<path fill="#A2C74B" d="M57.787,180.031c0,0,7.662-55.568,20.792-85.169C78.579,94.862,65.599,137.583,57.787,180.031z"/>
	</g>
	<path opacity="0.3" fill="#0D4422" d="M86.52,87.883l-3.853-4.194l-0.66,0.56l0.067,0.054
		c-12.462,10.53-19.471,25.916-23.297,41.738c6.039,5.162,12.545,12.341,17.69,21.983C84.206,121.746,86.096,96.072,86.52,87.883
		L86.52,87.883z"/>
</g>
<g class="palm">
	<path fill="#116E39" d="M81.198,84.326c0,0,54.023,22.824,77.187,52.404c0,0-16.526-50.143-74.455-53.998L81.198,84.326z"/>
	<path fill="#A2C74B" d="M87.822,84.711c0,0,33.22,8.143,60.025,36.148C147.847,120.859,121.076,90.654,87.822,84.711z"/>
</g>
<path fill="#0C562C" d="M155.666,271.25c5.524-6.928,0.35-10.909,0.35-10.909c-3.854,10.81-12.086,11.413-12.086,11.413
	c6.76-5.072,1.915-9.517,1.915-9.517c-3.881,8.327-13.744,10.727-13.744,10.727c-1.286-3.862,5.028-7.999,5.028-7.999
	c-6.257,0.03-12.914,7.803-12.914,7.803c0.379-4.607,5.525-7.803,5.525-7.803c-9.236,0.253-12.063,6.26-12.063,6.26
	c-6.792-6.952-18.961-5.078-18.961-5.078c9.649,1.212,14.597,8.252,14.597,8.252l51.768-2.833l2.897-6.602
	C163.654,265.806,155.666,271.25,155.666,271.25z"/>
<g class="palm" >
	
		<radialGradient id="SVGID_3_" cx="144.0874" cy="1624.0247" r="23.3262" gradientTransform="matrix(-0.9998 0.0187 -0.0187 -0.9998 348.6809 1773.0862)" gradientUnits="userSpaceOnUse">
		<stop  offset="0" style="stop-color:#371910"/>
		<stop  offset="0.7957" style="stop-color:#532516"/>
	</radialGradient>
	<path fill="url(#SVGID_3_)" d="M165.994,163.837c0.375-6.416,4.787-11.377,9.853-11.08c5.066,0.296,8.869,5.738,8.494,12.153
		c-0.375,6.416-4.787,11.377-9.853,11.08C169.422,175.694,165.619,170.253,165.994,163.837z"/>
	
		<ellipse transform="matrix(-0.9998 0.0187 -0.0187 -0.9998 353.2419 345.1673)" opacity="0.7" fill="#2F1911" cx="175.007" cy="174.235" rx="1.035" ry="0.868"/>
	<path opacity="0.6" fill="#2F1911" d="M166.38,168.119c0.004-0.106,0.006-0.212,0.012-0.319c0.089-1.527,0.438-2.959,0.982-4.237
		c0.023,0.135,0.049,0.281,0.077,0.433c0.008,0.089,0.016,0.18,0.025,0.277c0.002,0.022,0.005,0.044,0.007,0.066
		c0.099,1.286,0.329,2.446,0.597,3.422c0.267,0.972,0.587,1.836,0.898,2.562c0.49,1.168,0.903,1.829,0.903,1.829v0
		c0.228,0.401,0.378,0.623,0.382,0.629c0.021,0.031,0.062,0.038,0.093,0.017c0.03-0.021,0.038-0.062,0.017-0.093
		c0,0-2.086-5.221-1.95-11.072c0.388-0.57,0.823-1.087,1.295-1.544c0.302,8.479,3.188,13.062,3.188,13.062l-0.005-0.245
		c-2.039-5.25-2.545-10.296-2.642-13.3c1.425-1.17,3.133-1.81,4.935-1.705c1.236,0.072,2.387,0.488,3.401,1.17
		c0.404,6.286-1.816,13.729-1.816,13.729c2.153-4.531,2.385-10.155,2.305-13.371c0.829,0.658,1.552,1.501,2.133,2.485
		c0.346,4.596-1.142,9.2-1.596,10.478c-0.091,0.162-0.146,0.251-0.149,0.255c-0.02,0.031-0.01,0.072,0.021,0.092
		c0.031,0.02,0.072,0.011,0.092-0.021c0.366-0.483,0.696-1.188,0.991-2.002c0.346-0.829,0.719-1.881,1.004-3.096
		c0.195-0.832,0.36-1.793,0.437-2.849c0.052-0.306,0.097-0.583,0.134-0.822c0.498,1.459,0.733,3.095,0.633,4.809
		c-0.053,0.903-0.195,1.773-0.415,2.598c1.113-1.804,1.831-4.021,1.973-6.446c0.375-6.416-3.428-11.857-8.494-12.153
		c-5.066-0.296-9.478,4.665-9.853,11.08C165.906,165.336,166.049,166.78,166.38,168.119z"/>
</g>
<g class="palm_leaf_1">
	<path fill="#116E39" d="M125.531,189.472c0,0,22.926-31.606,51.959-34.829l-0.172-1.169
		C177.319,153.473,141.311,146.659,125.531,189.472z"/>
	<path fill="#A2C74B" d="M162.678,156.376c0,0-12.407,1.095-30.157,22.062C132.522,178.437,146.332,158.772,162.678,156.376z"/>
	<path opacity="0.3" fill="#0D4422" d="M145.453,161.477c1.498,1.157,3.021,2.665,4.258,4.597c8-5.592,17.504-10.293,27.78-11.434
		l-0.172-1.169C177.319,153.471,160.953,150.377,145.453,161.477z"/>
</g>
<g class="palm_leaf_1">
	<g>
		<path fill="#116E39" d="M166.494,192.001l4.633,6.633c7.187-21.668,7.756-44.165,7.756-44.165l-2.75-0.702
			c-11.405,9.515-15.732,25.37-17.135,39.391l3.545-3.199l-3.597,3.723c-1.453,15.256,0.519,28.205,0.519,28.205
			c4.735-6.216,8.74-14.649,11.428-22.279L166.494,192.001z"/>
		<path fill="#A2C74B" d="M160.649,215.214c0,0,4.89-35.461,13.268-54.35C173.918,160.864,165.634,188.126,160.649,215.214z"/>
	</g>
	<path opacity="0.3" fill="#0D4422" d="M178.985,156.411l-2.459-2.677l-0.421,0.357l0.042,0.034
		c-7.953,6.719-12.425,16.538-14.867,26.635c3.853,3.294,8.005,7.876,11.289,14.029C177.509,178.02,178.715,161.636,178.985,156.411
		L178.985,156.411z"/>
</g>
<g class="palm_leaf_1">
	<path fill="#116E39" d="M213.749,197.441c0,0-13.116-33.702-38.37-43.409l0.429-1.007
		C175.808,153.025,209.669,155.378,213.749,197.441z"/>
	<path fill="#A2C74B" d="M188.243,159.064c0,0,10.858,3.895,21.835,26.849C210.078,185.914,202.325,165.051,188.243,159.064z"/>
	<path opacity="0.3" fill="#0D4422" d="M202.477,167.681c-1.614,0.685-3.333,1.678-4.894,3.119
		c-5.854-6.889-13.264-13.333-22.202-16.769l0.429-1.007C175.809,153.023,191.198,154.096,202.477,167.681z"/>
</g>
</svg>
