
<!-- Generator: Adobe Illustrator 17.0.0, SVG Export Plug-In . SVG Version: 6.00 Build 0)  -->
<!DOCTYPE svg PUBLIC "-//W3C//DTD SVG 1.1//EN" "http://www.w3.org/Graphics/SVG/1.1/DTD/svg11.dtd">
<svg version="1.1" id="Layer_1" xmlns="http://www.w3.org/2000/svg" xmlns:xlink="http://www.w3.org/1999/xlink" x="0px" y="0px"
	 width="217px" height="327px" viewBox="0 0 217 327" enable-background="new 0 0 217 327" xml:space="preserve">
  <style type="text/css">
  
  .animation { float: left; width: auto; transform: rotate(21deg); }
.palm, .palm-body { animation: animateOne 10s .5s ease infinite; }
.palm { fill: #b4c06a; }
.palm-body { fill: #a39274; }

@keyframes animateOne {
	0% { transform: translateZ(0px) translateY(0) translateX(0) skewY(0deg); }
	25% { transform: translateZ(5px) translateY(5px) translateX(5px) skewY(5deg); }
	50% { transform: translateZ(-5px) translateY(-5px) translateX(-5px) skewY(5deg); }
	75% { transform: translateZ(5px) translateY(5px) translateX(5px) skewY(5deg); }
	100% { transform: translateZ(0px) translateY(0px) translateX(0px) skewY(0deg); }
} 


  @-webkit-keyframes swinging{
    0%{-webkit-transform: rotate(0deg);}
    50%{-webkit-transform: rotate(2deg)}
    100%{-webkit-transform: rotate(1deg);}
    }
    @keyframes swinging{
    0%{transform: rotate(0deg);}
    50%{transform: rotate(2deg)}
    100%{transform: rotate(1deg);}
    }
	
	 @-webkit-keyframes rswinging{
    0%{-webkit-transform: rotate(6deg);}
    50%{-webkit-transform: rotate(5deg)}
    100%{-webkit-transform: rotate(6deg);}
    }
    @keyframes rswinging{
    0%{transform: rotate(6deg);}
    50%{transform: rotate(5deg)}
    100%{transform: rotate(6deg);}
    }
	
	.discountimage{
  -webkit-animation: swinging 5.5s ease-in-out forwards infinite;
   animation: swinging 5.5s ease-in-out forwards infinite;

.discountimager{
    -webkit-animation: rswinging 8.5s ease-in-out forwards infinite;
    animation: rswinging 8.5s ease-in-out forwards infinite;	
	 top:1%;

}


}
</style>

<g>
	<path fill="#9E5B29" d="M64.383,57.448l-5.97,3.214c11.422,21.552,52.679,107.091,43.477,202.539h9.109
		C119.037,157.109,64.383,57.448,64.383,57.448z"/>
	<path fill="#84441E" d="M64.627,57.899c-0.008-0.016-0.015-0.028-0.023-0.043c-0.061-0.114-0.11-0.205-0.145-0.269
		c-0.013-0.024-0.019-0.036-0.029-0.053c-0.03-0.054-0.047-0.086-0.047-0.086l-2.125,1.144l0,0l-3.845,2.07
		c0.62,1.17,1.333,2.541,2.116,4.08c2.747,2.097,6.372,5.737,11.149,11.776c10.748,22.571,20.988,52.002,29.067,89.3
		c11.95,55.173,11.158,71.867,7.382,97.383h2.872C118.729,161.174,68.488,65.111,64.627,57.899z"/>
</g>
<path fill="#9E5B29" d="M170.44,136.089c0,0-33.537,64.025-24.772,125.763h-9.909c0,0,1.524-90.702,34.68-130.337V136.089z"/>
<path fill="#84441E" d="M161.572,144.524l0.484-0.093c0,0-27.458,64.588-16.931,117.421h0.544
	c-8.765-61.738,24.772-125.763,24.772-125.763v-4.573C167.188,135.403,164.244,139.788,161.572,144.524z"/>
<g>
	
		<radialGradient id="SVGID_1_" cx="254.2033" cy="1713.5498" r="25.9788" gradientTransform="matrix(-0.9998 0.0187 -0.0187 -0.9998 348.6809 1773.0862)" gradientUnits="userSpaceOnUse">
		<stop  offset="0" style="stop-color:#371910"/>
		<stop  offset="0.7957" style="stop-color:#532516"/>
	</radialGradient>
	<path fill="url(#SVGID_1_)" d="M53.285,77.729c0.418-7.145,5.331-12.67,10.973-12.34c5.643,0.33,9.878,6.39,9.46,13.535
		c-0.418,7.145-5.331,12.67-10.973,12.34C57.102,90.934,52.867,84.874,53.285,77.729z"/>
	
		<ellipse transform="matrix(-0.9998 0.0187 -0.0187 -0.9998 128.3042 177.4184)" opacity="0.7" fill="#2F1911" cx="63.323" cy="89.309" rx="1.152" ry="0.966"/>
	<path opacity="0.6" fill="#2F1911" d="M53.714,82.497c0.004-0.118,0.007-0.236,0.014-0.355c0.099-1.701,0.487-3.296,1.093-4.719
		c0.026,0.15,0.055,0.313,0.085,0.483c0.009,0.099,0.018,0.201,0.028,0.308c0.002,0.025,0.005,0.049,0.008,0.074
		c0.111,1.433,0.367,2.724,0.665,3.811c0.297,1.083,0.654,2.045,1.001,2.853c0.545,1.301,1.006,2.037,1.006,2.037v0
		c0.254,0.447,0.421,0.693,0.425,0.701c0.023,0.034,0.069,0.043,0.103,0.019c0.034-0.023,0.043-0.069,0.019-0.103
		c0,0-2.323-5.815-2.172-12.332c0.433-0.635,0.917-1.211,1.442-1.719c0.337,9.443,3.55,14.547,3.55,14.547l-0.005-0.273
		c-2.271-5.847-2.835-11.467-2.942-14.812c1.587-1.303,3.489-2.016,5.496-1.899c1.376,0.081,2.658,0.543,3.788,1.303
		c0.449,7.001-2.023,15.29-2.023,15.29c2.398-5.046,2.657-11.31,2.567-14.892c0.923,0.733,1.728,1.672,2.376,2.767
		c0.385,5.118-1.272,10.246-1.778,11.669c-0.102,0.181-0.163,0.28-0.166,0.284c-0.022,0.035-0.011,0.081,0.023,0.103
		c0.035,0.022,0.081,0.012,0.103-0.023c0.407-0.538,0.775-1.324,1.103-2.229c0.385-0.923,0.8-2.095,1.118-3.449
		c0.218-0.927,0.401-1.997,0.487-3.173c0.058-0.34,0.108-0.649,0.149-0.915c0.555,1.625,0.816,3.446,0.705,5.356
		c-0.059,1.005-0.218,1.975-0.463,2.894c1.239-2.009,2.04-4.478,2.198-7.179c0.418-7.145-3.818-13.205-9.46-13.535
		c-5.643-0.33-10.555,5.195-10.973,12.34C53.187,79.398,53.346,81.006,53.714,82.497z"/>
</g>
<g>
	
		<radialGradient id="SVGID_2_" cx="1136.2408" cy="-7.7454" r="21.1688" gradientTransform="matrix(0.4399 -0.898 0.898 0.4399 -410.1426 1095.8352)" gradientUnits="userSpaceOnUse">
		<stop  offset="0" style="stop-color:#371910"/>
		<stop  offset="0.7957" style="stop-color:#532516"/>
	</radialGradient>
	<path fill="url(#SVGID_2_)" d="M76.643,60.485c5.024,2.962,7.202,8.579,4.863,12.547c-2.339,3.968-8.308,4.783-13.332,1.822
		c-5.024-2.962-7.202-8.579-4.863-12.547C65.65,58.339,71.619,57.524,76.643,60.485z"/>
	
		<ellipse transform="matrix(0.4399 -0.898 0.898 0.4399 -20.8507 93.4748)" opacity="0.7" fill="#2F1911" cx="64.513" cy="63.453" rx="0.939" ry="0.787"/>
	<path opacity="0.6" fill="#2F1911" d="M73.026,59.023c0.084,0.047,0.169,0.093,0.252,0.142c1.196,0.705,2.208,1.58,3.014,2.549
		c-0.119-0.037-0.247-0.077-0.382-0.118c-0.075-0.031-0.152-0.062-0.234-0.095c-0.019-0.008-0.038-0.014-0.056-0.022
		c-1.08-0.453-2.111-0.748-3.01-0.936c-0.896-0.187-1.725-0.287-2.441-0.336c-1.146-0.089-1.851-0.029-1.851-0.029l0,0
		c-0.418,0.018-0.659,0.047-0.666,0.048c-0.033,0.004-0.057,0.034-0.053,0.068c0.004,0.033,0.035,0.057,0.068,0.053
		c0,0,5.08,0.479,9.748,3.014c0.299,0.55,0.537,1.115,0.71,1.685c-6.971-3.27-11.867-2.839-11.867-2.839l0.199,0.098
		c5.083,0.529,9.367,2.212,11.833,3.378c0.354,1.635,0.163,3.28-0.668,4.691c-0.57,0.968-1.383,1.725-2.354,2.261
		c-5.243-2.279-10.332-7.156-10.332-7.156c2.766,3.616,7.211,6.134,9.841,7.402c-0.875,0.397-1.855,0.631-2.89,0.693
		c-3.854-1.625-6.955-4.735-7.798-5.631c-0.093-0.141-0.142-0.222-0.144-0.226c-0.017-0.029-0.054-0.038-0.083-0.021
		c-0.029,0.017-0.039,0.054-0.021,0.083c0.238,0.495,0.671,1.054,1.206,1.629c0.526,0.623,1.221,1.36,2.084,2.094
		c0.591,0.502,1.299,1.034,2.119,1.533c0.225,0.169,0.431,0.319,0.608,0.448c-1.384-0.202-2.802-0.691-4.145-1.482
		c-0.707-0.417-1.351-0.893-1.926-1.412c0.995,1.646,2.488,3.145,4.387,4.264c5.024,2.962,10.994,2.146,13.332-1.822
		c2.339-3.968,0.162-9.585-4.863-12.547C75.47,59.793,74.245,59.31,73.026,59.023z"/>
</g>


<polygon opacity="0.3" fill="#0D4422" points="67.436,59.806 72.866,63.275 72.673,60.262 68.098,59.105 "/>
<g >
	<path fill="#116E39" d="M3.564,99.493c0,0,25.999-35.843,58.925-39.498l-0.195-1.326C62.294,58.669,21.459,50.941,3.564,99.493z"/>
	<path fill="#A2C74B" d="M45.69,61.961c0,0-14.07,1.241-34.199,25.019C11.491,86.98,27.153,64.679,45.69,61.961z"/>
	<path opacity="0.3" fill="#0D4422" d="M26.156,67.747c1.699,1.313,3.427,3.023,4.828,5.214c9.073-6.342,19.85-11.673,31.504-12.967
		l-0.195-1.326C62.293,58.667,43.734,55.158,26.156,67.747z"/>
</g>
<g>
<!--leaf-->
	<g class="discountimage">
		<path fill="#116E39" d="M49.659,101.537l5.254,7.522c8.151-24.573,8.796-50.086,8.796-50.086l-3.118-0.796
			C47.657,68.968,42.75,86.947,41.158,102.848l4.02-3.628l-4.079,4.222c-1.648,17.302,0.588,31.986,0.588,31.986
			c5.369-7.049,9.911-16.613,12.96-25.265L49.659,101.537z"/>
		<path fill="#A2C74B" d="M43.031,127.862c0,0,5.545-40.214,15.047-61.636C58.078,66.226,48.684,97.143,43.031,127.862z"/>

	
	
	<path opacity="0.3" fill="#0D4422" d="M63.825,61.176l-2.788-3.035l-0.478,0.405l0.048,0.039
		c-9.019,7.62-14.091,18.755-16.86,30.205c4.37,3.736,9.078,8.931,12.802,15.909C62.15,85.682,63.518,67.102,63.825,61.176
		L63.825,61.176z"/>
</g>
<!--leaf-->


<g class="discountimage">
	<path fill="#116E39" d="M59.974,58.601c0,0,39.096,16.517,55.86,37.924c0,0-11.96-36.288-53.883-39.078L59.974,58.601z"/>
	<path fill="#A2C74B" d="M64.767,58.88c0,0,24.041,5.893,43.44,26.16C108.207,85.04,88.833,63.181,64.767,58.88z"/>

<path fill="#0C562C" d="M142.137,261.32c6.153-7.716,0.39-12.15,0.39-12.15c-4.293,12.039-13.461,12.711-13.461,12.711
	c7.529-5.649,2.132-10.599,2.132-10.599c-4.322,9.274-15.307,11.946-15.307,11.946c-1.432-4.301,5.6-8.909,5.6-8.909
	c-6.968,0.033-14.383,8.691-14.383,8.691c0.422-5.13,6.153-8.691,6.153-8.691c-10.286,0.282-13.435,6.972-13.435,6.972
	c-7.564-7.743-21.117-5.655-21.117-5.655c10.747,1.35,16.257,9.191,16.257,9.191l57.655-3.155l3.227-7.352
	C151.034,255.257,142.137,261.32,142.137,261.32z"/>
	</g>
<g>
	
		<radialGradient id="SVGID_3_" cx="152.1633" cy="1643.9265" r="25.9788" gradientTransform="matrix(-0.9998 0.0187 -0.0187 -0.9998 348.6809 1773.0862)" gradientUnits="userSpaceOnUse">
		<stop  offset="0" style="stop-color:#371910"/>
		<stop  offset="0.7957" style="stop-color:#532516"/>
	</radialGradient>
	<path fill="url(#SVGID_3_)" d="M156.609,145.432c0.418-7.145,5.331-12.67,10.973-12.34c5.643,0.33,9.878,6.39,9.46,13.535
		c-0.418,7.145-5.331,12.67-10.973,12.34C160.426,158.637,156.191,152.577,156.609,145.432z"/>
	
		<ellipse transform="matrix(-0.9998 0.0187 -0.0187 -0.9998 336.2007 310.8799)" opacity="0.7" fill="#2F1911" cx="166.647" cy="157.012" rx="1.152" ry="0.966"/>
	<path opacity="0.6" fill="#2F1911" d="M157.039,150.2c0.004-0.118,0.007-0.236,0.014-0.355c0.099-1.701,0.487-3.296,1.093-4.719
		c0.026,0.15,0.055,0.313,0.085,0.483c0.009,0.099,0.018,0.201,0.028,0.308c0.002,0.025,0.005,0.049,0.008,0.074
		c0.111,1.433,0.367,2.724,0.665,3.811c0.297,1.083,0.654,2.045,1.001,2.853c0.545,1.301,1.006,2.037,1.006,2.037v0
		c0.254,0.447,0.421,0.693,0.425,0.701c0.023,0.034,0.069,0.043,0.103,0.019c0.034-0.023,0.043-0.069,0.019-0.103
		c0,0-2.323-5.815-2.172-12.332c0.433-0.635,0.917-1.211,1.442-1.719c0.337,9.443,3.55,14.547,3.55,14.547l-0.005-0.273
		c-2.271-5.847-2.835-11.467-2.942-14.812c1.587-1.303,3.489-2.016,5.496-1.899c1.376,0.081,2.658,0.543,3.788,1.303
		c0.449,7.001-2.023,15.29-2.023,15.29c2.398-5.046,2.657-11.31,2.567-14.892c0.923,0.733,1.728,1.672,2.376,2.767
		c0.385,5.118-1.272,10.246-1.778,11.669c-0.102,0.181-0.163,0.28-0.166,0.284c-0.022,0.035-0.011,0.081,0.023,0.103
		c0.035,0.022,0.081,0.012,0.103-0.023c0.407-0.538,0.775-1.324,1.103-2.229c0.385-0.923,0.8-2.095,1.118-3.449
		c0.218-0.927,0.401-1.997,0.487-3.172c0.058-0.34,0.108-0.649,0.149-0.915c0.555,1.625,0.816,3.446,0.705,5.356
		c-0.059,1.005-0.218,1.975-0.463,2.894c1.239-2.009,2.04-4.478,2.198-7.179c0.418-7.145-3.818-13.205-9.46-13.535
		c-5.643-0.33-10.555,5.195-10.973,12.34C156.511,147.1,156.67,148.709,157.039,150.2z"/>
</g>
<g>
	<g>
		<path fill="#116E39" d="M217,165.869c0,0-21.709-29.928-49.201-32.98l0.163-1.107C167.961,131.781,202.058,125.328,217,165.869z"
			/>
		<path fill="#A2C74B" d="M181.825,134.529c0,0,11.748,1.036,28.556,20.891C210.381,155.42,197.304,136.799,181.825,134.529z"/>
		<path opacity="0.3" fill="#0D4422" d="M198.136,139.361c-1.418,1.096-2.861,2.524-4.032,4.353
			c-7.576-5.295-16.574-9.747-26.305-10.827l0.163-1.107C167.962,131.779,183.459,128.849,198.136,139.361z"/>
	</g>
	<g>
		<g>
			<path fill="#116E39" d="M178.212,168.264l-4.387,6.281c-6.806-20.518-7.344-41.821-7.344-41.821l2.604-0.665
				c10.799,9.01,14.897,24.023,16.226,37.3l-3.357-3.029l3.406,3.526c1.376,14.447-0.491,26.708-0.491,26.708
				c-4.483-5.886-8.276-13.872-10.821-21.096L178.212,168.264z"/>
			<path fill="#A2C74B" d="M183.746,190.245c0,0-4.63-33.578-12.564-51.465C171.182,138.78,179.026,164.595,183.746,190.245z"/>
		</g>
		<path opacity="0.3" fill="#0D4422" d="M166.383,134.563l2.328-2.534l0.399,0.338l-0.04,0.032
			c7.531,6.363,11.766,15.66,14.078,25.221c-3.649,3.119-7.58,7.457-10.689,13.284C167.782,155.025,166.64,139.511,166.383,134.563
			L166.383,134.563z"/>
	</g>
	<g>
		<path fill="#116E39" d="M118.598,165.869c0,0,21.709-29.928,49.201-32.98l-0.163-1.107
			C167.636,131.781,133.54,125.329,118.598,165.869z"/>
		<path fill="#A2C74B" d="M153.773,134.53c0,0-11.748,1.036-28.556,20.891C125.217,155.421,138.294,136.8,153.773,134.53z"/>
		<path opacity="0.3" fill="#0D4422" d="M137.462,139.361c1.418,1.096,2.861,2.524,4.032,4.353
			c7.576-5.295,16.574-9.747,26.305-10.827l-0.163-1.107C167.636,131.78,152.139,128.85,137.462,139.361z"/>
	</g>
</svg>
