<?xml version="1.0" encoding="utf-8"?>
<!-- Generator: Adobe Illustrator 17.0.0, SVG Export Plug-In . SVG Version: 6.00 Build 0)  -->
<!DOCTYPE svg PUBLIC "-//W3C//DTD SVG 1.1//EN" "http://www.w3.org/Graphics/SVG/1.1/DTD/svg11.dtd">
<svg version="1.1" id="Layer_1" xmlns="http://www.w3.org/2000/svg" xmlns:xlink="http://www.w3.org/1999/xlink" x="0px" y="0px"
	 width="1900px" height="1125px" viewBox="0 0 1900 1125" enable-background="new 0 0 1900 1125" xml:space="preserve">
<linearGradient id="SVGID_1_" gradientUnits="userSpaceOnUse" x1="918.2214" y1="-309.677" x2="987.3709" y2="1203.9271">
	<stop  offset="0.0645" style="stop-color:#10B6D7"/>
	<stop  offset="1" style="stop-color:#5CC8F1"/>
</linearGradient>
<rect fill="url(#SVGID_1_)" width="1900" height="771.84"/>
<path opacity="0.1" fill="#096188" d="M281.642,606.463c-2.392,0-4.707,0.322-6.911,0.917c0.098-0.88,0.153-1.773,0.153-2.679
	c0-13.253-10.744-23.997-23.997-23.997c-1.04,0-2.062,0.073-3.066,0.202c-3.671-4.016-8.953-6.537-14.823-6.537
	c-1.237,0-2.446,0.118-3.621,0.332c-1.29-11.233-10.825-19.957-22.403-19.957c-9.206,0-17.119,5.518-20.625,13.425
	c-1.897-0.426-3.868-0.659-5.894-0.659c-10.074,0-18.844,5.566-23.415,13.789c-3.159-1.455-6.672-2.273-10.378-2.273
	c-1.148,0-2.275,0.085-3.381,0.235c-0.847-15.079-17.448-27.11-37.812-27.11c-20.906,0-37.853,12.679-37.853,28.318
	c0,15.64,16.947,28.318,37.853,28.318c5.896,0,11.477-1.009,16.452-2.808c1.075,12.725,11.737,22.72,24.741,22.72
	c8.626,0,16.223-4.399,20.675-11.075c3.877,2.184,8.35,3.436,13.118,3.436c0.232,0,0.462-0.012,0.693-0.018
	c2.949,13.59,15.037,23.772,29.51,23.772c7.144,0,13.703-2.486,18.875-6.632c0,0.023-0.002,0.046-0.002,0.069
	c0,13.102,10.621,23.723,23.723,23.723c5.966,0,11.413-2.207,15.581-5.843c3.796,2.102,8.161,3.302,12.808,3.302
	c14.627,0,26.485-11.858,26.485-26.485C308.127,618.321,296.269,606.463,281.642,606.463z"/>
<path opacity="0.1" fill="#096188" d="M1639.943,573.426c-0.089-0.001-0.174-0.013-0.263-0.013c-5.56,0-10.464,2.783-13.414,7.027
	c-2.049-9.556-10.536-16.724-20.705-16.724c-10.941,0-19.941,8.296-21.063,18.94l-0.275-0.06
	c-0.974-13.321-6.989-23.588-14.283-23.588c-2.777,0-5.362,1.513-7.563,4.089c-0.334-19.991-16.617-36.101-36.688-36.101
	c-20.28,0-36.719,16.44-36.719,36.719c0,5.919,1.434,11.492,3.921,16.443c-4.038-2.268-8.689-3.576-13.65-3.576
	c-15.426,0-27.932,12.505-27.932,27.932c0,0.531,0.05,1.049,0.079,1.573c-0.027,0-0.053-0.004-0.079-0.004
	c-9.824,0-17.926,7.288-19.248,16.748c-2.922-2.62-6.581-4.195-10.567-4.195c-9.533,0-17.261,8.922-17.261,19.929
	c0,2.312,0.358,4.522,0.986,6.587c-0.631-0.09-1.271-0.153-1.927-0.153c-5.624,0-10.44,3.442-12.468,8.333
	c-1.718-0.516-3.535-0.801-5.421-0.801c-10.4,0-18.83,8.431-18.83,18.83c0,10.4,8.431,18.83,18.83,18.83
	c3.716,0,7.17-1.087,10.085-2.945l244.457,2.426V573.426z"/>
<linearGradient id="SVGID_2_" gradientUnits="userSpaceOnUse" x1="716.8333" y1="383.5" x2="716.8333" y2="383.5">
	<stop  offset="0.1345" style="stop-color:#8E9A4E"/>
	<stop  offset="0.5576" style="stop-color:#677B41"/>
</linearGradient>
<path fill="none" stroke="url(#SVGID_2_)" stroke-miterlimit="10" d="M716.833,383.5"/>
<linearGradient id="SVGID_3_" gradientUnits="userSpaceOnUse" x1="184.4469" y1="514.7693" x2="193.8415" y2="720.4066">
	<stop  offset="0" style="stop-color:#BCE6F7"/>
	<stop  offset="0.1989" style="stop-color:#B3DEED"/>
	<stop  offset="1" style="stop-color:#A9DFF5"/>
</linearGradient>
<path fill="url(#SVGID_3_)" d="M282.535,609.078c-2.392,0-4.707,0.322-6.911,0.917c0.098-0.88,0.153-1.773,0.153-2.679
	c0-13.253-10.744-23.997-23.997-23.997c-1.04,0-2.062,0.073-3.066,0.202c-3.671-4.016-8.953-6.537-14.823-6.537
	c-1.237,0-2.446,0.118-3.621,0.332c-1.29-11.233-10.825-19.957-22.403-19.957c-9.206,0-17.119,5.518-20.625,13.425
	c-1.897-0.426-3.868-0.659-5.894-0.659c-10.074,0-18.844,5.566-23.415,13.789c-3.159-1.455-6.672-2.273-10.378-2.273
	c-1.148,0-2.275,0.085-3.381,0.235c-0.847-15.079-17.448-27.11-37.812-27.11c-20.906,0-37.853,12.679-37.853,28.318
	c0,15.64,16.947,28.318,37.853,28.318c5.896,0,11.477-1.009,16.452-2.808c1.075,12.725,11.737,22.72,24.741,22.72
	c8.626,0,16.223-4.399,20.675-11.075c3.877,2.184,8.35,3.436,13.118,3.436c0.232,0,0.462-0.012,0.693-0.018
	c2.949,13.59,15.037,23.772,29.51,23.772c7.144,0,13.703-2.486,18.875-6.632c0,0.023-0.002,0.046-0.002,0.069
	c0,13.102,10.621,23.723,23.723,23.723c5.966,0,11.413-2.207,15.581-5.843c3.796,2.102,8.161,3.302,12.808,3.302
	c14.627,0,26.485-11.858,26.485-26.485C309.02,620.935,297.162,609.078,282.535,609.078z"/>
<linearGradient id="SVGID_4_" gradientUnits="userSpaceOnUse" x1="1496.5551" y1="460.0061" x2="1510.0796" y2="756.0417">
	<stop  offset="0" style="stop-color:#BCE6F7"/>
	<stop  offset="0.1989" style="stop-color:#B3DEED"/>
	<stop  offset="1" style="stop-color:#A9DFF5"/>
</linearGradient>
<path opacity="0.5" fill="url(#SVGID_4_)" d="M1639.943,557.507c-0.089-0.001-0.174-0.013-0.263-0.013
	c-5.56,0-10.464,2.783-13.414,7.027c-2.049-9.556-10.536-16.724-20.705-16.724c-10.941,0-19.941,8.296-21.063,18.94l-0.275-0.06
	c-0.974-13.321-6.989-23.588-14.283-23.588c-2.777,0-5.362,1.513-7.563,4.089c-0.334-19.991-16.617-36.101-36.688-36.101
	c-20.28,0-36.719,16.44-36.719,36.719c0,5.919,1.434,11.492,3.921,16.443c-4.038-2.268-8.689-3.576-13.65-3.576
	c-15.426,0-27.932,12.505-27.932,27.932c0,0.531,0.05,1.049,0.079,1.573c-0.027,0-0.053-0.004-0.079-0.004
	c-9.824,0-17.926,7.288-19.248,16.748c-2.922-2.62-6.581-4.195-10.567-4.195c-9.533,0-17.261,8.922-17.261,19.929
	c0,2.312,0.358,4.522,0.986,6.587c-0.631-0.09-1.271-0.153-1.927-0.153c-5.624,0-10.44,3.442-12.468,8.333
	c-1.718-0.516-3.535-0.801-5.421-0.801c-10.4,0-18.83,8.431-18.83,18.83c0,10.4,8.431,18.83,18.83,18.83
	c3.716,0,7.17-1.087,10.085-2.945l244.457,2.426V557.507z"/>

<path fill="#E0F0F6" d="M1901.609,766.948V566.556c-1.347,0.282-2.789,0.584-4.272,0.893c-7.427-16.272-23.8-27.604-42.856-27.604
	c-7.77,0-15.082,1.914-21.543,5.245c-12.637-19.209-34.357-31.909-59.069-31.909c-30.177,0-55.867,18.944-66.009,45.56
	c-9.809-6.44-21.527-10.214-34.138-10.214c-23.14,0-43.29,12.641-54.04,31.367c-1.356-0.101-2.712-0.207-4.094-0.207
	c-21.967,0-40.855,13.038-49.449,31.78c-14.671-8.792-28.571-9.845-39.819-8.031c-7.115-10.394-19.031-17.237-32.581-17.237
	c-7.83,0-15.107,2.306-21.249,6.233c0.802-4.128,1.251-8.382,1.251-12.744c0-36.73-29.776-66.506-66.505-66.506
	c-27.144,0-50.45,16.284-60.788,39.598c-5.195-2.702-11.084-4.252-17.345-4.252c-20.805,0-37.671,16.866-37.671,37.671
	c0,6.054,1.463,11.755,4.002,16.823c-0.003,0-0.033,0-0.033,0l-0.577,0.756c-3.008-5.591-8.843-9.435-15.636-9.435
	c-5.159,0-9.769,2.226-13.024,5.729c-8.268-11.55-21.764-19.103-37.051-19.103c-23.814,0-43.335,18.271-45.374,41.556
	c-6.391-5.469-14.673-8.791-23.744-8.791c-10.029,0-19.109,4.044-25.715,10.583c-7.943-10.962-20.815-18.12-35.387-18.12
	c-17.215,0-32.063,9.976-39.193,24.44c-3.254-1.36-6.823-2.116-10.57-2.116c-11.18,0-20.779,6.696-25.056,16.288
	c-3.739-2.075-8.036-3.266-12.615-3.266c-7.819,0-14.814,3.462-19.588,8.918c-5.095-5.474-12.34-8.918-20.408-8.918
	c-2.441,0-4.798,0.346-7.055,0.935c-6.934-12.325-20.118-20.663-35.267-20.663c-13.242,0-24.962,6.39-32.344,16.224
	c-6.811-10.952-18.92-18.267-32.766-18.267c-8.956,0-17.177,3.078-23.726,8.195c-7.839-9.853-19.909-16.188-33.478-16.188
	c-21.676,0-39.541,16.133-42.356,37.037c-2.669-1.073-5.646-1.691-8.802-1.691c-1.731,0-3.403,0.201-5.009,0.541
	c-2.339-14.59-17.183-25.85-35.193-25.85c-10.345,0-19.627,3.734-26.124,9.658c-7.937-11.635-23.14-19.536-40.642-19.675
	c0-0.006,0.001-0.013,0.001-0.019c0-21.576-17.49-39.066-39.066-39.066c-21.381,0-38.726,17.183-39.037,38.49
	c-4.823-3.155-10.578-5.005-16.772-5.005c-10.389,0-19.555,5.175-25.109,13.073c-4.604-5.7-11.641-9.352-19.539-9.352
	c-4.453,0-8.627,1.17-12.254,3.203c0.09-1.058,0.162-2.121,0.162-3.203c0-20.548-16.658-37.206-37.206-37.206
	c-7.243,0-13.98,2.103-19.697,5.683c-1.648-19.542-18.004-34.896-37.972-34.896c-10.246,0-19.528,4.062-26.38,10.637
	c-9.099-18.1-27.788-30.548-49.427-30.548c-26.943,0-49.364,19.261-54.307,44.76c-7.058-7.728-17.185-12.606-28.476-12.606
	c-9.841,0-18.793,3.713-25.611,9.775c-4.615-5.939-11.808-9.775-19.912-9.775c-7.587,0-14.374,3.364-18.998,8.664
	c-6.563-12.427-19.6-20.907-34.631-20.907c-7.381,0-14.26,2.08-20.153,5.63c0.533-1.796,0.907-3.661,0.907-5.63
	c0-10.997-8.915-19.911-19.912-19.911c-5.671,0-10.758,2.397-14.385,6.202c-6.221-8.907-16.531-14.747-28.219-14.747
	c-17.321,0-31.614,12.81-34.019,29.466c-2.415-1.002-5.06-1.561-7.837-1.561c-11.302,0-20.463,9.162-20.463,20.463v203.538H1901.609
	z"/>
<rect x="1" y="697.084" fill="#13B7D9" width="1899" height="427.916"/>
</svg>
