<?xml version="1.0" encoding="utf-8"?>
<!-- Generator: Adobe Illustrator 17.0.0, SVG Export Plug-In . SVG Version: 6.00 Build 0)  -->
<!DOCTYPE svg PUBLIC "-//W3C//DTD SVG 1.1//EN" "http://www.w3.org/Graphics/SVG/1.1/DTD/svg11.dtd">
<svg version="1.1" id="Layer_1" xmlns="http://www.w3.org/2000/svg" xmlns:xlink="http://www.w3.org/1999/xlink" x="0px" y="0px"
	 width="200px" height="206px" viewBox="0 0 200 206" enable-background="new 0 0 200 206" xml:space="preserve">
<g>
	<circle fill="#EEB349" cx="60.185" cy="120.079" r="5.93"/>
	<circle fill="#CD8329" cx="60.185" cy="120.079" r="4.207"/>
</g>
<g>
	<path fill="#A06427" d="M59.977,122.593v-0.618c-0.355-0.006-0.723-0.117-0.937-0.27l0.147-0.41
		c0.22,0.147,0.539,0.263,0.882,0.263c0.435,0,0.729-0.251,0.729-0.601c0-0.337-0.239-0.545-0.692-0.729
		c-0.625-0.245-1.011-0.527-1.011-1.06c0-0.508,0.361-0.894,0.925-0.986v-0.619h0.38v0.595c0.368,0.012,0.619,0.11,0.797,0.214
		l-0.153,0.404c-0.128-0.073-0.38-0.209-0.772-0.209c-0.472,0-0.649,0.282-0.649,0.527c0,0.318,0.227,0.478,0.76,0.698
		c0.631,0.257,0.949,0.576,0.949,1.121c0,0.484-0.337,0.937-0.968,1.041v0.637H59.977z"/>
</g>
<ellipse opacity="0.3" fill="#AE9330" cx="106.534" cy="190.888" rx="37.103" ry="4.994"/>
<path fill="#FCB667" d="M113.251,48.723c-2.21-1.244-13.509,1.49-13.509,1.49s-1.719-0.983-9.333-1.474
	c-3.443-0.222-7.131,1.869-10.145,4.224c0.367,5.435,0.985,12.762,1.795,15.671c1.357,4.872,5.406,18.151,5.406,18.151l3.34,8.755
	l-0.408,1.583l3.538,2.905l15.311-1.376l-0.644-1.519c0.172,0.027,0.306,0.049,0.469,0.074c-0.697-4.581,2.169-14.058,3.843-16.569
	c1.736-2.604,4.758-12.004,4.758-12.004l8.106,9.702l0.982-15.521C126.759,62.814,115.461,49.967,113.251,48.723z"/>
<g>
	<polygon fill="#F6A859" points="85.552,50.221 91.526,46.92 91.526,37.645 101.744,37.645 101.744,45.505 111.019,50.85 
		86.181,51.95 	"/>
	<g>
		<g>
			<path fill="#FCB763" d="M86.727,25.282l3.497,15.213c0,0,18.798,6.208,22.47-7.17l-6.295-9.355l-2.623-7.694
				c0,0-8.568-1.749-16.7,3.41L86.727,25.282z"/>
			<path fill="#91351F" d="M98.181,29.692c-4.413,0.532-8.995-1.945-11.215-3.371l3.259,14.175c0,0,18.798,6.208,22.47-7.17
				l-4.456-6.623C105.793,28.135,102.418,29.182,98.181,29.692z"/>
			<g>
				<path fill="#67150F" d="M92.637,31.441c0,0,8.159,0.673,13.587-1.611c0.106-0.045,0.211-0.09,0.315-0.137l1.312,3.497
					C107.85,33.189,96.397,40.009,92.637,31.441z"/>
				<path fill="#FEF4F8" d="M107.277,31.661l-0.738-1.968c-0.104,0.047-0.209,0.093-0.315,0.137
					c-5.428,2.284-13.587,1.611-13.587,1.611S98.262,35.24,107.277,31.661z"/>
			</g>
			<path fill="#D06128" d="M94.798,34.534c2.658,1.87,6.265,1.279,8.973,0.364C99.281,32.873,94.866,34.508,94.798,34.534z"/>
			<g>
				<path fill="#91351F" d="M99.35,35.916h-0.001c-3.237,0-5.527-1.48-6.808-4.399l-0.089-0.202l0.22,0.018
					c0,0,0.807,0.066,2.048,0.086c0.505,0.009,1.082,0.01,1.71-0.004c0.658-0.014,1.321-0.043,1.969-0.086
					c1.85-0.123,3.564-0.372,5.091-0.738c0.335-0.08,0.666-0.169,1.012-0.27c0.671-0.198,1.209-0.385,1.693-0.589l0.441-0.194
					l1.399,3.731l-0.094,0.056C107.898,33.351,103.541,35.916,99.35,35.916z M92.871,31.61c1.251,2.683,3.429,4.043,6.478,4.043
					c3.78,0,7.708-2.129,8.364-2.5l-1.224-3.263l-0.191,0.082c-0.493,0.208-1.039,0.399-1.72,0.599
					c-0.351,0.102-0.686,0.192-1.025,0.273c-1.542,0.37-3.27,0.62-5.134,0.744c-0.654,0.044-1.321,0.073-1.982,0.087
					c-0.633,0.013-1.212,0.012-1.72,0.004C93.848,31.667,93.193,31.631,92.871,31.61z"/>
			</g>
		</g>
		<path fill="#3C2118" d="M106.832,19.904l-0.112-0.211l-0.845-1.668l-7.877,0.514l-0.059,0.697l-2.317,0.417l-0.471-0.654
			l-7.251,2.719l-3.07,4.741l1.777,0.151l2.018-3.163c0.79,2.635,1.844,2.974,2.549,2.839l-0.032,0.035
			c6.295-1.06,4.881-5.405,4.881-5.405l2.551-0.617c3.508,4.159,6.336,2.601,6.998,2.043c0.662-0.558,0.113-2.36,0.113-2.36
			L106.832,19.904z"/>
		<circle fill="#6F3C2F" cx="94.027" cy="21.312" r="1.005"/>
		<circle fill="#6F3C2F" cx="103.426" cy="19.651" r="1.005"/>
		<path fill="#F49D4E" d="M98.574,20.299l4.372,6.311c0,0-2.448,1.558-5.027,0.815l-1.895-6.508"/>
	</g>
	<g>
		<path fill="#91351F" d="M86.769,26.722c0.213,0.562,0.441,1.147,0.694,1.767l-0.126-2.86L86.769,26.722z"/>
		<path fill="#91351F" d="M106.832,10.165c0,0-2.406,2.026-5.493,2.122l1.082-2.122c0,0-10.145,4.823-15.695,5.113l-1.897,0.714
			c0,0-1.26,1.423,1.208,8.693l1.176-1.906l-0.136-3.092c0,0,8.719-5.015,16.7-3.41C103.776,16.277,108.466,15.277,106.832,10.165z"
			/>
	</g>
	<path fill="#FCB763" d="M86.769,26.722c0,0-1.613-0.645-2.095-0.112c-0.482,0.532,0.289,5.741,3.593,5.114l-1.18-5.325
		L86.769,26.722z"/>
	<g>
		<path fill="none" stroke="#F49D4E" stroke-width="0.25" stroke-miterlimit="10" d="M86.965,27.625c0,0-0.796-0.531-1.23,0.12
			c-0.434,0.651,0.386,2.653,1.23,3.135"/>
		<path fill="none" stroke="#F49D4E" stroke-width="0.25" stroke-miterlimit="10" d="M86.965,31.025
			c-0.025,0-0.049-0.006-0.072-0.019c-0.626-0.358-1.161-1.385-1.345-2.169c-0.086-0.361-0.142-0.857,0.067-1.172
			c0.214-0.32,0.541-0.444,0.927-0.366c0.278,0.057,0.495,0.2,0.504,0.206c0.067,0.044,0.085,0.134,0.04,0.201
			c-0.044,0.067-0.133,0.084-0.2,0.04c-0.027-0.018-0.682-0.441-1.029,0.08c-0.118,0.176-0.128,0.52-0.027,0.944
			c0.194,0.825,0.736,1.715,1.208,1.985c0.069,0.04,0.093,0.128,0.053,0.197C87.063,30.999,87.015,31.025,86.965,31.025z"/>
	</g>
</g>
<circle fill="#EE843E" cx="94.968" cy="71.778" r="1.034"/>
<circle fill="#EE843E" cx="114.857" cy="69.71" r="1.034"/>
<path fill="#F49D4E" d="M117.671,68.633c0,0,0.09-8.727-2.814-15.474l11.728,12.399l-0.808,12.777"/>
<path fill="#E46528" d="M153.512,185.393c4.332-15.698,24.517-109.399-11.828-147.327c-36.338,37.92-14.487,131.609-10.15,147.327
	C138.481,183.608,141.071,181.637,153.512,185.393z"/>
<g>
	<path fill="#CE5327" d="M134.123,98.802c-0.339-2.687-2.638-4.772-5.415-4.772c-3.01,0-5.458,2.449-5.458,5.458
		c0,3.01,2.449,5.458,5.458,5.458c0.836,0,1.625-0.194,2.334-0.532c-0.08,0.132-0.166,0.262-0.264,0.384
		c-0.559,0.692-1.355,1.124-2.24,1.217c-0.664,0.07-1.324-0.058-1.911-0.369c-0.645-0.344-1.446-0.098-1.79,0.547
		c-0.343,0.645-0.098,1.446,0.547,1.79c0.867,0.461,1.823,0.698,2.797,0.698c0.211,0,0.422-0.011,0.634-0.033
		c1.588-0.168,3.015-0.943,4.019-2.185c0.717-0.886,1.157-1.934,1.289-3.039C134.433,102.121,134.123,98.802,134.123,98.802z
		 M128.708,102.301c-1.55,0-2.812-1.261-2.812-2.812c0-1.551,1.261-2.812,2.812-2.812s2.812,1.261,2.812,2.812
		C131.52,101.039,130.258,102.301,128.708,102.301z"/>
	<path fill="#CE5327" d="M140.484,94.03c-0.83,0-1.615,0.19-2.319,0.524c-0.186,0.099-0.464,0.301-0.656,0.446v0
		c-1.146,0.88-2.484-0.172-2.484-0.172v0.321v0.598v11.612c0,0.731,0.592,1.323,1.323,1.323s1.323-0.592,1.323-1.323v-3.2
		c0.823,0.497,1.783,0.789,2.812,0.789c3.01,0,5.458-2.449,5.458-5.458C145.942,96.479,143.493,94.03,140.484,94.03z
		 M140.484,102.301c-1.55,0-2.812-1.261-2.812-2.812c0-1.551,1.261-2.812,2.812-2.812c1.55,0,2.812,1.261,2.812,2.812
		C143.295,101.039,142.034,102.301,140.484,102.301z"/>
	<g>
		<path fill="#CE5327" d="M152.507,104.681h-5.829c-0.701,0-1.27-0.568-1.27-1.27c0-0.701,0.568-1.27,1.27-1.27h5.829
			c0.434,0,0.788-0.353,0.788-0.788c0-0.434-0.353-0.788-0.788-0.788h-2.879c-1.834,0-3.326-1.492-3.326-3.327
			s1.492-3.327,3.326-3.327h4.009c0.701,0,1.27,0.568,1.27,1.27s-0.568,1.27-1.27,1.27h-4.009c-0.434,0-0.787,0.353-0.787,0.788
			s0.353,0.788,0.787,0.788h2.879c1.834,0,3.327,1.492,3.327,3.327C155.834,103.189,154.342,104.681,152.507,104.681z"/>
	</g>
	<circle fill="#CE5327" cx="138.731" cy="91.195" r="0.927"/>
	<path fill="#CE5327" d="M136.394,92.089c-0.756,0-1.369,0.613-1.369,1.369c0,0.756,0.613,1.369,1.369,1.369
		c0.756,0,1.369-0.613,1.369-1.369C137.764,92.702,137.151,92.089,136.394,92.089z M137.044,93.585h-0.523v0.523h-0.252v-0.523
		h-0.523v-0.252h0.523v-0.523h0.252v0.523h0.523V93.585z"/>
</g>
<path fill="#D75427" d="M152.498,182.64c1.497-6.848,3.151-14.701,4.041-20.803c5.447-19.918,4.221-57.155,4.221-57.155
	c0.772-39.569-19.078-62.667-19.078-62.667v138.715C144.856,180.609,148.894,180.926,152.498,182.64z"/>
<g>
	<path fill="#F9FAFD" d="M135.944,98.99c-0.339-2.687-2.638-4.772-5.415-4.772c-3.01,0-5.458,2.449-5.458,5.458
		c0,3.01,2.449,5.458,5.458,5.458c0.836,0,1.625-0.194,2.334-0.532c-0.08,0.132-0.166,0.262-0.264,0.384
		c-0.559,0.692-1.355,1.124-2.24,1.217c-0.664,0.07-1.324-0.058-1.911-0.369c-0.645-0.344-1.446-0.098-1.79,0.547
		c-0.343,0.645-0.098,1.446,0.547,1.79c0.867,0.461,1.823,0.698,2.797,0.698c0.211,0,0.422-0.011,0.634-0.033
		c1.588-0.168,3.015-0.943,4.019-2.185c0.717-0.886,1.157-1.934,1.289-3.039C136.254,102.308,135.944,98.99,135.944,98.99z
		 M130.529,102.488c-1.55,0-2.812-1.261-2.812-2.812c0-1.551,1.261-2.812,2.812-2.812s2.812,1.261,2.812,2.812
		C133.341,101.227,132.079,102.488,130.529,102.488z"/>
	<path fill="#F9FAFD" d="M142.304,94.218c-0.83,0-1.615,0.19-2.319,0.524c-0.186,0.099-0.464,0.301-0.656,0.446v0
		c-1.146,0.88-2.484-0.172-2.484-0.172v0.321v0.598v11.612c0,0.731,0.592,1.323,1.323,1.323s1.323-0.592,1.323-1.323v-3.2
		c0.823,0.497,1.783,0.789,2.812,0.789c3.01,0,5.458-2.449,5.458-5.458C147.762,96.666,145.314,94.218,142.304,94.218z
		 M142.304,102.488c-1.55,0-2.812-1.261-2.812-2.812c0-1.551,1.261-2.812,2.812-2.812s2.812,1.261,2.812,2.812
		C145.116,101.227,143.855,102.488,142.304,102.488z"/>
	<g>
		<path fill="#F9FAFD" d="M154.328,104.869h-5.829c-0.701,0-1.27-0.568-1.27-1.27c0-0.701,0.568-1.27,1.27-1.27h5.829
			c0.434,0,0.788-0.353,0.788-0.788c0-0.434-0.353-0.788-0.788-0.788h-2.879c-1.834,0-3.326-1.492-3.326-3.327
			s1.492-3.327,3.326-3.327h4.009c0.701,0,1.27,0.568,1.27,1.27c0,0.701-0.568,1.27-1.27,1.27h-4.009
			c-0.434,0-0.787,0.353-0.787,0.788s0.353,0.788,0.787,0.788h2.879c1.834,0,3.327,1.492,3.327,3.327
			C157.655,103.377,156.162,104.869,154.328,104.869z"/>
	</g>
	<circle fill="#F9FAFD" cx="140.552" cy="91.382" r="0.927"/>
	<path fill="#F9FAFD" d="M138.215,92.277c-0.756,0-1.369,0.613-1.369,1.369c0,0.756,0.613,1.369,1.369,1.369
		c0.756,0,1.369-0.613,1.369-1.369C139.584,92.89,138.971,92.277,138.215,92.277z M138.864,93.772h-0.523v0.523h-0.252v-0.523
		h-0.523V93.52h0.523v-0.523h0.252v0.523h0.523V93.772z"/>
</g>
<path fill="#E46528" d="M131.533,185.393c0,0,8.677-3.17,21.978,0l-2.23-1.799l-8.759-2.264l-7.345-1.195l-1.635,1.887"/>
<path fill="#F49D4E" d="M114.963,76.724c0.573-1.425,1.143-2.973,1.623-4.335c0,0-4.23,0.539-9.051,1.086l-2.172-4.255l-0.717,4.574
	h0.001c-4.221,0.455-8.362,0.839-10.13,0.817c-4.237-0.053-3.766-15.717-3.766-15.717c-0.966,0.453-1.893,0.711-2.786,0.85
	c-0.107,4.467-0.828,11.683-4.258,14.151l0,0l2.598,9.329l0.101,0.073l4.584,12.25l-0.408,1.582l3.538,2.905l4.512-0.405
	c-3.174-9.034-4.216-19.002-2.938-20.493C97.106,77.49,114.956,76.725,114.963,76.724z"/>
<g>
	<path fill="#FCB667" d="M85.556,92.957c0,0-6.71-4.101-7.751-7.435c-1.041-3.334-7.257-3.536-7.257-3.536l9.352-8.9
		c5.573-9.582,3.412-19.451,3.412-19.451c-7.535,0.685-14.803,12.27-14.803,12.27c-4.557,7.015-5.267,18.988-5.267,18.988
		C72.797,95.813,84.845,96.7,84.845,96.7c-4.382,2.536-2.045,5.767-2.045,5.767l-2.74,0.843l0.185,1.462l6.917,0.856l2.561-5.451
		c0.083-0.263,0.147-0.519,0.193-0.767C89.376,97.493,88.186,94.916,85.556,92.957z"/>
	<path opacity="0.6" fill="#F49D4E" d="M88.812,98.179l-0.037-0.295c-0.908-2.526-4.011-4.804-4.011-4.804l0,0
		c-2.372-1.684-7.546-5.524-8.415-7.597c-1.134-2.703-6.869-2.965-6.869-2.965s2.12-6.511,7.098-10.653
		c1.949-1.799,3.203-3.502,4.022-5.033c-1.009-0.54-1.972-1.14-2.838-1.791c-2.715-2.042-3.619-4.197-3.81-5.937
		c-3.288,3.327-5.429,6.9-5.429,6.9c-4.557,7.015-5.267,18.988-5.267,18.988c9.555,10.92,21.603,11.807,21.603,11.807
		c-4.382,2.536-2.045,5.767-2.045,5.767l-2.74,0.843l0.065,0.514l6.104,0.245c0,0,2.999-4.092,2.784-5.04
		c-0.005-0.249-0.048-0.497-0.106-0.746L88.812,98.179z"/>
</g>
<g>
	<path fill="#FCB667" d="M86.428,131.949c0,0,1.739,6.009,0,8.697s-3.268,6.325-2.108,14.865c1.16,8.539,0,28.306,0,28.306
		s-1.054,4.27-1.845,5.693c-0.791,1.423,1.107,2.887,9.014,1.68c0,0-1.581-3.262-2.688-5.95c-1.107-2.688,1.898-31.153,3.479-38.111
		c0,0,1.739-3.637,2.372-6.009c0.633-2.372,1.898-8.487,1.898-8.487S90.698,131.158,86.428,131.949z"/>
	<path fill="#F49D4E" d="M93.934,143.264c-4.572-1.683-5.726-7.728-5.984-11.496c-0.52,0.037-1.033,0.09-1.521,0.181
		c0,0,1.739,6.009,0,8.697c-1.739,2.688-3.268,6.325-2.109,14.865c1.16,8.539,0,28.306,0,28.306s-1.054,4.27-1.844,5.693
		c-0.791,1.423,1.107,2.886,9.014,1.68c0,0-1.581-3.262-2.688-5.95c-1.107-2.688,1.898-31.153,3.479-38.111
		C92.279,147.13,93.191,145.218,93.934,143.264z"/>
	<g>
		<path fill="#FCB667" d="M106.569,132.695c0,0,2.103,8.82,1.893,11.561s-0.843,8.223,2.108,14.759
			c2.952,6.536,9.699,20.241,9.488,22.982s-0.834,8.223,0.005,8.223c0,0,0.18,0.606,3.105,0.448
			c2.925-0.158,11.465,1.502,12.255,0.791s-3.874-2.214-8.065-5.535c-4.191-3.321-3.716-4.586-4.032-7.195
			c-0.316-2.609-5.456-30.046-5.456-30.046s-0.791-6.8-1.107-8.539s-1.221-8.711-1.221-8.711S109.816,131.729,106.569,132.695z"/>
		<path fill="#F49D4E" d="M127.359,185.925c-4.191-3.321-3.716-4.586-4.032-7.195c-0.316-2.609-5.456-30.046-5.456-30.046
			s-0.071-0.61-0.178-1.502c-7.864-1.475-9.482-10.39-9.798-14.819c-0.47,0.101-0.917,0.212-1.326,0.333
			c0,0,2.103,8.82,1.893,11.561c-0.211,2.741-0.843,8.223,2.108,14.759c2.952,6.536,9.699,20.241,9.488,22.982
			c-0.211,2.741-0.833,8.223,0.005,8.223c0,0,0.18,0.606,3.105,0.448c2.925-0.158,11.465,1.502,12.255,0.791
			S131.549,189.245,127.359,185.925z"/>
	</g>
	<g>
		<polygon fill="#FCD235" points="100.71,117.045 104.927,134.967 118.421,133.07 108.97,96.008 91.221,95.539 87.848,108.611 
			83.42,134.967 97.758,134.967 		"/>
		<g>
			<path fill="#DAAC27" d="M90.123,112.313c-1.134-1.701,1.459-11.962,2.725-16.64l-2.043-0.134l-3.373,13.072l-4.428,26.356h1.917
				C87.359,126.98,91.142,113.842,90.123,112.313z"/>
		</g>
		<path fill="#DAAC27" d="M103.56,106.62c0,0,1.733,6.302-2.85,10.425l1.882,7.997l-0.296-7.511
			C102.295,117.531,107.829,113.894,103.56,106.62z"/>
	</g>
</g>
<g>
	<path fill="#E46528" d="M91.333,129.994c-0.081-0.644-0.632-1.144-1.298-1.144c-0.721,0-1.308,0.587-1.308,1.308
		c0,0.721,0.587,1.308,1.308,1.308c0.2,0,0.39-0.047,0.56-0.127c-0.019,0.032-0.04,0.063-0.063,0.092
		c-0.134,0.166-0.325,0.269-0.537,0.292c-0.159,0.017-0.317-0.014-0.458-0.089c-0.155-0.082-0.347-0.024-0.429,0.131
		c-0.082,0.155-0.024,0.347,0.131,0.429c0.208,0.111,0.437,0.167,0.671,0.167c0.051,0,0.101-0.003,0.152-0.008
		c0.381-0.04,0.723-0.226,0.963-0.524c0.172-0.212,0.277-0.464,0.309-0.729C91.407,130.789,91.333,129.994,91.333,129.994z
		 M90.034,130.832c-0.372,0-0.674-0.302-0.674-0.674c0-0.372,0.302-0.674,0.674-0.674c0.372,0,0.674,0.302,0.674,0.674
		C90.709,130.53,90.406,130.832,90.034,130.832z"/>
	<path fill="#E46528" d="M92.857,128.85c-0.199,0-0.387,0.045-0.556,0.126c-0.045,0.024-0.111,0.072-0.157,0.107v0
		c-0.275,0.211-0.595-0.041-0.595-0.041v0.077v0.143v2.784c0,0.175,0.142,0.317,0.317,0.317s0.317-0.142,0.317-0.317v-0.767
		c0.197,0.119,0.427,0.189,0.674,0.189c0.721,0,1.308-0.587,1.308-1.308C94.166,129.437,93.579,128.85,92.857,128.85z
		 M92.857,130.832c-0.372,0-0.674-0.302-0.674-0.674c0-0.372,0.302-0.674,0.674-0.674c0.372,0,0.674,0.302,0.674,0.674
		C93.531,130.53,93.229,130.832,92.857,130.832z"/>
	<g>
		<path fill="#E46528" d="M95.74,131.403h-1.397c-0.168,0-0.304-0.136-0.304-0.304s0.136-0.304,0.304-0.304h1.397
			c0.104,0,0.189-0.085,0.189-0.189c0-0.104-0.085-0.189-0.189-0.189h-0.69c-0.44,0-0.797-0.358-0.797-0.797
			s0.358-0.797,0.797-0.797h0.961c0.168,0,0.304,0.136,0.304,0.304s-0.136,0.304-0.304,0.304h-0.961
			c-0.104,0-0.189,0.085-0.189,0.189s0.085,0.189,0.189,0.189h0.69c0.44,0,0.797,0.358,0.797,0.797S96.179,131.403,95.74,131.403z"
			/>
	</g>
	<circle fill="#E46528" cx="92.437" cy="128.17" r="0.222"/>
	<path fill="#E46528" d="M91.877,128.384c-0.181,0-0.328,0.147-0.328,0.328c0,0.181,0.147,0.328,0.328,0.328
		c0.181,0,0.328-0.147,0.328-0.328C92.205,128.531,92.058,128.384,91.877,128.384z M92.033,128.743h-0.125v0.125h-0.06v-0.125
		h-0.125v-0.06h0.125v-0.125h0.06v0.125h0.125V128.743z"/>
</g>
<ellipse opacity="0.3" fill-rule="evenodd" clip-rule="evenodd" fill="#9FA2A7" cx="50.384" cy="188.947" rx="21.823" ry="5.219"/>
<linearGradient id="SVGID_1_" gradientUnits="userSpaceOnUse" x1="52.5683" y1="161.179" x2="57.2417" y2="211.0287">
	<stop  offset="0" style="stop-color:#FFFFFF"/>
	<stop  offset="0.6221" style="stop-color:#616161"/>
</linearGradient>
<path fill="url(#SVGID_1_)" d="M65.972,140.48c-0.009-0.001-0.017-0.002-0.026-0.003c-7.01-0.792-15.363-0.724-21.538-0.497
	c-2.516,0.026-5.481,0.161-8.822,0.494c-0.019,0.002-0.032,0.003-0.032,0.003l0,0c-2.792,0.279-5.844,0.696-9.115,1.303
	c0,0,6.699,38.633,6.699,46.423c0,0,4.641,3.569,17.612,3.053c12.971,0.516,17.612-3.053,17.612-3.053
	c0-7.789,6.699-46.423,6.699-46.423C71.8,141.175,68.757,140.759,65.972,140.48z"/>
<linearGradient id="SVGID_2_" gradientUnits="userSpaceOnUse" x1="51.5338" y1="150.1253" x2="57.0381" y2="210.6718">
	<stop  offset="0" style="stop-color:#FFFFFF"/>
	<stop  offset="0.6221" style="stop-color:#616161"/>
</linearGradient>
<path fill="url(#SVGID_2_)" d="M29.393,159.296c11.366-1.242,28.362-1.842,42.249,2.935c1.697-10.804,3.419-20.731,3.419-20.731
	c-3.26-0.606-6.303-1.021-9.088-1.301c-0.009-0.001-0.017-0.002-0.026-0.003c-7.01-0.792-15.363-0.724-21.538-0.497
	c-2.516,0.026-5.481,0.161-8.822,0.494c-0.019,0.002-0.032,0.003-0.032,0.003l0,0c-2.792,0.279-5.844,0.696-9.116,1.303
	C26.439,141.499,27.86,149.694,29.393,159.296z"/>
<g>
	<path fill="#8B8C89" d="M62.266,171.534c-5.366,0-10.406-0.94-15.026-2.806c-4.556-1.84-8.715-4.58-12.36-8.144
		c-6.205-6.065-8.809-12.511-8.834-12.575l-0.115-0.29h1.732v-0.441h0.423v0.864h-1.523c0.58,1.315,3.225,6.877,8.625,12.151
		c5.664,5.532,15.611,11.871,30.828,10.667c0.206-0.034,4.931-0.857,7.483-5.044c2.139-3.509,2.195-8.335,0.166-14.343l0.401-0.135
		c2.072,6.135,2.002,11.081-0.208,14.703c-2.702,4.427-7.734,5.231-7.785,5.238l-0.015,0.002
		C64.777,171.483,63.512,171.534,62.266,171.534z"/>
</g>
<polygon fill-rule="evenodd" clip-rule="evenodd" fill="#FFFFFF" points="75.024,142.406 73.288,143.972 74.681,142.101 
	73.697,140.581 75.206,141.566 76.833,140.109 75.502,141.95 76.722,143.444 "/>
<g>
	<g>
		<path fill="#FCB667" d="M78.199,81.305c0,0-0.034-0.045-0.094-0.123l-5.966,1.758l-1.95,0.228
			c-0.448,0.352-1.298,1.068-2.088,1.981l0.001,0l-0.009,0.01c-0.127,0.147-0.252,0.299-0.374,0.456
			c-0.559,0.762-1.501,2.459-1.145,4.986c0.163,1.157,0.031,2.339-0.266,3.225c-0.67,3.174-2.221,6.501-2.221,6.501
			c-1.107,3.081-0.675,5.881-0.067,7.773c0.175,0.181,0.369,0.359,0.583,0.532l5.138,3.122l5.282-4.529l-0.653-1.319l-2.744,0.811
			c0,0,0.161-3.977-4.883-3.669C66.742,103.047,76.276,95.661,78.199,81.305z"/>
		<g>
			<path fill="#EF953B" d="M69.406,108.555l-1.243-1.222c-0.148-0.147-0.15-0.386-0.005-0.533c0.15-0.147,0.385-0.152,0.533-0.005
				l0.824,0.81c0.758-0.452,3.025-1.747,4.459-1.964c0.206-0.033,0.399,0.109,0.43,0.314c0.033,0.205-0.12,0.4-0.314,0.43
				c-1.561,0.246-4.405,1.996-4.433,2.015L69.406,108.555z"/>
		</g>
		<path fill="#FCB667" d="M82.955,56.8l0.49-4.432c-7.342,1.772-12.836,14.269-12.836,14.269
			c-3.364,7.334-2.509,18.685-2.448,19.445c0.78-0.265,1.992-0.72,3.326-1.36l0,0l1.167,4.182l5.545-7.598
			c0,0,0.539-1.357,1.11-3.168c0.041-0.145,1.419-5.036,1.043-8.242c0.252-0.569,0.837-3.467,1.388-6.392l0.872-3.605L82.955,56.8
			L82.955,56.8L82.955,56.8z"/>
	</g>
	<g>
		<path opacity="0.6" fill="#F49D4E" d="M83.317,53.524l0.128-1.157c-0.596,0.144-1.175,0.38-1.746,0.653L83.317,53.524z"/>
		<path opacity="0.6" fill="#F49D4E" d="M74.405,105.954c-0.012-0.083-0.065-0.144-0.121-0.199l-3.063,1.764
			c0,0-0.93-1.832-2.235-2.771c-1.305-0.939-3.482-0.332-3.231-2.235c0.251-1.904-0.409-0.529,4.371-5.693
			c4.78-5.163,4.006-10.065,3.359-11.449s-0.703-3.454,1.67-8.027c2.373-4.573,3.509-15.45,2.887-18.144
			c-0.248-1.074-0.145-2.405,0.066-3.621c-4.509,4.28-7.499,11.059-7.499,11.059c-2.888,6.299-2.666,15.541-2.507,18.512
			l-0.001,0.001l0,0.001l-0.009,0.01c-0.128,0.147-0.252,0.299-0.374,0.456c-0.559,0.762-1.501,2.458-1.145,4.986
			c0.163,1.157,0.031,2.339-0.266,3.225c-0.67,3.174-2.221,6.5-2.221,6.5c-1.108,3.081-0.675,5.881-0.068,7.773
			c0.175,0.181,0.37,0.359,0.584,0.532l5.138,3.122l5.282-4.529l-0.622-1.256C74.4,105.963,74.405,105.959,74.405,105.954z"/>
	</g>
</g>
<g>
	<path fill="#FCB667" d="M81.257,56.969l-0.405-4.248c-6.533,3.092-9.242,15.871-9.242,15.871
		c-1.721,7.527,1.294,17.994,1.499,18.694c0.679-0.4,1.726-1.063,2.85-1.922l0,0l1.909,3.69l3.713-8.199c0,0,0.24-1.377,0.422-3.184
		c0.01-0.144,0.347-4.994-0.631-7.925c0.125-0.583,0.108-3.411,0.054-6.259l0.114-3.548L81.257,56.969L81.257,56.969L81.257,56.969z
		"/>
	<g>
		<path fill="#FCB667" d="M71.929,105.463l-0.106,2.737l3.905,3.329c0,0,1.144-1.394-0.462-3.245l-0.371-0.4l0.135-2.393
			C75.03,105.492,74.337,104.318,71.929,105.463z"/>
		<path fill="#FCB667" d="M83.383,107.462l1.354-1.882l-0.476-0.92c-1.64,0.528-2.652,1.754-3.006,2.246
			c-1.167-0.516-2.989-0.95-2.989-0.95c-1.031-3.173-3.984-3.051-4.838-2.944c-0.149,0.018-0.234,0.037-0.234,0.037l-0.156,0.147
			c-2.144,1.188-0.588,4.038-0.588,4.038l9.311,2.483l5.344-0.342l0.273-1.196C86.426,107.507,84.67,107.422,83.383,107.462z"/>
		<g>
			<path fill="#EF953B" d="M75.967,111.405c-0.148,0.077-0.336,0.064-0.473-0.05c-0.184-0.15-0.212-0.421-0.062-0.605l0,0
				c0.036-0.047,0.881-1.156-0.453-2.69l-0.486-0.524l0.146-2.576c0.011-0.24,0.215-0.425,0.455-0.407
				c0.239,0.013,0.42,0.216,0.407,0.455l-0.123,2.21l0.245,0.265c1.47,1.69,0.954,3.233,0.478,3.812
				C76.064,111.342,76.018,111.379,75.967,111.405z"/>
		</g>
	</g>
	<path fill="#FCB667" d="M81.469,80.758l-5.246,2.811l-1.782,0.594c-0.351,0.417-1.007,1.253-1.57,2.263l0.001,0l-0.007,0.011
		c-0.091,0.163-0.177,0.329-0.261,0.5c-0.375,0.823-0.927,2.596-0.1,4.894c0.378,1.052,0.485,2.185,0.38,3.073
		c-0.009,3.104-0.813,6.523-0.813,6.523c-0.19,1.356-0.104,2.593,0.118,3.706c0.81-1.061,1.837-1.717,3.038-1.69
		c0.049,0.001,0.455,0.052,0.502,0.055c1.521-2.03,6.714-10.729,5.854-22.643C81.581,80.855,81.54,80.819,81.469,80.758z"/>
</g>
<g>
	<path fill="#8B8C89" d="M52.286,162.193v-2.087c-1.199-0.02-2.44-0.394-3.163-0.911l0.496-1.384
		c0.744,0.495,1.82,0.889,2.977,0.889c1.468,0,2.46-0.848,2.46-2.027c0-1.136-0.806-1.84-2.336-2.459
		c-2.109-0.828-3.411-1.779-3.411-3.577c0-1.715,1.22-3.018,3.122-3.328v-2.089h1.281v2.007c1.241,0.04,2.088,0.372,2.688,0.722
		l-0.518,1.365c-0.433-0.247-1.281-0.704-2.604-0.704c-1.592,0-2.192,0.951-2.192,1.779c0,1.074,0.765,1.613,2.564,2.357
		c2.129,0.867,3.204,1.943,3.204,3.783c0,1.633-1.137,3.163-3.267,3.515v2.15H52.286z"/>
</g>
</svg>
